<?xml version="1.0" encoding="UTF-8"?>
<svg xmlns="http://www.w3.org/2000/svg" xmlns:xlink="http://www.w3.org/1999/xlink" width="147pt" height="22pt" viewBox="0 0 147 22" version="1.1">
<g id="surface1">
<path fill="#FFFFFF" d="M27.02,17.832L27.02,20.711L27.738,20.711C28.727,20.711,29.422,20.629,29.422,19.285C29.422,17.93,28.715,17.832,27.738,17.832Z M27.02,13.953L27.02,16.832L27.453,16.832C28.445,16.832,29.152,16.734,29.152,15.379C29.152,14.035,28.445,13.953,27.453,13.953Z M25.773,12.922L27.492,12.922C29.23,12.922,30.438,13.371,30.438,15.34C30.438,16.355,30.031,16.938,29.449,17.266C30.18,17.551,30.711,18.16,30.711,19.324C30.711,21.266,29.516,21.742,27.781,21.742L25.773,21.742L25.773,12.922"/>
<path fill="#FFFFFF" d="M32.188,21.742L33.434,21.742L33.434,12.922L32.188,12.922Z M32.188,21.742"/>
<path fill="#FFFFFF" d="M39.184,17.332C39.184,14.566,38.902,13.848,37.762,13.848C36.621,13.848,36.348,14.566,36.348,17.332C36.348,20.098,36.621,20.816,37.762,20.816C38.902,20.816,39.184,20.098,39.184,17.332Z M35.062,17.332C35.062,13.684,35.93,12.762,37.762,12.762C39.648,12.762,40.473,13.641,40.473,17.332C40.473,20.996,39.605,21.902,37.762,21.902C35.891,21.902,35.062,21.035,35.062,17.332"/>
<path fill="#FFFFFF" d="M46.957,17.332C46.957,14.035,47.672,12.762,49.816,12.762C50.469,12.762,51.051,12.922,51.336,13.086L51.336,14.238C51.012,14.062,50.441,13.887,49.898,13.887C48.609,13.887,48.242,14.469,48.242,17.332C48.242,20.223,48.637,20.793,49.898,20.793C50.457,20.793,51.094,20.602,51.418,20.41L51.418,21.562C51.133,21.727,50.457,21.902,49.844,21.902C47.523,21.918,46.957,20.629,46.957,17.332"/>
<path fill="#FFFFFF" d="M52.84,21.742L54.09,21.742L54.09,12.922L52.84,12.922Z M52.84,21.742"/>
<path fill="#FFFFFF" d="M56.055,12.922L60.18,12.922L60.18,13.98L57.301,13.98L57.301,16.68L59.621,16.68L59.621,17.727L57.301,17.727L57.301,20.684L60.18,20.684L60.18,21.742L56.055,21.742L56.055,12.922"/>
<path fill="#FFFFFF" d="M61.82,12.922L63.258,12.922L66.035,19.949C65.941,19.23,65.859,18.391,65.859,17.602L65.859,12.922L67.055,12.922L67.055,21.742L65.617,21.742L62.809,14.688C62.918,15.406,63.012,16.262,63.012,17.062L63.012,21.742L61.82,21.742L61.82,12.922"/>
<path fill="#FFFFFF" d="M68.68,17.332C68.68,14.035,69.398,12.762,71.543,12.762C72.195,12.762,72.777,12.922,73.062,13.086L73.062,14.238C72.734,14.062,72.164,13.887,71.625,13.887C70.336,13.887,69.969,14.469,69.969,17.332C69.969,20.223,70.363,20.793,71.625,20.793C72.18,20.793,72.82,20.602,73.145,20.41L73.145,21.562C72.859,21.727,72.18,21.902,71.57,21.902C69.25,21.918,68.68,20.629,68.68,17.332"/>
<path fill="#FFFFFF" d="M74.566,12.922L78.691,12.922L78.691,13.98L75.816,13.98L75.816,16.68L78.137,16.68L78.137,17.727L75.816,17.727L75.816,20.684L78.691,20.684L78.691,21.742L74.566,21.742L74.566,12.922"/>
<path fill="#FFFFFF" d="M83.129,12.922L87.254,12.922L87.254,13.98L84.375,13.98L84.375,16.68L86.695,16.68L86.695,17.727L84.375,17.727L84.375,20.684L87.254,20.684L87.254,21.742L83.129,21.742L83.129,12.922"/>
<path fill="#FFFFFF" d="M88.891,12.922L90.328,12.922L93.109,19.949C93.016,19.23,92.934,18.391,92.934,17.602L92.934,12.922L94.129,12.922L94.129,21.742L92.688,21.742L89.883,14.688C89.988,15.406,90.086,16.262,90.086,17.062L90.086,21.742L88.891,21.742L88.891,12.922"/>
<path fill="#FFFFFF" d="M95.754,17.332C95.754,13.859,96.676,12.762,98.969,12.762C99.617,12.762,100.312,12.938,100.609,13.113L100.609,14.266C100.285,14.078,99.66,13.871,99.062,13.871C97.598,13.871,97.043,14.414,97.043,17.332C97.043,20.223,97.438,20.816,98.711,20.816C99.105,20.816,99.43,20.766,99.676,20.695L99.676,17.754L98.371,17.754L98.371,16.695L100.922,16.695L100.922,21.457C100.664,21.617,99.633,21.902,98.727,21.902C96.336,21.902,95.754,20.656,95.754,17.332"/>
<path fill="#FFFFFF" d="M102.766,21.742L104.016,21.742L104.016,12.922L102.766,12.922Z M102.766,21.742"/>
<path fill="#FFFFFF" d="M105.98,12.922L107.418,12.922L110.195,19.949C110.105,19.23,110.02,18.391,110.02,17.602L110.02,12.922L111.215,12.922L111.215,21.742L109.777,21.742L106.969,14.688C107.078,15.406,107.172,16.262,107.172,17.062L107.172,21.742L105.98,21.742L105.98,12.922"/>
<path fill="#FFFFFF" d="M113.18,12.922L117.305,12.922L117.305,13.98L114.43,13.98L114.43,16.68L116.746,16.68L116.746,17.727L114.43,17.727L114.43,20.684L117.305,20.684L117.305,21.742L113.18,21.742L113.18,12.922"/>
<path fill="#FFFFFF" d="M118.941,12.922L123.066,12.922L123.066,13.98L120.191,13.98L120.191,16.68L122.512,16.68L122.512,17.727L120.191,17.727L120.191,20.684L123.066,20.684L123.066,21.742L118.941,21.742L118.941,12.922"/>
<path fill="#FFFFFF" d="M125.953,13.98L125.953,17.09L126.621,17.09C127.598,17.09,128.246,16.883,128.246,15.527C128.246,14.184,127.598,13.98,126.621,13.98Z M124.707,12.922L126.742,12.922C128.371,12.922,129.535,13.535,129.535,15.527C129.535,16.926,128.859,17.602,128.004,17.914L129.875,21.742L128.449,21.742L126.797,18.145L125.953,18.145L125.953,21.742L124.707,21.742L124.707,12.922"/>
<path fill="#FFFFFF" d="M131.23,21.742L132.48,21.742L132.48,12.922L131.23,12.922Z M131.23,21.742"/>
<path fill="#FFFFFF" d="M134.445,12.922L135.883,12.922L138.664,19.949C138.566,19.23,138.484,18.391,138.484,17.602L138.484,12.922L139.68,12.922L139.68,21.742L138.242,21.742L135.434,14.688C135.543,15.406,135.641,16.262,135.641,17.062L135.641,21.742L134.445,21.742L134.445,12.922"/>
<path fill="#FFFFFF" d="M141.309,17.332C141.309,13.859,142.23,12.762,144.52,12.762C145.172,12.762,145.863,12.938,146.16,13.113L146.16,14.266C145.84,14.078,145.215,13.871,144.617,13.871C143.152,13.871,142.598,14.414,142.598,17.332C142.598,20.223,142.988,20.816,144.266,20.816C144.656,20.816,144.98,20.766,145.227,20.695L145.227,17.754L143.926,17.754L143.926,16.695L146.477,16.695L146.477,21.457C146.219,21.617,145.188,21.902,144.277,21.902C141.891,21.902,141.309,20.656,141.309,17.332"/>
<path fill="#FFFFFF" d="M25.773,0.48L29.762,0.48L29.762,1.539L27.02,1.539L27.02,4.238L29.219,4.238L29.219,5.281L27.02,5.281L27.02,9.297L25.773,9.297L25.773,0.48"/>
<path fill="#FFFFFF" d="M31.633,6.246L33.57,6.246L33.207,4.781C33.016,4.047,32.77,2.922,32.621,1.945C32.461,2.922,32.203,4.047,32.012,4.781Z M31.969,0.48L33.258,0.48L35.605,9.297L34.305,9.297L33.789,7.305L31.387,7.305L30.887,9.297L29.621,9.297L31.969,0.48"/>
<path fill="#FFFFFF" d="M36.242,4.891C36.242,1.594,36.961,0.316,39.102,0.316C39.758,0.316,40.34,0.48,40.621,0.645L40.621,1.797C40.297,1.621,39.727,1.445,39.184,1.445C37.898,1.445,37.531,2.027,37.531,4.891C37.531,7.777,37.922,8.348,39.184,8.348C39.742,8.348,40.379,8.156,40.707,7.969L40.707,9.121C40.418,9.285,39.742,9.461,39.133,9.461C36.812,9.473,36.242,8.184,36.242,4.891"/>
<path fill="#FFFFFF" d="M41.918,6.637L41.918,0.48L43.168,0.48L43.168,6.691C43.168,7.996,43.613,8.375,44.523,8.375C45.434,8.375,45.879,7.996,45.879,6.691L45.879,0.48L47.129,0.48L47.129,6.637C47.129,8.645,46.285,9.461,44.523,9.461C42.73,9.461,41.918,8.672,41.918,6.637"/>
<path fill="#FFFFFF" d="M49.023,0.48L50.273,0.48L50.273,8.238L53.012,8.238L53.012,9.297L49.023,9.297L49.023,0.48"/>
<path fill="#FFFFFF" d="M52.578,0.48L57.637,0.48L57.637,1.539L55.727,1.539L55.727,9.297L54.477,9.297L54.477,1.539L52.578,1.539L52.578,0.48"/>
<path fill="#FFFFFF" d="M60.535,5.637L58.121,0.48L59.492,0.48L60.535,2.855C60.781,3.426,61.012,4.035,61.16,4.578C61.324,4.035,61.566,3.426,61.812,2.855L62.855,0.48L64.184,0.48L61.785,5.637L61.785,9.297L60.535,9.297L60.535,5.637"/>
<path fill="#FFFFFF" d="M71.348,4.891C71.348,2.121,71.066,1.402,69.926,1.402C68.785,1.402,68.516,2.121,68.516,4.891C68.516,7.656,68.785,8.375,69.926,8.375C71.066,8.375,71.348,7.656,71.348,4.891Z M67.227,4.891C67.227,1.242,68.094,0.316,69.926,0.316C71.812,0.316,72.637,1.199,72.637,4.891C72.637,8.551,71.77,9.461,69.926,9.461C68.055,9.461,67.227,8.594,67.227,4.891"/>
<path fill="#FFFFFF" d="M74.266,0.48L78.254,0.48L78.254,1.539L75.512,1.539L75.512,4.238L77.711,4.238L77.711,5.281L75.512,5.281L75.512,9.297L74.266,9.297L74.266,0.48"/>
<path fill="#FFFFFF" d="M44.32,13.832C44.867,13.828,45.391,14.008,45.629,14.195L45.629,13.074C45.391,12.926,44.801,12.762,44.211,12.762C42.555,12.762,41.645,13.703,41.645,15.07C41.645,16.207,42.125,16.754,42.902,17.426L43.609,18.039C44.199,18.527,44.559,18.906,44.559,19.641C44.559,20.496,43.992,20.836,43.145,20.836C42.5,20.836,41.965,20.66,41.656,20.445L41.656,21.59C41.926,21.746,42.492,21.906,43.254,21.906C44.906,21.902,45.816,20.961,45.82,19.598C45.82,18.461,45.336,17.914,44.559,17.242L43.852,16.629C43.266,16.125,42.898,15.762,42.902,15.031C42.902,14.168,43.465,13.832,44.32,13.832"/>
<path fill="#FFFFFF" d="M10.891,8.539C9.469,8.539,8.316,9.691,8.316,11.109C8.316,12.531,9.469,13.684,10.891,13.684C12.309,13.684,13.461,12.531,13.461,11.109C13.461,9.691,12.309,8.539,10.891,8.539Z M12.215,11.109C12.215,11.844,11.621,12.434,10.891,12.434C10.156,12.434,9.566,11.844,9.566,11.109C9.566,10.379,10.156,9.785,10.891,9.785C11.621,9.785,12.215,10.379,12.215,11.109"/>
<path fill="#FFFFFF" d="M16.27,1.641C14.852,1.641,13.699,2.793,13.699,4.211C13.699,5.633,14.852,6.785,16.27,6.785C17.691,6.785,18.844,5.633,18.844,4.211C18.844,2.793,17.691,1.641,16.27,1.641Z M17.594,4.211C17.594,4.945,17.004,5.539,16.27,5.539C15.539,5.539,14.945,4.945,14.945,4.211C14.945,3.48,15.539,2.887,16.27,2.887C17.004,2.887,17.594,3.48,17.594,4.211"/>
<path fill="#FFFFFF" d="M10.891,1.727C11.18,1.727,11.465,1.746,11.746,1.77L11.859,0.531C11.539,0.5,11.219,0.48,10.891,0.48C5.02,0.48,0.262,5.238,0.262,11.109C0.262,16.98,5.02,21.742,10.891,21.742C16.762,21.742,21.52,16.98,21.52,11.109C21.52,9.879,21.301,8.703,20.914,7.605L19.738,8.016C20.078,8.988,20.273,10.023,20.273,11.109C20.273,16.293,16.07,20.492,10.891,20.492C5.707,20.492,1.508,16.293,1.508,11.109C1.508,5.93,5.707,1.727,10.891,1.727"/>
<path fill="#FFFFFF" d="M10.891,4.223C11.102,4.223,11.309,4.234,11.52,4.254L11.633,3.012C11.387,2.992,11.141,2.977,10.891,2.977C6.398,2.977,2.754,6.617,2.754,11.109C2.754,15.602,6.398,19.246,10.891,19.246C15.383,19.246,19.027,15.602,19.027,11.109C19.027,10.168,18.855,9.27,18.562,8.426L17.387,8.84C17.637,9.551,17.777,10.312,17.777,11.109C17.777,14.914,14.695,18,10.891,18C7.086,18,4,14.914,4,11.109C4,7.305,7.086,4.223,10.891,4.223"/>
</g>
</svg>
