<?xml version="1.0" encoding="UTF-8"?>
<svg xmlns="http://www.w3.org/2000/svg" xmlns:xlink="http://www.w3.org/1999/xlink" width="125pt" height="22pt" viewBox="0 0 125 22" version="1.1">
<g>
<path fill="#FFFFFF" d="
M27.02,13.98v3.105h0.664c0.977,0,1.629,-0.203,1.629,-1.559c0,-1.344,-0.652,-1.547,-1.629,-1.547ZM25.773,12.922h2.031c1.629,0,2.797,0.609,2.797,2.605c0,1.398,-0.68,2.074,-1.535,2.387l1.875,3.824h-1.426l-1.656,-3.594h-0.84v3.594h-1.246v-8.816
M32.293,12.922h4.125v1.059h-2.875v2.699h2.32v1.043h-2.32v2.961h2.875v1.055h-4.125Z
M37.516,17.332c0,-3.297,0.719,-4.574,2.863,-4.574c0.648,0,1.234,0.164,1.52,0.328v1.152c-0.328,-0.176,-0.898,-0.352,-1.438,-0.352c-1.289,0,-1.656,0.582,-1.656,3.445c0,2.887,0.395,3.457,1.656,3.457c0.555,0,1.191,-0.188,1.516,-0.379v1.152c-0.281,0.164,-0.961,0.34,-1.57,0.34c-2.32,0.016,-2.891,-1.273,-2.891,-4.57
M47.336,17.738h-2.688v4h-1.246v-8.816h1.246v3.758h2.688v-3.758h1.246v8.816h-1.246Z
M49.625,12.922h5.059v1.059h-1.91v7.758h-1.25v-7.758h-1.898Z
M60.465,17.332c0,-3.473,0.922,-4.574,3.211,-4.574c0.652,0,1.344,0.18,1.645,0.355v1.152c-0.328,-0.191,-0.949,-0.395,-1.547,-0.395c-1.465,0,-2.023,0.543,-2.023,3.461c0,2.887,0.395,3.484,1.668,3.484c0.395,0,0.723,-0.055,0.965,-0.121v-2.945h-1.301v-1.055h2.551v4.758c-0.262,0.164,-1.289,0.449,-2.199,0.449c-2.387,0,-2.969,-1.246,-2.969,-4.57
M67.473,12.922h4.125v1.059h-2.875v2.699h2.32v1.043h-2.32v2.961h2.875v1.055h-4.125Z
M73.238,12.922h1.246v7.762h2.742v1.055h-3.988Z
M78.418,12.922h4.125v1.059h-2.875v2.699h2.316v1.043h-2.316v2.961h2.875v1.055h-4.125Z
M84.184,12.922h4.121v1.059h-2.875v2.699h2.32v1.043h-2.32v2.961h2.875v1.055h-4.121Z
M91.195,13.98v3.105h0.664c0.977,0,1.625,-0.203,1.625,-1.559c0,-1.344,-0.648,-1.547,-1.625,-1.547ZM89.945,12.922h2.035c1.629,0,2.793,0.609,2.793,2.605c0,1.398,-0.676,2.074,-1.531,2.387l1.871,3.824h-1.422l-1.656,-3.594h-0.84v3.594h-1.25v-8.816
M97.719,13.953v6.754h0.961c1.273,0,1.656,-0.582,1.656,-3.375c0,-2.797,-0.383,-3.379,-1.656,-3.379ZM96.469,12.922h2.305c2.309,0,2.852,1.234,2.852,4.41c0,3.133,-0.559,4.406,-2.852,4.406h-2.305v-8.816
M107.184,17.738h-2.688v4h-1.246v-8.816h1.246v3.758h2.688v-3.758h1.25v8.816h-1.25Z
M110.395,12.922h4.125v1.059h-2.875v2.699h2.32v1.043h-2.32v2.961h2.875v1.055h-4.125Z
M116.16,21.738h1.246v-8.816h-1.246Z
M120.621,13.953v6.754h0.965c1.273,0,1.652,-0.582,1.652,-3.375c0,-2.797,-0.379,-3.379,-1.652,-3.379ZM119.375,12.922h2.305c2.305,0,2.848,1.234,2.848,4.41c0,3.133,-0.555,4.406,-2.848,4.406h-2.305v-8.816
M25.773,0.48h3.988v1.059h-2.742v2.699h2.199v1.043h-2.199v4.016h-1.246Z
M31.633,6.246h1.938l-0.367,-1.469c-0.188,-0.73,-0.434,-1.855,-0.582,-2.832c-0.164,0.977,-0.422,2.102,-0.609,2.832ZM31.969,0.48h1.289l2.348,8.816h-1.301l-0.516,-1.996h-2.402l-0.5,1.996h-1.266l2.348,-8.816
M36.242,4.887c0,-3.297,0.719,-4.57,2.859,-4.57c0.652,0,1.238,0.164,1.52,0.324v1.152c-0.324,-0.176,-0.895,-0.352,-1.438,-0.352c-1.285,0,-1.652,0.586,-1.652,3.445c0,2.891,0.391,3.461,1.652,3.461c0.559,0,1.195,-0.191,1.52,-0.379v1.152c-0.285,0.16,-0.961,0.34,-1.57,0.34c-2.32,0.012,-2.891,-1.277,-2.891,-4.574
M41.918,6.637v-6.156h1.246v6.211c0,1.305,0.449,1.684,1.359,1.684c0.906,0,1.355,-0.379,1.355,-1.684v-6.211h1.25v6.156c0,2.008,-0.844,2.824,-2.605,2.824c-1.793,0,-2.605,-0.789,-2.605,-2.824
M49.023,0.48h1.25v7.758h2.738v1.059h-3.988Z
M52.578,0.48h5.059v1.059h-1.914v7.758h-1.246v-7.758h-1.898Z
M58.68,0.48h4.125v1.059h-2.875v2.699h2.316v1.043h-2.316v2.957h2.875v1.059h-4.125Z
M64.445,9.297h1.246v-8.816h-1.246Z
M66.734,0.48h5.059v1.059h-1.91v7.758h-1.246v-7.758h-1.902Z
M8.918,16.754l-3.734,-8.191h-1.191l-3.73,8.191h1.367l2.961,-6.492l2.957,6.492Z
M21.52,16.754l-3.734,-8.191h-1.188l-3.734,8.191h1.367l2.961,-6.492l2.961,6.492Z
M57.824,13.828c0.551,0,1.07,0.18,1.309,0.367v-1.125c-0.238,-0.145,-0.824,-0.309,-1.418,-0.309c-1.656,0,-2.566,0.941,-2.566,2.309c0,1.137,0.484,1.684,1.258,2.355l0.711,0.613c0.586,0.488,0.949,0.867,0.949,1.602c0,0.855,-0.566,1.195,-1.414,1.195c-0.645,0,-1.184,-0.18,-1.492,-0.391v1.145c0.273,0.156,0.84,0.316,1.602,0.312c1.652,-0.004,2.562,-0.941,2.566,-2.305c0,-1.137,-0.484,-1.688,-1.262,-2.355l-0.707,-0.613c-0.59,-0.504,-0.953,-0.867,-0.953,-1.598c0.004,-0.863,0.566,-1.199,1.418,-1.203
M8.918,20.492h-8.656l1.246,1.246h6.16Z
M21.52,20.492h-8.656l1.246,1.246h6.164Z
M0.262,19.246h8.656v-1.246h-8.656Z
M4.562,7.316h12.656l-0.57,-1.246h-11.52Z
M12.863,19.246h8.656v-1.246h-8.656Z
M12.863,0.48h-3.945v1.246h1.348v3.098h1.246v-3.098h1.352Z
"/>
</g>
</svg>
