<?xml version="1.0" encoding="UTF-8"?>
<svg xmlns="http://www.w3.org/2000/svg" xmlns:xlink="http://www.w3.org/1999/xlink" width="154pt" height="22pt" viewBox="0 0 154 22" version="1.1">
<g id="surface1">
<path fill="#FFFFFF" d="M23.117,18.688L25.059,18.688L24.691,17.223C24.504,16.488,24.258,15.363,24.109,14.387C23.945,15.363,23.688,16.488,23.5,17.223Z M23.457,12.922L24.746,12.922L27.094,21.738L25.789,21.738L25.277,19.746L22.875,19.746L22.371,21.738L21.109,21.738L23.457,12.922"/>
<path fill="#FFFFFF" d="M28.07,12.922L29.508,12.922L32.285,19.949C32.191,19.23,32.109,18.391,32.109,17.602L32.109,12.922L33.305,12.922L33.305,21.738L31.867,21.738L29.059,14.688C29.168,15.406,29.262,16.258,29.262,17.059L29.262,21.738L28.07,21.738L28.07,12.922"/>
<path fill="#FFFFFF" d="M36.52,13.953L36.52,20.707L37.48,20.707C38.758,20.707,39.137,20.125,39.137,17.332C39.137,14.535,38.758,13.953,37.48,13.953Z M35.27,12.922L37.574,12.922C39.883,12.922,40.426,14.156,40.426,17.332C40.426,20.465,39.867,21.738,37.574,21.738L35.27,21.738L35.27,12.922"/>
<path fill="#FFFFFF" d="M44.848,12.922L48.973,12.922L48.973,13.98L46.094,13.98L46.094,16.68L48.414,16.68L48.414,17.723L46.094,17.723L46.094,20.684L48.973,20.684L48.973,21.738L44.848,21.738L44.848,12.922"/>
<path fill="#FFFFFF" d="M51.859,13.953L51.859,20.707L52.824,20.707C54.098,20.707,54.477,20.125,54.477,17.332C54.477,14.535,54.098,13.953,52.824,13.953Z M50.613,12.922L52.918,12.922C55.223,12.922,55.766,14.156,55.766,17.332C55.766,20.465,55.211,21.738,52.918,21.738L50.613,21.738L50.613,12.922"/>
<path fill="#FFFFFF" d="M57.324,19.082L57.324,12.922L58.574,12.922L58.574,19.137C58.574,20.438,59.02,20.816,59.93,20.816C60.84,20.816,61.285,20.438,61.285,19.137L61.285,12.922L62.535,12.922L62.535,19.082C62.535,21.09,61.691,21.902,59.93,21.902C58.141,21.902,57.324,21.117,57.324,19.082"/>
<path fill="#FFFFFF" d="M64.094,17.332C64.094,14.035,64.812,12.762,66.953,12.762C67.605,12.762,68.188,12.922,68.473,13.086L68.473,14.238C68.148,14.062,67.578,13.887,67.035,13.887C65.746,13.887,65.383,14.469,65.383,17.332C65.383,20.219,65.773,20.789,67.035,20.789C67.594,20.789,68.23,20.602,68.555,20.41L68.555,21.562C68.27,21.727,67.594,21.902,66.98,21.902C64.66,21.918,64.094,20.629,64.094,17.332"/>
<path fill="#FFFFFF" d="M71.184,18.688L73.125,18.688L72.758,17.223C72.566,16.488,72.324,15.363,72.176,14.387C72.012,15.363,71.754,16.488,71.562,17.223Z M71.523,12.922L72.812,12.922L75.16,21.738L73.855,21.738L73.34,19.746L70.941,19.746L70.438,21.738L69.176,21.738L71.523,12.922"/>
<path fill="#FFFFFF" d="M75.008,12.922L80.066,12.922L80.066,13.98L78.156,13.98L78.156,21.738L76.906,21.738L76.906,13.98L75.008,13.98L75.008,12.922"/>
<path fill="#FFFFFF" d="M81.109,21.738L82.359,21.738L82.359,12.922L81.109,12.922Z M81.109,21.738"/>
<path fill="#FFFFFF" d="M88.109,17.332C88.109,14.562,87.824,13.844,86.684,13.844C85.547,13.844,85.273,14.562,85.273,17.332C85.273,20.098,85.547,20.816,86.684,20.816C87.824,20.816,88.109,20.098,88.109,17.332Z M83.984,17.332C83.984,13.684,84.855,12.762,86.684,12.762C88.57,12.762,89.398,13.641,89.398,17.332C89.398,20.992,88.531,21.902,86.684,21.902C84.812,21.902,83.984,21.035,83.984,17.332"/>
<path fill="#FFFFFF" d="M91.023,12.922L92.461,12.922L95.242,19.949C95.148,19.23,95.066,18.391,95.066,17.602L95.066,12.922L96.262,12.922L96.262,21.738L94.82,21.738L92.016,14.688C92.121,15.406,92.219,16.258,92.219,17.059L92.219,21.738L91.023,21.738L91.023,12.922"/>
<path fill="#FFFFFF" d="M99.242,18.688L101.184,18.688L100.816,17.223C100.625,16.488,100.383,15.363,100.234,14.387C100.07,15.363,99.812,16.488,99.621,17.223Z M99.582,12.922L100.871,12.922L103.219,21.738L101.914,21.738L101.398,19.746L99,19.746L98.496,21.738L97.234,21.738L99.582,12.922"/>
<path fill="#FFFFFF" d="M104.191,12.922L105.441,12.922L105.441,20.684L108.18,20.684L108.18,21.738L104.191,21.738L104.191,12.922"/>
<path fill="#FFFFFF" d="M116.688,17.332C116.688,14.035,117.406,12.762,119.551,12.762C120.199,12.762,120.785,12.922,121.066,13.086L121.066,14.238C120.742,14.062,120.172,13.887,119.629,13.887C118.344,13.887,117.977,14.469,117.977,17.332C117.977,20.219,118.367,20.789,119.629,20.789C120.188,20.789,120.824,20.602,121.148,20.41L121.148,21.562C120.863,21.727,120.188,21.902,119.574,21.902C117.258,21.918,116.688,20.629,116.688,17.332"/>
<path fill="#FFFFFF" d="M122.574,21.738L123.82,21.738L123.82,12.922L122.574,12.922Z M122.574,21.738"/>
<path fill="#FFFFFF" d="M125.785,12.922L129.91,12.922L129.91,13.98L127.035,13.98L127.035,16.68L129.355,16.68L129.355,17.723L127.035,17.723L127.035,20.684L129.91,20.684L129.91,21.738L125.785,21.738L125.785,12.922"/>
<path fill="#FFFFFF" d="M131.551,12.922L132.988,12.922L135.77,19.949C135.676,19.23,135.594,18.391,135.594,17.602L135.594,12.922L136.785,12.922L136.785,21.738L135.348,21.738L132.539,14.688C132.648,15.406,132.742,16.258,132.742,17.059L132.742,21.738L131.551,21.738L131.551,12.922"/>
<path fill="#FFFFFF" d="M138.414,17.332C138.414,14.035,139.133,12.762,141.273,12.762C141.926,12.762,142.508,12.922,142.793,13.086L142.793,14.238C142.469,14.062,141.898,13.887,141.355,13.887C140.066,13.887,139.699,14.469,139.699,17.332C139.699,20.219,140.094,20.789,141.355,20.789C141.91,20.789,142.551,20.602,142.875,20.41L142.875,21.562C142.59,21.727,141.91,21.902,141.301,21.902C138.98,21.918,138.414,20.629,138.414,17.332"/>
<path fill="#FFFFFF" d="M144.297,12.922L148.422,12.922L148.422,13.98L145.547,13.98L145.547,16.68L147.867,16.68L147.867,17.723L145.547,17.723L145.547,20.684L148.422,20.684L148.422,21.738L144.297,21.738L144.297,12.922"/>
<path fill="#FFFFFF" d="M22.086,0.48L26.074,0.48L26.074,1.539L23.332,1.539L23.332,4.238L25.531,4.238L25.531,5.281L23.332,5.281L23.332,9.297L22.086,9.297L22.086,0.48"/>
<path fill="#FFFFFF" d="M27.945,6.246L29.883,6.246L29.52,4.777C29.328,4.047,29.086,2.922,28.934,1.945C28.773,2.922,28.516,4.047,28.324,4.777Z M28.285,0.48L29.574,0.48L31.918,9.297L30.617,9.297L30.102,7.301L27.699,7.301L27.199,9.297L25.938,9.297L28.285,0.48"/>
<path fill="#FFFFFF" d="M32.555,4.887C32.555,1.59,33.273,0.316,35.418,0.316C36.07,0.316,36.652,0.48,36.938,0.641L36.938,1.793C36.609,1.617,36.043,1.441,35.5,1.441C34.211,1.441,33.844,2.027,33.844,4.887C33.844,7.777,34.238,8.348,35.5,8.348C36.055,8.348,36.691,8.156,37.02,7.969L37.02,9.121C36.734,9.281,36.055,9.461,35.445,9.461C33.125,9.473,32.555,8.184,32.555,4.887"/>
<path fill="#FFFFFF" d="M38.23,6.637L38.23,0.48L39.48,0.48L39.48,6.691C39.48,7.996,39.926,8.375,40.836,8.375C41.746,8.375,42.195,7.996,42.195,6.691L42.195,0.48L43.441,0.48L43.441,6.637C43.441,8.645,42.598,9.461,40.836,9.461C39.047,9.461,38.23,8.672,38.23,6.637"/>
<path fill="#FFFFFF" d="M45.34,0.48L46.586,0.48L46.586,8.238L49.328,8.238L49.328,9.297L45.34,9.297L45.34,0.48"/>
<path fill="#FFFFFF" d="M48.891,0.48L53.953,0.48L53.953,1.539L52.039,1.539L52.039,9.297L50.789,9.297L50.789,1.539L48.891,1.539L48.891,0.48"/>
<path fill="#FFFFFF" d="M56.848,5.633L54.434,0.48L55.805,0.48L56.848,2.852C57.094,3.422,57.324,4.031,57.473,4.574C57.637,4.031,57.883,3.422,58.125,2.852L59.168,0.48L60.5,0.48L58.098,5.633L58.098,9.297L56.848,9.297L56.848,5.633"/>
<path fill="#FFFFFF" d="M67.664,4.887C67.664,2.121,67.379,1.402,66.238,1.402C65.098,1.402,64.828,2.121,64.828,4.887C64.828,7.656,65.098,8.375,66.238,8.375C67.379,8.375,67.664,7.656,67.664,4.887Z M63.539,4.887C63.539,1.238,64.406,0.316,66.238,0.316C68.125,0.316,68.953,1.199,68.953,4.887C68.953,8.551,68.086,9.461,66.238,9.461C64.367,9.461,63.539,8.59,63.539,4.887"/>
<path fill="#FFFFFF" d="M70.578,0.48L74.566,0.48L74.566,1.539L71.828,1.539L71.828,4.238L74.023,4.238L74.023,5.281L71.828,5.281L71.828,9.297L70.578,9.297L70.578,0.48"/>
<path fill="#FFFFFF" d="M79.652,1.539L79.652,5.051L80.387,5.051C81.363,5.051,81.895,4.699,81.895,3.285C81.895,1.875,81.363,1.539,80.387,1.539Z M78.406,0.48L80.523,0.48C82.191,0.48,83.184,1.184,83.184,3.285C83.184,5.336,82.148,6.094,80.523,6.094L79.652,6.094L79.652,9.297L78.406,9.297L78.406,0.48"/>
<path fill="#FFFFFF" d="M90.918,5.633L88.504,0.48L89.871,0.48L90.918,2.852C91.16,3.422,91.391,4.031,91.539,4.574C91.703,4.031,91.949,3.422,92.191,2.852L93.238,0.48L94.566,0.48L92.164,5.633L92.164,9.297L90.918,9.297L90.918,5.633"/>
<path fill="#FFFFFF" d="M94.945,4.887C94.945,1.59,95.664,0.316,97.805,0.316C98.457,0.316,99.039,0.48,99.324,0.641L99.324,1.793C99,1.617,98.43,1.441,97.887,1.441C96.598,1.441,96.234,2.027,96.234,4.887C96.234,7.777,96.625,8.348,97.887,8.348C98.445,8.348,99.082,8.156,99.406,7.969L99.406,9.121C99.121,9.281,98.445,9.461,97.832,9.461C95.516,9.473,94.945,8.184,94.945,4.887"/>
<path fill="#FFFFFF" d="M104.766,5.293L102.078,5.293L102.078,9.297L100.828,9.297L100.828,0.48L102.078,0.48L102.078,4.238L104.766,4.238L104.766,0.48L106.012,0.48L106.012,9.297L104.766,9.297L104.766,5.293"/>
<path fill="#FFFFFF" d="M111.762,4.887C111.762,2.121,111.477,1.402,110.336,1.402C109.199,1.402,108.926,2.121,108.926,4.887C108.926,7.656,109.199,8.375,110.336,8.375C111.477,8.375,111.762,7.656,111.762,4.887Z M107.637,4.887C107.637,1.238,108.508,0.316,110.336,0.316C112.223,0.316,113.051,1.199,113.051,4.887C113.051,8.551,112.184,9.461,110.336,9.461C108.465,9.461,107.637,8.59,107.637,4.887"/>
<path fill="#FFFFFF" d="M114.676,0.48L115.926,0.48L115.926,8.238L118.664,8.238L118.664,9.297L114.676,9.297L114.676,0.48"/>
<path fill="#FFFFFF" d="M123.234,4.887C123.234,2.121,122.949,1.402,121.812,1.402C120.672,1.402,120.398,2.121,120.398,4.887C120.398,7.656,120.672,8.375,121.812,8.375C122.949,8.375,123.234,7.656,123.234,4.887Z M119.109,4.887C119.109,1.238,119.98,0.316,121.812,0.316C123.695,0.316,124.523,1.199,124.523,4.887C124.523,8.551,123.656,9.461,121.812,9.461C119.938,9.461,119.109,8.59,119.109,4.887"/>
<path fill="#FFFFFF" d="M125.879,4.887C125.879,1.414,126.801,0.316,129.094,0.316C129.742,0.316,130.438,0.492,130.734,0.668L130.734,1.82C130.41,1.633,129.785,1.43,129.188,1.43C127.723,1.43,127.168,1.973,127.168,4.887C127.168,7.777,127.559,8.375,128.836,8.375C129.23,8.375,129.555,8.32,129.797,8.25L129.797,5.309L128.496,5.309L128.496,4.25L131.047,4.25L131.047,9.012C130.789,9.176,129.758,9.461,128.848,9.461C126.461,9.461,125.879,8.211,125.879,4.887"/>
<path fill="#FFFFFF" d="M133.988,5.633L131.574,0.48L132.945,0.48L133.988,2.852C134.23,3.422,134.465,4.031,134.613,4.574C134.773,4.031,135.02,3.422,135.266,2.852L136.309,0.48L137.637,0.48L135.234,5.633L135.234,9.297L133.988,9.297L133.988,5.633"/>
<path fill="#FFFFFF" d="M86.781,1.387C87.332,1.383,87.852,1.566,88.09,1.754L88.09,0.629C87.852,0.48,87.266,0.32,86.672,0.32C85.016,0.32,84.105,1.262,84.105,2.625C84.105,3.766,84.59,4.312,85.363,4.98L86.074,5.594C86.66,6.086,87.023,6.461,87.023,7.195C87.023,8.055,86.457,8.395,85.605,8.395C84.961,8.395,84.426,8.215,84.117,8L84.117,9.145C84.391,9.301,84.953,9.461,85.719,9.461C87.367,9.457,88.281,8.52,88.281,7.152C88.285,6.016,87.801,5.469,87.023,4.801L86.312,4.184C85.727,3.684,85.363,3.32,85.363,2.586C85.367,1.727,85.93,1.387,86.781,1.387"/>
<path fill="#FFFFFF" d="M114.051,13.828C114.602,13.828,115.121,14.008,115.359,14.195L115.359,13.07C115.121,12.926,114.535,12.762,113.941,12.762C112.285,12.762,111.375,13.703,111.375,15.07C111.375,16.207,111.855,16.754,112.633,17.426L113.344,18.039C113.93,18.527,114.293,18.906,114.293,19.641C114.293,20.496,113.727,20.836,112.875,20.836C112.23,20.836,111.695,20.656,111.387,20.445L111.387,21.59C111.656,21.746,112.223,21.906,112.984,21.902C114.637,21.898,115.551,20.961,115.551,19.598C115.555,18.461,115.066,17.91,114.293,17.242L113.582,16.629C112.996,16.125,112.633,15.762,112.633,15.031C112.637,14.168,113.195,13.832,114.051,13.828"/>
<path fill="#FFFFFF" d="M152.008,13.828C152.559,13.828,153.078,14.008,153.316,14.195L153.316,13.07C153.078,12.926,152.492,12.762,151.898,12.762C150.242,12.762,149.332,13.703,149.332,15.07C149.332,16.207,149.816,16.754,150.594,17.426L151.301,18.039C151.887,18.527,152.25,18.906,152.25,19.641C152.25,20.496,151.684,20.836,150.836,20.836C150.188,20.836,149.652,20.656,149.348,20.445L149.348,21.59C149.617,21.746,150.184,21.906,150.945,21.902C152.598,21.898,153.508,20.961,153.512,19.598C153.512,18.461,153.027,17.91,152.25,17.242L151.543,16.629C150.953,16.125,150.59,15.762,150.594,15.031C150.594,14.168,151.156,13.832,152.008,13.828"/>
<path fill="#FFFFFF" d="M7.719,12.562L3.051,21.738L4.453,21.738L9.172,12.453L6.828,9.121C6.453,8.613,6.223,7.988,6.223,7.309C6.227,5.605,7.605,4.227,9.309,4.223C9.336,4.223,9.363,4.23,9.391,4.23L9.391,2.984C9.363,2.98,9.336,2.973,9.309,2.973C6.914,2.977,4.977,4.914,4.977,7.309C4.977,8.266,5.297,9.141,5.824,9.855L7.719,12.562"/>
<path fill="#FFFFFF" d="M16.117,7.547C16.117,7.465,16.133,7.387,16.133,7.305C16.133,3.535,13.078,0.48,9.309,0.48C5.539,0.48,2.48,3.535,2.48,7.305C2.48,8.816,2.977,10.203,3.805,11.332L4.816,12.781L0.258,21.738L1.66,21.738L6.27,12.668L4.812,10.594C4.137,9.672,3.73,8.539,3.73,7.305C3.734,4.227,6.227,1.734,9.309,1.727C12.391,1.734,14.883,4.227,14.887,7.305C14.887,7.457,14.859,7.605,14.848,7.754L14.844,7.754L14.848,7.758L16.148,10.691L14.602,10.691L13.98,14.777L11.852,14.777L11.219,16.023L15.051,16.023L15.676,11.938L17.461,11.938L17.832,11.418L16.117,7.547"/>
</g>
</svg>
