<?xml version="1.0" encoding="UTF-8"?>
<svg xmlns="http://www.w3.org/2000/svg" xmlns:xlink="http://www.w3.org/1999/xlink" width="65pt" height="22pt" viewBox="0 0 65 22" version="1.1">
<g>
<path fill="#FFFFFF" d="
M29.574,17.332c0,-2.77,-0.289,-3.488,-1.426,-3.488c-1.141,0,-1.41,0.719,-1.41,3.488c0,2.766,0.27,3.484,1.41,3.484c1.137,0,1.426,-0.719,1.426,-3.484ZM25.449,17.332c0,-3.648,0.867,-4.574,2.699,-4.574c1.883,0,2.711,0.883,2.711,4.574c0,3.66,-0.867,4.57,-2.711,4.57c-1.871,0,-2.699,-0.867,-2.699,-4.57
M32.484,12.922h3.988v1.059h-2.738v2.699h2.199v1.043h-2.199v4.016h-1.25Z
M40.316,12.922h1.25v7.762h2.738v1.055h-3.988Z
M46.797,18.688h1.938l-0.367,-1.465c-0.188,-0.734,-0.434,-1.859,-0.582,-2.836c-0.164,0.977,-0.418,2.102,-0.609,2.836ZM47.137,12.922h1.285l2.352,8.816h-1.305l-0.516,-1.992h-2.402l-0.5,1.992h-1.262l2.348,-8.816
M50.863,12.922h1.25l0.719,4.34c0.121,0.707,0.27,2.09,0.352,3.148c0.082,-1.059,0.23,-2.43,0.352,-3.148l0.734,-4.34h1.273l0.734,4.34c0.125,0.707,0.258,2.078,0.34,3.121c0.082,-1.043,0.242,-2.414,0.367,-3.121l0.719,-4.34h1.207l-1.684,8.816h-1.289l-0.719,-4.34c-0.109,-0.652,-0.258,-1.887,-0.336,-2.902c-0.086,1.016,-0.219,2.25,-0.328,2.902l-0.73,4.34h-1.277Z
M25.773,0.48h3.988v1.059h-2.742v2.699h2.199v1.043h-2.199v4.016h-1.246Z
M31.633,6.246h1.938l-0.363,-1.469c-0.191,-0.73,-0.438,-1.855,-0.586,-2.832c-0.16,0.977,-0.418,2.102,-0.609,2.832ZM31.969,0.48h1.289l2.348,8.816h-1.301l-0.516,-1.996h-2.402l-0.5,1.996h-1.266l2.348,-8.816
M36.242,4.887c0,-3.297,0.719,-4.57,2.859,-4.57c0.656,0,1.238,0.164,1.52,0.324v1.152c-0.324,-0.176,-0.895,-0.352,-1.438,-0.352c-1.285,0,-1.652,0.586,-1.652,3.445c0,2.891,0.391,3.461,1.652,3.461c0.559,0,1.195,-0.191,1.523,-0.379v1.152c-0.289,0.16,-0.965,0.34,-1.574,0.34c-2.32,0.012,-2.891,-1.277,-2.891,-4.574
M41.918,6.637v-6.156h1.25v6.211c0,1.305,0.445,1.684,1.355,1.684c0.91,0,1.355,-0.379,1.355,-1.684v-6.211h1.25v6.156c0,2.008,-0.844,2.824,-2.605,2.824c-1.793,0,-2.605,-0.789,-2.605,-2.824
M49.023,0.48h1.25v7.758h2.738v1.059h-3.988Z
M52.578,0.48h5.059v1.059h-1.91v7.758h-1.25v-7.758h-1.898Z
M60.535,5.633l-2.414,-5.152h1.371l1.043,2.371c0.246,0.57,0.477,1.18,0.625,1.723c0.164,-0.543,0.406,-1.152,0.652,-1.723l1.043,-2.371h1.328l-2.398,5.152v3.664h-1.25Z
M8.918,16.754l-3.734,-8.191h-1.191l-3.73,8.191h1.367l2.961,-6.492l2.957,6.492Z
M21.52,16.754l-3.734,-8.191h-1.191l-3.73,8.191h1.367l2.961,-6.492l2.961,6.492Z
M8.918,20.492h-8.656l1.246,1.246h6.16Z
M21.52,20.492h-8.656l1.246,1.246h6.164Z
M0.262,19.246h8.656v-1.246h-8.656Z
M4.562,7.316h12.656l-0.57,-1.246h-11.52Z
M12.863,19.246h8.656v-1.246h-8.656Z
M12.863,0.48h-3.945v1.246h1.348v3.098h1.246v-3.098h1.352Z
"/>
</g>
</svg>
