<?xml version="1.0" encoding="UTF-8"?>
<svg xmlns="http://www.w3.org/2000/svg" xmlns:xlink="http://www.w3.org/1999/xlink" width="129pt" height="22pt" viewBox="0 0 129 22" version="1.1">
<g id="surface1">
<path fill="#FFFFFF" d="M27.805,18.688L29.742,18.688L29.379,17.223C29.188,16.488,28.945,15.363,28.793,14.387C28.633,15.363,28.375,16.488,28.184,17.223Z M28.145,12.922L29.434,12.922L31.781,21.738L30.477,21.738L29.961,19.746L27.559,19.746L27.059,21.738L25.797,21.738L28.145,12.922"/>
<path fill="#FFFFFF" d="M32.754,12.922L34.195,12.922L36.973,19.949C36.879,19.23,36.797,18.391,36.797,17.602L36.797,12.922L37.992,12.922L37.992,21.738L36.551,21.738L33.746,14.688C33.852,15.406,33.949,16.258,33.949,17.059L33.949,21.738L32.754,21.738L32.754,12.922"/>
<path fill="#FFFFFF" d="M41.203,13.953L41.203,20.707L42.168,20.707C43.441,20.707,43.824,20.125,43.824,17.332C43.824,14.535,43.441,13.953,42.168,13.953Z M39.957,12.922L42.262,12.922C44.57,12.922,45.109,14.156,45.109,17.332C45.109,20.465,44.555,21.738,42.262,21.738L39.957,21.738L39.957,12.922"/>
<path fill="#FFFFFF" d="M58.516,17.332C58.516,14.562,58.227,13.844,57.09,13.844C55.949,13.844,55.68,14.562,55.68,17.332C55.68,20.098,55.949,20.816,57.09,20.816C58.227,20.816,58.516,20.098,58.516,17.332Z M54.391,17.332C54.391,13.684,55.258,12.762,57.09,12.762C58.973,12.762,59.801,13.641,59.801,17.332C59.801,20.992,58.934,21.902,57.09,21.902C55.219,21.902,54.391,21.035,54.391,17.332"/>
<path fill="#FFFFFF" d="M61.156,17.332C61.156,14.035,61.875,12.762,64.02,12.762C64.668,12.762,65.254,12.922,65.539,13.086L65.539,14.238C65.215,14.062,64.645,13.887,64.102,13.887C62.812,13.887,62.445,14.469,62.445,17.332C62.445,20.219,62.84,20.789,64.102,20.789C64.656,20.789,65.293,20.602,65.621,20.41L65.621,21.562C65.336,21.727,64.656,21.902,64.047,21.902C61.727,21.918,61.156,20.629,61.156,17.332"/>
<path fill="#FFFFFF" d="M67.043,21.738L68.293,21.738L68.293,12.922L67.043,12.922Z M67.043,21.738"/>
<path fill="#FFFFFF" d="M71.273,18.688L73.215,18.688L72.848,17.223C72.656,16.488,72.414,15.363,72.266,14.387C72.102,15.363,71.844,16.488,71.656,17.223Z M71.613,12.922L72.902,12.922L75.25,21.738L73.949,21.738L73.43,19.746L71.031,19.746L70.527,21.738L69.266,21.738L71.613,12.922"/>
<path fill="#FFFFFF" d="M76.223,12.922L77.473,12.922L77.473,20.684L80.215,20.684L80.215,21.738L76.223,21.738L76.223,12.922"/>
<path fill="#FFFFFF" d="M88.719,17.332C88.719,14.035,89.438,12.762,91.578,12.762C92.23,12.762,92.812,12.922,93.102,13.086L93.102,14.238C92.773,14.062,92.203,13.887,91.66,13.887C90.371,13.887,90.008,14.469,90.008,17.332C90.008,20.219,90.398,20.789,91.66,20.789C92.219,20.789,92.855,20.602,93.184,20.41L93.184,21.562C92.895,21.727,92.219,21.902,91.605,21.902C89.285,21.918,88.719,20.629,88.719,17.332"/>
<path fill="#FFFFFF" d="M94.605,21.738L95.852,21.738L95.852,12.922L94.605,12.922Z M94.605,21.738"/>
<path fill="#FFFFFF" d="M97.816,12.922L101.941,12.922L101.941,13.98L99.066,13.98L99.066,16.68L101.387,16.68L101.387,17.723L99.066,17.723L99.066,20.684L101.941,20.684L101.941,21.738L97.816,21.738L97.816,12.922"/>
<path fill="#FFFFFF" d="M103.582,12.922L105.02,12.922L107.801,19.949C107.703,19.23,107.625,18.391,107.625,17.602L107.625,12.922L108.816,12.922L108.816,21.738L107.379,21.738L104.57,14.688C104.68,15.406,104.773,16.258,104.773,17.059L104.773,21.738L103.582,21.738L103.582,12.922"/>
<path fill="#FFFFFF" d="M110.441,17.332C110.441,14.035,111.16,12.762,113.305,12.762C113.957,12.762,114.539,12.922,114.824,13.086L114.824,14.238C114.5,14.062,113.93,13.887,113.387,13.887C112.098,13.887,111.73,14.469,111.73,17.332C111.73,20.219,112.125,20.789,113.387,20.789C113.941,20.789,114.582,20.602,114.906,20.41L114.906,21.562C114.621,21.727,113.941,21.902,113.332,21.902C111.016,21.918,110.441,20.629,110.441,17.332"/>
<path fill="#FFFFFF" d="M116.328,12.922L120.453,12.922L120.453,13.98L117.578,13.98L117.578,16.68L119.898,16.68L119.898,17.723L117.578,17.723L117.578,20.684L120.453,20.684L120.453,21.738L116.328,21.738L116.328,12.922"/>
<path fill="#FFFFFF" d="M26.773,0.48L30.762,0.48L30.762,1.539L28.02,1.539L28.02,4.238L30.219,4.238L30.219,5.281L28.02,5.281L28.02,9.297L26.773,9.297L26.773,0.48"/>
<path fill="#FFFFFF" d="M32.633,6.246L34.57,6.246L34.207,4.781C34.016,4.047,33.77,2.922,33.621,1.945C33.461,2.922,33.203,4.047,33.012,4.781Z M32.969,0.48L34.258,0.48L36.605,9.297L35.305,9.297L34.789,7.305L32.387,7.305L31.887,9.297L30.621,9.297L32.969,0.48"/>
<path fill="#FFFFFF" d="M37.242,4.891C37.242,1.594,37.961,0.32,40.102,0.32C40.758,0.32,41.34,0.48,41.621,0.645L41.621,1.797C41.297,1.621,40.727,1.445,40.184,1.445C38.898,1.445,38.531,2.027,38.531,4.891C38.531,7.777,38.922,8.348,40.184,8.348C40.742,8.348,41.379,8.156,41.707,7.969L41.707,9.121C41.418,9.285,40.742,9.461,40.133,9.461C37.812,9.473,37.242,8.184,37.242,4.891"/>
<path fill="#FFFFFF" d="M42.918,6.637L42.918,0.48L44.168,0.48L44.168,6.691C44.168,7.996,44.613,8.375,45.523,8.375C46.434,8.375,46.879,7.996,46.879,6.691L46.879,0.48L48.129,0.48L48.129,6.637C48.129,8.645,47.285,9.461,45.523,9.461C43.73,9.461,42.918,8.672,42.918,6.637"/>
<path fill="#FFFFFF" d="M50.023,0.48L51.273,0.48L51.273,8.238L54.012,8.238L54.012,9.297L50.023,9.297L50.023,0.48"/>
<path fill="#FFFFFF" d="M53.578,0.48L58.637,0.48L58.637,1.539L56.727,1.539L56.727,9.297L55.477,9.297L55.477,1.539L53.578,1.539L53.578,0.48"/>
<path fill="#FFFFFF" d="M61.535,5.637L59.121,0.48L60.492,0.48L61.535,2.855C61.781,3.426,62.012,4.035,62.16,4.578C62.324,4.035,62.566,3.426,62.812,2.855L63.855,0.48L65.184,0.48L62.785,5.637L62.785,9.297L61.535,9.297L61.535,5.637"/>
<path fill="#FFFFFF" d="M72.348,4.891C72.348,2.125,72.066,1.406,70.926,1.406C69.785,1.406,69.516,2.125,69.516,4.891C69.516,7.656,69.785,8.375,70.926,8.375C72.066,8.375,72.348,7.656,72.348,4.891Z M68.227,4.891C68.227,1.242,69.094,0.32,70.926,0.32C72.812,0.32,73.637,1.199,73.637,4.891C73.637,8.551,72.77,9.461,70.926,9.461C69.055,9.461,68.227,8.594,68.227,4.891"/>
<path fill="#FFFFFF" d="M75.266,0.48L79.254,0.48L79.254,1.539L76.512,1.539L76.512,4.238L78.711,4.238L78.711,5.281L76.512,5.281L76.512,9.297L75.266,9.297L75.266,0.48"/>
<path fill="#FFFFFF" d="M84.34,1.539L84.34,5.051L85.074,5.051C86.051,5.051,86.578,4.699,86.578,3.289C86.578,1.879,86.051,1.539,85.074,1.539Z M83.094,0.48L85.211,0.48C86.879,0.48,87.867,1.188,87.867,3.289C87.867,5.336,86.836,6.098,85.211,6.098L84.34,6.098L84.34,9.297L83.094,9.297L83.094,0.48"/>
<path fill="#FFFFFF" d="M93.102,4.891C93.102,2.125,92.816,1.406,91.68,1.406C90.539,1.406,90.266,2.125,90.266,4.891C90.266,7.656,90.539,8.375,91.68,8.375C92.816,8.375,93.102,7.656,93.102,4.891Z M88.98,4.891C88.98,1.242,89.848,0.32,91.68,0.32C93.562,0.32,94.391,1.199,94.391,4.891C94.391,8.551,93.523,9.461,91.68,9.461C89.805,9.461,88.98,8.594,88.98,4.891"/>
<path fill="#FFFFFF" d="M96.016,0.48L97.266,0.48L97.266,8.238L100.004,8.238L100.004,9.297L96.016,9.297L96.016,0.48"/>
<path fill="#FFFFFF" d="M101.195,9.297L102.445,9.297L102.445,0.48L101.195,0.48Z M101.195,9.297"/>
<path fill="#FFFFFF" d="M103.488,0.48L108.547,0.48L108.547,1.539L106.637,1.539L106.637,9.297L105.387,9.297L105.387,1.539L103.488,1.539L103.488,0.48"/>
<path fill="#FFFFFF" d="M109.594,9.297L110.84,9.297L110.84,0.48L109.594,0.48Z M109.594,9.297"/>
<path fill="#FFFFFF" d="M112.469,4.891C112.469,1.594,113.188,0.32,115.328,0.32C115.98,0.32,116.562,0.48,116.848,0.645L116.848,1.797C116.523,1.621,115.953,1.445,115.41,1.445C114.121,1.445,113.754,2.027,113.754,4.891C113.754,7.777,114.148,8.348,115.41,8.348C115.965,8.348,116.605,8.156,116.93,7.969L116.93,9.121C116.645,9.285,115.965,9.461,115.355,9.461C113.035,9.473,112.469,8.184,112.469,4.891"/>
<path fill="#FFFFFF" d="M119.559,6.246L121.496,6.246L121.133,4.781C120.941,4.047,120.699,2.922,120.551,1.945C120.387,2.922,120.129,4.047,119.938,4.781Z M119.898,0.48L121.188,0.48L123.531,9.297L122.23,9.297L121.715,7.305L119.312,7.305L118.812,9.297L117.551,9.297L119.898,0.48"/>
<path fill="#FFFFFF" d="M124.508,0.48L125.758,0.48L125.758,8.238L128.496,8.238L128.496,9.297L124.508,9.297L124.508,0.48"/>
<path fill="#FFFFFF" d="M51.754,13.828C52.301,13.828,52.824,14.008,53.059,14.195L53.059,13.07C52.824,12.926,52.234,12.762,51.645,12.762C49.988,12.762,49.078,13.703,49.078,15.07C49.078,16.207,49.559,16.754,50.336,17.426L51.043,18.039C51.633,18.527,51.992,18.906,51.992,19.641C51.992,20.496,51.426,20.836,50.578,20.836C49.934,20.836,49.398,20.656,49.09,20.445L49.09,21.59C49.359,21.746,49.926,21.906,50.688,21.902C52.34,21.898,53.25,20.961,53.254,19.598C53.254,18.461,52.77,17.91,51.992,17.242L51.285,16.629C50.699,16.125,50.332,15.762,50.336,15.031C50.336,14.168,50.898,13.832,51.754,13.828"/>
<path fill="#FFFFFF" d="M86.082,13.828C86.633,13.828,87.152,14.008,87.391,14.195L87.391,13.07C87.152,12.926,86.566,12.762,85.973,12.762C84.316,12.762,83.406,13.703,83.406,15.07C83.406,16.207,83.887,16.754,84.664,17.426L85.375,18.039C85.961,18.527,86.324,18.906,86.324,19.641C86.324,20.496,85.758,20.836,84.906,20.836C84.262,20.836,83.727,20.656,83.418,20.445L83.418,21.59C83.688,21.746,84.254,21.906,85.02,21.902C86.668,21.898,87.578,20.961,87.582,19.598C87.586,18.461,87.102,17.91,86.324,17.242L85.613,16.629C85.027,16.125,84.66,15.762,84.664,15.031C84.664,14.168,85.23,13.832,86.082,13.828"/>
<path fill="#FFFFFF" d="M124.039,13.828C124.594,13.828,125.109,14.008,125.352,14.195L125.352,13.07C125.109,12.926,124.523,12.762,123.934,12.762C122.277,12.762,121.363,13.703,121.363,15.07C121.363,16.207,121.848,16.754,122.625,17.426L123.336,18.039C123.922,18.527,124.281,18.906,124.281,19.641C124.281,20.496,123.719,20.836,122.867,20.836C122.223,20.836,121.688,20.656,121.379,20.445L121.379,21.59C121.648,21.746,122.215,21.906,122.977,21.902C124.629,21.898,125.539,20.961,125.543,19.598C125.543,18.461,125.059,17.91,124.281,17.242L123.574,16.629C122.984,16.125,122.621,15.762,122.625,15.031C122.625,14.168,123.188,13.832,124.039,13.828"/>
<path fill="#FFFFFF" d="M16.426,14.449L15.328,13.812C14.648,14.68,13.656,15.277,12.512,15.441L12.512,16.715C14.117,16.539,15.52,15.684,16.426,14.449"/>
<path fill="#FFFFFF" d="M19.684,16.332C18.109,18.676,15.504,20.266,12.512,20.461L12.512,21.707C15.965,21.508,18.969,19.672,20.766,16.953L19.684,16.332"/>
<path fill="#FFFFFF" d="M18.602,15.703L17.516,15.078C16.383,16.684,14.578,17.781,12.512,17.969L12.512,19.215C15.039,19.023,17.246,17.68,18.602,15.703"/>
<path fill="#FFFFFF" d="M17.051,8.848L15.953,9.484C16.359,10.508,16.383,11.664,15.953,12.738L17.055,13.375C17.707,11.895,17.668,10.254,17.051,8.848"/>
<path fill="#FFFFFF" d="M20.309,6.969C21.555,9.508,21.625,12.559,20.301,15.246L21.379,15.871C22.934,12.781,22.848,9.258,21.391,6.348L20.309,6.969"/>
<path fill="#FFFFFF" d="M19.227,7.594L18.141,8.223C18.961,10.008,19.016,12.117,18.141,14L19.219,14.625C20.316,12.336,20.262,9.758,19.227,7.594"/>
<path fill="#FFFFFF" d="M6.727,13.371L7.828,12.734C7.422,11.711,7.398,10.555,7.828,9.48L6.723,8.848C6.074,10.324,6.113,11.965,6.727,13.371"/>
<path fill="#FFFFFF" d="M3.469,15.25C2.227,12.715,2.156,9.66,3.48,6.973L2.398,6.352C0.848,9.438,0.934,12.961,2.391,15.871L3.469,15.25"/>
<path fill="#FFFFFF" d="M4.555,14.625L5.641,14C4.816,12.211,4.766,10.102,5.641,8.219L4.559,7.594C3.461,9.883,3.52,12.461,4.555,14.625"/>
<path fill="#FFFFFF" d="M11.27,16.711L11.266,15.441C10.176,15.281,9.164,14.723,8.449,13.812L7.348,14.453C8.305,15.754,9.742,16.539,11.27,16.711"/>
<path fill="#FFFFFF" d="M11.266,20.473C8.445,20.281,5.766,18.816,4.102,16.324L3.023,16.949C4.922,19.836,8.016,21.523,11.266,21.719L11.266,20.473"/>
<path fill="#FFFFFF" d="M11.266,19.219L11.27,17.965C9.309,17.785,7.457,16.773,6.262,15.078L5.18,15.699C6.613,17.793,8.879,19.035,11.266,19.219"/>
</g>
</svg>
