<?xml version="1.0" encoding="UTF-8"?>
<svg xmlns="http://www.w3.org/2000/svg" xmlns:xlink="http://www.w3.org/1999/xlink" width="107pt" height="22pt" viewBox="0 0 107 22" version="1.1">
<g id="surface1">
<path fill="#FFFFFF" d="M26.805,18.688L28.742,18.688L28.379,17.223C28.188,16.488,27.945,15.363,27.793,14.387C27.633,15.363,27.375,16.488,27.184,17.223Z M27.145,12.922L28.434,12.922L30.781,21.738L29.477,21.738L28.961,19.746L26.559,19.746L26.059,21.738L24.797,21.738L27.145,12.922"/>
<path fill="#FFFFFF" d="M31.754,12.922L33.195,12.922L35.973,19.949C35.879,19.23,35.797,18.391,35.797,17.602L35.797,12.922L36.992,12.922L36.992,21.738L35.551,21.738L32.746,14.688C32.852,15.406,32.949,16.262,32.949,17.059L32.949,21.738L31.754,21.738L31.754,12.922"/>
<path fill="#FFFFFF" d="M40.203,13.953L40.203,20.711L41.168,20.711C42.441,20.711,42.824,20.125,42.824,17.332C42.824,14.535,42.441,13.953,41.168,13.953Z M38.957,12.922L41.262,12.922C43.57,12.922,44.109,14.156,44.109,17.332C44.109,20.465,43.555,21.738,41.262,21.738L38.957,21.738L38.957,12.922"/>
<path fill="#FFFFFF" d="M49.781,13.98L49.781,17.492L50.516,17.492C51.492,17.492,52.02,17.141,52.02,15.73C52.02,14.32,51.492,13.98,50.516,13.98Z M48.535,12.922L50.652,12.922C52.32,12.922,53.309,13.629,53.309,15.73C53.309,17.781,52.277,18.539,50.652,18.539L49.781,18.539L49.781,21.738L48.535,21.738L48.535,12.922"/>
<path fill="#FFFFFF" d="M58.695,17.738L56.008,17.738L56.008,21.738L54.762,21.738L54.762,12.922L56.008,12.922L56.008,16.68L58.695,16.68L58.695,12.922L59.941,12.922L59.941,21.738L58.695,21.738L58.695,17.738"/>
<path fill="#FFFFFF" d="M61.906,21.738L63.156,21.738L63.156,12.922L61.906,12.922Z M61.906,21.738"/>
<path fill="#FFFFFF" d="M65.121,12.922L66.367,12.922L66.367,20.684L69.109,20.684L69.109,21.738L65.121,21.738L65.121,12.922"/>
<path fill="#FFFFFF" d="M73.68,17.332C73.68,14.566,73.395,13.844,72.254,13.844C71.113,13.844,70.844,14.566,70.844,17.332C70.844,20.098,71.113,20.816,72.254,20.816C73.395,20.816,73.68,20.098,73.68,17.332Z M69.555,17.332C69.555,13.684,70.422,12.762,72.254,12.762C74.141,12.762,74.969,13.641,74.969,17.332C74.969,20.992,74.098,21.902,72.254,21.902C70.383,21.902,69.555,21.035,69.555,17.332"/>
<path fill="#FFFFFF" d="M85.57,17.332C85.57,14.566,85.285,13.844,84.148,13.844C83.008,13.844,82.738,14.566,82.738,17.332C82.738,20.098,83.008,20.816,84.148,20.816C85.285,20.816,85.57,20.098,85.57,17.332Z M81.449,17.332C81.449,13.684,82.316,12.762,84.148,12.762C86.031,12.762,86.859,13.641,86.859,17.332C86.859,20.992,85.992,21.902,84.148,21.902C82.273,21.902,81.449,21.035,81.449,17.332"/>
<path fill="#FFFFFF" d="M89.734,13.98L89.734,17.492L90.469,17.492C91.441,17.492,91.973,17.141,91.973,15.73C91.973,14.32,91.441,13.98,90.469,13.98Z M88.484,12.922L90.605,12.922C92.27,12.922,93.262,13.629,93.262,15.73C93.262,17.781,92.23,18.539,90.605,18.539L89.734,18.539L89.734,21.738L88.484,21.738L88.484,12.922"/>
<path fill="#FFFFFF" d="M98.645,17.738L95.961,17.738L95.961,21.738L94.711,21.738L94.711,12.922L95.961,12.922L95.961,16.68L98.645,16.68L98.645,12.922L99.895,12.922L99.895,21.738L98.645,21.738L98.645,17.738"/>
<path fill="#FFFFFF" d="M103.145,18.078L100.73,12.922L102.102,12.922L103.145,15.297C103.391,15.867,103.621,16.477,103.77,17.02C103.934,16.477,104.18,15.867,104.422,15.297L105.469,12.922L106.797,12.922L104.395,18.078L104.395,21.738L103.145,21.738L103.145,18.078"/>
<path fill="#FFFFFF" d="M25.773,0.48L29.762,0.48L29.762,1.539L27.02,1.539L27.02,4.238L29.219,4.238L29.219,5.281L27.02,5.281L27.02,9.297L25.773,9.297L25.773,0.48"/>
<path fill="#FFFFFF" d="M31.633,6.246L33.57,6.246L33.207,4.781C33.016,4.047,32.77,2.922,32.621,1.945C32.461,2.922,32.203,4.047,32.012,4.781Z M31.969,0.48L33.258,0.48L35.605,9.297L34.305,9.297L33.789,7.305L31.387,7.305L30.887,9.297L29.621,9.297L31.969,0.48"/>
<path fill="#FFFFFF" d="M36.242,4.891C36.242,1.594,36.961,0.316,39.102,0.316C39.758,0.316,40.34,0.48,40.621,0.645L40.621,1.797C40.297,1.621,39.727,1.445,39.184,1.445C37.898,1.445,37.531,2.027,37.531,4.891C37.531,7.777,37.922,8.348,39.184,8.348C39.742,8.348,40.379,8.156,40.707,7.969L40.707,9.121C40.418,9.285,39.742,9.461,39.133,9.461C36.812,9.473,36.242,8.184,36.242,4.891"/>
<path fill="#FFFFFF" d="M41.918,6.641L41.918,0.48L43.168,0.48L43.168,6.695C43.168,7.996,43.613,8.375,44.523,8.375C45.434,8.375,45.879,7.996,45.879,6.695L45.879,0.48L47.129,0.48L47.129,6.641C47.129,8.648,46.285,9.461,44.523,9.461C42.73,9.461,41.918,8.672,41.918,6.641"/>
<path fill="#FFFFFF" d="M49.023,0.48L50.273,0.48L50.273,8.238L53.012,8.238L53.012,9.297L49.023,9.297L49.023,0.48"/>
<path fill="#FFFFFF" d="M52.578,0.48L57.637,0.48L57.637,1.539L55.727,1.539L55.727,9.297L54.477,9.297L54.477,1.539L52.578,1.539L52.578,0.48"/>
<path fill="#FFFFFF" d="M60.535,5.637L58.121,0.48L59.492,0.48L60.535,2.855C60.781,3.422,61.012,4.035,61.16,4.578C61.324,4.035,61.566,3.422,61.812,2.855L62.855,0.48L64.184,0.48L61.785,5.637L61.785,9.297L60.535,9.297L60.535,5.637"/>
<path fill="#FFFFFF" d="M71.348,4.891C71.348,2.121,71.066,1.402,69.926,1.402C68.785,1.402,68.516,2.121,68.516,4.891C68.516,7.656,68.785,8.375,69.926,8.375C71.066,8.375,71.348,7.656,71.348,4.891Z M67.227,4.891C67.227,1.238,68.094,0.316,69.926,0.316C71.812,0.316,72.637,1.199,72.637,4.891C72.637,8.551,71.77,9.461,69.926,9.461C68.055,9.461,67.227,8.594,67.227,4.891"/>
<path fill="#FFFFFF" d="M74.266,0.48L78.254,0.48L78.254,1.539L75.512,1.539L75.512,4.238L77.711,4.238L77.711,5.281L75.512,5.281L75.512,9.297L74.266,9.297L74.266,0.48"/>
<path fill="#FFFFFF" d="M82.891,6.246L84.832,6.246L84.465,4.781C84.273,4.047,84.031,2.922,83.883,1.945C83.719,2.922,83.461,4.047,83.27,4.781Z M83.23,0.48L84.52,0.48L86.867,9.297L85.562,9.297L85.047,7.305L82.648,7.305L82.145,9.297L80.883,9.297L83.23,0.48"/>
<path fill="#FFFFFF" d="M89.09,1.539L89.09,4.645L89.754,4.645C90.73,4.645,91.383,4.441,91.383,3.086C91.383,1.742,90.73,1.539,89.754,1.539Z M87.84,0.48L89.875,0.48C91.504,0.48,92.672,1.09,92.672,3.086C92.672,4.48,91.992,5.16,91.137,5.473L93.008,9.297L91.586,9.297L89.93,5.703L89.09,5.703L89.09,9.297L87.84,9.297L87.84,0.48"/>
<path fill="#FFFFFF" d="M93.172,0.48L98.23,0.48L98.23,1.539L96.316,1.539L96.316,9.297L95.07,9.297L95.07,1.539L93.172,1.539L93.172,0.48"/>
<path fill="#FFFFFF" d="M101.371,1.387C101.922,1.387,102.441,1.566,102.68,1.754L102.68,0.629C102.441,0.484,101.855,0.32,101.262,0.32C99.605,0.32,98.695,1.262,98.695,2.629C98.695,3.766,99.176,4.312,99.953,4.984L100.664,5.598C101.25,6.086,101.613,6.465,101.613,7.199C101.613,8.055,101.047,8.395,100.195,8.395C99.551,8.395,99.016,8.215,98.707,8.004L98.707,9.148C98.98,9.305,99.543,9.465,100.309,9.461C101.957,9.457,102.867,8.52,102.871,7.156C102.871,6.02,102.391,5.469,101.613,4.801L100.902,4.188C100.316,3.684,99.949,3.32,99.953,2.59C99.953,1.727,100.52,1.391,101.371,1.387"/>
<path fill="#FFFFFF" d="M78.812,13.832C79.363,13.828,79.883,14.012,80.121,14.199L80.121,13.074C79.883,12.926,79.297,12.766,78.703,12.766C77.047,12.766,76.137,13.707,76.137,15.07C76.137,16.211,76.617,16.758,77.395,17.426L78.105,18.039C78.691,18.531,79.055,18.906,79.055,19.641C79.055,20.496,78.488,20.84,77.637,20.84C76.992,20.84,76.457,20.656,76.148,20.445L76.148,21.59C76.418,21.746,76.984,21.906,77.746,21.906C79.398,21.902,80.312,20.965,80.312,19.598C80.312,18.461,79.828,17.91,79.055,17.242L78.344,16.629C77.758,16.129,77.395,15.766,77.395,15.031C77.398,14.168,77.961,13.832,78.812,13.832"/>
<path fill="#FFFFFF" d="M11.516,14.531C11.879,14.32,12.305,14.199,12.762,14.199L20.273,14.199L20.273,1.727L12.762,1.727C12.074,1.727,11.512,2.285,11.512,2.973Z M10.266,2.973C10.266,2.285,9.707,1.727,9.02,1.727L1.508,1.727L1.508,14.199L9.02,14.199C9.473,14.199,9.898,14.32,10.266,14.531Z M9.02,15.445L0.262,15.445L0.262,0.48L9.02,0.48C9.77,0.48,10.434,0.816,10.891,1.34C11.348,0.816,12.012,0.48,12.762,0.48L21.52,0.48L21.52,15.445L12.762,15.445C12.016,15.445,11.344,15.773,10.891,16.289C10.43,15.773,9.766,15.445,9.02,15.445"/>
<path fill="#FFFFFF" d="M9.02,16.691C9.766,16.691,10.434,17.02,10.891,17.535C11.348,17.02,12.016,16.691,12.762,16.691L21.523,16.691L20.273,17.938L12.762,17.941C12.016,17.941,11.348,18.266,10.891,18.781C10.434,18.266,9.766,17.941,9.02,17.941L1.508,17.938L0.262,16.691L9.02,16.691"/>
<path fill="#FFFFFF" d="M2.754,5.469L9.02,5.469L9.02,4.219L2.754,4.219Z M2.754,5.469"/>
<path fill="#FFFFFF" d="M2.754,7.965L9.02,7.965L9.02,6.715L2.754,6.715Z M2.754,7.965"/>
<path fill="#FFFFFF" d="M2.754,10.457L9.02,10.457L9.02,9.207L2.754,9.207Z M2.754,10.457"/>
</g>
</svg>
