<?xml version="1.0" encoding="UTF-8"?>
<svg xmlns="http://www.w3.org/2000/svg" xmlns:xlink="http://www.w3.org/1999/xlink" width="129pt" height="22pt" viewBox="0 0 129 22" version="1.1">
<g id="surface1">
<path fill="#FFFFFF" d="M26.805,18.688L28.742,18.688L28.379,17.223C28.188,16.488,27.945,15.363,27.793,14.387C27.633,15.363,27.375,16.488,27.184,17.223Z M27.145,12.922L28.434,12.922L30.781,21.738L29.477,21.738L28.961,19.746L26.559,19.746L26.059,21.738L24.797,21.738L27.145,12.922"/>
<path fill="#FFFFFF" d="M31.754,12.922L33.195,12.922L35.973,19.949C35.879,19.23,35.797,18.391,35.797,17.602L35.797,12.922L36.992,12.922L36.992,21.738L35.551,21.738L32.746,14.688C32.852,15.406,32.949,16.262,32.949,17.059L32.949,21.738L31.754,21.738L31.754,12.922"/>
<path fill="#FFFFFF" d="M40.203,13.953L40.203,20.711L41.168,20.711C42.441,20.711,42.824,20.125,42.824,17.332C42.824,14.535,42.441,13.953,41.168,13.953Z M38.957,12.922L41.262,12.922C43.57,12.922,44.109,14.156,44.109,17.332C44.109,20.465,43.555,21.738,41.262,21.738L38.957,21.738L38.957,12.922"/>
<path fill="#FFFFFF" d="M52.469,17.738L49.781,17.738L49.781,21.738L48.535,21.738L48.535,12.922L49.781,12.922L49.781,16.68L52.469,16.68L52.469,12.922L53.719,12.922L53.719,21.738L52.469,21.738L52.469,17.738"/>
<path fill="#FFFFFF" d="M55.68,12.922L59.805,12.922L59.805,13.98L56.93,13.98L56.93,16.68L59.25,16.68L59.25,17.723L56.93,17.723L56.93,20.684L59.805,20.684L59.805,21.738L55.68,21.738L55.68,12.922"/>
<path fill="#FFFFFF" d="M62.402,18.688L64.34,18.688L63.973,17.223C63.785,16.488,63.539,15.363,63.391,14.387C63.227,15.363,62.969,16.488,62.781,17.223Z M62.738,12.922L64.027,12.922L66.375,21.738L65.074,21.738L64.559,19.746L62.156,19.746L61.656,21.738L60.395,21.738L62.738,12.922"/>
<path fill="#FFFFFF" d="M67.352,12.922L68.598,12.922L68.598,20.684L71.34,20.684L71.34,21.738L67.352,21.738L67.352,12.922"/>
<path fill="#FFFFFF" d="M70.902,12.922L75.965,12.922L75.965,13.98L74.051,13.98L74.051,21.738L72.801,21.738L72.801,13.98L70.902,13.98L70.902,12.922"/>
<path fill="#FFFFFF" d="M80.941,17.738L78.254,17.738L78.254,21.738L77.008,21.738L77.008,12.922L78.254,12.922L78.254,16.68L80.941,16.68L80.941,12.922L82.188,12.922L82.188,21.738L80.941,21.738L80.941,17.738"/>
<path fill="#FFFFFF" d="M91.809,17.332C91.809,14.035,92.523,12.762,94.668,12.762C95.32,12.762,95.902,12.922,96.188,13.086L96.188,14.238C95.863,14.062,95.293,13.887,94.75,13.887C93.461,13.887,93.094,14.469,93.094,17.332C93.094,20.219,93.488,20.789,94.75,20.789C95.305,20.789,95.945,20.602,96.27,20.41L96.27,21.562C95.984,21.727,95.305,21.902,94.695,21.902C92.375,21.918,91.809,20.629,91.809,17.332"/>
<path fill="#FFFFFF" d="M97.691,21.738L98.941,21.738L98.941,12.922L97.691,12.922Z M97.691,21.738"/>
<path fill="#FFFFFF" d="M100.906,12.922L105.031,12.922L105.031,13.98L102.152,13.98L102.152,16.68L104.473,16.68L104.473,17.723L102.152,17.723L102.152,20.684L105.031,20.684L105.031,21.738L100.906,21.738L100.906,12.922"/>
<path fill="#FFFFFF" d="M106.672,12.922L108.109,12.922L110.891,19.949C110.793,19.23,110.711,18.391,110.711,17.602L110.711,12.922L111.906,12.922L111.906,21.738L110.469,21.738L107.66,14.688C107.77,15.406,107.863,16.262,107.863,17.059L107.863,21.738L106.672,21.738L106.672,12.922"/>
<path fill="#FFFFFF" d="M113.531,17.332C113.531,14.035,114.25,12.762,116.395,12.762C117.047,12.762,117.629,12.922,117.914,13.086L117.914,14.238C117.59,14.062,117.02,13.887,116.477,13.887C115.188,13.887,114.82,14.469,114.82,17.332C114.82,20.219,115.215,20.789,116.477,20.789C117.031,20.789,117.668,20.602,117.996,20.41L117.996,21.562C117.711,21.727,117.031,21.902,116.422,21.902C114.102,21.918,113.531,20.629,113.531,17.332"/>
<path fill="#FFFFFF" d="M119.418,12.922L123.543,12.922L123.543,13.98L120.664,13.98L120.664,16.68L122.984,16.68L122.984,17.723L120.664,17.723L120.664,20.684L123.543,20.684L123.543,21.738L119.418,21.738L119.418,12.922"/>
<path fill="#FFFFFF" d="M25.773,0.48L29.762,0.48L29.762,1.539L27.02,1.539L27.02,4.238L29.219,4.238L29.219,5.281L27.02,5.281L27.02,9.297L25.773,9.297L25.773,0.48"/>
<path fill="#FFFFFF" d="M31.633,6.246L33.57,6.246L33.207,4.781C33.016,4.047,32.77,2.922,32.621,1.945C32.461,2.922,32.203,4.047,32.012,4.781Z M31.969,0.48L33.258,0.48L35.605,9.297L34.305,9.297L33.789,7.305L31.387,7.305L30.887,9.297L29.621,9.297L31.969,0.48"/>
<path fill="#FFFFFF" d="M36.242,4.891C36.242,1.594,36.961,0.32,39.102,0.32C39.758,0.32,40.34,0.48,40.621,0.645L40.621,1.797C40.297,1.621,39.727,1.445,39.184,1.445C37.898,1.445,37.531,2.027,37.531,4.891C37.531,7.777,37.922,8.348,39.184,8.348C39.742,8.348,40.379,8.156,40.707,7.969L40.707,9.121C40.418,9.285,39.742,9.461,39.133,9.461C36.812,9.473,36.242,8.184,36.242,4.891"/>
<path fill="#FFFFFF" d="M41.918,6.641L41.918,0.48L43.168,0.48L43.168,6.695C43.168,7.996,43.613,8.375,44.523,8.375C45.434,8.375,45.879,7.996,45.879,6.695L45.879,0.48L47.129,0.48L47.129,6.641C47.129,8.648,46.285,9.461,44.523,9.461C42.73,9.461,41.918,8.672,41.918,6.641"/>
<path fill="#FFFFFF" d="M49.023,0.48L50.273,0.48L50.273,8.238L53.012,8.238L53.012,9.297L49.023,9.297L49.023,0.48"/>
<path fill="#FFFFFF" d="M52.578,0.48L57.637,0.48L57.637,1.539L55.727,1.539L55.727,9.297L54.477,9.297L54.477,1.539L52.578,1.539L52.578,0.48"/>
<path fill="#FFFFFF" d="M60.535,5.637L58.121,0.48L59.492,0.48L60.535,2.855C60.781,3.422,61.012,4.035,61.16,4.578C61.324,4.035,61.566,3.422,61.812,2.855L62.855,0.48L64.184,0.48L61.785,5.637L61.785,9.297L60.535,9.297L60.535,5.637"/>
<path fill="#FFFFFF" d="M71.348,4.891C71.348,2.121,71.066,1.402,69.926,1.402C68.785,1.402,68.516,2.121,68.516,4.891C68.516,7.656,68.785,8.375,69.926,8.375C71.066,8.375,71.348,7.656,71.348,4.891Z M67.227,4.891C67.227,1.238,68.094,0.32,69.926,0.32C71.812,0.32,72.637,1.199,72.637,4.891C72.637,8.551,71.77,9.461,69.926,9.461C68.055,9.461,67.227,8.594,67.227,4.891"/>
<path fill="#FFFFFF" d="M74.266,0.48L78.254,0.48L78.254,1.539L75.512,1.539L75.512,4.238L77.711,4.238L77.711,5.281L75.512,5.281L75.512,9.297L74.266,9.297L74.266,0.48"/>
<path fill="#FFFFFF" d="M82.094,0.48L83.707,0.48L85.254,5.121L86.812,0.48L88.375,0.48L88.375,9.297L87.18,9.297L87.18,4.715C87.18,3.734,87.246,2.719,87.328,1.93L85.73,6.68L84.738,6.68L83.125,1.918C83.203,2.707,83.285,3.734,83.285,4.715L83.285,9.297L82.094,9.297L82.094,0.48"/>
<path fill="#FFFFFF" d="M90.34,0.48L94.461,0.48L94.461,1.539L91.586,1.539L91.586,4.238L93.906,4.238L93.906,5.281L91.586,5.281L91.586,8.238L94.461,8.238L94.461,9.297L90.34,9.297L90.34,0.48"/>
<path fill="#FFFFFF" d="M97.352,1.512L97.352,8.266L98.312,8.266C99.59,8.266,99.969,7.684,99.969,4.891C99.969,2.094,99.59,1.512,98.312,1.512Z M96.102,0.48L98.406,0.48C100.715,0.48,101.258,1.715,101.258,4.891C101.258,8.023,100.699,9.297,98.406,9.297L96.102,9.297L96.102,0.48"/>
<path fill="#FFFFFF" d="M102.883,9.297L104.129,9.297L104.129,0.48L102.883,0.48Z M102.883,9.297"/>
<path fill="#FFFFFF" d="M105.758,4.891C105.758,1.594,106.477,0.32,108.621,0.32C109.27,0.32,109.855,0.48,110.141,0.645L110.141,1.797C109.812,1.621,109.242,1.445,108.699,1.445C107.414,1.445,107.047,2.027,107.047,4.891C107.047,7.777,107.438,8.348,108.699,8.348C109.258,8.348,109.895,8.156,110.223,7.969L110.223,9.121C109.938,9.285,109.258,9.461,108.648,9.461C106.328,9.473,105.758,8.184,105.758,4.891"/>
<path fill="#FFFFFF" d="M111.645,9.297L112.891,9.297L112.891,0.48L111.645,0.48Z M111.645,9.297"/>
<path fill="#FFFFFF" d="M114.855,0.48L116.297,0.48L119.074,7.508C118.98,6.789,118.898,5.949,118.898,5.16L118.898,0.48L120.094,0.48L120.094,9.297L118.656,9.297L115.848,2.242C115.957,2.965,116.051,3.816,116.051,4.617L116.051,9.297L114.855,9.297L114.855,0.48"/>
<path fill="#FFFFFF" d="M122.059,0.48L126.184,0.48L126.184,1.539L123.309,1.539L123.309,4.238L125.625,4.238L125.625,5.281L123.309,5.281L123.309,8.238L126.184,8.238L126.184,9.297L122.059,9.297L122.059,0.48"/>
<path fill="#FFFFFF" d="M89.168,13.832C89.719,13.828,90.238,14.012,90.477,14.199L90.477,13.074C90.238,12.926,89.652,12.766,89.059,12.766C87.402,12.766,86.492,13.707,86.492,15.07C86.492,16.211,86.977,16.758,87.754,17.426L88.461,18.039C89.047,18.531,89.41,18.906,89.41,19.641C89.41,20.496,88.844,20.84,87.992,20.84C87.352,20.84,86.812,20.656,86.508,20.445L86.508,21.59C86.777,21.746,87.344,21.906,88.105,21.906C89.758,21.902,90.668,20.965,90.672,19.598C90.672,18.461,90.188,17.91,89.41,17.242L88.703,16.629C88.113,16.129,87.75,15.766,87.754,15.031C87.754,14.168,88.316,13.832,89.168,13.832"/>
<path fill="#FFFFFF" d="M127.129,13.832C127.68,13.828,128.199,14.012,128.438,14.199L128.438,13.074C128.199,12.926,127.613,12.766,127.02,12.766C125.363,12.766,124.453,13.707,124.453,15.07C124.453,16.211,124.938,16.758,125.711,17.426L126.422,18.039C127.008,18.531,127.371,18.906,127.371,19.641C127.371,20.496,126.805,20.84,125.953,20.84C125.309,20.84,124.773,20.656,124.465,20.445L124.465,21.59C124.738,21.746,125.305,21.906,126.066,21.906C127.719,21.902,128.629,20.965,128.629,19.598C128.633,18.461,128.148,17.91,127.371,17.242L126.66,16.629C126.074,16.129,125.711,15.766,125.711,15.031C125.715,14.168,126.277,13.832,127.129,13.832"/>
<path fill="#FFFFFF" d="M17.695,11.746L17.938,12.996L21.52,12.996L21.52,11.746L17.695,11.746"/>
<path fill="#FFFFFF" d="M3.34,15.488L0.262,15.488L0.262,16.738L3.582,16.738L3.34,15.488"/>
<path fill="#FFFFFF" d="M9.941,0.48L6.457,18.461L5.395,12.996L0.262,12.996L0.262,14.242L4.367,14.242L5.82,21.738L7.09,21.738L11.211,0.48L9.941,0.48"/>
<path fill="#FFFFFF" d="M16.91,14.242L14.242,0.48L12.48,0.48L8.359,21.738L9.629,21.738L13.359,2.488L15.883,15.488L21.52,15.488L21.52,14.242L16.91,14.242"/>
</g>
</svg>
