<?xml version="1.0" encoding="UTF-8"?>
<svg xmlns="http://www.w3.org/2000/svg" xmlns:xlink="http://www.w3.org/1999/xlink" width="184pt" height="22pt" viewBox="0 0 184 22" version="1.1">
<g id="surface1">
<path fill="#FFFFFF" d="M27.02,17.832L27.02,20.711L27.738,20.711C28.727,20.711,29.422,20.629,29.422,19.285C29.422,17.93,28.715,17.832,27.738,17.832Z M27.02,13.953L27.02,16.832L27.453,16.832C28.445,16.832,29.148,16.734,29.148,15.379C29.148,14.035,28.445,13.953,27.453,13.953Z M25.773,12.922L27.492,12.922C29.23,12.922,30.438,13.371,30.438,15.34C30.438,16.355,30.031,16.938,29.449,17.266C30.18,17.551,30.711,18.16,30.711,19.324C30.711,21.266,29.516,21.742,27.781,21.742L25.773,21.742L25.773,12.922"/>
<path fill="#FFFFFF" d="M32.188,21.742L33.434,21.742L33.434,12.922L32.188,12.922Z M32.188,21.742"/>
<path fill="#FFFFFF" d="M39.184,17.332C39.184,14.566,38.898,13.848,37.762,13.848C36.621,13.848,36.348,14.566,36.348,17.332C36.348,20.098,36.621,20.816,37.762,20.816C38.898,20.816,39.184,20.098,39.184,17.332Z M35.062,17.332C35.062,13.684,35.93,12.762,37.762,12.762C39.645,12.762,40.473,13.641,40.473,17.332C40.473,20.996,39.605,21.902,37.762,21.902C35.887,21.902,35.062,21.035,35.062,17.332"/>
<path fill="#FFFFFF" d="M41.734,17.902L44.879,17.902L44.879,16.723L41.734,16.723Z M41.734,17.902"/>
<path fill="#FFFFFF" d="M46.41,21.742L47.66,21.742L47.66,12.922L46.41,12.922Z M46.41,21.742"/>
<path fill="#FFFFFF" d="M49.625,12.922L51.062,12.922L53.844,19.949C53.75,19.23,53.668,18.391,53.668,17.602L53.668,12.922L54.863,12.922L54.863,21.742L53.422,21.742L50.617,14.688C50.723,15.406,50.82,16.262,50.82,17.062L50.82,21.742L49.625,21.742L49.625,12.922"/>
<path fill="#FFFFFF" d="M56.488,17.332C56.488,13.859,57.41,12.762,59.703,12.762C60.352,12.762,61.047,12.938,61.344,13.113L61.344,14.266C61.02,14.078,60.395,13.871,59.797,13.871C58.332,13.871,57.777,14.414,57.777,17.332C57.777,20.223,58.168,20.816,59.445,20.816C59.84,20.816,60.164,20.766,60.406,20.695L60.406,17.754L59.105,17.754L59.105,16.695L61.656,16.695L61.656,21.457C61.398,21.617,60.367,21.902,59.457,21.902C57.07,21.902,56.488,20.656,56.488,17.332"/>
<path fill="#FFFFFF" d="M63.5,12.922L67.621,12.922L67.621,13.98L64.746,13.98L64.746,16.68L67.066,16.68L67.066,17.727L64.746,17.727L64.746,20.684L67.621,20.684L67.621,21.742L63.5,21.742L63.5,12.922"/>
<path fill="#FFFFFF" d="M69.262,12.922L70.699,12.922L73.48,19.949C73.387,19.23,73.305,18.391,73.305,17.602L73.305,12.922L74.5,12.922L74.5,21.742L73.062,21.742L70.254,14.688C70.359,15.406,70.457,16.262,70.457,17.062L70.457,21.742L69.262,21.742L69.262,12.922"/>
<path fill="#FFFFFF" d="M76.465,21.742L77.711,21.742L77.711,12.922L76.465,12.922Z M76.465,21.742"/>
<path fill="#FFFFFF" d="M79.68,12.922L83.801,12.922L83.801,13.98L80.926,13.98L80.926,16.68L83.246,16.68L83.246,17.727L80.926,17.727L80.926,20.684L83.801,20.684L83.801,21.742L79.68,21.742L79.68,12.922"/>
<path fill="#FFFFFF" d="M85.305,19.082L85.305,12.922L86.555,12.922L86.555,19.137C86.555,20.438,87,20.816,87.91,20.816C88.82,20.816,89.266,20.438,89.266,19.137L89.266,12.922L90.516,12.922L90.516,19.082C90.516,21.09,89.676,21.902,87.91,21.902C86.121,21.902,85.305,21.117,85.305,19.082"/>
<path fill="#FFFFFF" d="M93.66,13.98L93.66,17.09L94.324,17.09C95.301,17.09,95.953,16.883,95.953,15.527C95.953,14.184,95.301,13.98,94.324,13.98Z M92.41,12.922L94.445,12.922C96.074,12.922,97.242,13.535,97.242,15.527C97.242,16.926,96.562,17.602,95.707,17.914L97.582,21.742L96.156,21.742L94.5,18.145L93.66,18.145L93.66,21.742L92.41,21.742L92.41,12.922"/>
<path fill="#FFFFFF" d="M103.41,12.922L104.656,12.922L105.375,17.266C105.5,17.969,105.648,19.352,105.73,20.41C105.809,19.352,105.961,17.984,106.082,17.266L106.812,12.922L108.09,12.922L108.82,17.266C108.945,17.969,109.078,19.34,109.16,20.383C109.242,19.34,109.406,17.969,109.527,17.266L110.246,12.922L111.453,12.922L109.77,21.742L108.48,21.742L107.766,17.398C107.656,16.75,107.508,15.516,107.426,14.496C107.344,15.516,107.207,16.75,107.098,17.398L106.367,21.742L105.09,21.742L103.41,12.922"/>
<path fill="#FFFFFF" d="M112.672,12.922L116.797,12.922L116.797,13.98L113.922,13.98L113.922,16.68L116.238,16.68L116.238,17.727L113.922,17.727L113.922,20.684L116.797,20.684L116.797,21.742L112.672,21.742L112.672,12.922"/>
<path fill="#FFFFFF" d="M117.523,12.922L122.586,12.922L122.586,13.98L120.672,13.98L120.672,21.742L119.426,21.742L119.426,13.98L117.523,13.98L117.523,12.922"/>
<path fill="#FFFFFF" d="M123.629,12.922L127.754,12.922L127.754,13.98L124.879,13.98L124.879,16.68L127.195,16.68L127.195,17.727L124.879,17.727L124.879,20.684L127.754,20.684L127.754,21.742L123.629,21.742L123.629,12.922"/>
<path fill="#FFFFFF" d="M129.395,12.922L130.828,12.922L133.609,19.949C133.516,19.23,133.438,18.391,133.438,17.602L133.438,12.922L134.629,12.922L134.629,21.742L133.191,21.742L130.383,14.688C130.488,15.406,130.586,16.262,130.586,17.062L130.586,21.742L129.395,21.742L129.395,12.922"/>
<path fill="#FFFFFF" d="M141.383,17.332C141.383,14.035,142.102,12.762,144.242,12.762C144.895,12.762,145.477,12.922,145.762,13.086L145.762,14.238C145.438,14.062,144.867,13.887,144.324,13.887C143.035,13.887,142.672,14.469,142.672,17.332C142.672,20.223,143.062,20.793,144.324,20.793C144.879,20.793,145.52,20.602,145.844,20.41L145.844,21.562C145.559,21.727,144.879,21.902,144.27,21.902C141.949,21.918,141.383,20.629,141.383,17.332"/>
<path fill="#FFFFFF" d="M151.059,17.738L148.371,17.738L148.371,21.742L147.125,21.742L147.125,12.922L148.371,12.922L148.371,16.68L151.059,16.68L151.059,12.922L152.309,12.922L152.309,21.742L151.059,21.742L151.059,17.738"/>
<path fill="#FFFFFF" d="M155.289,18.688L157.23,18.688L156.863,17.223C156.672,16.492,156.43,15.363,156.277,14.387C156.117,15.363,155.859,16.492,155.672,17.223Z M155.629,12.922L156.918,12.922L159.266,21.742L157.961,21.742L157.445,19.746L155.047,19.746L154.543,21.742L153.281,21.742L155.629,12.922"/>
<path fill="#FFFFFF" d="M161.488,13.98L161.488,17.496L162.219,17.496C163.195,17.496,163.727,17.141,163.727,15.73C163.727,14.32,163.195,13.98,162.219,13.98Z M160.238,12.922L162.355,12.922C164.023,12.922,165.016,13.629,165.016,15.73C165.016,17.781,163.984,18.539,162.355,18.539L161.488,18.539L161.488,21.742L160.238,21.742L160.238,12.922"/>
<path fill="#FFFFFF" d="M167.715,13.98L167.715,17.496L168.445,17.496C169.422,17.496,169.949,17.141,169.949,15.73C169.949,14.32,169.422,13.98,168.445,13.98Z M166.465,12.922L168.578,12.922C170.25,12.922,171.238,13.629,171.238,15.73C171.238,17.781,170.211,18.539,168.578,18.539L167.715,18.539L167.715,21.742L166.465,21.742L166.465,12.922"/>
<path fill="#FFFFFF" d="M172.688,12.922L176.812,12.922L176.812,13.98L173.938,13.98L173.938,16.68L176.258,16.68L176.258,17.727L173.938,17.727L173.938,20.684L176.812,20.684L176.812,21.742L172.688,21.742L172.688,12.922"/>
<path fill="#FFFFFF" d="M178.453,12.922L179.891,12.922L182.672,19.949C182.574,19.23,182.496,18.391,182.496,17.602L182.496,12.922L183.688,12.922L183.688,21.742L182.25,21.742L179.441,14.688C179.551,15.406,179.645,16.262,179.645,17.062L179.645,21.742L178.453,21.742L178.453,12.922"/>
<path fill="#FFFFFF" d="M25.773,0.48L29.762,0.48L29.762,1.539L27.02,1.539L27.02,4.238L29.219,4.238L29.219,5.281L27.02,5.281L27.02,9.297L25.773,9.297L25.773,0.48"/>
<path fill="#FFFFFF" d="M31.633,6.246L33.57,6.246L33.203,4.781C33.016,4.047,32.77,2.922,32.621,1.945C32.457,2.922,32.199,4.047,32.012,4.781Z M31.969,0.48L33.258,0.48L35.605,9.297L34.305,9.297L33.789,7.305L31.387,7.305L30.887,9.297L29.621,9.297L31.969,0.48"/>
<path fill="#FFFFFF" d="M36.242,4.891C36.242,1.594,36.961,0.316,39.102,0.316C39.754,0.316,40.34,0.48,40.621,0.645L40.621,1.797C40.297,1.621,39.727,1.445,39.184,1.445C37.898,1.445,37.531,2.027,37.531,4.891C37.531,7.777,37.922,8.348,39.184,8.348C39.742,8.348,40.379,8.156,40.703,7.969L40.703,9.121C40.418,9.285,39.742,9.461,39.133,9.461C36.812,9.473,36.242,8.184,36.242,4.891"/>
<path fill="#FFFFFF" d="M41.918,6.637L41.918,0.48L43.164,0.48L43.164,6.691C43.164,7.996,43.613,8.375,44.523,8.375C45.43,8.375,45.879,7.996,45.879,6.691L45.879,0.48L47.129,0.48L47.129,6.637C47.129,8.645,46.285,9.461,44.523,9.461C42.73,9.461,41.918,8.672,41.918,6.637"/>
<path fill="#FFFFFF" d="M49.023,0.48L50.273,0.48L50.273,8.238L53.012,8.238L53.012,9.297L49.023,9.297L49.023,0.48"/>
<path fill="#FFFFFF" d="M52.578,0.48L57.637,0.48L57.637,1.539L55.723,1.539L55.723,9.297L54.477,9.297L54.477,1.539L52.578,1.539L52.578,0.48"/>
<path fill="#FFFFFF" d="M58.68,0.48L62.805,0.48L62.805,1.539L59.93,1.539L59.93,4.238L62.246,4.238L62.246,5.281L59.93,5.281L59.93,8.238L62.805,8.238L62.805,9.297L58.68,9.297L58.68,0.48"/>
<path fill="#FFFFFF" d="M64.445,9.297L65.691,9.297L65.691,0.48L64.445,0.48Z M64.445,9.297"/>
<path fill="#FFFFFF" d="M66.734,0.48L71.793,0.48L71.793,1.539L69.883,1.539L69.883,9.297L68.637,9.297L68.637,1.539L66.734,1.539L66.734,0.48"/>
<path fill="#FFFFFF" d="M101.172,13.832C101.723,13.828,102.242,14.008,102.48,14.195L102.48,13.074C102.242,12.926,101.656,12.762,101.062,12.762C99.406,12.762,98.496,13.703,98.496,15.07C98.496,16.207,98.98,16.754,99.758,17.426L100.465,18.039C101.051,18.527,101.414,18.906,101.414,19.641C101.414,20.496,100.848,20.836,99.996,20.836C99.355,20.836,98.816,20.66,98.512,20.445L98.512,21.59C98.781,21.746,99.348,21.906,100.109,21.906C101.762,21.902,102.672,20.961,102.676,19.598C102.676,18.461,102.191,17.914,101.414,17.242L100.707,16.629C100.117,16.125,99.754,15.762,99.758,15.031C99.758,14.168,100.32,13.832,101.172,13.832"/>
<path fill="#FFFFFF" d="M138.742,13.832C139.297,13.828,139.812,14.008,140.055,14.195L140.055,13.074C139.812,12.926,139.23,12.762,138.637,12.762C136.98,12.762,136.066,13.703,136.066,15.07C136.066,16.207,136.551,16.754,137.324,17.426L138.035,18.039C138.621,18.527,138.984,18.906,138.984,19.641C138.984,20.496,138.422,20.836,137.566,20.836C136.926,20.836,136.391,20.66,136.078,20.445L136.078,21.59C136.352,21.746,136.918,21.906,137.68,21.906C139.332,21.902,140.242,20.961,140.246,19.598C140.246,18.461,139.762,17.914,138.984,17.242L138.277,16.629C137.688,16.125,137.324,15.762,137.324,15.031C137.328,14.168,137.891,13.832,138.742,13.832"/>
<path fill="#FFFFFF" d="M10.891,8.539C9.469,8.539,8.316,9.691,8.316,11.109C8.316,12.531,9.469,13.684,10.891,13.684C12.309,13.684,13.461,12.531,13.461,11.109C13.461,9.691,12.309,8.539,10.891,8.539Z M12.215,11.109C12.215,11.844,11.621,12.434,10.891,12.434C10.156,12.434,9.566,11.844,9.566,11.109C9.566,10.379,10.156,9.785,10.891,9.785C11.621,9.785,12.215,10.379,12.215,11.109"/>
<path fill="#FFFFFF" d="M16.27,1.641C14.852,1.641,13.699,2.793,13.699,4.211C13.699,5.633,14.852,6.785,16.27,6.785C17.691,6.785,18.844,5.633,18.844,4.211C18.844,2.793,17.691,1.641,16.27,1.641Z M17.598,4.211C17.598,4.945,17.004,5.539,16.27,5.539C15.539,5.539,14.945,4.945,14.945,4.211C14.945,3.48,15.539,2.887,16.27,2.887C17.004,2.887,17.598,3.48,17.598,4.211"/>
<path fill="#FFFFFF" d="M10.891,1.727C11.18,1.727,11.465,1.746,11.746,1.77L11.859,0.531C11.539,0.5,11.219,0.48,10.891,0.48C5.02,0.48,0.262,5.238,0.262,11.109C0.262,16.98,5.02,21.742,10.891,21.742C16.762,21.742,21.52,16.98,21.52,11.109C21.52,9.879,21.301,8.703,20.914,7.605L19.738,8.016C20.078,8.988,20.273,10.023,20.273,11.109C20.273,16.293,16.07,20.492,10.891,20.492C5.707,20.492,1.508,16.293,1.508,11.109C1.508,5.93,5.707,1.727,10.891,1.727"/>
<path fill="#FFFFFF" d="M10.891,4.223C11.102,4.223,11.309,4.234,11.52,4.254L11.633,3.012C11.387,2.992,11.141,2.977,10.891,2.977C6.398,2.977,2.754,6.617,2.754,11.109C2.754,15.602,6.398,19.246,10.891,19.246C15.383,19.246,19.027,15.602,19.027,11.109C19.027,10.168,18.855,9.27,18.562,8.426L17.387,8.84C17.637,9.551,17.777,10.312,17.777,11.109C17.777,14.914,14.695,18,10.891,18C7.086,18,4,14.914,4,11.109C4,7.305,7.086,4.223,10.891,4.223"/>
</g>
</svg>
