<?xml version="1.0" encoding="UTF-8"?>
<svg xmlns="http://www.w3.org/2000/svg" xmlns:xlink="http://www.w3.org/1999/xlink" width="125pt" height="22pt" viewBox="0 0 125 22" version="1.1">
<g id="surface1">
<path fill="#FFFFFF" d="M27.02,13.98L27.02,17.086L27.684,17.086C28.66,17.086,29.312,16.883,29.312,15.527C29.312,14.184,28.66,13.98,27.684,13.98Z M25.773,12.922L27.805,12.922C29.434,12.922,30.602,13.531,30.602,15.527C30.602,16.926,29.922,17.602,29.066,17.914L30.941,21.738L29.516,21.738L27.859,18.145L27.02,18.145L27.02,21.738L25.773,21.738L25.773,12.922"/>
<path fill="#FFFFFF" d="M32.293,12.922L36.418,12.922L36.418,13.98L33.543,13.98L33.543,16.68L35.863,16.68L35.863,17.723L33.543,17.723L33.543,20.684L36.418,20.684L36.418,21.738L32.293,21.738L32.293,12.922"/>
<path fill="#FFFFFF" d="M37.516,17.332C37.516,14.035,38.234,12.758,40.379,12.758C41.027,12.758,41.613,12.922,41.898,13.086L41.898,14.238C41.57,14.062,41,13.887,40.461,13.887C39.172,13.887,38.805,14.469,38.805,17.332C38.805,20.219,39.199,20.789,40.461,20.789C41.016,20.789,41.652,20.602,41.977,20.41L41.977,21.562C41.695,21.727,41.016,21.902,40.406,21.902C38.086,21.918,37.516,20.629,37.516,17.332"/>
<path fill="#FFFFFF" d="M47.336,17.738L44.648,17.738L44.648,21.738L43.402,21.738L43.402,12.922L44.648,12.922L44.648,16.68L47.336,16.68L47.336,12.922L48.582,12.922L48.582,21.738L47.336,21.738L47.336,17.738"/>
<path fill="#FFFFFF" d="M49.625,12.922L54.684,12.922L54.684,13.98L52.773,13.98L52.773,21.738L51.523,21.738L51.523,13.98L49.625,13.98L49.625,12.922"/>
<path fill="#FFFFFF" d="M60.465,17.332C60.465,13.859,61.387,12.758,63.676,12.758C64.328,12.758,65.02,12.938,65.32,13.113L65.32,14.266C64.992,14.074,64.371,13.871,63.773,13.871C62.309,13.871,61.75,14.414,61.75,17.332C61.75,20.219,62.145,20.816,63.418,20.816C63.812,20.816,64.141,20.762,64.383,20.695L64.383,17.75L63.082,17.75L63.082,16.695L65.633,16.695L65.633,21.453C65.371,21.617,64.344,21.902,63.434,21.902C61.047,21.902,60.465,20.656,60.465,17.332"/>
<path fill="#FFFFFF" d="M67.473,12.922L71.598,12.922L71.598,13.98L68.723,13.98L68.723,16.68L71.043,16.68L71.043,17.723L68.723,17.723L68.723,20.684L71.598,20.684L71.598,21.738L67.473,21.738L67.473,12.922"/>
<path fill="#FFFFFF" d="M73.238,12.922L74.484,12.922L74.484,20.684L77.227,20.684L77.227,21.738L73.238,21.738L73.238,12.922"/>
<path fill="#FFFFFF" d="M78.418,12.922L82.543,12.922L82.543,13.98L79.668,13.98L79.668,16.68L81.984,16.68L81.984,17.723L79.668,17.723L79.668,20.684L82.543,20.684L82.543,21.738L78.418,21.738L78.418,12.922"/>
<path fill="#FFFFFF" d="M84.184,12.922L88.305,12.922L88.305,13.98L85.43,13.98L85.43,16.68L87.75,16.68L87.75,17.723L85.43,17.723L85.43,20.684L88.305,20.684L88.305,21.738L84.184,21.738L84.184,12.922"/>
<path fill="#FFFFFF" d="M91.195,13.98L91.195,17.086L91.859,17.086C92.836,17.086,93.484,16.883,93.484,15.527C93.484,14.184,92.836,13.98,91.859,13.98Z M89.945,12.922L91.98,12.922C93.609,12.922,94.773,13.531,94.773,15.527C94.773,16.926,94.098,17.602,93.242,17.914L95.113,21.738L93.691,21.738L92.035,18.145L91.195,18.145L91.195,21.738L89.945,21.738L89.945,12.922"/>
<path fill="#FFFFFF" d="M97.719,13.953L97.719,20.707L98.68,20.707C99.953,20.707,100.336,20.125,100.336,17.332C100.336,14.535,99.953,13.953,98.68,13.953Z M96.469,12.922L98.773,12.922C101.082,12.922,101.625,14.156,101.625,17.332C101.625,20.465,101.066,21.738,98.773,21.738L96.469,21.738L96.469,12.922"/>
<path fill="#FFFFFF" d="M107.184,17.738L104.496,17.738L104.496,21.738L103.25,21.738L103.25,12.922L104.496,12.922L104.496,16.68L107.184,16.68L107.184,12.922L108.434,12.922L108.434,21.738L107.184,21.738L107.184,17.738"/>
<path fill="#FFFFFF" d="M110.395,12.922L114.52,12.922L114.52,13.98L111.645,13.98L111.645,16.68L113.965,16.68L113.965,17.723L111.645,17.723L111.645,20.684L114.52,20.684L114.52,21.738L110.395,21.738L110.395,12.922"/>
<path fill="#FFFFFF" d="M116.16,21.738L117.406,21.738L117.406,12.922L116.16,12.922Z M116.16,21.738"/>
<path fill="#FFFFFF" d="M120.621,13.953L120.621,20.707L121.586,20.707C122.859,20.707,123.238,20.125,123.238,17.332C123.238,14.535,122.859,13.953,121.586,13.953Z M119.375,12.922L121.68,12.922C123.984,12.922,124.527,14.156,124.527,17.332C124.527,20.465,123.973,21.738,121.68,21.738L119.375,21.738L119.375,12.922"/>
<path fill="#FFFFFF" d="M25.773,0.48L29.762,0.48L29.762,1.539L27.02,1.539L27.02,4.238L29.219,4.238L29.219,5.281L27.02,5.281L27.02,9.297L25.773,9.297L25.773,0.48"/>
<path fill="#FFFFFF" d="M31.633,6.246L33.57,6.246L33.203,4.777C33.016,4.047,32.77,2.922,32.621,1.945C32.457,2.922,32.199,4.047,32.012,4.777Z M31.969,0.48L33.258,0.48L35.605,9.297L34.305,9.297L33.789,7.301L31.387,7.301L30.887,9.297L29.621,9.297L31.969,0.48"/>
<path fill="#FFFFFF" d="M36.242,4.887C36.242,1.59,36.961,0.316,39.102,0.316C39.754,0.316,40.34,0.48,40.621,0.641L40.621,1.793C40.297,1.617,39.727,1.441,39.184,1.441C37.898,1.441,37.531,2.027,37.531,4.887C37.531,7.777,37.922,8.348,39.184,8.348C39.742,8.348,40.379,8.156,40.703,7.969L40.703,9.121C40.418,9.281,39.742,9.461,39.133,9.461C36.812,9.473,36.242,8.184,36.242,4.887"/>
<path fill="#FFFFFF" d="M41.918,6.637L41.918,0.48L43.164,0.48L43.164,6.691C43.164,7.996,43.613,8.375,44.523,8.375C45.43,8.375,45.879,7.996,45.879,6.691L45.879,0.48L47.129,0.48L47.129,6.637C47.129,8.645,46.285,9.461,44.523,9.461C42.73,9.461,41.918,8.672,41.918,6.637"/>
<path fill="#FFFFFF" d="M49.023,0.48L50.273,0.48L50.273,8.238L53.012,8.238L53.012,9.297L49.023,9.297L49.023,0.48"/>
<path fill="#FFFFFF" d="M52.578,0.48L57.637,0.48L57.637,1.539L55.723,1.539L55.723,9.297L54.477,9.297L54.477,1.539L52.578,1.539L52.578,0.48"/>
<path fill="#FFFFFF" d="M58.68,0.48L62.805,0.48L62.805,1.539L59.93,1.539L59.93,4.238L62.246,4.238L62.246,5.281L59.93,5.281L59.93,8.238L62.805,8.238L62.805,9.297L58.68,9.297L58.68,0.48"/>
<path fill="#FFFFFF" d="M64.445,9.297L65.691,9.297L65.691,0.48L64.445,0.48Z M64.445,9.297"/>
<path fill="#FFFFFF" d="M66.734,0.48L71.793,0.48L71.793,1.539L69.883,1.539L69.883,9.297L68.637,9.297L68.637,1.539L66.734,1.539L66.734,0.48"/>
<path fill="#FFFFFF" d="M8.918,16.754L5.184,8.562L3.992,8.562L0.262,16.754L1.629,16.754L4.59,10.262L7.547,16.754L8.918,16.754"/>
<path fill="#FFFFFF" d="M21.52,16.754L17.785,8.562L16.598,8.562L12.863,16.754L14.23,16.754L17.191,10.262L20.152,16.754L21.52,16.754"/>
<path fill="#FFFFFF" d="M57.824,13.828C58.375,13.828,58.895,14.008,59.133,14.195L59.133,13.07C58.895,12.926,58.309,12.762,57.715,12.762C56.059,12.762,55.148,13.703,55.148,15.07C55.148,16.207,55.633,16.754,56.406,17.426L57.117,18.039C57.703,18.527,58.066,18.906,58.066,19.641C58.066,20.496,57.5,20.836,56.652,20.836C56.008,20.836,55.469,20.656,55.16,20.445L55.16,21.59C55.434,21.746,56,21.906,56.762,21.902C58.414,21.898,59.324,20.961,59.328,19.598C59.328,18.461,58.844,17.91,58.066,17.242L57.359,16.629C56.77,16.125,56.406,15.762,56.406,15.031C56.41,14.168,56.973,13.832,57.824,13.828"/>
<path fill="#FFFFFF" d="M8.918,20.492L0.262,20.492L1.508,21.738L7.668,21.738L8.918,20.492"/>
<path fill="#FFFFFF" d="M21.52,20.492L12.863,20.492L14.109,21.738L20.273,21.738L21.52,20.492"/>
<path fill="#FFFFFF" d="M0.262,19.246L8.918,19.246L8.918,18L0.262,18Z M0.262,19.246"/>
<path fill="#FFFFFF" d="M4.562,7.316L17.219,7.316L16.648,6.07L5.129,6.07L4.562,7.316"/>
<path fill="#FFFFFF" d="M12.863,19.246L21.52,19.246L21.52,18L12.863,18Z M12.863,19.246"/>
<path fill="#FFFFFF" d="M12.863,0.48L8.918,0.48L8.918,1.727L10.266,1.727L10.266,4.824L11.512,4.824L11.512,1.727L12.863,1.727L12.863,0.48"/>
</g>
</svg>
