<?xml version="1.0" encoding="UTF-8"?>
<svg xmlns="http://www.w3.org/2000/svg" xmlns:xlink="http://www.w3.org/1999/xlink" width="130pt" height="32pt" viewBox="0 0 130 32" version="1.1">
<g id="surface1">
<path fill="#FFFFFF" d="M24.797,12.922L26.098,12.922L27.211,17.508C27.375,18.199,27.578,19.367,27.699,20.289C27.824,19.367,28.027,18.199,28.215,17.508L29.316,12.922L30.578,12.922L28.34,21.738L27.035,21.738L24.797,12.922"/>
<path fill="#FFFFFF" d="M31.566,12.922L35.691,12.922L35.691,13.98L32.812,13.98L32.812,16.68L35.133,16.68L35.133,17.723L32.812,17.723L32.812,20.684L35.691,20.684L35.691,21.738L31.566,21.738L31.566,12.922"/>
<path fill="#FFFFFF" d="M36.418,12.922L41.477,12.922L41.477,13.98L39.566,13.98L39.566,21.738L38.316,21.738L38.316,13.98L36.418,13.98L36.418,12.922"/>
<path fill="#FFFFFF" d="M42.523,12.922L46.645,12.922L46.645,13.98L43.77,13.98L43.77,16.68L46.09,16.68L46.09,17.723L43.77,17.723L43.77,20.684L46.645,20.684L46.645,21.738L42.523,21.738L42.523,12.922"/>
<path fill="#FFFFFF" d="M49.531,13.98L49.531,17.09L50.199,17.09C51.176,17.09,51.828,16.883,51.828,15.527C51.828,14.184,51.176,13.98,50.199,13.98Z M48.285,12.922L50.32,12.922C51.949,12.922,53.113,13.531,53.113,15.527C53.113,16.926,52.434,17.602,51.582,17.914L53.453,21.738L52.031,21.738L50.375,18.145L49.531,18.145L49.531,21.738L48.285,21.738L48.285,12.922"/>
<path fill="#FFFFFF" d="M54.809,21.738L56.059,21.738L56.059,12.922L54.809,12.922Z M54.809,21.738"/>
<path fill="#FFFFFF" d="M58.023,12.922L59.461,12.922L62.238,19.949C62.148,19.23,62.066,18.391,62.066,17.602L62.066,12.922L63.258,12.922L63.258,21.738L61.82,21.738L59.012,14.688C59.121,15.406,59.215,16.262,59.215,17.059L59.215,21.738L58.023,21.738L58.023,12.922"/>
<path fill="#FFFFFF" d="M66.238,18.688L68.18,18.688L67.816,17.223C67.625,16.488,67.379,15.363,67.23,14.387C67.07,15.363,66.809,16.488,66.621,17.223Z M66.582,12.922L67.867,12.922L70.215,21.738L68.914,21.738L68.398,19.746L65.996,19.746L65.492,21.738L64.23,21.738L66.582,12.922"/>
<path fill="#FFFFFF" d="M72.438,13.98L72.438,17.09L73.102,17.09C74.082,17.09,74.73,16.883,74.73,15.527C74.73,14.184,74.082,13.98,73.102,13.98Z M71.191,12.922L73.223,12.922C74.852,12.922,76.02,13.531,76.02,15.527C76.02,16.926,75.344,17.602,74.484,17.914L76.359,21.738L74.934,21.738L73.281,18.145L72.438,18.145L72.438,21.738L71.191,21.738L71.191,12.922"/>
<path fill="#FFFFFF" d="M78.73,18.078L76.316,12.922L77.688,12.922L78.73,15.297C78.973,15.867,79.207,16.477,79.355,17.02C79.52,16.477,79.762,15.867,80.008,15.297L81.051,12.922L82.383,12.922L79.98,18.078L79.98,21.738L78.73,21.738L78.73,18.078"/>
<path fill="#FFFFFF" d="M85.762,12.922L87.371,12.922L88.922,17.562L90.48,12.922L92.039,12.922L92.039,21.738L90.848,21.738L90.848,17.156C90.848,16.18,90.914,15.16,90.996,14.375L89.395,19.121L88.402,19.121L86.789,14.359C86.871,15.148,86.953,16.18,86.953,17.156L86.953,21.738L85.762,21.738L85.762,12.922"/>
<path fill="#FFFFFF" d="M94.004,12.922L98.129,12.922L98.129,13.98L95.254,13.98L95.254,16.68L97.57,16.68L97.57,17.723L95.254,17.723L95.254,20.684L98.129,20.684L98.129,21.738L94.004,21.738L94.004,12.922"/>
<path fill="#FFFFFF" d="M101.016,13.953L101.016,20.711L101.98,20.711C103.254,20.711,103.637,20.125,103.637,17.332C103.637,14.535,103.254,13.953,101.98,13.953Z M99.77,12.922L102.074,12.922C104.383,12.922,104.926,14.156,104.926,17.332C104.926,20.465,104.367,21.738,102.074,21.738L99.77,21.738L99.77,12.922"/>
<path fill="#FFFFFF" d="M106.551,21.738L107.797,21.738L107.797,12.922L106.551,12.922Z M106.551,21.738"/>
<path fill="#FFFFFF" d="M109.426,17.332C109.426,14.035,110.145,12.762,112.285,12.762C112.938,12.762,113.52,12.922,113.805,13.086L113.805,14.238C113.48,14.062,112.91,13.887,112.367,13.887C111.078,13.887,110.715,14.469,110.715,17.332C110.715,20.219,111.105,20.789,112.367,20.789C112.926,20.789,113.562,20.602,113.887,20.41L113.887,21.562C113.602,21.727,112.926,21.902,112.312,21.902C109.992,21.918,109.426,20.629,109.426,17.332"/>
<path fill="#FFFFFF" d="M115.312,21.738L116.559,21.738L116.559,12.922L115.312,12.922Z M115.312,21.738"/>
<path fill="#FFFFFF" d="M118.523,12.922L119.961,12.922L122.742,19.949C122.648,19.23,122.566,18.391,122.566,17.602L122.566,12.922L123.762,12.922L123.762,21.738L122.32,21.738L119.516,14.688C119.621,15.406,119.719,16.262,119.719,17.059L119.719,21.738L118.523,21.738L118.523,12.922"/>
<path fill="#FFFFFF" d="M125.727,12.922L129.852,12.922L129.852,13.98L126.973,13.98L126.973,16.68L129.293,16.68L129.293,17.723L126.973,17.723L126.973,20.684L129.852,20.684L129.852,21.738L125.727,21.738L125.727,12.922"/>
<path fill="#FFFFFF" d="M25.773,0.48L29.762,0.48L29.762,1.539L27.02,1.539L27.02,4.238L29.219,4.238L29.219,5.281L27.02,5.281L27.02,9.297L25.773,9.297L25.773,0.48"/>
<path fill="#FFFFFF" d="M31.633,6.246L33.57,6.246L33.207,4.781C33.016,4.047,32.77,2.922,32.621,1.945C32.461,2.922,32.203,4.047,32.012,4.781Z M31.969,0.48L33.258,0.48L35.605,9.297L34.305,9.297L33.789,7.305L31.387,7.305L30.887,9.297L29.621,9.297L31.969,0.48"/>
<path fill="#FFFFFF" d="M36.242,4.891C36.242,1.594,36.961,0.316,39.102,0.316C39.758,0.316,40.34,0.48,40.621,0.645L40.621,1.797C40.297,1.621,39.727,1.445,39.184,1.445C37.898,1.445,37.531,2.027,37.531,4.891C37.531,7.777,37.922,8.348,39.184,8.348C39.742,8.348,40.379,8.156,40.707,7.969L40.707,9.121C40.418,9.285,39.742,9.461,39.133,9.461C36.812,9.473,36.242,8.184,36.242,4.891"/>
<path fill="#FFFFFF" d="M41.918,6.641L41.918,0.48L43.168,0.48L43.168,6.695C43.168,7.996,43.613,8.375,44.523,8.375C45.434,8.375,45.879,7.996,45.879,6.695L45.879,0.48L47.129,0.48L47.129,6.641C47.129,8.648,46.285,9.461,44.523,9.461C42.73,9.461,41.918,8.672,41.918,6.641"/>
<path fill="#FFFFFF" d="M49.023,0.48L50.273,0.48L50.273,8.238L53.012,8.238L53.012,9.297L49.023,9.297L49.023,0.48"/>
<path fill="#FFFFFF" d="M52.578,0.48L57.637,0.48L57.637,1.539L55.727,1.539L55.727,9.297L54.477,9.297L54.477,1.539L52.578,1.539L52.578,0.48"/>
<path fill="#FFFFFF" d="M60.535,5.637L58.121,0.48L59.492,0.48L60.535,2.855C60.781,3.422,61.012,4.035,61.16,4.578C61.324,4.035,61.566,3.422,61.812,2.855L62.855,0.48L64.184,0.48L61.785,5.637L61.785,9.297L60.535,9.297L60.535,5.637"/>
<path fill="#FFFFFF" d="M71.348,4.891C71.348,2.121,71.066,1.402,69.926,1.402C68.785,1.402,68.516,2.121,68.516,4.891C68.516,7.656,68.785,8.375,69.926,8.375C71.066,8.375,71.348,7.656,71.348,4.891Z M67.227,4.891C67.227,1.238,68.094,0.316,69.926,0.316C71.812,0.316,72.637,1.199,72.637,4.891C72.637,8.551,71.77,9.461,69.926,9.461C68.055,9.461,67.227,8.594,67.227,4.891"/>
<path fill="#FFFFFF" d="M74.266,0.48L78.254,0.48L78.254,1.539L75.512,1.539L75.512,4.238L77.711,4.238L77.711,5.281L75.512,5.281L75.512,9.297L74.266,9.297L74.266,0.48"/>
<path fill="#FFFFFF" d="M27.367,29.707L27.367,28.59C27.188,28.453,26.965,28.34,26.68,28.34C26.211,28.34,26.07,28.609,26.07,29.148C26.07,29.691,26.211,29.961,26.68,29.961C26.965,29.961,27.188,29.848,27.367,29.707M27.426,30.02C27.203,30.215,26.926,30.332,26.598,30.332C25.852,30.332,25.613,29.879,25.613,29.148C25.613,28.422,25.867,27.961,26.598,27.961C26.891,27.961,27.152,28.074,27.367,28.238L27.367,27.754C27.367,27.141,27.18,26.82,26.57,26.82C26.211,26.82,25.891,26.984,25.773,27.066L25.773,26.641C25.906,26.551,26.219,26.422,26.621,26.422C27.441,26.422,27.805,26.855,27.805,27.668L27.805,30.242L27.488,30.242L27.426,30.02"/>
<path fill="#FFFFFF" d="M28.656,28.379C28.656,26.781,29.168,26.422,29.887,26.422C30.184,26.422,30.379,26.484,30.512,26.559L30.512,26.984C30.414,26.914,30.16,26.828,29.93,26.828C29.387,26.828,29.113,27.109,29.113,28.379C29.113,29.617,29.348,29.93,29.887,29.93C30.16,29.93,30.422,29.832,30.539,29.758L30.539,30.184C30.406,30.258,30.137,30.332,29.848,30.332C29.031,30.332,28.656,29.871,28.656,28.379"/>
<path fill="#FFFFFF" d="M31.105,28.379C31.105,26.781,31.621,26.422,32.34,26.422C32.637,26.422,32.832,26.484,32.965,26.559L32.965,26.984C32.867,26.914,32.613,26.828,32.383,26.828C31.84,26.828,31.57,27.109,31.57,28.379C31.57,29.617,31.801,29.93,32.34,29.93C32.613,29.93,32.875,29.832,32.996,29.758L32.996,30.184C32.859,30.258,32.594,30.332,32.301,30.332C31.488,30.332,31.105,29.871,31.105,28.379"/>
<path fill="#FFFFFF" d="M33.766,26.516L34.094,26.516L34.152,26.805C34.426,26.602,34.758,26.461,35.227,26.461L35.227,26.902C34.801,26.902,34.488,26.961,34.211,27.102L34.211,30.242L33.766,30.242L33.766,26.516"/>
<path fill="#FFFFFF" d="M36.156,28.102L37.531,28.102C37.512,27.141,37.344,26.812,36.844,26.812C36.336,26.812,36.18,27.141,36.156,28.102M35.703,28.387C35.703,26.855,36.062,26.422,36.844,26.422C37.645,26.422,37.984,26.844,37.984,28.379L37.984,28.48L36.156,28.48C36.172,29.66,36.41,29.93,37.031,29.93C37.359,29.93,37.711,29.797,37.828,29.715L37.828,30.141C37.703,30.223,37.375,30.332,36.98,30.332C36.098,30.332,35.703,29.902,35.703,28.387"/>
<path fill="#FFFFFF" d="M40.551,29.742L40.551,27.023C40.395,26.906,40.18,26.82,39.949,26.82C39.367,26.82,39.195,27.148,39.195,28.379C39.195,29.609,39.367,29.938,39.949,29.938C40.18,29.938,40.395,29.848,40.551,29.742M40.637,30.047C40.434,30.23,40.164,30.332,39.875,30.332C39.07,30.332,38.73,29.93,38.73,28.379C38.73,26.848,39.09,26.422,39.867,26.422C40.137,26.422,40.367,26.516,40.551,26.648L40.551,25.395L41,25.395L41,30.242L40.68,30.242L40.637,30.047"/>
<path fill="#FFFFFF" d="M42.039,26.516L42.484,26.516L42.484,30.242L42.039,30.242Z M41.984,25.746C41.984,25.566,42.098,25.457,42.289,25.457C42.492,25.457,42.598,25.566,42.598,25.746C42.598,25.922,42.492,26.035,42.289,26.035C42.098,26.035,41.984,25.922,41.984,25.746"/>
<path fill="#FFFFFF" d="M43.141,26.516L43.672,26.516L43.672,25.395L44.117,25.395L44.117,26.516L44.879,26.516L44.879,26.895L44.117,26.895L44.117,29.402C44.117,29.828,44.277,29.895,44.641,29.895L44.805,29.895L44.805,30.273L44.531,30.273C44.09,30.273,43.672,30.16,43.672,29.453L43.672,26.895L43.141,26.895L43.141,26.516"/>
<path fill="#FFFFFF" d="M45.926,28.102L47.297,28.102C47.277,27.141,47.109,26.812,46.609,26.812C46.102,26.812,45.945,27.141,45.926,28.102M45.469,28.387C45.469,26.855,45.828,26.422,46.609,26.422C47.406,26.422,47.754,26.844,47.754,28.379L47.754,28.48L45.926,28.48C45.941,29.66,46.176,29.93,46.797,29.93C47.125,29.93,47.477,29.797,47.594,29.715L47.594,30.141C47.469,30.223,47.141,30.332,46.746,30.332C45.863,30.332,45.469,29.902,45.469,28.387"/>
<path fill="#FFFFFF" d="M50.32,29.742L50.32,27.023C50.16,26.906,49.945,26.82,49.715,26.82C49.133,26.82,48.961,27.148,48.961,28.379C48.961,29.609,49.133,29.938,49.715,29.938C49.945,29.938,50.16,29.848,50.32,29.742M50.402,30.047C50.199,30.23,49.93,30.332,49.641,30.332C48.836,30.332,48.496,29.93,48.496,28.379C48.496,26.848,48.855,26.422,49.633,26.422C49.902,26.422,50.133,26.516,50.32,26.648L50.32,25.395L50.766,25.395L50.766,30.242L50.445,30.242L50.402,30.047"/>
<path fill="#FFFFFF" d="M53.773,27.023L53.773,29.742C53.93,29.855,54.145,29.938,54.383,29.938C54.969,29.938,55.141,29.609,55.141,28.379C55.141,27.148,54.969,26.82,54.383,26.82C54.145,26.82,53.93,26.906,53.773,27.023M53.324,25.395L53.773,25.395L53.773,26.66C53.953,26.523,54.191,26.422,54.461,26.422C55.266,26.422,55.598,26.828,55.598,28.379C55.598,29.906,55.242,30.332,54.469,30.332C54.168,30.332,53.891,30.234,53.691,30.066L53.652,30.242L53.324,30.242L53.324,25.395"/>
<path fill="#FFFFFF" d="M57.094,30.215L56.07,26.516L56.531,26.516L57.102,28.684C57.184,28.996,57.281,29.402,57.332,29.719C57.375,29.402,57.473,28.996,57.555,28.684L58.129,26.516L58.578,26.516L57.316,31.363L56.855,31.363L57.094,30.215"/>
<path fill="#FFFFFF" d="M60.762,25.395L62.828,25.395L62.828,25.797L61.223,25.797L61.223,27.543L62.512,27.543L62.512,27.945L61.223,27.945L61.223,29.84L62.828,29.84L62.828,30.242L60.762,30.242L60.762,25.395"/>
<path fill="#FFFFFF" d="M64.09,28.656L65.398,28.656L65.145,27.668C65,27.109,64.832,26.441,64.75,25.949C64.672,26.441,64.508,27.109,64.359,27.668Z M64.516,25.395L64.992,25.395L66.316,30.242L65.824,30.242L65.5,29.055L63.992,29.055L63.672,30.242L63.195,30.242L64.516,25.395"/>
<path fill="#FFFFFF" d="M66.965,25.395L69.031,25.395L69.031,25.797L67.426,25.797L67.426,27.543L68.715,27.543L68.715,27.945L67.426,27.945L67.426,29.84L69.031,29.84L69.031,30.242L66.965,30.242L66.965,25.395"/>
<path fill="#FFFFFF" d="M69.414,25.395L69.898,25.395L70.586,28.066C70.727,28.625,70.867,29.254,70.934,29.684C71.004,29.254,71.137,28.625,71.285,28.066L71.973,25.395L72.449,25.395L71.176,30.242L70.684,30.242L69.414,25.395"/>
<path fill="#FFFFFF" d="M73.105,25.395L75.172,25.395L75.172,25.797L73.57,25.797L73.57,27.543L74.859,27.543L74.859,27.945L73.57,27.945L73.57,29.84L75.172,29.84L75.172,30.242L73.105,30.242L73.105,25.395"/>
<path fill="#FFFFFF" d="M9.488,13.52C7.098,15.527,5.5,18.441,5.246,21.738L6.496,21.738C6.746,18.82,8.176,16.238,10.297,14.465L9.488,13.52"/>
<path fill="#FFFFFF" d="M11.398,9.43C6.562,11.539,3.105,16.215,2.754,21.738L4,21.738C4.348,16.715,7.512,12.473,11.918,10.566L11.398,9.43"/>
<path fill="#FFFFFF" d="M16.832,1.684L12.707,6.34C5.805,8.215,0.66,14.34,0.262,21.738L1.508,21.738C1.91,14.781,6.84,9.039,13.402,7.434L16.195,4.281L19.922,19.273L16.809,19.273L13.863,15.734L12.902,16.531L16.227,20.52L21.52,20.52L16.832,1.684"/>
</g>
</svg>
