<?xml version="1.0" encoding="UTF-8"?>
<svg xmlns="http://www.w3.org/2000/svg" xmlns:xlink="http://www.w3.org/1999/xlink" width="176pt" height="22pt" viewBox="0 0 176 22" version="1.1">
<g id="surface1">
<path fill="#FFFFFF" d="M23.332,13.98L23.332,17.492L24.066,17.492C25.043,17.492,25.57,17.141,25.57,15.73C25.57,14.32,25.043,13.98,24.066,13.98Z M22.086,12.922L24.203,12.922C25.871,12.922,26.859,13.629,26.859,15.73C26.859,17.777,25.828,18.539,24.203,18.539L23.332,18.539L23.332,21.738L22.086,21.738L22.086,12.922"/>
<path fill="#FFFFFF" d="M28.309,12.922L32.434,12.922L32.434,13.98L29.559,13.98L29.559,16.68L31.879,16.68L31.879,17.723L29.559,17.723L29.559,20.684L32.434,20.684L32.434,21.738L28.309,21.738L28.309,12.922"/>
<path fill="#FFFFFF" d="M35.32,13.953L35.32,20.707L36.285,20.707C37.559,20.707,37.941,20.125,37.941,17.332C37.941,14.535,37.559,13.953,36.285,13.953Z M34.074,12.922L36.379,12.922C38.688,12.922,39.23,14.156,39.23,17.332C39.23,20.465,38.672,21.738,36.379,21.738L34.074,21.738L34.074,12.922"/>
<path fill="#FFFFFF" d="M41.871,18.688L43.812,18.688L43.445,17.223C43.254,16.488,43.012,15.363,42.863,14.387C42.699,15.363,42.441,16.488,42.254,17.223Z M42.211,12.922L43.5,12.922L45.848,21.738L44.543,21.738L44.027,19.746L41.629,19.746L41.125,21.738L39.863,21.738L42.211,12.922"/>
<path fill="#FFFFFF" d="M46.484,17.332C46.484,13.859,47.406,12.762,49.699,12.762C50.348,12.762,51.039,12.938,51.34,13.113L51.34,14.266C51.016,14.074,50.391,13.871,49.793,13.871C48.328,13.871,47.773,14.414,47.773,17.332C47.773,20.219,48.164,20.816,49.441,20.816C49.832,20.816,50.16,20.762,50.402,20.695L50.402,17.75L49.102,17.75L49.102,16.695L51.652,16.695L51.652,21.453C51.395,21.617,50.363,21.902,49.453,21.902C47.066,21.902,46.484,20.656,46.484,17.332"/>
<path fill="#FFFFFF" d="M57.211,17.332C57.211,14.562,56.926,13.844,55.785,13.844C54.648,13.844,54.375,14.562,54.375,17.332C54.375,20.098,54.648,20.816,55.785,20.816C56.926,20.816,57.211,20.098,57.211,17.332Z M53.086,17.332C53.086,13.684,53.957,12.762,55.785,12.762C57.672,12.762,58.5,13.641,58.5,17.332C58.5,20.992,57.633,21.902,55.785,21.902C53.914,21.902,53.086,21.035,53.086,17.332"/>
<path fill="#FFFFFF" d="M59.855,17.332C59.855,13.859,60.777,12.762,63.07,12.762C63.719,12.762,64.414,12.938,64.711,13.113L64.711,14.266C64.387,14.074,63.762,13.871,63.164,13.871C61.699,13.871,61.145,14.414,61.145,17.332C61.145,20.219,61.535,20.816,62.812,20.816C63.207,20.816,63.531,20.762,63.773,20.695L63.773,17.75L62.473,17.75L62.473,16.695L65.023,16.695L65.023,21.453C64.766,21.617,63.734,21.902,62.824,21.902C60.438,21.902,59.855,20.656,59.855,17.332"/>
<path fill="#FFFFFF" d="M66.867,21.738L68.113,21.738L68.113,12.922L66.867,12.922Z M66.867,21.738"/>
<path fill="#FFFFFF" d="M74.867,17.332C74.867,14.035,75.586,12.762,77.727,12.762C78.383,12.762,78.965,12.922,79.246,13.086L79.246,14.238C78.922,14.062,78.352,13.887,77.809,13.887C76.523,13.887,76.156,14.469,76.156,17.332C76.156,20.219,76.547,20.789,77.809,20.789C78.367,20.789,79.004,20.602,79.328,20.41L79.328,21.562C79.047,21.727,78.367,21.902,77.758,21.902C75.434,21.918,74.867,20.629,74.867,17.332"/>
<path fill="#FFFFFF" d="M84.688,17.738L82,17.738L82,21.738L80.754,21.738L80.754,12.922L82,12.922L82,16.68L84.688,16.68L84.688,12.922L85.938,12.922L85.938,21.738L84.688,21.738L84.688,17.738"/>
<path fill="#FFFFFF" d="M87.898,12.922L92.023,12.922L92.023,13.98L89.148,13.98L89.148,16.68L91.469,16.68L91.469,17.723L89.148,17.723L89.148,20.684L92.023,20.684L92.023,21.738L87.898,21.738L87.898,12.922"/>
<path fill="#FFFFFF" d="M95.566,12.922L96.816,12.922L97.535,17.262C97.656,17.969,97.809,19.352,97.891,20.41C97.973,19.352,98.117,17.98,98.242,17.262L98.977,12.922L100.25,12.922L100.98,17.262C101.105,17.969,101.238,19.34,101.32,20.383C101.402,19.34,101.562,17.969,101.688,17.262L102.406,12.922L103.613,12.922L101.934,21.738L100.645,21.738L99.926,17.398C99.812,16.746,99.664,15.512,99.586,14.496C99.504,15.512,99.367,16.746,99.262,17.398L98.523,21.738L97.254,21.738L95.566,12.922"/>
<path fill="#FFFFFF" d="M104.832,12.922L108.953,12.922L108.953,13.98L106.078,13.98L106.078,16.68L108.398,16.68L108.398,17.723L106.078,17.723L106.078,20.684L108.953,20.684L108.953,21.738L104.832,21.738L104.832,12.922"/>
<path fill="#FFFFFF" d="M109.688,12.922L114.746,12.922L114.746,13.98L112.832,13.98L112.832,21.738L111.586,21.738L111.586,13.98L109.688,13.98L109.688,12.922"/>
<path fill="#FFFFFF" d="M115.789,12.922L119.914,12.922L119.914,13.98L117.035,13.98L117.035,16.68L119.355,16.68L119.355,17.723L117.035,17.723L117.035,20.684L119.914,20.684L119.914,21.738L115.789,21.738L115.789,12.922"/>
<path fill="#FFFFFF" d="M121.555,12.922L122.992,12.922L125.77,19.949C125.676,19.23,125.594,18.391,125.594,17.602L125.594,12.922L126.789,12.922L126.789,21.738L125.352,21.738L122.543,14.688C122.652,15.406,122.746,16.258,122.746,17.059L122.746,21.738L121.555,21.738L121.555,12.922"/>
<path fill="#FFFFFF" d="M133.539,17.332C133.539,14.035,134.262,12.762,136.402,12.762C137.055,12.762,137.637,12.922,137.922,13.086L137.922,14.238C137.598,14.062,137.027,13.887,136.484,13.887C135.195,13.887,134.828,14.469,134.828,17.332C134.828,20.219,135.223,20.789,136.484,20.789C137.039,20.789,137.68,20.602,138.004,20.41L138.004,21.562C137.719,21.727,137.039,21.902,136.43,21.902C134.109,21.918,133.539,20.629,133.539,17.332"/>
<path fill="#FFFFFF" d="M143.219,17.738L140.531,17.738L140.531,21.738L139.285,21.738L139.285,12.922L140.531,12.922L140.531,16.68L143.219,16.68L143.219,12.922L144.469,12.922L144.469,21.738L143.219,21.738L143.219,17.738"/>
<path fill="#FFFFFF" d="M147.449,18.688L149.391,18.688L149.023,17.223C148.836,16.488,148.59,15.363,148.438,14.387C148.277,15.363,148.02,16.488,147.828,17.223Z M147.789,12.922L149.078,12.922L151.426,21.738L150.121,21.738L149.605,19.746L147.203,19.746L146.703,21.738L145.441,21.738L147.789,12.922"/>
<path fill="#FFFFFF" d="M153.648,13.98L153.648,17.492L154.383,17.492C155.355,17.492,155.887,17.141,155.887,15.73C155.887,14.32,155.355,13.98,154.383,13.98Z M152.398,12.922L154.516,12.922C156.184,12.922,157.176,13.629,157.176,15.73C157.176,17.777,156.145,18.539,154.516,18.539L153.648,18.539L153.648,21.738L152.398,21.738L152.398,12.922"/>
<path fill="#FFFFFF" d="M159.871,13.98L159.871,17.492L160.605,17.492C161.582,17.492,162.109,17.141,162.109,15.73C162.109,14.32,161.582,13.98,160.605,13.98Z M158.625,12.922L160.738,12.922C162.406,12.922,163.398,13.629,163.398,15.73C163.398,17.777,162.367,18.539,160.738,18.539L159.871,18.539L159.871,21.738L158.625,21.738L158.625,12.922"/>
<path fill="#FFFFFF" d="M164.852,12.922L168.973,12.922L168.973,13.98L166.098,13.98L166.098,16.68L168.414,16.68L168.414,17.723L166.098,17.723L166.098,20.684L168.973,20.684L168.973,21.738L164.852,21.738L164.852,12.922"/>
<path fill="#FFFFFF" d="M170.613,12.922L172.051,12.922L174.832,19.949C174.734,19.23,174.652,18.391,174.652,17.602L174.652,12.922L175.852,12.922L175.852,21.738L174.41,21.738L171.605,14.688C171.711,15.406,171.809,16.258,171.809,17.059L171.809,21.738L170.613,21.738L170.613,12.922"/>
<path fill="#FFFFFF" d="M22.086,0.48L26.074,0.48L26.074,1.539L23.332,1.539L23.332,4.238L25.531,4.238L25.531,5.281L23.332,5.281L23.332,9.297L22.086,9.297L22.086,0.48"/>
<path fill="#FFFFFF" d="M27.945,6.246L29.883,6.246L29.52,4.777C29.328,4.047,29.086,2.922,28.934,1.945C28.773,2.922,28.516,4.047,28.324,4.777Z M28.285,0.48L29.574,0.48L31.918,9.297L30.617,9.297L30.102,7.301L27.699,7.301L27.199,9.297L25.938,9.297L28.285,0.48"/>
<path fill="#FFFFFF" d="M32.555,4.887C32.555,1.59,33.273,0.316,35.418,0.316C36.07,0.316,36.652,0.48,36.938,0.641L36.938,1.793C36.613,1.617,36.043,1.441,35.5,1.441C34.211,1.441,33.844,2.027,33.844,4.887C33.844,7.777,34.238,8.348,35.5,8.348C36.055,8.348,36.691,8.156,37.02,7.969L37.02,9.121C36.734,9.281,36.055,9.461,35.445,9.461C33.125,9.473,32.555,8.184,32.555,4.887"/>
<path fill="#FFFFFF" d="M38.23,6.637L38.23,0.48L39.48,0.48L39.48,6.691C39.48,7.996,39.926,8.375,40.836,8.375C41.746,8.375,42.191,7.996,42.191,6.691L42.191,0.48L43.441,0.48L43.441,6.637C43.441,8.645,42.602,9.461,40.836,9.461C39.047,9.461,38.23,8.672,38.23,6.637"/>
<path fill="#FFFFFF" d="M45.34,0.48L46.586,0.48L46.586,8.238L49.328,8.238L49.328,9.297L45.34,9.297L45.34,0.48"/>
<path fill="#FFFFFF" d="M48.891,0.48L53.949,0.48L53.949,1.539L52.039,1.539L52.039,9.297L50.789,9.297L50.789,1.539L48.891,1.539L48.891,0.48"/>
<path fill="#FFFFFF" d="M54.996,0.48L59.117,0.48L59.117,1.539L56.242,1.539L56.242,4.238L58.562,4.238L58.562,5.281L56.242,5.281L56.242,8.238L59.117,8.238L59.117,9.297L54.996,9.297L54.996,0.48"/>
<path fill="#FFFFFF" d="M60.758,9.297L62.008,9.297L62.008,0.48L60.758,0.48Z M60.758,9.297"/>
<path fill="#FFFFFF" d="M63.051,0.48L68.109,0.48L68.109,1.539L66.195,1.539L66.195,9.297L64.949,9.297L64.949,1.539L63.051,1.539L63.051,0.48"/>
<path fill="#FFFFFF" d="M72.793,1.539L72.793,5.051L73.523,5.051C74.504,5.051,75.031,4.699,75.031,3.285C75.031,1.875,74.504,1.539,73.523,1.539Z M71.543,0.48L73.66,0.48C75.328,0.48,76.32,1.184,76.32,3.285C76.32,5.336,75.289,6.094,73.66,6.094L72.793,6.094L72.793,9.297L71.543,9.297L71.543,0.48"/>
<path fill="#FFFFFF" d="M83.91,5.633L81.496,0.48L82.867,0.48L83.91,2.852C84.156,3.422,84.391,4.031,84.535,4.574C84.699,4.031,84.941,3.422,85.188,2.852L86.23,0.48L87.562,0.48L85.16,5.633L85.16,9.297L83.91,9.297L83.91,5.633"/>
<path fill="#FFFFFF" d="M87.938,4.887C87.938,1.59,88.656,0.316,90.805,0.316C91.453,0.316,92.035,0.48,92.32,0.641L92.32,1.793C91.996,1.617,91.426,1.441,90.883,1.441C89.598,1.441,89.23,2.027,89.23,4.887C89.23,7.777,89.621,8.348,90.883,8.348C91.438,8.348,92.078,8.156,92.402,7.969L92.402,9.121C92.117,9.281,91.438,9.461,90.828,9.461C88.512,9.473,87.938,8.184,87.938,4.887"/>
<path fill="#FFFFFF" d="M97.617,5.293L94.934,5.293L94.934,9.297L93.684,9.297L93.684,0.48L94.934,0.48L94.934,4.238L97.617,4.238L97.617,0.48L98.863,0.48L98.863,9.297L97.617,9.297L97.617,5.293"/>
<path fill="#FFFFFF" d="M104.613,4.887C104.613,2.121,104.328,1.402,103.191,1.402C102.051,1.402,101.781,2.121,101.781,4.887C101.781,7.656,102.051,8.375,103.191,8.375C104.328,8.375,104.613,7.656,104.613,4.887Z M100.492,4.887C100.492,1.238,101.359,0.316,103.191,0.316C105.074,0.316,105.902,1.199,105.902,4.887C105.902,8.551,105.035,9.461,103.191,9.461C101.316,9.461,100.492,8.59,100.492,4.887"/>
<path fill="#FFFFFF" d="M107.527,0.48L108.777,0.48L108.777,8.238L111.52,8.238L111.52,9.297L107.527,9.297L107.527,0.48"/>
<path fill="#FFFFFF" d="M116.09,4.887C116.09,2.121,115.805,1.402,114.664,1.402C113.523,1.402,113.254,2.121,113.254,4.887C113.254,7.656,113.523,8.375,114.664,8.375C115.805,8.375,116.09,7.656,116.09,4.887Z M111.965,4.887C111.965,1.238,112.836,0.316,114.664,0.316C116.551,0.316,117.379,1.199,117.379,4.887C117.379,8.551,116.512,9.461,114.664,9.461C112.793,9.461,111.965,8.59,111.965,4.887"/>
<path fill="#FFFFFF" d="M118.73,4.887C118.73,1.414,119.652,0.316,121.945,0.316C122.598,0.316,123.289,0.492,123.59,0.668L123.59,1.82C123.266,1.633,122.641,1.43,122.039,1.43C120.574,1.43,120.02,1.973,120.02,4.887C120.02,7.777,120.414,8.375,121.688,8.375C122.082,8.375,122.406,8.32,122.652,8.25L122.652,5.309L121.352,5.309L121.352,4.25L123.898,4.25L123.898,9.012C123.645,9.176,122.609,9.461,121.703,9.461C119.312,9.461,118.73,8.211,118.73,4.887"/>
<path fill="#FFFFFF" d="M125.742,9.297L126.988,9.297L126.988,0.48L125.742,0.48Z M125.742,9.297"/>
<path fill="#FFFFFF" d="M128.957,0.48L133.078,0.48L133.078,1.539L130.203,1.539L130.203,4.238L132.523,4.238L132.523,5.281L130.203,5.281L130.203,8.238L133.078,8.238L133.078,9.297L128.957,9.297L128.957,0.48"/>
<path fill="#FFFFFF" d="M137.52,0.48L141.645,0.48L141.645,1.539L138.766,1.539L138.766,4.238L141.086,4.238L141.086,5.281L138.766,5.281L138.766,8.238L141.645,8.238L141.645,9.297L137.52,9.297L137.52,0.48"/>
<path fill="#FFFFFF" d="M143.281,0.48L144.723,0.48L147.5,7.504C147.406,6.785,147.324,5.945,147.324,5.16L147.324,0.48L148.52,0.48L148.52,9.297L147.078,9.297L144.27,2.242C144.383,2.961,144.477,3.816,144.477,4.617L144.477,9.297L143.281,9.297L143.281,0.48"/>
<path fill="#FFFFFF" d="M79.922,1.387C80.473,1.383,80.988,1.566,81.23,1.754L81.23,0.629C80.988,0.48,80.402,0.32,79.812,0.32C78.156,0.32,77.242,1.262,77.242,2.625C77.242,3.766,77.727,4.312,78.504,4.98L79.215,5.594C79.801,6.086,80.16,6.461,80.16,7.195C80.16,8.055,79.598,8.395,78.742,8.395C78.098,8.395,77.566,8.215,77.258,8L77.258,9.145C77.527,9.301,78.094,9.461,78.855,9.461C80.508,9.457,81.418,8.52,81.422,7.152C81.422,6.016,80.938,5.469,80.16,4.801L79.453,4.184C78.863,3.684,78.5,3.32,78.504,2.586C78.504,1.727,79.066,1.387,79.922,1.387"/>
<path fill="#FFFFFF" d="M72.23,13.828C72.781,13.828,73.301,14.008,73.539,14.195L73.539,13.07C73.301,12.926,72.715,12.762,72.121,12.762C70.465,12.762,69.555,13.703,69.555,15.07C69.555,16.207,70.035,16.754,70.812,17.426L71.523,18.039C72.109,18.527,72.473,18.906,72.473,19.641C72.473,20.496,71.906,20.836,71.055,20.836C70.41,20.836,69.875,20.656,69.566,20.445L69.566,21.59C69.84,21.746,70.402,21.906,71.168,21.902C72.816,21.898,73.727,20.961,73.73,19.598C73.73,18.461,73.25,17.91,72.473,17.242L71.762,16.629C71.176,16.125,70.812,15.762,70.812,15.031C70.816,14.168,71.379,13.832,72.23,13.828"/>
<path fill="#FFFFFF" d="M130.902,13.828C131.453,13.828,131.977,14.008,132.215,14.195L132.215,13.07C131.977,12.926,131.391,12.762,130.797,12.762C129.141,12.762,128.23,13.703,128.23,15.07C128.23,16.207,128.711,16.754,129.484,17.426L130.195,18.039C130.781,18.527,131.145,18.906,131.145,19.641C131.145,20.496,130.578,20.836,129.73,20.836C129.086,20.836,128.551,20.656,128.238,20.445L128.238,21.59C128.512,21.746,129.078,21.906,129.84,21.902C131.492,21.898,132.402,20.961,132.402,19.598C132.406,18.461,131.922,17.91,131.145,17.242L130.438,16.629C129.852,16.125,129.484,15.762,129.484,15.031C129.488,14.168,130.051,13.832,130.902,13.828"/>
<path fill="#FFFFFF" d="M7.719,12.562L3.055,21.738L4.453,21.738L9.172,12.453L6.828,9.121C6.453,8.613,6.227,7.988,6.223,7.309C6.227,5.605,7.605,4.227,9.309,4.223C9.336,4.223,9.363,4.23,9.391,4.23L9.391,2.984C9.363,2.98,9.336,2.973,9.309,2.973C6.914,2.977,4.977,4.914,4.977,7.309C4.977,8.266,5.297,9.141,5.824,9.855L7.719,12.562"/>
<path fill="#FFFFFF" d="M16.117,7.547C16.117,7.465,16.133,7.387,16.133,7.305C16.133,3.535,13.078,0.48,9.309,0.48C5.539,0.48,2.48,3.535,2.48,7.305C2.48,8.816,2.977,10.203,3.805,11.332L4.816,12.781L0.258,21.738L1.66,21.738L6.27,12.668L4.812,10.594C4.137,9.672,3.73,8.539,3.73,7.305C3.734,4.227,6.227,1.734,9.309,1.727C12.391,1.734,14.883,4.227,14.887,7.305C14.887,7.457,14.859,7.605,14.848,7.754L14.844,7.754L14.848,7.758L16.148,10.691L14.605,10.691L13.98,14.777L11.852,14.777L11.219,16.023L15.051,16.023L15.676,11.938L17.461,11.938L17.832,11.418L16.117,7.547"/>
</g>
</svg>
