<?xml version="1.0" encoding="UTF-8"?>
<svg xmlns="http://www.w3.org/2000/svg" xmlns:xlink="http://www.w3.org/1999/xlink" width="77pt" height="22pt" viewBox="0 0 77 22" version="1.1">
<g id="surface1">
<path fill="#FFFFFF" d="M24.18,17.332C24.18,14.566,23.898,13.848,22.758,13.848C21.617,13.848,21.348,14.566,21.348,17.332C21.348,20.098,21.617,20.816,22.758,20.816C23.898,20.816,24.18,20.098,24.18,17.332Z M20.059,17.332C20.059,13.684,20.926,12.762,22.758,12.762C24.645,12.762,25.469,13.641,25.469,17.332C25.469,20.996,24.602,21.902,22.758,21.902C20.887,21.902,20.059,21.035,20.059,17.332"/>
<path fill="#FFFFFF" d="M27.094,12.922L31.086,12.922L31.086,13.98L28.344,13.98L28.344,16.68L30.543,16.68L30.543,17.727L28.344,17.727L28.344,21.742L27.094,21.742L27.094,12.922"/>
<path fill="#FFFFFF" d="M39.781,17.332C39.781,14.035,40.5,12.762,42.645,12.762C43.293,12.762,43.879,12.922,44.16,13.086L44.16,14.238C43.836,14.062,43.266,13.887,42.723,13.887C41.434,13.887,41.07,14.469,41.07,17.332C41.07,20.223,41.465,20.793,42.723,20.793C43.281,20.793,43.918,20.602,44.242,20.41L44.242,21.562C43.961,21.727,43.281,21.902,42.668,21.902C40.348,21.918,39.781,20.629,39.781,17.332"/>
<path fill="#FFFFFF" d="M45.668,21.742L46.914,21.742L46.914,12.922L45.668,12.922Z M45.668,21.742"/>
<path fill="#FFFFFF" d="M48.883,12.922L53.004,12.922L53.004,13.98L50.129,13.98L50.129,16.68L52.449,16.68L52.449,17.727L50.129,17.727L50.129,20.684L53.004,20.684L53.004,21.742L48.883,21.742L48.883,12.922"/>
<path fill="#FFFFFF" d="M54.645,12.922L56.082,12.922L58.863,19.949C58.77,19.23,58.688,18.391,58.688,17.602L58.688,12.922L59.883,12.922L59.883,21.742L58.445,21.742L55.637,14.688C55.742,15.406,55.84,16.262,55.84,17.062L55.84,21.742L54.645,21.742L54.645,12.922"/>
<path fill="#FFFFFF" d="M61.508,17.332C61.508,14.035,62.227,12.762,64.367,12.762C65.02,12.762,65.602,12.922,65.891,13.086L65.891,14.238C65.562,14.062,64.992,13.887,64.449,13.887C63.16,13.887,62.793,14.469,62.793,17.332C62.793,20.223,63.188,20.793,64.449,20.793C65.008,20.793,65.645,20.602,65.969,20.41L65.969,21.562C65.684,21.727,65.008,21.902,64.398,21.902C62.078,21.918,61.508,20.629,61.508,17.332"/>
<path fill="#FFFFFF" d="M67.395,12.922L71.516,12.922L71.516,13.98L68.641,13.98L68.641,16.68L70.961,16.68L70.961,17.727L68.641,17.727L68.641,20.684L71.516,20.684L71.516,21.742L67.395,21.742L67.395,12.922"/>
<path fill="#FFFFFF" d="M20.383,0.48L24.367,0.48L24.367,1.539L21.629,1.539L21.629,4.238L23.828,4.238L23.828,5.285L21.629,5.285L21.629,9.301L20.383,9.301L20.383,0.48"/>
<path fill="#FFFFFF" d="M26.238,6.246L28.18,6.246L27.816,4.781C27.625,4.051,27.379,2.922,27.23,1.945C27.07,2.922,26.809,4.051,26.621,4.781Z M26.582,0.48L27.867,0.48L30.215,9.301L28.914,9.301L28.398,7.305L25.996,7.305L25.492,9.301L24.23,9.301L26.582,0.48"/>
<path fill="#FFFFFF" d="M30.852,4.891C30.852,1.594,31.57,0.32,33.715,0.32C34.363,0.32,34.949,0.48,35.23,0.645L35.23,1.797C34.906,1.621,34.34,1.445,33.793,1.445C32.508,1.445,32.141,2.027,32.141,4.891C32.141,7.781,32.531,8.352,33.793,8.352C34.352,8.352,34.988,8.16,35.316,7.969L35.316,9.121C35.031,9.285,34.352,9.461,33.738,9.461C31.422,9.477,30.852,8.188,30.852,4.891"/>
<path fill="#FFFFFF" d="M36.527,6.641L36.527,0.48L37.777,0.48L37.777,6.695C37.777,7.996,38.223,8.375,39.133,8.375C40.043,8.375,40.488,7.996,40.488,6.695L40.488,0.48L41.738,0.48L41.738,6.641C41.738,8.648,40.895,9.461,39.133,9.461C37.344,9.461,36.527,8.676,36.527,6.641"/>
<path fill="#FFFFFF" d="M43.633,0.48L44.883,0.48L44.883,8.242L47.621,8.242L47.621,9.301L43.633,9.301L43.633,0.48"/>
<path fill="#FFFFFF" d="M47.188,0.48L52.246,0.48L52.246,1.539L50.336,1.539L50.336,9.301L49.086,9.301L49.086,1.539L47.188,1.539L47.188,0.48"/>
<path fill="#FFFFFF" d="M55.145,5.637L52.73,0.48L54.102,0.48L55.145,2.855C55.391,3.426,55.621,4.035,55.77,4.578C55.934,4.035,56.176,3.426,56.422,2.855L57.465,0.48L58.793,0.48L56.395,5.637L56.395,9.301L55.145,9.301L55.145,5.637"/>
<path fill="#FFFFFF" d="M37.145,13.832C37.695,13.828,38.215,14.008,38.453,14.195L38.453,13.074C38.215,12.926,37.629,12.762,37.035,12.762C35.379,12.762,34.469,13.703,34.469,15.07C34.469,16.207,34.949,16.754,35.727,17.426L36.438,18.039C37.023,18.527,37.387,18.906,37.387,19.641C37.387,20.496,36.82,20.836,35.969,20.836C35.324,20.836,34.789,20.66,34.48,20.445L34.48,21.59C34.754,21.746,35.316,21.906,36.082,21.906C37.73,21.902,38.645,20.961,38.645,19.598C38.648,18.461,38.16,17.914,37.387,17.242L36.676,16.629C36.09,16.125,35.723,15.762,35.727,15.031C35.727,14.168,36.289,13.832,37.145,13.832"/>
<path fill="#FFFFFF" d="M75.102,13.832C75.656,13.828,76.172,14.008,76.41,14.195L76.41,13.074C76.172,12.926,75.59,12.762,74.992,12.762C73.34,12.762,72.426,13.703,72.426,15.07C72.426,16.207,72.91,16.754,73.688,17.426L74.398,18.039C74.98,18.527,75.344,18.906,75.344,19.641C75.344,20.496,74.781,20.836,73.93,20.836C73.285,20.836,72.75,20.66,72.441,20.445L72.441,21.59C72.711,21.746,73.277,21.906,74.039,21.906C75.691,21.902,76.602,20.961,76.605,19.598C76.605,18.461,76.121,17.914,75.344,17.242L74.637,16.629C74.047,16.125,73.684,15.762,73.688,15.031C73.688,14.168,74.25,13.832,75.102,13.832"/>
<path fill="#FFFFFF" d="M2.789,21.742L13.379,21.742L12.129,20.496L4.035,20.496L2.789,21.742"/>
<path fill="#FFFFFF" d="M9.895,13.645L16.129,13.645L16.129,12.398L9.895,12.398Z M9.895,13.645"/>
<path fill="#FFFFFF" d="M8.352,8.617L9.234,9.5L11.879,6.855L10.996,5.973L8.352,8.617"/>
<path fill="#FFFFFF" d="M4.625,1.363L9.234,5.973L10.113,5.09L5.504,0.48L4.625,1.363"/>
<path fill="#FFFFFF" d="M2.863,3.125L7.473,7.734L8.352,6.852L3.742,2.242L2.863,3.125"/>
<path fill="#FFFFFF" d="M13.664,14.891C12.504,16.754,10.441,18,8.082,18C4.453,18,1.508,15.055,1.508,11.422C1.508,9.27,2.551,7.371,4.148,6.172L3.262,5.285C1.441,6.719,0.262,8.926,0.262,11.422C0.262,15.742,3.762,19.246,8.082,19.246C11.156,19.246,13.809,17.469,15.09,14.891L13.664,14.891"/>
<path fill="#FFFFFF" d="M10.219,14.891C9.594,15.273,8.867,15.504,8.086,15.504C5.828,15.504,4.004,13.68,4.004,11.422C4.004,9.957,4.789,8.695,5.953,7.977L5.047,7.07C3.668,8.031,2.754,9.613,2.754,11.422C2.754,14.367,5.141,16.754,8.082,16.754C9.695,16.754,11.125,16.02,12.102,14.891L10.219,14.891"/>
</g>
</svg>
