<?xml version="1.0" encoding="UTF-8"?>
<svg xmlns="http://www.w3.org/2000/svg" xmlns:xlink="http://www.w3.org/1999/xlink" width="147pt" height="22pt" viewBox="0 0 147 22" version="1.1">
<g id="surface1">
<path fill="#FFFFFF" d="M35.77,17.332C35.77,14.562,35.48,13.844,34.344,13.844C33.203,13.844,32.93,14.562,32.93,17.332C32.93,20.098,33.203,20.816,34.344,20.816C35.48,20.816,35.77,20.098,35.77,17.332Z M31.645,17.332C31.645,13.684,32.512,12.762,34.344,12.762C36.227,12.762,37.055,13.641,37.055,17.332C37.055,20.992,36.188,21.902,34.344,21.902C32.469,21.902,31.645,21.035,31.645,17.332"/>
<path fill="#FFFFFF" d="M38.41,17.332C38.41,14.035,39.129,12.762,41.273,12.762C41.922,12.762,42.508,12.922,42.793,13.086L42.793,14.238C42.469,14.062,41.898,13.887,41.352,13.887C40.066,13.887,39.699,14.469,39.699,17.332C39.699,20.219,40.094,20.789,41.352,20.789C41.91,20.789,42.547,20.602,42.871,20.41L42.871,21.562C42.59,21.727,41.91,21.902,41.301,21.902C38.98,21.918,38.41,20.629,38.41,17.332"/>
<path fill="#FFFFFF" d="M44.297,21.738L45.547,21.738L45.547,12.922L44.297,12.922Z M44.297,21.738"/>
<path fill="#FFFFFF" d="M48.527,18.688L50.469,18.688L50.102,17.223C49.91,16.488,49.668,15.363,49.52,14.387C49.355,15.363,49.098,16.488,48.906,17.223Z M48.867,12.922L50.156,12.922L52.504,21.738L51.199,21.738L50.684,19.746L48.281,19.746L47.781,21.738L46.52,21.738L48.867,12.922"/>
<path fill="#FFFFFF" d="M53.477,12.922L54.727,12.922L54.727,20.684L57.465,20.684L57.465,21.738L53.477,21.738L53.477,12.922"/>
<path fill="#FFFFFF" d="M58.656,12.922L62.781,12.922L62.781,13.98L59.906,13.98L59.906,16.68L62.227,16.68L62.227,17.723L59.906,17.723L59.906,20.684L62.781,20.684L62.781,21.738L58.656,21.738L58.656,12.922"/>
<path fill="#FFFFFF" d="M66.328,12.922L67.574,12.922L68.293,17.262C68.414,17.969,68.566,19.352,68.648,20.41C68.727,19.352,68.879,17.98,69,17.262L69.73,12.922L71.008,12.922L71.738,17.262C71.859,17.969,71.996,19.34,72.078,20.383C72.16,19.34,72.324,17.969,72.445,17.262L73.164,12.922L74.371,12.922L72.691,21.738L71.402,21.738L70.68,17.398C70.574,16.746,70.422,15.512,70.344,14.496C70.262,15.512,70.125,16.746,70.016,17.398L69.281,21.738L68.008,21.738L66.328,12.922"/>
<path fill="#FFFFFF" d="M75.59,12.922L79.715,12.922L79.715,13.98L76.84,13.98L76.84,16.68L79.156,16.68L79.156,17.723L76.84,17.723L76.84,20.684L79.715,20.684L79.715,21.738L75.59,21.738L75.59,12.922"/>
<path fill="#FFFFFF" d="M80.441,12.922L85.504,12.922L85.504,13.98L83.59,13.98L83.59,21.738L82.344,21.738L82.344,13.98L80.441,13.98L80.441,12.922"/>
<path fill="#FFFFFF" d="M86.547,12.922L90.672,12.922L90.672,13.98L87.797,13.98L87.797,16.68L90.113,16.68L90.113,17.723L87.797,17.723L87.797,20.684L90.672,20.684L90.672,21.738L86.547,21.738L86.547,12.922"/>
<path fill="#FFFFFF" d="M92.312,12.922L93.746,12.922L96.527,19.949C96.434,19.23,96.352,18.391,96.352,17.602L96.352,12.922L97.547,12.922L97.547,21.738L96.105,21.738L93.301,14.688C93.406,15.406,93.504,16.258,93.504,17.059L93.504,21.738L92.312,21.738L92.312,12.922"/>
<path fill="#FFFFFF" d="M104.301,17.332C104.301,14.035,105.02,12.762,107.16,12.762C107.812,12.762,108.395,12.922,108.68,13.086L108.68,14.238C108.355,14.062,107.785,13.887,107.242,13.887C105.953,13.887,105.59,14.469,105.59,17.332C105.59,20.219,105.98,20.789,107.242,20.789C107.801,20.789,108.438,20.602,108.762,20.41L108.762,21.562C108.477,21.727,107.801,21.902,107.188,21.902C104.867,21.918,104.301,20.629,104.301,17.332"/>
<path fill="#FFFFFF" d="M113.977,17.738L111.289,17.738L111.289,21.738L110.043,21.738L110.043,12.922L111.289,12.922L111.289,16.68L113.977,16.68L113.977,12.922L115.227,12.922L115.227,21.738L113.977,21.738L113.977,17.738"/>
<path fill="#FFFFFF" d="M118.211,18.688L120.148,18.688L119.781,17.223C119.594,16.488,119.348,15.363,119.199,14.387C119.035,15.363,118.777,16.488,118.59,17.223Z M118.547,12.922L119.836,12.922L122.184,21.738L120.883,21.738L120.363,19.746L117.965,19.746L117.465,21.738L116.199,21.738L118.547,12.922"/>
<path fill="#FFFFFF" d="M124.406,13.98L124.406,17.492L125.141,17.492C126.113,17.492,126.645,17.141,126.645,15.73C126.645,14.32,126.113,13.98,125.141,13.98Z M123.156,12.922L125.273,12.922C126.941,12.922,127.934,13.629,127.934,15.73C127.934,17.777,126.902,18.539,125.273,18.539L124.406,18.539L124.406,21.738L123.156,21.738L123.156,12.922"/>
<path fill="#FFFFFF" d="M130.633,13.98L130.633,17.492L131.363,17.492C132.34,17.492,132.867,17.141,132.867,15.73C132.867,14.32,132.34,13.98,131.363,13.98Z M129.383,12.922L131.496,12.922C133.168,12.922,134.156,13.629,134.156,15.73C134.156,17.777,133.129,18.539,131.496,18.539L130.633,18.539L130.633,21.738L129.383,21.738L129.383,12.922"/>
<path fill="#FFFFFF" d="M135.605,12.922L139.73,12.922L139.73,13.98L136.855,13.98L136.855,16.68L139.176,16.68L139.176,17.723L136.855,17.723L136.855,20.684L139.73,20.684L139.73,21.738L135.605,21.738L135.605,12.922"/>
<path fill="#FFFFFF" d="M141.371,12.922L142.809,12.922L145.59,19.949C145.492,19.23,145.414,18.391,145.414,17.602L145.414,12.922L146.605,12.922L146.605,21.738L145.168,21.738L142.359,14.688C142.469,15.406,142.562,16.258,142.562,17.059L142.562,21.738L141.371,21.738L141.371,12.922"/>
<path fill="#FFFFFF" d="M26.773,0.48L30.762,0.48L30.762,1.539L28.02,1.539L28.02,4.238L30.219,4.238L30.219,5.281L28.02,5.281L28.02,9.297L26.773,9.297L26.773,0.48"/>
<path fill="#FFFFFF" d="M32.633,6.246L34.57,6.246L34.203,4.781C34.016,4.047,33.77,2.922,33.621,1.945C33.457,2.922,33.199,4.047,33.012,4.781Z M32.969,0.48L34.258,0.48L36.605,9.297L35.305,9.297L34.789,7.305L32.387,7.305L31.887,9.297L30.621,9.297L32.969,0.48"/>
<path fill="#FFFFFF" d="M37.242,4.891C37.242,1.594,37.961,0.32,40.102,0.32C40.754,0.32,41.34,0.48,41.621,0.645L41.621,1.797C41.297,1.621,40.727,1.445,40.184,1.445C38.898,1.445,38.531,2.027,38.531,4.891C38.531,7.777,38.922,8.348,40.184,8.348C40.742,8.348,41.379,8.156,41.703,7.969L41.703,9.121C41.418,9.285,40.742,9.461,40.133,9.461C37.812,9.473,37.242,8.184,37.242,4.891"/>
<path fill="#FFFFFF" d="M42.918,6.637L42.918,0.48L44.164,0.48L44.164,6.691C44.164,7.996,44.613,8.375,45.523,8.375C46.43,8.375,46.879,7.996,46.879,6.691L46.879,0.48L48.129,0.48L48.129,6.637C48.129,8.645,47.285,9.461,45.523,9.461C43.73,9.461,42.918,8.672,42.918,6.637"/>
<path fill="#FFFFFF" d="M50.023,0.48L51.273,0.48L51.273,8.238L54.012,8.238L54.012,9.297L50.023,9.297L50.023,0.48"/>
<path fill="#FFFFFF" d="M53.578,0.48L58.637,0.48L58.637,1.539L56.723,1.539L56.723,9.297L55.477,9.297L55.477,1.539L53.578,1.539L53.578,0.48"/>
<path fill="#FFFFFF" d="M59.68,0.48L63.805,0.48L63.805,1.539L60.93,1.539L60.93,4.238L63.246,4.238L63.246,5.281L60.93,5.281L60.93,8.238L63.805,8.238L63.805,9.297L59.68,9.297L59.68,0.48"/>
<path fill="#FFFFFF" d="M65.445,9.297L66.691,9.297L66.691,0.48L65.445,0.48Z M65.445,9.297"/>
<path fill="#FFFFFF" d="M67.734,0.48L72.793,0.48L72.793,1.539L70.883,1.539L70.883,9.297L69.637,9.297L69.637,1.539L67.734,1.539L67.734,0.48"/>
<path fill="#FFFFFF" d="M77.477,1.539L77.477,5.051L78.211,5.051C79.188,5.051,79.719,4.699,79.719,3.289C79.719,1.879,79.188,1.539,78.211,1.539Z M76.23,0.48L78.344,0.48C80.016,0.48,81.004,1.188,81.004,3.289C81.004,5.336,79.973,6.098,78.344,6.098L77.477,6.098L77.477,9.297L76.23,9.297L76.23,0.48"/>
<path fill="#FFFFFF" d="M86.238,4.891C86.238,2.125,85.953,1.406,84.812,1.406C83.676,1.406,83.402,2.125,83.402,4.891C83.402,7.656,83.676,8.375,84.812,8.375C85.953,8.375,86.238,7.656,86.238,4.891Z M82.113,4.891C82.113,1.242,82.984,0.32,84.812,0.32C86.699,0.32,87.527,1.199,87.527,4.891C87.527,8.551,86.66,9.461,84.812,9.461C82.941,9.461,82.113,8.594,82.113,4.891"/>
<path fill="#FFFFFF" d="M89.152,0.48L90.402,0.48L90.402,8.238L93.145,8.238L93.145,9.297L89.152,9.297L89.152,0.48"/>
<path fill="#FFFFFF" d="M94.336,9.297L95.582,9.297L95.582,0.48L94.336,0.48Z M94.336,9.297"/>
<path fill="#FFFFFF" d="M96.625,0.48L101.688,0.48L101.688,1.539L99.773,1.539L99.773,9.297L98.523,9.297L98.523,1.539L96.625,1.539L96.625,0.48"/>
<path fill="#FFFFFF" d="M102.73,9.297L103.977,9.297L103.977,0.48L102.73,0.48Z M102.73,9.297"/>
<path fill="#FFFFFF" d="M105.941,0.48L110.066,0.48L110.066,1.539L107.191,1.539L107.191,4.238L109.512,4.238L109.512,5.281L107.191,5.281L107.191,8.238L110.066,8.238L110.066,9.297L105.941,9.297L105.941,0.48"/>
<path fill="#FFFFFF" d="M111.707,0.48L112.953,0.48L112.953,4.48L115.52,0.48L116.914,0.48L114.137,4.781L117.117,9.297L115.613,9.297L112.953,5.16L112.953,9.297L111.707,9.297L111.707,0.48"/>
<path fill="#FFFFFF" d="M118.039,0.48L122.164,0.48L122.164,1.539L119.289,1.539L119.289,4.238L121.605,4.238L121.605,5.281L119.289,5.281L119.289,8.238L122.164,8.238L122.164,9.297L118.039,9.297L118.039,0.48"/>
<path fill="#FFFFFF" d="M126.602,0.48L130.727,0.48L130.727,1.539L127.852,1.539L127.852,4.238L130.168,4.238L130.168,5.281L127.852,5.281L127.852,8.238L130.727,8.238L130.727,9.297L126.602,9.297L126.602,0.48"/>
<path fill="#FFFFFF" d="M132.363,0.48L133.805,0.48L136.586,7.508C136.488,6.789,136.406,5.945,136.406,5.16L136.406,0.48L137.602,0.48L137.602,9.297L136.164,9.297L133.355,2.246C133.465,2.965,133.559,3.82,133.559,4.617L133.559,9.297L132.363,9.297L132.363,0.48"/>
<path fill="#FFFFFF" d="M29.008,13.828C29.555,13.828,30.078,14.008,30.316,14.195L30.316,13.07C30.078,12.926,29.488,12.762,28.898,12.762C27.242,12.762,26.332,13.703,26.332,15.07C26.332,16.207,26.812,16.754,27.59,17.426L28.297,18.039C28.887,18.527,29.246,18.906,29.246,19.641C29.246,20.496,28.68,20.836,27.832,20.836C27.188,20.836,26.652,20.656,26.344,20.445L26.344,21.59C26.613,21.746,27.18,21.906,27.941,21.902C29.594,21.898,30.504,20.961,30.508,19.598C30.508,18.461,30.023,17.91,29.246,17.242L28.539,16.629C27.953,16.125,27.586,15.762,27.59,15.031C27.59,14.168,28.152,13.832,29.008,13.828"/>
<path fill="#FFFFFF" d="M101.66,13.828C102.215,13.828,102.73,14.008,102.973,14.195L102.973,13.07C102.73,12.926,102.145,12.762,101.555,12.762C99.895,12.762,98.984,13.703,98.984,15.07C98.984,16.207,99.469,16.754,100.242,17.426L100.953,18.039C101.539,18.527,101.902,18.906,101.902,19.641C101.902,20.496,101.34,20.836,100.484,20.836C99.844,20.836,99.309,20.656,98.996,20.445L98.996,21.59C99.27,21.746,99.836,21.906,100.598,21.902C102.25,21.898,103.16,20.961,103.16,19.598C103.164,18.461,102.68,17.91,101.902,17.242L101.195,16.629C100.605,16.125,100.242,15.762,100.242,15.031C100.246,14.168,100.809,13.832,101.66,13.828"/>
<path fill="#FFFFFF" d="M16.43,14.449L15.328,13.812C14.648,14.68,13.656,15.277,12.512,15.441L12.512,16.715C14.117,16.539,15.52,15.684,16.43,14.449"/>
<path fill="#FFFFFF" d="M19.684,16.332C18.109,18.676,15.504,20.266,12.512,20.461L12.512,21.707C15.965,21.508,18.973,19.672,20.766,16.953L19.684,16.332"/>
<path fill="#FFFFFF" d="M18.602,15.703L17.516,15.078C16.383,16.684,14.578,17.781,12.512,17.969L12.512,19.215C15.039,19.023,17.246,17.68,18.602,15.703"/>
<path fill="#FFFFFF" d="M17.051,8.848L15.953,9.484C16.359,10.508,16.383,11.664,15.953,12.738L17.055,13.375C17.707,11.895,17.668,10.254,17.051,8.848"/>
<path fill="#FFFFFF" d="M20.309,6.969C21.555,9.508,21.625,12.559,20.301,15.246L21.379,15.871C22.934,12.781,22.848,9.258,21.391,6.348L20.309,6.969"/>
<path fill="#FFFFFF" d="M19.227,7.594L18.141,8.223C18.961,10.008,19.016,12.117,18.141,14L19.219,14.625C20.316,12.336,20.262,9.758,19.227,7.594"/>
<path fill="#FFFFFF" d="M6.727,13.371L7.828,12.734C7.422,11.711,7.398,10.555,7.828,9.48L6.723,8.848C6.074,10.324,6.113,11.965,6.727,13.371"/>
<path fill="#FFFFFF" d="M3.469,15.25C2.227,12.715,2.156,9.66,3.48,6.973L2.398,6.352C0.848,9.438,0.934,12.961,2.391,15.871L3.469,15.25"/>
<path fill="#FFFFFF" d="M4.555,14.625L5.641,14C4.816,12.211,4.766,10.102,5.641,8.219L4.559,7.594C3.461,9.883,3.52,12.461,4.555,14.625"/>
<path fill="#FFFFFF" d="M11.27,16.711L11.266,15.441C10.176,15.281,9.164,14.723,8.449,13.812L7.348,14.453C8.305,15.754,9.742,16.539,11.27,16.711"/>
<path fill="#FFFFFF" d="M11.266,20.473C8.445,20.281,5.766,18.816,4.102,16.324L3.023,16.949C4.922,19.836,8.016,21.523,11.266,21.719L11.266,20.473"/>
<path fill="#FFFFFF" d="M11.266,19.219L11.27,17.965C9.309,17.785,7.457,16.773,6.262,15.078L5.18,15.699C6.613,17.793,8.879,19.035,11.266,19.219"/>
</g>
</svg>
