<?xml version="1.0" encoding="UTF-8"?>
<svg xmlns="http://www.w3.org/2000/svg" xmlns:xlink="http://www.w3.org/1999/xlink" width="65pt" height="22pt" viewBox="0 0 65 22" version="1.1">
<g id="surface1">
<path fill="#FFFFFF" d="M29.574,17.332C29.574,14.562,29.285,13.844,28.148,13.844C27.008,13.844,26.738,14.562,26.738,17.332C26.738,20.098,27.008,20.816,28.148,20.816C29.285,20.816,29.574,20.098,29.574,17.332Z M25.449,17.332C25.449,13.684,26.316,12.758,28.148,12.758C30.031,12.758,30.859,13.641,30.859,17.332C30.859,20.992,29.992,21.902,28.148,21.902C26.277,21.902,25.449,21.035,25.449,17.332"/>
<path fill="#FFFFFF" d="M32.484,12.922L36.473,12.922L36.473,13.98L33.734,13.98L33.734,16.68L35.934,16.68L35.934,17.723L33.734,17.723L33.734,21.738L32.484,21.738L32.484,12.922"/>
<path fill="#FFFFFF" d="M40.316,12.922L41.566,12.922L41.566,20.684L44.305,20.684L44.305,21.738L40.316,21.738L40.316,12.922"/>
<path fill="#FFFFFF" d="M46.797,18.688L48.734,18.688L48.367,17.223C48.18,16.488,47.934,15.363,47.785,14.387C47.621,15.363,47.367,16.488,47.176,17.223Z M47.137,12.922L48.422,12.922L50.773,21.738L49.469,21.738L48.953,19.746L46.551,19.746L46.051,21.738L44.789,21.738L47.137,12.922"/>
<path fill="#FFFFFF" d="M50.863,12.922L52.113,12.922L52.832,17.262C52.953,17.969,53.102,19.352,53.184,20.41C53.266,19.352,53.414,17.98,53.535,17.262L54.27,12.922L55.543,12.922L56.277,17.262C56.402,17.969,56.535,19.34,56.617,20.383C56.699,19.34,56.859,17.969,56.984,17.262L57.703,12.922L58.91,12.922L57.227,21.738L55.938,21.738L55.219,17.398C55.109,16.746,54.961,15.512,54.883,14.496C54.797,15.512,54.664,16.746,54.555,17.398L53.824,21.738L52.547,21.738L50.863,12.922"/>
<path fill="#FFFFFF" d="M25.773,0.48L29.762,0.48L29.762,1.539L27.02,1.539L27.02,4.238L29.219,4.238L29.219,5.281L27.02,5.281L27.02,9.297L25.773,9.297L25.773,0.48"/>
<path fill="#FFFFFF" d="M31.633,6.246L33.57,6.246L33.207,4.777C33.016,4.047,32.77,2.922,32.621,1.945C32.461,2.922,32.203,4.047,32.012,4.777Z M31.969,0.48L33.258,0.48L35.605,9.297L34.305,9.297L33.789,7.301L31.387,7.301L30.887,9.297L29.621,9.297L31.969,0.48"/>
<path fill="#FFFFFF" d="M36.242,4.887C36.242,1.59,36.961,0.316,39.102,0.316C39.758,0.316,40.34,0.48,40.621,0.641L40.621,1.793C40.297,1.617,39.727,1.441,39.184,1.441C37.898,1.441,37.531,2.027,37.531,4.887C37.531,7.777,37.922,8.348,39.184,8.348C39.742,8.348,40.379,8.156,40.707,7.969L40.707,9.121C40.418,9.281,39.742,9.461,39.133,9.461C36.812,9.473,36.242,8.184,36.242,4.887"/>
<path fill="#FFFFFF" d="M41.918,6.637L41.918,0.48L43.168,0.48L43.168,6.691C43.168,7.996,43.613,8.375,44.523,8.375C45.434,8.375,45.879,7.996,45.879,6.691L45.879,0.48L47.129,0.48L47.129,6.637C47.129,8.645,46.285,9.461,44.523,9.461C42.73,9.461,41.918,8.672,41.918,6.637"/>
<path fill="#FFFFFF" d="M49.023,0.48L50.273,0.48L50.273,8.238L53.012,8.238L53.012,9.297L49.023,9.297L49.023,0.48"/>
<path fill="#FFFFFF" d="M52.578,0.48L57.637,0.48L57.637,1.539L55.727,1.539L55.727,9.297L54.477,9.297L54.477,1.539L52.578,1.539L52.578,0.48"/>
<path fill="#FFFFFF" d="M60.535,5.633L58.121,0.48L59.492,0.48L60.535,2.852C60.781,3.422,61.012,4.031,61.16,4.574C61.324,4.031,61.566,3.422,61.812,2.852L62.855,0.48L64.184,0.48L61.785,5.633L61.785,9.297L60.535,9.297L60.535,5.633"/>
<path fill="#FFFFFF" d="M8.918,16.754L5.184,8.562L3.992,8.562L0.262,16.754L1.629,16.754L4.59,10.262L7.547,16.754L8.918,16.754"/>
<path fill="#FFFFFF" d="M21.52,16.754L17.785,8.562L16.594,8.562L12.863,16.754L14.23,16.754L17.191,10.262L20.152,16.754L21.52,16.754"/>
<path fill="#FFFFFF" d="M8.918,20.492L0.262,20.492L1.508,21.738L7.668,21.738L8.918,20.492"/>
<path fill="#FFFFFF" d="M21.52,20.492L12.863,20.492L14.109,21.738L20.273,21.738L21.52,20.492"/>
<path fill="#FFFFFF" d="M0.262,19.246L8.918,19.246L8.918,18L0.262,18Z M0.262,19.246"/>
<path fill="#FFFFFF" d="M4.562,7.316L17.219,7.316L16.648,6.07L5.129,6.07L4.562,7.316"/>
<path fill="#FFFFFF" d="M12.863,19.246L21.52,19.246L21.52,18L12.863,18Z M12.863,19.246"/>
<path fill="#FFFFFF" d="M12.863,0.48L8.918,0.48L8.918,1.727L10.266,1.727L10.266,4.824L11.512,4.824L11.512,1.727L12.863,1.727L12.863,0.48"/>
</g>
</svg>
