<?xml version="1.0" encoding="UTF-8"?>
<svg xmlns="http://www.w3.org/2000/svg" xmlns:xlink="http://www.w3.org/1999/xlink" width="144pt" height="22pt" viewBox="0 0 144 22" version="1.1">
<g id="surface1">
<path fill="#FFFFFF" d="M16.984,13.98L16.984,17.492L17.719,17.492C18.695,17.492,19.223,17.141,19.223,15.73C19.223,14.32,18.695,13.98,17.719,13.98Z M15.734,12.922L17.852,12.922C19.523,12.922,20.512,13.629,20.512,15.73C20.512,17.781,19.48,18.539,17.852,18.539L16.984,18.539L16.984,21.738L15.734,21.738L15.734,12.922"/>
<path fill="#FFFFFF" d="M25.895,17.738L23.211,17.738L23.211,21.738L21.961,21.738L21.961,12.922L23.211,12.922L23.211,16.68L25.895,16.68L25.895,12.922L27.145,12.922L27.145,21.738L25.895,21.738L25.895,17.738"/>
<path fill="#FFFFFF" d="M30.125,18.688L32.066,18.688L31.699,17.223C31.512,16.488,31.266,15.363,31.117,14.387C30.953,15.363,30.695,16.488,30.508,17.223Z M30.465,12.922L31.754,12.922L34.102,21.738L32.797,21.738L32.281,19.746L29.883,19.746L29.379,21.738L28.117,21.738L30.465,12.922"/>
<path fill="#FFFFFF" d="M36.324,13.98L36.324,17.09L36.988,17.09C37.965,17.09,38.617,16.883,38.617,15.527C38.617,14.184,37.965,13.98,36.988,13.98Z M35.078,12.922L37.109,12.922C38.738,12.922,39.906,13.531,39.906,15.527C39.906,16.926,39.227,17.602,38.371,17.914L40.242,21.738L38.82,21.738L37.164,18.145L36.324,18.145L36.324,21.738L35.078,21.738L35.078,12.922"/>
<path fill="#FFFFFF" d="M41.598,12.922L43.215,12.922L44.762,17.562L46.32,12.922L47.879,12.922L47.879,21.738L46.684,21.738L46.684,17.156C46.684,16.18,46.754,15.16,46.836,14.375L45.234,19.121L44.242,19.121L42.629,14.359C42.711,15.148,42.793,16.18,42.793,17.156L42.793,21.738L41.598,21.738L41.598,12.922"/>
<path fill="#FFFFFF" d="M50.859,18.688L52.801,18.688L52.434,17.223C52.246,16.488,52,15.363,51.852,14.387C51.691,15.363,51.43,16.488,51.242,17.223Z M51.203,12.922L52.488,12.922L54.836,21.738L53.535,21.738L53.02,19.746L50.617,19.746L50.113,21.738L48.852,21.738L51.203,12.922"/>
<path fill="#FFFFFF" d="M55.473,17.332C55.473,14.035,56.191,12.762,58.336,12.762C58.984,12.762,59.57,12.922,59.852,13.086L59.852,14.238C59.527,14.062,58.961,13.887,58.414,13.887C57.129,13.887,56.762,14.469,56.762,17.332C56.762,20.219,57.156,20.789,58.414,20.789C58.973,20.789,59.609,20.602,59.934,20.41L59.934,21.562C59.652,21.727,58.973,21.902,58.359,21.902C56.043,21.918,55.473,20.629,55.473,17.332"/>
<path fill="#FFFFFF" d="M61.359,12.922L65.48,12.922L65.48,13.98L62.605,13.98L62.605,16.68L64.926,16.68L64.926,17.723L62.605,17.723L62.605,20.684L65.48,20.684L65.48,21.738L61.359,21.738L61.359,12.922"/>
<path fill="#FFFFFF" d="M66.984,19.082L66.984,12.922L68.234,12.922L68.234,19.137C68.234,20.438,68.68,20.816,69.59,20.816C70.5,20.816,70.949,20.438,70.949,19.137L70.949,12.922L72.195,12.922L72.195,19.082C72.195,21.09,71.355,21.902,69.59,21.902C67.801,21.902,66.984,21.117,66.984,19.082"/>
<path fill="#FFFFFF" d="M73.168,12.922L78.23,12.922L78.23,13.98L76.316,13.98L76.316,21.738L75.07,21.738L75.07,13.98L73.168,13.98L73.168,12.922"/>
<path fill="#FFFFFF" d="M79.273,21.738L80.52,21.738L80.52,12.922L79.273,12.922Z M79.273,21.738"/>
<path fill="#FFFFFF" d="M82.148,17.332C82.148,14.035,82.867,12.762,85.012,12.762C85.66,12.762,86.246,12.922,86.527,13.086L86.527,14.238C86.203,14.062,85.637,13.887,85.094,13.887C83.805,13.887,83.438,14.469,83.438,17.332C83.438,20.219,83.828,20.789,85.094,20.789C85.648,20.789,86.285,20.602,86.609,20.41L86.609,21.562C86.324,21.727,85.648,21.902,85.035,21.902C82.719,21.918,82.148,20.629,82.148,17.332"/>
<path fill="#FFFFFF" d="M88.957,18.688L90.895,18.688L90.531,17.223C90.34,16.488,90.098,15.363,89.945,14.387C89.785,15.363,89.527,16.488,89.336,17.223Z M89.297,12.922L90.586,12.922L92.934,21.738L91.629,21.738L91.113,19.746L88.715,19.746L88.211,21.738L86.949,21.738L89.297,12.922"/>
<path fill="#FFFFFF" d="M93.906,12.922L95.152,12.922L95.152,20.684L97.895,20.684L97.895,21.738L93.906,21.738L93.906,12.922"/>
<path fill="#FFFFFF" d="M106.402,17.332C106.402,14.035,107.121,12.762,109.266,12.762C109.914,12.762,110.496,12.922,110.781,13.086L110.781,14.238C110.457,14.062,109.887,13.887,109.348,13.887C108.059,13.887,107.691,14.469,107.691,17.332C107.691,20.219,108.086,20.789,109.348,20.789C109.902,20.789,110.539,20.602,110.863,20.41L110.863,21.562C110.578,21.727,109.902,21.902,109.289,21.902C106.973,21.918,106.402,20.629,106.402,17.332"/>
<path fill="#FFFFFF" d="M112.285,21.738L113.535,21.738L113.535,12.922L112.285,12.922Z M112.285,21.738"/>
<path fill="#FFFFFF" d="M115.504,12.922L119.625,12.922L119.625,13.98L116.75,13.98L116.75,16.68L119.07,16.68L119.07,17.723L116.75,17.723L116.75,20.684L119.625,20.684L119.625,21.738L115.504,21.738L115.504,12.922"/>
<path fill="#FFFFFF" d="M121.266,12.922L122.703,12.922L125.484,19.949C125.391,19.23,125.309,18.391,125.309,17.602L125.309,12.922L126.504,12.922L126.504,21.738L125.062,21.738L122.258,14.688C122.363,15.406,122.461,16.262,122.461,17.059L122.461,21.738L121.266,21.738L121.266,12.922"/>
<path fill="#FFFFFF" d="M128.129,17.332C128.129,14.035,128.848,12.762,130.988,12.762C131.641,12.762,132.227,12.922,132.508,13.086L132.508,14.238C132.184,14.062,131.613,13.887,131.07,13.887C129.781,13.887,129.414,14.469,129.414,17.332C129.414,20.219,129.809,20.789,131.07,20.789C131.629,20.789,132.266,20.602,132.59,20.41L132.59,21.562C132.305,21.727,131.629,21.902,131.016,21.902C128.695,21.918,128.129,20.629,128.129,17.332"/>
<path fill="#FFFFFF" d="M134.016,12.922L138.137,12.922L138.137,13.98L135.262,13.98L135.262,16.68L137.582,16.68L137.582,17.723L135.262,17.723L135.262,20.684L138.137,20.684L138.137,21.738L134.016,21.738L134.016,12.922"/>
<path fill="#FFFFFF" d="M15.734,0.48L19.723,0.48L19.723,1.539L16.984,1.539L16.984,4.238L19.184,4.238L19.184,5.281L16.984,5.281L16.984,9.297L15.734,9.297L15.734,0.48"/>
<path fill="#FFFFFF" d="M21.594,6.246L23.535,6.246L23.168,4.781C22.98,4.047,22.734,2.922,22.586,1.945C22.422,2.922,22.164,4.047,21.977,4.781Z M21.934,0.48L23.223,0.48L25.57,9.297L24.27,9.297L23.754,7.305L21.352,7.305L20.848,9.297L19.59,9.297L21.934,0.48"/>
<path fill="#FFFFFF" d="M26.207,4.891C26.207,1.594,26.926,0.316,29.07,0.316C29.719,0.316,30.305,0.48,30.59,0.645L30.59,1.797C30.262,1.621,29.695,1.445,29.152,1.445C27.859,1.445,27.496,2.027,27.496,4.891C27.496,7.777,27.891,8.348,29.152,8.348C29.707,8.348,30.344,8.156,30.668,7.969L30.668,9.121C30.387,9.285,29.707,9.461,29.094,9.461C26.777,9.473,26.207,8.184,26.207,4.891"/>
<path fill="#FFFFFF" d="M31.883,6.641L31.883,0.48L33.133,0.48L33.133,6.695C33.133,7.996,33.578,8.375,34.488,8.375C35.398,8.375,35.844,7.996,35.844,6.695L35.844,0.48L37.094,0.48L37.094,6.641C37.094,8.648,36.25,9.461,34.488,9.461C32.699,9.461,31.883,8.672,31.883,6.641"/>
<path fill="#FFFFFF" d="M38.988,0.48L40.238,0.48L40.238,8.238L42.977,8.238L42.977,9.297L38.988,9.297L38.988,0.48"/>
<path fill="#FFFFFF" d="M42.543,0.48L47.602,0.48L47.602,1.539L45.691,1.539L45.691,9.297L44.441,9.297L44.441,1.539L42.543,1.539L42.543,0.48"/>
<path fill="#FFFFFF" d="M50.5,5.637L48.086,0.48L49.457,0.48L50.5,2.855C50.746,3.422,50.977,4.035,51.125,4.578C51.289,4.035,51.531,3.422,51.777,2.855L52.82,0.48L54.152,0.48L51.75,5.637L51.75,9.297L50.5,9.297L50.5,5.637"/>
<path fill="#FFFFFF" d="M61.316,4.891C61.316,2.121,61.031,1.402,59.891,1.402C58.75,1.402,58.48,2.121,58.48,4.891C58.48,7.656,58.75,8.375,59.891,8.375C61.031,8.375,61.316,7.656,61.316,4.891Z M57.191,4.891C57.191,1.238,58.059,0.316,59.891,0.316C61.777,0.316,62.602,1.199,62.602,4.891C62.602,8.551,61.734,9.461,59.891,9.461C58.02,9.461,57.191,8.594,57.191,4.891"/>
<path fill="#FFFFFF" d="M64.23,0.48L68.219,0.48L68.219,1.539L65.477,1.539L65.477,4.238L67.676,4.238L67.676,5.281L65.477,5.281L65.477,9.297L64.23,9.297L64.23,0.48"/>
<path fill="#FFFFFF" d="M103.766,13.832C104.316,13.828,104.836,14.012,105.074,14.199L105.074,13.074C104.836,12.926,104.25,12.766,103.656,12.766C102,12.766,101.09,13.707,101.09,15.07C101.09,16.211,101.57,16.758,102.348,17.426L103.059,18.039C103.645,18.531,104.008,18.906,104.008,19.641C104.008,20.496,103.441,20.84,102.59,20.84C101.945,20.84,101.41,20.656,101.102,20.445L101.102,21.59C101.371,21.746,101.938,21.906,102.699,21.906C104.352,21.902,105.266,20.965,105.266,19.598C105.27,18.461,104.781,17.91,104.008,17.242L103.297,16.629C102.711,16.129,102.348,15.766,102.348,15.031C102.352,14.168,102.91,13.832,103.766,13.832"/>
<path fill="#FFFFFF" d="M141.727,13.832C142.273,13.828,142.797,14.012,143.031,14.199L143.031,13.074C142.797,12.926,142.211,12.766,141.613,12.766C139.961,12.766,139.051,13.707,139.051,15.07C139.051,16.211,139.531,16.758,140.309,17.426L141.02,18.039C141.605,18.531,141.969,18.906,141.969,19.641C141.969,20.496,141.398,20.84,140.551,20.84C139.906,20.84,139.371,20.656,139.062,20.445L139.062,21.59C139.332,21.746,139.898,21.906,140.66,21.906C142.312,21.902,143.223,20.965,143.227,19.598C143.227,18.461,142.742,17.91,141.969,17.242L141.258,16.629C140.672,16.129,140.305,15.766,140.309,15.031C140.309,14.168,140.871,13.832,141.727,13.832"/>
<path fill="#FFFFFF" d="M6.496,6.094L6.496,10.484L5.246,10.484L5.246,6.094C5.246,5.746,5.527,5.469,5.871,5.469C6.215,5.469,6.496,5.746,6.496,6.094"/>
<path fill="#FFFFFF" d="M8.988,6.094L8.988,10.484L7.742,10.484L7.742,6.094C7.742,5.059,6.906,4.223,5.871,4.223C4.84,4.223,4,5.059,4,6.094L4,10.484L2.754,10.484L2.754,6.094C2.754,4.371,4.148,2.973,5.871,2.973C7.594,2.973,8.988,4.371,8.988,6.094"/>
<path fill="#FFFFFF" d="M11.484,6.094L11.484,10.484L10.238,10.484L10.238,6.094C10.238,3.68,8.281,1.727,5.871,1.727C3.461,1.727,1.508,3.68,1.508,6.094L1.508,10.484L0.262,10.484L0.262,6.094C0.262,2.992,2.773,0.48,5.871,0.48C8.973,0.48,11.484,2.992,11.484,6.094"/>
<path fill="#FFFFFF" d="M11.484,16.129L11.484,11.734L10.238,11.734L10.238,16.129C10.238,18.539,8.281,20.492,5.871,20.492C3.461,20.492,1.508,18.539,1.508,16.129L1.508,11.734L0.262,11.734L0.262,16.129C0.262,19.227,2.773,21.738,5.871,21.738C8.973,21.738,11.484,19.227,11.484,16.129"/>
</g>
</svg>
