<?xml version="1.0" encoding="UTF-8"?>
<svg xmlns="http://www.w3.org/2000/svg" xmlns:xlink="http://www.w3.org/1999/xlink" width="100pt" height="22pt" viewBox="0 0 100 22" version="1.1">
<g id="surface1">
<path fill="#FFFFFF" d="M19.652,12.922L20.898,12.922L21.617,17.266C21.738,17.969,21.891,19.352,21.969,20.41C22.051,19.352,22.203,17.984,22.324,17.266L23.055,12.922L24.332,12.922L25.066,17.266C25.184,17.969,25.324,19.34,25.402,20.383C25.484,19.34,25.648,17.969,25.77,17.266L26.488,12.922L27.695,12.922L26.016,21.742L24.723,21.742L24.008,17.398C23.898,16.75,23.746,15.516,23.664,14.496C23.586,15.516,23.449,16.75,23.344,17.398L22.609,21.742L21.336,21.742L19.652,12.922"/>
<path fill="#FFFFFF" d="M28.914,12.922L33.039,12.922L33.039,13.98L30.16,13.98L30.16,16.68L32.48,16.68L32.48,17.727L30.16,17.727L30.16,20.684L33.039,20.684L33.039,21.742L28.914,21.742L28.914,12.922"/>
<path fill="#FFFFFF" d="M33.77,12.922L38.828,12.922L38.828,13.98L36.914,13.98L36.914,21.742L35.668,21.742L35.668,13.98L33.77,13.98L33.77,12.922"/>
<path fill="#FFFFFF" d="M39.871,12.922L43.992,12.922L43.992,13.98L41.121,13.98L41.121,16.68L43.441,16.68L43.441,17.727L41.121,17.727L41.121,20.684L43.992,20.684L43.992,21.742L39.871,21.742L39.871,12.922"/>
<path fill="#FFFFFF" d="M45.637,12.922L47.074,12.922L49.852,19.949C49.758,19.23,49.676,18.391,49.676,17.602L49.676,12.922L50.871,12.922L50.871,21.742L49.434,21.742L46.625,14.688C46.73,15.406,46.828,16.262,46.828,17.062L46.828,21.742L45.637,21.742L45.637,12.922"/>
<path fill="#FFFFFF" d="M57.621,17.332C57.621,14.035,58.344,12.762,60.484,12.762C61.137,12.762,61.719,12.922,62.004,13.086L62.004,14.238C61.68,14.062,61.109,13.887,60.566,13.887C59.277,13.887,58.91,14.469,58.91,17.332C58.91,20.223,59.305,20.793,60.566,20.793C61.121,20.793,61.762,20.602,62.086,20.41L62.086,21.562C61.801,21.727,61.121,21.902,60.512,21.902C58.195,21.918,57.621,20.629,57.621,17.332"/>
<path fill="#FFFFFF" d="M67.301,17.738L64.613,17.738L64.613,21.742L63.367,21.742L63.367,12.922L64.613,12.922L64.613,16.68L67.301,16.68L67.301,12.922L68.551,12.922L68.551,21.742L67.301,21.742L67.301,17.738"/>
<path fill="#FFFFFF" d="M71.531,18.688L73.473,18.688L73.105,17.223C72.914,16.492,72.672,15.363,72.523,14.387C72.359,15.363,72.102,16.492,71.91,17.223Z M71.871,12.922L73.16,12.922L75.508,21.742L74.207,21.742L73.691,19.746L71.289,19.746L70.785,21.742L69.527,21.742L71.871,12.922"/>
<path fill="#FFFFFF" d="M77.73,13.98L77.73,17.496L78.465,17.496C79.438,17.496,79.969,17.141,79.969,15.73C79.969,14.32,79.438,13.98,78.465,13.98Z M76.48,12.922L78.598,12.922C80.27,12.922,81.258,13.629,81.258,15.73C81.258,17.781,80.227,18.539,78.598,18.539L77.73,18.539L77.73,21.742L76.48,21.742L76.48,12.922"/>
<path fill="#FFFFFF" d="M83.953,13.98L83.953,17.496L84.688,17.496C85.664,17.496,86.191,17.141,86.191,15.73C86.191,14.32,85.664,13.98,84.688,13.98Z M82.707,12.922L84.82,12.922C86.492,12.922,87.48,13.629,87.48,15.73C87.48,17.781,86.449,18.539,84.82,18.539L83.953,18.539L83.953,21.742L82.707,21.742L82.707,12.922"/>
<path fill="#FFFFFF" d="M88.934,12.922L93.055,12.922L93.055,13.98L90.18,13.98L90.18,16.68L92.5,16.68L92.5,17.727L90.18,17.727L90.18,20.684L93.055,20.684L93.055,21.742L88.934,21.742L88.934,12.922"/>
<path fill="#FFFFFF" d="M94.695,12.922L96.133,12.922L98.914,19.949C98.816,19.23,98.738,18.391,98.738,17.602L98.738,12.922L99.934,12.922L99.934,21.742L98.492,21.742L95.688,14.688C95.793,15.406,95.891,16.262,95.891,17.062L95.891,21.742L94.695,21.742L94.695,12.922"/>
<path fill="#FFFFFF" d="M20.383,0.48L24.367,0.48L24.367,1.539L21.629,1.539L21.629,4.238L23.828,4.238L23.828,5.285L21.629,5.285L21.629,9.301L20.383,9.301L20.383,0.48"/>
<path fill="#FFFFFF" d="M26.238,6.246L28.18,6.246L27.812,4.781C27.625,4.051,27.379,2.922,27.23,1.945C27.066,2.922,26.809,4.051,26.621,4.781Z M26.578,0.48L27.867,0.48L30.215,9.301L28.914,9.301L28.398,7.305L25.996,7.305L25.492,9.301L24.23,9.301L26.578,0.48"/>
<path fill="#FFFFFF" d="M30.852,4.891C30.852,1.594,31.57,0.32,33.715,0.32C34.363,0.32,34.949,0.48,35.23,0.645L35.23,1.797C34.906,1.621,34.336,1.445,33.793,1.445C32.508,1.445,32.141,2.027,32.141,4.891C32.141,7.781,32.531,8.352,33.793,8.352C34.352,8.352,34.988,8.16,35.312,7.969L35.312,9.121C35.027,9.285,34.352,9.461,33.738,9.461C31.422,9.477,30.852,8.188,30.852,4.891"/>
<path fill="#FFFFFF" d="M36.527,6.641L36.527,0.48L37.777,0.48L37.777,6.695C37.777,7.996,38.223,8.375,39.133,8.375C40.039,8.375,40.488,7.996,40.488,6.695L40.488,0.48L41.734,0.48L41.734,6.641C41.734,8.648,40.895,9.461,39.133,9.461C37.344,9.461,36.527,8.676,36.527,6.641"/>
<path fill="#FFFFFF" d="M43.633,0.48L44.883,0.48L44.883,8.242L47.621,8.242L47.621,9.301L43.633,9.301L43.633,0.48"/>
<path fill="#FFFFFF" d="M47.188,0.48L52.246,0.48L52.246,1.539L50.336,1.539L50.336,9.301L49.086,9.301L49.086,1.539L47.188,1.539L47.188,0.48"/>
<path fill="#FFFFFF" d="M53.289,0.48L57.414,0.48L57.414,1.539L54.539,1.539L54.539,4.238L56.855,4.238L56.855,5.285L54.539,5.285L54.539,8.242L57.414,8.242L57.414,9.301L53.289,9.301L53.289,0.48"/>
<path fill="#FFFFFF" d="M59.055,9.301L60.301,9.301L60.301,0.48L59.055,0.48Z M59.055,9.301"/>
<path fill="#FFFFFF" d="M61.344,0.48L66.406,0.48L66.406,1.539L64.492,1.539L64.492,9.301L63.242,9.301L63.242,1.539L61.344,1.539L61.344,0.48"/>
<path fill="#FFFFFF" d="M54.984,13.832C55.535,13.828,56.055,14.008,56.293,14.195L56.293,13.074C56.055,12.926,55.469,12.762,54.879,12.762C53.223,12.762,52.309,13.703,52.309,15.07C52.309,16.207,52.793,16.754,53.57,17.426L54.281,18.039C54.863,18.527,55.227,18.906,55.227,19.641C55.227,20.496,54.66,20.836,53.812,20.836C53.168,20.836,52.633,20.66,52.324,20.445L52.324,21.59C52.594,21.746,53.16,21.906,53.922,21.906C55.574,21.902,56.484,20.961,56.488,19.598C56.488,18.461,56.008,17.914,55.227,17.242L54.52,16.629C53.93,16.125,53.57,15.762,53.57,15.031C53.574,14.168,54.137,13.832,54.984,13.832"/>
<path fill="#FFFFFF" d="M2.789,21.742L13.379,21.742L12.129,20.496L4.035,20.496L2.789,21.742"/>
<path fill="#FFFFFF" d="M9.895,13.645L16.129,13.645L16.129,12.398L9.895,12.398Z M9.895,13.645"/>
<path fill="#FFFFFF" d="M8.352,8.617L9.234,9.5L11.879,6.855L11,5.973L8.352,8.617"/>
<path fill="#FFFFFF" d="M4.625,1.363L9.234,5.973L10.117,5.09L5.504,0.48L4.625,1.363"/>
<path fill="#FFFFFF" d="M2.863,3.125L7.473,7.734L8.352,6.852L3.742,2.242L2.863,3.125"/>
<path fill="#FFFFFF" d="M13.664,14.891C12.504,16.754,10.441,18,8.082,18C4.453,18,1.508,15.055,1.508,11.422C1.508,9.27,2.551,7.371,4.148,6.172L3.262,5.285C1.441,6.719,0.262,8.926,0.262,11.422C0.262,15.742,3.762,19.246,8.082,19.246C11.156,19.246,13.812,17.469,15.09,14.891L13.664,14.891"/>
<path fill="#FFFFFF" d="M10.219,14.891C9.594,15.273,8.867,15.504,8.086,15.504C5.828,15.504,4.004,13.68,4.004,11.422C4.004,9.957,4.789,8.695,5.953,7.977L5.047,7.07C3.668,8.031,2.754,9.613,2.754,11.422C2.754,14.367,5.141,16.754,8.082,16.754C9.695,16.754,11.125,16.02,12.102,14.891L10.219,14.891"/>
</g>
</svg>
