<?xml version="1.0" encoding="UTF-8"?>
<svg xmlns="http://www.w3.org/2000/svg" xmlns:xlink="http://www.w3.org/1999/xlink" width="116pt" height="32pt" viewBox="0 0 116 32" version="1.1">
<g id="surface1">
<path fill="#FFFFFF" d="M27.02,13.953L27.02,20.711L27.984,20.711C29.258,20.711,29.637,20.125,29.637,17.332C29.637,14.535,29.258,13.953,27.984,13.953Z M25.773,12.922L28.078,12.922C30.383,12.922,30.926,14.156,30.926,17.332C30.926,20.465,30.371,21.738,28.078,21.738L25.773,21.738L25.773,12.922"/>
<path fill="#FFFFFF" d="M32.551,21.738L33.801,21.738L33.801,12.922L32.551,12.922Z M32.551,21.738"/>
<path fill="#FFFFFF" d="M35.766,12.922L39.891,12.922L39.891,13.98L37.016,13.98L37.016,16.68L39.336,16.68L39.336,17.723L37.016,17.723L37.016,20.684L39.891,20.684L39.891,21.738L35.766,21.738L35.766,12.922"/>
<path fill="#FFFFFF" d="M42.777,13.98L42.777,17.09L43.441,17.09C44.418,17.09,45.07,16.883,45.07,15.527C45.07,14.184,44.418,13.98,43.441,13.98Z M41.531,12.922L43.566,12.922C45.191,12.922,46.359,13.531,46.359,15.527C46.359,16.926,45.68,17.602,44.828,17.914L46.699,21.738L45.273,21.738L43.617,18.145L42.777,18.145L42.777,21.738L41.531,21.738L41.531,12.922"/>
<path fill="#FFFFFF" d="M47.645,17.332C47.645,13.859,48.57,12.762,50.859,12.762C51.512,12.762,52.203,12.938,52.504,13.113L52.504,14.266C52.176,14.078,51.551,13.871,50.957,13.871C49.492,13.871,48.934,14.414,48.934,17.332C48.934,20.219,49.328,20.816,50.602,20.816C50.996,20.816,51.32,20.766,51.566,20.695L51.566,17.754L50.266,17.754L50.266,16.695L52.812,16.695L52.812,21.457C52.555,21.617,51.527,21.902,50.617,21.902C48.23,21.902,47.645,20.656,47.645,17.332"/>
<path fill="#FFFFFF" d="M54.656,12.922L58.781,12.922L58.781,13.98L55.906,13.98L55.906,16.68L58.227,16.68L58.227,17.723L55.906,17.723L55.906,20.684L58.781,20.684L58.781,21.738L54.656,21.738L54.656,12.922"/>
<path fill="#FFFFFF" d="M60.422,12.922L61.859,12.922L64.641,19.949C64.543,19.23,64.465,18.391,64.465,17.602L64.465,12.922L65.656,12.922L65.656,21.738L64.219,21.738L61.41,14.688C61.52,15.406,61.613,16.262,61.613,17.059L61.613,21.738L60.422,21.738L60.422,12.922"/>
<path fill="#FFFFFF" d="M67.621,12.922L71.746,12.922L71.746,13.98L68.871,13.98L68.871,16.68L71.191,16.68L71.191,17.723L68.871,17.723L68.871,20.684L71.746,20.684L71.746,21.738L67.621,21.738L67.621,12.922"/>
<path fill="#FFFFFF" d="M73.387,12.922L77.512,12.922L77.512,13.98L74.633,13.98L74.633,16.68L76.953,16.68L76.953,17.723L74.633,17.723L74.633,20.684L77.512,20.684L77.512,21.738L73.387,21.738L73.387,12.922"/>
<path fill="#FFFFFF" d="M84.074,12.922L85.32,12.922L85.32,16.926L87.887,12.922L89.281,12.922L86.5,17.223L89.484,21.738L87.98,21.738L85.32,17.602L85.32,21.738L84.074,21.738L84.074,12.922"/>
<path fill="#FFFFFF" d="M90.312,19.082L90.312,12.922L91.559,12.922L91.559,19.137C91.559,20.438,92.008,20.816,92.914,20.816C93.824,20.816,94.273,20.438,94.273,19.137L94.273,12.922L95.52,12.922L95.52,19.082C95.52,21.09,94.68,21.902,92.914,21.902C91.125,21.902,90.312,21.117,90.312,19.082"/>
<path fill="#FFFFFF" d="M97.418,12.922L98.855,12.922L101.637,19.949C101.543,19.23,101.461,18.391,101.461,17.602L101.461,12.922L102.652,12.922L102.652,21.738L101.215,21.738L98.406,14.688C98.516,15.406,98.613,16.262,98.613,17.059L98.613,21.738L97.418,21.738L97.418,12.922"/>
<path fill="#FFFFFF" d="M105.867,13.953L105.867,20.711L106.832,20.711C108.105,20.711,108.484,20.125,108.484,17.332C108.484,14.535,108.105,13.953,106.832,13.953Z M104.617,12.922L106.926,12.922C109.23,12.922,109.773,14.156,109.773,17.332C109.773,20.465,109.219,21.738,106.926,21.738L104.617,21.738L104.617,12.922"/>
<path fill="#FFFFFF" d="M111.398,12.922L115.523,12.922L115.523,13.98L112.648,13.98L112.648,16.68L114.969,16.68L114.969,17.723L112.648,17.723L112.648,20.684L115.523,20.684L115.523,21.738L111.398,21.738L111.398,12.922"/>
<path fill="#FFFFFF" d="M25.773,0.48L29.762,0.48L29.762,1.539L27.02,1.539L27.02,4.238L29.219,4.238L29.219,5.281L27.02,5.281L27.02,9.297L25.773,9.297L25.773,0.48"/>
<path fill="#FFFFFF" d="M31.633,6.246L33.57,6.246L33.203,4.781C33.016,4.047,32.77,2.922,32.621,1.945C32.457,2.922,32.199,4.047,32.012,4.781Z M31.969,0.48L33.258,0.48L35.605,9.297L34.305,9.297L33.789,7.305L31.387,7.305L30.887,9.297L29.621,9.297L31.969,0.48"/>
<path fill="#FFFFFF" d="M36.242,4.891C36.242,1.594,36.961,0.316,39.102,0.316C39.754,0.316,40.34,0.48,40.621,0.645L40.621,1.797C40.297,1.621,39.727,1.445,39.184,1.445C37.898,1.445,37.531,2.027,37.531,4.891C37.531,7.777,37.922,8.348,39.184,8.348C39.742,8.348,40.379,8.156,40.703,7.969L40.703,9.121C40.418,9.285,39.742,9.461,39.133,9.461C36.812,9.473,36.242,8.184,36.242,4.891"/>
<path fill="#FFFFFF" d="M41.918,6.641L41.918,0.48L43.164,0.48L43.164,6.695C43.164,7.996,43.613,8.375,44.523,8.375C45.43,8.375,45.879,7.996,45.879,6.695L45.879,0.48L47.129,0.48L47.129,6.641C47.129,8.648,46.285,9.461,44.523,9.461C42.73,9.461,41.918,8.672,41.918,6.641"/>
<path fill="#FFFFFF" d="M49.023,0.48L50.273,0.48L50.273,8.238L53.012,8.238L53.012,9.297L49.023,9.297L49.023,0.48"/>
<path fill="#FFFFFF" d="M52.578,0.48L57.637,0.48L57.637,1.539L55.723,1.539L55.723,9.297L54.477,9.297L54.477,1.539L52.578,1.539L52.578,0.48"/>
<path fill="#FFFFFF" d="M58.68,0.48L62.805,0.48L62.805,1.539L59.93,1.539L59.93,4.238L62.246,4.238L62.246,5.281L59.93,5.281L59.93,8.238L62.805,8.238L62.805,9.297L58.68,9.297L58.68,0.48"/>
<path fill="#FFFFFF" d="M64.445,9.297L65.691,9.297L65.691,0.48L64.445,0.48Z M64.445,9.297"/>
<path fill="#FFFFFF" d="M66.734,0.48L71.793,0.48L71.793,1.539L69.883,1.539L69.883,9.297L68.637,9.297L68.637,1.539L66.734,1.539L66.734,0.48"/>
<path fill="#FFFFFF" d="M27.367,29.707L27.367,28.59C27.188,28.453,26.965,28.34,26.68,28.34C26.211,28.34,26.07,28.609,26.07,29.148C26.07,29.691,26.211,29.961,26.68,29.961C26.965,29.961,27.188,29.848,27.367,29.707M27.426,30.02C27.203,30.215,26.926,30.332,26.598,30.332C25.852,30.332,25.613,29.879,25.613,29.148C25.613,28.422,25.867,27.961,26.598,27.961C26.891,27.961,27.152,28.074,27.367,28.238L27.367,27.754C27.367,27.141,27.18,26.82,26.57,26.82C26.211,26.82,25.891,26.984,25.773,27.066L25.773,26.641C25.906,26.551,26.219,26.422,26.621,26.422C27.441,26.422,27.805,26.855,27.805,27.668L27.805,30.242L27.488,30.242L27.426,30.02"/>
<path fill="#FFFFFF" d="M28.656,28.379C28.656,26.781,29.168,26.422,29.887,26.422C30.184,26.422,30.379,26.484,30.512,26.559L30.512,26.984C30.414,26.914,30.16,26.828,29.93,26.828C29.387,26.828,29.113,27.109,29.113,28.379C29.113,29.617,29.348,29.93,29.887,29.93C30.16,29.93,30.422,29.832,30.539,29.758L30.539,30.184C30.406,30.258,30.137,30.332,29.848,30.332C29.031,30.332,28.656,29.871,28.656,28.379"/>
<path fill="#FFFFFF" d="M31.105,28.379C31.105,26.781,31.621,26.422,32.34,26.422C32.637,26.422,32.832,26.484,32.965,26.559L32.965,26.984C32.867,26.914,32.613,26.828,32.383,26.828C31.84,26.828,31.57,27.109,31.57,28.379C31.57,29.617,31.801,29.93,32.34,29.93C32.613,29.93,32.875,29.832,32.996,29.758L32.996,30.184C32.859,30.258,32.594,30.332,32.301,30.332C31.488,30.332,31.105,29.871,31.105,28.379"/>
<path fill="#FFFFFF" d="M33.766,26.516L34.094,26.516L34.152,26.805C34.426,26.602,34.758,26.461,35.227,26.461L35.227,26.902C34.801,26.902,34.488,26.961,34.211,27.102L34.211,30.242L33.766,30.242L33.766,26.516"/>
<path fill="#FFFFFF" d="M36.156,28.102L37.531,28.102C37.512,27.141,37.344,26.812,36.844,26.812C36.336,26.812,36.18,27.141,36.156,28.102M35.703,28.387C35.703,26.855,36.062,26.422,36.844,26.422C37.645,26.422,37.984,26.844,37.984,28.379L37.984,28.48L36.156,28.48C36.172,29.66,36.41,29.93,37.031,29.93C37.359,29.93,37.711,29.797,37.828,29.715L37.828,30.141C37.703,30.223,37.375,30.332,36.98,30.332C36.098,30.332,35.703,29.902,35.703,28.387"/>
<path fill="#FFFFFF" d="M40.551,29.742L40.551,27.023C40.395,26.906,40.18,26.82,39.949,26.82C39.367,26.82,39.195,27.148,39.195,28.379C39.195,29.609,39.367,29.938,39.949,29.938C40.18,29.938,40.395,29.848,40.551,29.742M40.637,30.047C40.434,30.23,40.164,30.332,39.875,30.332C39.07,30.332,38.73,29.93,38.73,28.379C38.73,26.848,39.09,26.422,39.867,26.422C40.137,26.422,40.367,26.516,40.551,26.648L40.551,25.395L41,25.395L41,30.242L40.68,30.242L40.637,30.047"/>
<path fill="#FFFFFF" d="M42.039,26.516L42.484,26.516L42.484,30.242L42.039,30.242Z M41.984,25.746C41.984,25.566,42.098,25.457,42.289,25.457C42.492,25.457,42.598,25.566,42.598,25.746C42.598,25.922,42.492,26.035,42.289,26.035C42.098,26.035,41.984,25.922,41.984,25.746"/>
<path fill="#FFFFFF" d="M43.141,26.516L43.672,26.516L43.672,25.395L44.117,25.395L44.117,26.516L44.879,26.516L44.879,26.895L44.117,26.895L44.117,29.402C44.117,29.828,44.277,29.895,44.641,29.895L44.805,29.895L44.805,30.273L44.531,30.273C44.09,30.273,43.672,30.16,43.672,29.453L43.672,26.895L43.141,26.895L43.141,26.516"/>
<path fill="#FFFFFF" d="M45.926,28.102L47.297,28.102C47.277,27.141,47.109,26.812,46.609,26.812C46.102,26.812,45.945,27.141,45.926,28.102M45.469,28.387C45.469,26.855,45.828,26.422,46.609,26.422C47.406,26.422,47.754,26.844,47.754,28.379L47.754,28.48L45.926,28.48C45.941,29.66,46.176,29.93,46.797,29.93C47.125,29.93,47.477,29.797,47.594,29.715L47.594,30.141C47.469,30.223,47.141,30.332,46.746,30.332C45.863,30.332,45.469,29.902,45.469,28.387"/>
<path fill="#FFFFFF" d="M50.32,29.742L50.32,27.023C50.16,26.906,49.945,26.82,49.715,26.82C49.133,26.82,48.961,27.148,48.961,28.379C48.961,29.609,49.133,29.938,49.715,29.938C49.945,29.938,50.16,29.848,50.32,29.742M50.402,30.047C50.199,30.23,49.93,30.332,49.641,30.332C48.836,30.332,48.496,29.93,48.496,28.379C48.496,26.848,48.855,26.422,49.633,26.422C49.902,26.422,50.133,26.516,50.32,26.648L50.32,25.395L50.766,25.395L50.766,30.242L50.445,30.242L50.402,30.047"/>
<path fill="#FFFFFF" d="M53.773,27.023L53.773,29.742C53.93,29.855,54.145,29.938,54.383,29.938C54.969,29.938,55.141,29.609,55.141,28.379C55.141,27.148,54.969,26.82,54.383,26.82C54.145,26.82,53.93,26.906,53.773,27.023M53.324,25.395L53.773,25.395L53.773,26.66C53.953,26.523,54.191,26.422,54.461,26.422C55.266,26.422,55.598,26.828,55.598,28.379C55.598,29.906,55.242,30.332,54.469,30.332C54.168,30.332,53.891,30.234,53.691,30.066L53.652,30.242L53.324,30.242L53.324,25.395"/>
<path fill="#FFFFFF" d="M57.094,30.215L56.07,26.516L56.531,26.516L57.102,28.684C57.184,28.996,57.281,29.402,57.332,29.719C57.375,29.402,57.473,28.996,57.555,28.684L58.129,26.516L58.578,26.516L57.316,31.363L56.855,31.363L57.094,30.215"/>
<path fill="#FFFFFF" d="M60.762,25.395L62.828,25.395L62.828,25.797L61.223,25.797L61.223,27.543L62.512,27.543L62.512,27.945L61.223,27.945L61.223,29.84L62.828,29.84L62.828,30.242L60.762,30.242L60.762,25.395"/>
<path fill="#FFFFFF" d="M64.09,28.656L65.398,28.656L65.145,27.668C65,27.109,64.832,26.441,64.75,25.949C64.672,26.441,64.508,27.109,64.359,27.668Z M64.516,25.395L64.992,25.395L66.316,30.242L65.824,30.242L65.5,29.055L63.992,29.055L63.672,30.242L63.195,30.242L64.516,25.395"/>
<path fill="#FFFFFF" d="M66.965,25.395L69.031,25.395L69.031,25.797L67.426,25.797L67.426,27.543L68.715,27.543L68.715,27.945L67.426,27.945L67.426,29.84L69.031,29.84L69.031,30.242L66.965,30.242L66.965,25.395"/>
<path fill="#FFFFFF" d="M69.414,25.395L69.898,25.395L70.586,28.066C70.727,28.625,70.867,29.254,70.934,29.684C71.004,29.254,71.137,28.625,71.285,28.066L71.973,25.395L72.449,25.395L71.176,30.242L70.684,30.242L69.414,25.395"/>
<path fill="#FFFFFF" d="M73.105,25.395L75.172,25.395L75.172,25.797L73.57,25.797L73.57,27.543L74.859,27.543L74.859,27.945L73.57,27.945L73.57,29.84L75.172,29.84L75.172,30.242L73.105,30.242L73.105,25.395"/>
<path fill="#FFFFFF" d="M81.098,13.832C81.648,13.828,82.168,14.012,82.406,14.199L82.406,13.074C82.168,12.926,81.582,12.766,80.988,12.766C79.332,12.766,78.422,13.707,78.422,15.07C78.422,16.211,78.902,16.758,79.68,17.426L80.391,18.039C80.977,18.531,81.34,18.906,81.34,19.641C81.34,20.496,80.773,20.84,79.922,20.84C79.277,20.84,78.742,20.656,78.434,20.445L78.434,21.59C78.707,21.746,79.27,21.906,80.031,21.906C81.684,21.902,82.598,20.965,82.598,19.598C82.602,18.461,82.113,17.91,81.34,17.242L80.629,16.629C80.043,16.129,79.68,15.766,79.68,15.031C79.684,14.168,80.242,13.832,81.098,13.832"/>
<path fill="#FFFFFF" d="M9.488,13.52C7.102,15.527,5.5,18.441,5.25,21.738L6.496,21.738C6.746,18.82,8.176,16.238,10.301,14.465L9.488,13.52"/>
<path fill="#FFFFFF" d="M11.398,9.43C6.562,11.539,3.105,16.215,2.754,21.738L4,21.738C4.352,16.715,7.512,12.473,11.918,10.566L11.398,9.43"/>
<path fill="#FFFFFF" d="M16.832,1.684L12.707,6.34C5.805,8.215,0.66,14.34,0.262,21.738L1.508,21.738C1.914,14.781,6.84,9.039,13.402,7.434L16.195,4.281L19.922,19.273L16.809,19.273L13.863,15.734L12.902,16.531L16.227,20.52L21.52,20.52L16.832,1.684"/>
</g>
</svg>
