<?xml version="1.0" encoding="UTF-8"?>
<svg xmlns="http://www.w3.org/2000/svg" xmlns:xlink="http://www.w3.org/1999/xlink" width="146pt" height="22pt" viewBox="0 0 146 22" version="1.1">
<g id="surface1">
<path fill="#FFFFFF" d="M15.008,12.922L16.254,12.922L16.973,17.266C17.094,17.969,17.246,19.352,17.328,20.41C17.406,19.352,17.555,17.98,17.68,17.266L18.41,12.922L19.688,12.922L20.418,17.266C20.539,17.969,20.676,19.34,20.758,20.383C20.84,19.34,21.004,17.969,21.125,17.266L21.844,12.922L23.051,12.922L21.367,21.738L20.082,21.738L19.359,17.398C19.254,16.746,19.102,15.516,19.023,14.496C18.941,15.516,18.805,16.746,18.699,17.398L17.965,21.738L16.691,21.738L15.008,12.922"/>
<path fill="#FFFFFF" d="M24.27,12.922L28.395,12.922L28.395,13.98L25.52,13.98L25.52,16.68L27.84,16.68L27.84,17.723L25.52,17.723L25.52,20.684L28.395,20.684L28.395,21.738L24.27,21.738L24.27,12.922"/>
<path fill="#FFFFFF" d="M29.125,12.922L34.184,12.922L34.184,13.98L32.27,13.98L32.27,21.738L31.023,21.738L31.023,13.98L29.125,13.98L29.125,12.922"/>
<path fill="#FFFFFF" d="M35.227,12.922L39.352,12.922L39.352,13.98L36.477,13.98L36.477,16.68L38.793,16.68L38.793,17.723L36.477,17.723L36.477,20.684L39.352,20.684L39.352,21.738L35.227,21.738L35.227,12.922"/>
<path fill="#FFFFFF" d="M40.992,12.922L42.43,12.922L45.211,19.949C45.113,19.23,45.031,18.391,45.031,17.602L45.031,12.922L46.227,12.922L46.227,21.738L44.789,21.738L41.98,14.688C42.09,15.406,42.184,16.262,42.184,17.059L42.184,21.738L40.992,21.738L40.992,12.922"/>
<path fill="#FFFFFF" d="M52.98,17.332C52.98,14.035,53.699,12.762,55.84,12.762C56.492,12.762,57.074,12.922,57.359,13.086L57.359,14.238C57.035,14.062,56.465,13.887,55.922,13.887C54.633,13.887,54.27,14.469,54.27,17.332C54.27,20.219,54.66,20.789,55.922,20.789C56.48,20.789,57.117,20.602,57.441,20.41L57.441,21.562C57.156,21.727,56.48,21.902,55.867,21.902C53.547,21.918,52.98,20.629,52.98,17.332"/>
<path fill="#FFFFFF" d="M62.656,17.738L59.973,17.738L59.973,21.738L58.723,21.738L58.723,12.922L59.973,12.922L59.973,16.68L62.656,16.68L62.656,12.922L63.906,12.922L63.906,21.738L62.656,21.738L62.656,17.738"/>
<path fill="#FFFFFF" d="M66.891,18.688L68.828,18.688L68.461,17.223C68.273,16.488,68.027,15.363,67.879,14.387C67.715,15.363,67.457,16.488,67.27,17.223Z M67.227,12.922L68.516,12.922L70.863,21.738L69.559,21.738L69.043,19.746L66.645,19.746L66.145,21.738L64.883,21.738L67.227,12.922"/>
<path fill="#FFFFFF" d="M73.086,13.98L73.086,17.492L73.82,17.492C74.793,17.492,75.324,17.141,75.324,15.73C75.324,14.32,74.793,13.98,73.82,13.98Z M71.84,12.922L73.953,12.922C75.621,12.922,76.613,13.629,76.613,15.73C76.613,17.781,75.582,18.539,73.953,18.539L73.086,18.539L73.086,21.738L71.84,21.738L71.84,12.922"/>
<path fill="#FFFFFF" d="M79.312,13.98L79.312,17.492L80.043,17.492C81.02,17.492,81.551,17.141,81.551,15.73C81.551,14.32,81.02,13.98,80.043,13.98Z M78.062,12.922L80.18,12.922C81.848,12.922,82.84,13.629,82.84,15.73C82.84,17.781,81.809,18.539,80.18,18.539L79.312,18.539L79.312,21.738L78.062,21.738L78.062,12.922"/>
<path fill="#FFFFFF" d="M84.285,12.922L88.41,12.922L88.41,13.98L85.535,13.98L85.535,16.68L87.855,16.68L87.855,17.723L85.535,17.723L85.535,20.684L88.41,20.684L88.41,21.738L84.285,21.738L84.285,12.922"/>
<path fill="#FFFFFF" d="M90.051,12.922L91.488,12.922L94.27,19.949C94.176,19.23,94.094,18.391,94.094,17.602L94.094,12.922L95.285,12.922L95.285,21.738L93.852,21.738L91.039,14.688C91.148,15.406,91.242,16.262,91.242,17.059L91.242,21.738L90.051,21.738L90.051,12.922"/>
<path fill="#FFFFFF" d="M15.734,0.48L19.723,0.48L19.723,1.539L16.984,1.539L16.984,4.238L19.184,4.238L19.184,5.281L16.984,5.281L16.984,9.297L15.734,9.297L15.734,0.48"/>
<path fill="#FFFFFF" d="M21.594,6.246L23.535,6.246L23.168,4.781C22.98,4.047,22.734,2.922,22.586,1.945C22.422,2.922,22.164,4.047,21.977,4.781Z M21.934,0.48L23.223,0.48L25.57,9.297L24.27,9.297L23.754,7.305L21.352,7.305L20.848,9.297L19.59,9.297L21.934,0.48"/>
<path fill="#FFFFFF" d="M26.207,4.891C26.207,1.594,26.926,0.316,29.07,0.316C29.719,0.316,30.305,0.48,30.59,0.645L30.59,1.797C30.262,1.621,29.691,1.445,29.148,1.445C27.859,1.445,27.496,2.027,27.496,4.891C27.496,7.777,27.887,8.348,29.148,8.348C29.707,8.348,30.344,8.156,30.668,7.969L30.668,9.121C30.383,9.285,29.707,9.461,29.094,9.461C26.777,9.473,26.207,8.184,26.207,4.891"/>
<path fill="#FFFFFF" d="M31.883,6.641L31.883,0.48L33.133,0.48L33.133,6.695C33.133,7.996,33.578,8.375,34.488,8.375C35.398,8.375,35.844,7.996,35.844,6.695L35.844,0.48L37.094,0.48L37.094,6.641C37.094,8.648,36.25,9.461,34.488,9.461C32.699,9.461,31.883,8.672,31.883,6.641"/>
<path fill="#FFFFFF" d="M38.988,0.48L40.238,0.48L40.238,8.238L42.977,8.238L42.977,9.297L38.988,9.297L38.988,0.48"/>
<path fill="#FFFFFF" d="M42.543,0.48L47.602,0.48L47.602,1.539L45.691,1.539L45.691,9.297L44.441,9.297L44.441,1.539L42.543,1.539L42.543,0.48"/>
<path fill="#FFFFFF" d="M48.645,0.48L52.77,0.48L52.77,1.539L49.895,1.539L49.895,4.238L52.215,4.238L52.215,5.281L49.895,5.281L49.895,8.238L52.77,8.238L52.77,9.297L48.645,9.297L48.645,0.48"/>
<path fill="#FFFFFF" d="M54.41,9.297L55.656,9.297L55.656,0.48L54.41,0.48Z M54.41,9.297"/>
<path fill="#FFFFFF" d="M56.703,0.48L61.762,0.48L61.762,1.539L59.848,1.539L59.848,9.297L58.598,9.297L58.598,1.539L56.703,1.539L56.703,0.48"/>
<path fill="#FFFFFF" d="M65.195,0.48L69.184,0.48L69.184,1.539L66.445,1.539L66.445,4.238L68.641,4.238L68.641,5.281L66.445,5.281L66.445,9.297L65.195,9.297L65.195,0.48"/>
<path fill="#FFFFFF" d="M71.055,6.246L72.992,6.246L72.629,4.781C72.438,4.047,72.195,2.922,72.043,1.945C71.883,2.922,71.621,4.047,71.434,4.781Z M71.395,0.48L72.68,0.48L75.027,9.297L73.727,9.297L73.211,7.305L70.809,7.305L70.309,9.297L69.047,9.297L71.395,0.48"/>
<path fill="#FFFFFF" d="M77.254,1.539L77.254,4.645L77.914,4.645C78.895,4.645,79.543,4.441,79.543,3.086C79.543,1.742,78.895,1.539,77.914,1.539Z M76.004,0.48L78.039,0.48C79.664,0.48,80.832,1.09,80.832,3.086C80.832,4.48,80.152,5.16,79.301,5.473L81.172,9.297L79.746,9.297L78.094,5.703L77.254,5.703L77.254,9.297L76.004,9.297L76.004,0.48"/>
<path fill="#FFFFFF" d="M82.527,0.48L84.141,0.48L85.688,5.121L87.246,0.48L88.809,0.48L88.809,9.297L87.613,9.297L87.613,4.715C87.613,3.734,87.684,2.719,87.762,1.93L86.16,6.68L85.172,6.68L83.559,1.918C83.641,2.707,83.723,3.734,83.723,4.715L83.723,9.297L82.527,9.297L82.527,0.48"/>
<path fill="#FFFFFF" d="M91.789,6.246L93.73,6.246L93.363,4.781C93.172,4.047,92.93,2.922,92.777,1.945C92.617,2.922,92.359,4.047,92.172,4.781Z M92.129,0.48L93.418,0.48L95.766,9.297L94.461,9.297L93.945,7.305L91.547,7.305L91.043,9.297L89.781,9.297L92.129,0.48"/>
<path fill="#FFFFFF" d="M96.398,4.891C96.398,1.594,97.117,0.316,99.262,0.316C99.914,0.316,100.496,0.48,100.781,0.645L100.781,1.797C100.457,1.621,99.887,1.445,99.344,1.445C98.055,1.445,97.688,2.027,97.688,4.891C97.688,7.777,98.082,8.348,99.344,8.348C99.898,8.348,100.535,8.156,100.863,7.969L100.863,9.121C100.578,9.285,99.898,9.461,99.289,9.461C96.969,9.473,96.398,8.184,96.398,4.891"/>
<path fill="#FFFFFF" d="M102.285,0.48L106.41,0.48L106.41,1.539L103.535,1.539L103.535,4.238L105.855,4.238L105.855,5.281L103.535,5.281L103.535,8.238L106.41,8.238L106.41,9.297L102.285,9.297L102.285,0.48"/>
<path fill="#FFFFFF" d="M107.914,6.641L107.914,0.48L109.16,0.48L109.16,6.695C109.16,7.996,109.609,8.375,110.52,8.375C111.43,8.375,111.875,7.996,111.875,6.695L111.875,0.48L113.121,0.48L113.121,6.641C113.121,8.648,112.281,9.461,110.52,9.461C108.73,9.461,107.914,8.672,107.914,6.641"/>
<path fill="#FFFFFF" d="M114.098,0.48L119.156,0.48L119.156,1.539L117.246,1.539L117.246,9.297L115.996,9.297L115.996,1.539L114.098,1.539L114.098,0.48"/>
<path fill="#FFFFFF" d="M120.199,9.297L121.449,9.297L121.449,0.48L120.199,0.48Z M120.199,9.297"/>
<path fill="#FFFFFF" d="M128.203,4.891C128.203,1.594,128.922,0.316,131.062,0.316C131.719,0.316,132.301,0.48,132.586,0.645L132.586,1.797C132.258,1.621,131.688,1.445,131.145,1.445C129.855,1.445,129.492,2.027,129.492,4.891C129.492,7.777,129.887,8.348,131.145,8.348C131.703,8.348,132.34,8.156,132.664,7.969L132.664,9.121C132.383,9.285,131.703,9.461,131.094,9.461C128.773,9.473,128.203,8.184,128.203,4.891"/>
<path fill="#FFFFFF" d="M138.023,5.297L135.336,5.297L135.336,9.297L134.09,9.297L134.09,0.48L135.336,0.48L135.336,4.238L138.023,4.238L138.023,0.48L139.27,0.48L139.27,9.297L138.023,9.297L138.023,5.297"/>
<path fill="#FFFFFF" d="M141.234,0.48L145.359,0.48L145.359,1.539L142.484,1.539L142.484,4.238L144.805,4.238L144.805,5.281L142.484,5.281L142.484,8.238L145.359,8.238L145.359,9.297L141.234,9.297L141.234,0.48"/>
<path fill="#FFFFFF" d="M125.566,1.387C126.117,1.387,126.637,1.566,126.875,1.754L126.875,0.629C126.637,0.484,126.051,0.32,125.457,0.32C123.801,0.32,122.891,1.262,122.891,2.629C122.891,3.766,123.371,4.312,124.148,4.984L124.859,5.598C125.445,6.086,125.809,6.465,125.809,7.199C125.809,8.055,125.242,8.395,124.391,8.395C123.746,8.395,123.211,8.215,122.902,8.004L122.902,9.148C123.176,9.305,123.738,9.465,124.504,9.461C126.152,9.457,127.066,8.52,127.066,7.156C127.07,6.02,126.586,5.469,125.809,4.801L125.102,4.188C124.512,3.684,124.148,3.32,124.148,2.59C124.152,1.727,124.715,1.391,125.566,1.387"/>
<path fill="#FFFFFF" d="M50.344,13.832C50.895,13.828,51.414,14.012,51.652,14.199L51.652,13.074C51.414,12.926,50.828,12.766,50.234,12.766C48.578,12.766,47.668,13.707,47.668,15.07C47.668,16.211,48.148,16.758,48.926,17.426L49.637,18.039C50.223,18.531,50.586,18.906,50.586,19.641C50.586,20.496,50.02,20.84,49.168,20.84C48.523,20.84,47.988,20.656,47.68,20.445L47.68,21.59C47.949,21.746,48.516,21.906,49.277,21.906C50.93,21.902,51.84,20.965,51.844,19.598C51.844,18.461,51.359,17.91,50.586,17.242L49.875,16.629C49.289,16.129,48.922,15.766,48.926,15.031C48.926,14.168,49.488,13.832,50.344,13.832"/>
<path fill="#FFFFFF" d="M6.496,6.094L6.496,10.484L5.25,10.484L5.25,6.094C5.25,5.746,5.527,5.469,5.871,5.469C6.215,5.469,6.496,5.746,6.496,6.094"/>
<path fill="#FFFFFF" d="M8.988,6.094L8.988,10.484L7.742,10.484L7.742,6.094C7.742,5.059,6.906,4.223,5.871,4.223C4.84,4.223,4,5.059,4,6.094L4,10.484L2.754,10.484L2.754,6.094C2.754,4.371,4.148,2.973,5.871,2.973C7.594,2.973,8.988,4.371,8.988,6.094"/>
<path fill="#FFFFFF" d="M11.484,6.094L11.484,10.484L10.238,10.484L10.238,6.094C10.238,3.68,8.281,1.727,5.871,1.727C3.461,1.727,1.508,3.68,1.508,6.094L1.508,10.484L0.262,10.484L0.262,6.094C0.262,2.992,2.773,0.48,5.871,0.48C8.973,0.48,11.484,2.992,11.484,6.094"/>
<path fill="#FFFFFF" d="M11.484,16.129L11.484,11.734L10.238,11.734L10.238,16.129C10.238,18.539,8.281,20.492,5.871,20.492C3.461,20.492,1.508,18.539,1.508,16.129L1.508,11.734L0.262,11.734L0.262,16.129C0.262,19.227,2.773,21.738,5.871,21.738C8.973,21.738,11.484,19.227,11.484,16.129"/>
</g>
</svg>
