<?xml version="1.0" encoding="UTF-8"?>
<svg xmlns="http://www.w3.org/2000/svg" xmlns:xlink="http://www.w3.org/1999/xlink" width="172pt" height="22pt" viewBox="0 0 172 22" version="1.1">
<g id="surface1">
<path fill="#FFFFFF" d="M25.449,17.332C25.449,13.859,26.371,12.762,28.664,12.762C29.316,12.762,30.008,12.938,30.305,13.113L30.305,14.266C29.98,14.078,29.355,13.871,28.758,13.871C27.293,13.871,26.738,14.414,26.738,17.332C26.738,20.219,27.133,20.816,28.406,20.816C28.801,20.816,29.125,20.766,29.367,20.695L29.367,17.754L28.066,17.754L28.066,16.695L30.617,16.695L30.617,21.457C30.359,21.617,29.328,21.902,28.418,21.902C26.031,21.902,25.449,20.656,25.449,17.332"/>
<path fill="#FFFFFF" d="M32.461,12.922L36.586,12.922L36.586,13.98L33.711,13.98L33.711,16.68L36.027,16.68L36.027,17.723L33.711,17.723L33.711,20.684L36.586,20.684L36.586,21.738L32.461,21.738L32.461,12.922"/>
<path fill="#FFFFFF" d="M37.52,20.871L40.555,13.98L37.586,13.98L37.586,12.922L41.941,12.922L41.941,13.805L38.902,20.684L42.008,20.684L42.008,21.738L37.52,21.738L37.52,20.871"/>
<path fill="#FFFFFF" d="M47.191,17.332C47.191,14.566,46.906,13.844,45.766,13.844C44.625,13.844,44.355,14.566,44.355,17.332C44.355,20.098,44.625,20.816,45.766,20.816C46.906,20.816,47.191,20.098,47.191,17.332Z M43.066,17.332C43.066,13.684,43.934,12.762,45.766,12.762C47.652,12.762,48.477,13.641,48.477,17.332C48.477,20.992,47.609,21.902,45.766,21.902C43.895,21.902,43.066,21.035,43.066,17.332"/>
<path fill="#FFFFFF" d="M50.102,12.922L51.543,12.922L54.324,19.949C54.227,19.23,54.148,18.391,54.148,17.602L54.148,12.922L55.34,12.922L55.34,21.738L53.902,21.738L51.094,14.688C51.203,15.406,51.297,16.262,51.297,17.059L51.297,21.738L50.102,21.738L50.102,12.922"/>
<path fill="#FFFFFF" d="M58.551,13.953L58.551,20.711L59.516,20.711C60.789,20.711,61.172,20.125,61.172,17.332C61.172,14.535,60.789,13.953,59.516,13.953Z M57.305,12.922L59.609,12.922C61.918,12.922,62.461,14.156,62.461,17.332C62.461,20.465,61.906,21.738,59.609,21.738L57.305,21.738L57.305,12.922"/>
<path fill="#FFFFFF" d="M68.02,17.738L65.336,17.738L65.336,21.738L64.086,21.738L64.086,12.922L65.336,12.922L65.336,16.68L68.02,16.68L68.02,12.922L69.27,12.922L69.27,21.738L68.02,21.738L68.02,17.738"/>
<path fill="#FFFFFF" d="M71.23,12.922L75.355,12.922L75.355,13.98L72.48,13.98L72.48,16.68L74.801,16.68L74.801,17.723L72.48,17.723L72.48,20.684L75.355,20.684L75.355,21.738L71.23,21.738L71.23,12.922"/>
<path fill="#FFFFFF" d="M76.996,21.738L78.246,21.738L78.246,12.922L76.996,12.922Z M76.996,21.738"/>
<path fill="#FFFFFF" d="M81.461,13.953L81.461,20.711L82.422,20.711C83.695,20.711,84.074,20.125,84.074,17.332C84.074,14.535,83.695,13.953,82.422,13.953Z M80.211,12.922L82.516,12.922C84.82,12.922,85.363,14.156,85.363,17.332C85.363,20.465,84.809,21.738,82.516,21.738L80.211,21.738L80.211,12.922"/>
<path fill="#FFFFFF" d="M91.445,12.922L92.691,12.922L93.41,17.266C93.535,17.969,93.684,19.352,93.766,20.41C93.848,19.352,93.996,17.98,94.117,17.266L94.852,12.922L96.125,12.922L96.859,17.266C96.98,17.969,97.117,19.34,97.195,20.383C97.277,19.34,97.441,17.969,97.562,17.266L98.281,12.922L99.488,12.922L97.809,21.738L96.52,21.738L95.801,17.398C95.691,16.746,95.543,15.516,95.461,14.496C95.379,15.516,95.242,16.746,95.137,17.398L94.402,21.738L93.129,21.738L91.445,12.922"/>
<path fill="#FFFFFF" d="M100.707,12.922L104.832,12.922L104.832,13.98L101.957,13.98L101.957,16.68L104.277,16.68L104.277,17.723L101.957,17.723L101.957,20.684L104.832,20.684L104.832,21.738L100.707,21.738L100.707,12.922"/>
<path fill="#FFFFFF" d="M105.562,12.922L110.621,12.922L110.621,13.98L108.711,13.98L108.711,21.738L107.461,21.738L107.461,13.98L105.562,13.98L105.562,12.922"/>
<path fill="#FFFFFF" d="M111.664,12.922L115.789,12.922L115.789,13.98L112.914,13.98L112.914,16.68L115.23,16.68L115.23,17.723L112.914,17.723L112.914,20.684L115.789,20.684L115.789,21.738L111.664,21.738L111.664,12.922"/>
<path fill="#FFFFFF" d="M117.43,12.922L118.867,12.922L121.648,19.949C121.555,19.23,121.473,18.391,121.473,17.602L121.473,12.922L122.664,12.922L122.664,21.738L121.227,21.738L118.422,14.688C118.527,15.406,118.621,16.262,118.621,17.059L118.621,21.738L117.43,21.738L117.43,12.922"/>
<path fill="#FFFFFF" d="M129.418,17.332C129.418,14.035,130.137,12.762,132.277,12.762C132.934,12.762,133.516,12.922,133.801,13.086L133.801,14.238C133.473,14.062,132.902,13.887,132.359,13.887C131.07,13.887,130.707,14.469,130.707,17.332C130.707,20.219,131.102,20.789,132.359,20.789C132.918,20.789,133.555,20.602,133.883,20.41L133.883,21.562C133.598,21.727,132.918,21.902,132.309,21.902C129.984,21.918,129.418,20.629,129.418,17.332"/>
<path fill="#FFFFFF" d="M139.098,17.738L136.41,17.738L136.41,21.738L135.16,21.738L135.16,12.922L136.41,12.922L136.41,16.68L139.098,16.68L139.098,12.922L140.344,12.922L140.344,21.738L139.098,21.738L139.098,17.738"/>
<path fill="#FFFFFF" d="M143.324,18.688L145.266,18.688L144.898,17.223C144.711,16.488,144.465,15.363,144.316,14.387C144.152,15.363,143.895,16.488,143.703,17.223Z M143.664,12.922L144.953,12.922L147.301,21.738L145.996,21.738L145.48,19.746L143.082,19.746L142.582,21.738L141.32,21.738L143.664,12.922"/>
<path fill="#FFFFFF" d="M149.523,13.98L149.523,17.492L150.258,17.492C151.23,17.492,151.762,17.141,151.762,15.73C151.762,14.32,151.23,13.98,150.258,13.98Z M148.273,12.922L150.391,12.922C152.062,12.922,153.051,13.629,153.051,15.73C153.051,17.781,152.02,18.539,150.391,18.539L149.523,18.539L149.523,21.738L148.273,21.738L148.273,12.922"/>
<path fill="#FFFFFF" d="M155.746,13.98L155.746,17.492L156.48,17.492C157.457,17.492,157.984,17.141,157.984,15.73C157.984,14.32,157.457,13.98,156.48,13.98Z M154.5,12.922L156.617,12.922C158.285,12.922,159.273,13.629,159.273,15.73C159.273,17.781,158.242,18.539,156.617,18.539L155.746,18.539L155.746,21.738L154.5,21.738L154.5,12.922"/>
<path fill="#FFFFFF" d="M160.727,12.922L164.848,12.922L164.848,13.98L161.973,13.98L161.973,16.68L164.293,16.68L164.293,17.723L161.973,17.723L161.973,20.684L164.848,20.684L164.848,21.738L160.727,21.738L160.727,12.922"/>
<path fill="#FFFFFF" d="M166.488,12.922L167.926,12.922L170.707,19.949C170.613,19.23,170.531,18.391,170.531,17.602L170.531,12.922L171.727,12.922L171.727,21.738L170.285,21.738L167.48,14.688C167.586,15.406,167.684,16.262,167.684,17.059L167.684,21.738L166.488,21.738L166.488,12.922"/>
<path fill="#FFFFFF" d="M25.773,0.48L29.762,0.48L29.762,1.539L27.02,1.539L27.02,4.238L29.219,4.238L29.219,5.281L27.02,5.281L27.02,9.297L25.773,9.297L25.773,0.48"/>
<path fill="#FFFFFF" d="M31.633,6.246L33.57,6.246L33.203,4.781C33.016,4.047,32.77,2.922,32.621,1.945C32.457,2.922,32.199,4.047,32.012,4.781Z M31.969,0.48L33.258,0.48L35.605,9.297L34.305,9.297L33.789,7.305L31.387,7.305L30.887,9.297L29.621,9.297L31.969,0.48"/>
<path fill="#FFFFFF" d="M36.242,4.891C36.242,1.594,36.961,0.32,39.102,0.32C39.754,0.32,40.34,0.48,40.621,0.645L40.621,1.797C40.297,1.621,39.727,1.445,39.184,1.445C37.898,1.445,37.531,2.027,37.531,4.891C37.531,7.777,37.922,8.348,39.184,8.348C39.742,8.348,40.379,8.156,40.703,7.969L40.703,9.121C40.418,9.285,39.742,9.461,39.133,9.461C36.812,9.473,36.242,8.184,36.242,4.891"/>
<path fill="#FFFFFF" d="M41.918,6.641L41.918,0.48L43.164,0.48L43.164,6.695C43.164,7.996,43.613,8.375,44.523,8.375C45.43,8.375,45.879,7.996,45.879,6.695L45.879,0.48L47.129,0.48L47.129,6.641C47.129,8.648,46.285,9.461,44.523,9.461C42.73,9.461,41.918,8.672,41.918,6.641"/>
<path fill="#FFFFFF" d="M49.023,0.48L50.273,0.48L50.273,8.238L53.012,8.238L53.012,9.297L49.023,9.297L49.023,0.48"/>
<path fill="#FFFFFF" d="M52.578,0.48L57.637,0.48L57.637,1.539L55.723,1.539L55.723,9.297L54.477,9.297L54.477,1.539L52.578,1.539L52.578,0.48"/>
<path fill="#FFFFFF" d="M58.68,0.48L62.805,0.48L62.805,1.539L59.93,1.539L59.93,4.238L62.246,4.238L62.246,5.281L59.93,5.281L59.93,8.238L62.805,8.238L62.805,9.297L58.68,9.297L58.68,0.48"/>
<path fill="#FFFFFF" d="M64.445,9.297L65.691,9.297L65.691,0.48L64.445,0.48Z M64.445,9.297"/>
<path fill="#FFFFFF" d="M66.734,0.48L71.793,0.48L71.793,1.539L69.883,1.539L69.883,9.297L68.637,9.297L68.637,1.539L66.734,1.539L66.734,0.48"/>
<path fill="#FFFFFF" d="M74.891,4.891C74.891,1.418,75.812,0.32,78.105,0.32C78.758,0.32,79.449,0.492,79.746,0.668L79.746,1.824C79.422,1.633,78.797,1.43,78.203,1.43C76.734,1.43,76.18,1.973,76.18,4.891C76.18,7.777,76.574,8.375,77.848,8.375C78.242,8.375,78.566,8.32,78.809,8.254L78.809,5.309L77.508,5.309L77.508,4.254L80.059,4.254L80.059,9.012C79.801,9.176,78.77,9.461,77.859,9.461C75.473,9.461,74.891,8.215,74.891,4.891"/>
<path fill="#FFFFFF" d="M81.902,0.48L86.027,0.48L86.027,1.539L83.148,1.539L83.148,4.238L85.473,4.238L85.473,5.281L83.148,5.281L83.148,8.238L86.027,8.238L86.027,9.297L81.902,9.297L81.902,0.48"/>
<path fill="#FFFFFF" d="M87.664,0.48L89.105,0.48L91.887,7.508C91.789,6.789,91.711,5.949,91.711,5.16L91.711,0.48L92.902,0.48L92.902,9.297L91.465,9.297L88.656,2.242C88.766,2.965,88.859,3.816,88.859,4.617L88.859,9.297L87.664,9.297L87.664,0.48"/>
<path fill="#FFFFFF" d="M94.867,0.48L98.992,0.48L98.992,1.539L96.113,1.539L96.113,4.238L98.438,4.238L98.438,5.281L96.113,5.281L96.113,8.238L98.992,8.238L98.992,9.297L94.867,9.297L94.867,0.48"/>
<path fill="#FFFFFF" d="M100.633,0.48L104.754,0.48L104.754,1.539L101.879,1.539L101.879,4.238L104.199,4.238L104.199,5.281L101.879,5.281L101.879,8.238L104.754,8.238L104.754,9.297L100.633,9.297L100.633,0.48"/>
<path fill="#FFFFFF" d="M111.316,0.48L112.566,0.48L112.566,4.48L115.129,0.48L116.527,0.48L113.746,4.781L116.73,9.297L115.227,9.297L112.566,5.16L112.566,9.297L111.316,9.297L111.316,0.48"/>
<path fill="#FFFFFF" d="M117.559,6.641L117.559,0.48L118.805,0.48L118.805,6.695C118.805,7.996,119.254,8.375,120.16,8.375C121.07,8.375,121.52,7.996,121.52,6.695L121.52,0.48L122.766,0.48L122.766,6.641C122.766,8.648,121.926,9.461,120.16,9.461C118.371,9.461,117.559,8.672,117.559,6.641"/>
<path fill="#FFFFFF" d="M124.66,0.48L126.102,0.48L128.883,7.508C128.785,6.789,128.703,5.949,128.703,5.16L128.703,0.48L129.898,0.48L129.898,9.297L128.461,9.297L125.652,2.242C125.762,2.965,125.855,3.816,125.855,4.617L125.855,9.297L124.66,9.297L124.66,0.48"/>
<path fill="#FFFFFF" d="M133.109,1.512L133.109,8.266L134.074,8.266C135.352,8.266,135.73,7.684,135.73,4.891C135.73,2.094,135.352,1.512,134.074,1.512Z M131.863,0.48L134.172,0.48C136.477,0.48,137.02,1.715,137.02,4.891C137.02,8.023,136.465,9.297,134.172,9.297L131.863,9.297L131.863,0.48"/>
<path fill="#FFFFFF" d="M138.645,0.48L142.77,0.48L142.77,1.539L139.895,1.539L139.895,4.238L142.215,4.238L142.215,5.281L139.895,5.281L139.895,8.238L142.77,8.238L142.77,9.297L138.645,9.297L138.645,0.48"/>
<path fill="#FFFFFF" d="M147.203,0.48L151.328,0.48L151.328,1.539L148.453,1.539L148.453,4.238L150.773,4.238L150.773,5.281L148.453,5.281L148.453,8.238L151.328,8.238L151.328,9.297L147.203,9.297L147.203,0.48"/>
<path fill="#FFFFFF" d="M152.969,0.48L154.406,0.48L157.188,7.508C157.094,6.789,157.012,5.949,157.012,5.16L157.012,0.48L158.203,0.48L158.203,9.297L156.77,9.297L153.961,2.242C154.066,2.965,154.164,3.816,154.164,4.617L154.164,9.297L152.969,9.297L152.969,0.48"/>
<path fill="#FFFFFF" d="M108.344,1.387C108.895,1.387,109.41,1.566,109.648,1.754L109.648,0.629C109.41,0.484,108.824,0.32,108.23,0.32C106.578,0.32,105.664,1.262,105.664,2.629C105.664,3.766,106.148,4.312,106.926,4.984L107.637,5.598C108.223,6.086,108.586,6.465,108.586,7.199C108.586,8.055,108.02,8.395,107.168,8.395C106.523,8.395,105.988,8.215,105.68,8.004L105.68,9.148C105.949,9.305,106.516,9.465,107.277,9.461C108.93,9.457,109.84,8.52,109.844,7.156C109.844,6.02,109.359,5.469,108.586,4.801L107.875,4.188C107.285,3.684,106.922,3.32,106.926,2.59C106.93,1.727,107.488,1.391,108.344,1.387"/>
<path fill="#FFFFFF" d="M89.211,13.832C89.762,13.828,90.277,14.012,90.52,14.199L90.52,13.074C90.277,12.926,89.691,12.766,89.102,12.766C87.445,12.766,86.531,13.707,86.531,15.07C86.531,16.211,87.016,16.758,87.793,17.426L88.504,18.039C89.09,18.531,89.449,18.906,89.449,19.641C89.449,20.496,88.887,20.84,88.035,20.84C87.391,20.84,86.855,20.656,86.547,20.445L86.547,21.59C86.816,21.746,87.383,21.906,88.145,21.906C89.797,21.902,90.707,20.965,90.711,19.598C90.711,18.461,90.227,17.91,89.449,17.242L88.742,16.629C88.152,16.129,87.789,15.766,87.793,15.031C87.797,14.168,88.355,13.832,89.211,13.832"/>
<path fill="#FFFFFF" d="M126.781,13.832C127.332,13.828,127.852,14.012,128.09,14.199L128.09,13.074C127.852,12.926,127.266,12.766,126.672,12.766C125.016,12.766,124.105,13.707,124.105,15.07C124.105,16.211,124.59,16.758,125.363,17.426L126.074,18.039C126.66,18.531,127.023,18.906,127.023,19.641C127.023,20.496,126.457,20.84,125.605,20.84C124.961,20.84,124.426,20.656,124.117,20.445L124.117,21.59C124.391,21.746,124.953,21.906,125.719,21.906C127.367,21.902,128.277,20.965,128.281,19.598C128.281,18.461,127.801,17.91,127.023,17.242L126.312,16.629C125.727,16.129,125.359,15.766,125.363,15.031C125.367,14.168,125.93,13.832,126.781,13.832"/>
<path fill="#FFFFFF" d="M17.695,11.746L17.938,12.996L21.52,12.996L21.52,11.746L17.695,11.746"/>
<path fill="#FFFFFF" d="M3.34,15.488L0.262,15.488L0.262,16.738L3.582,16.738L3.34,15.488"/>
<path fill="#FFFFFF" d="M9.941,0.48L6.457,18.461L5.395,12.996L0.262,12.996L0.262,14.242L4.367,14.242L5.82,21.738L7.09,21.738L11.211,0.48L9.941,0.48"/>
<path fill="#FFFFFF" d="M16.91,14.242L14.242,0.48L12.48,0.48L8.359,21.738L9.629,21.738L13.359,2.488L15.883,15.488L21.52,15.488L21.52,14.242L16.91,14.242"/>
</g>
</svg>
