<?xml version="1.0" standalone="no"?>
<!DOCTYPE svg PUBLIC "-//W3C//DTD SVG 1.1//EN" "http://www.w3.org/Graphics/SVG/1.1/DTD/svg11.dtd" >
<svg xmlns="http://www.w3.org/2000/svg" xmlns:xlink="http://www.w3.org/1999/xlink" version="1.1">
<metadata>
Created by FontForge 20150318 at Wed Oct 28 10:48:48 2015
 By uniteet7
Copyright (c) 2010 Bold Monday. All rights reserved. PannoText is a trademark of Bold Monday. Unauthorized copying or modification of any of its data is illegal.
</metadata>
<defs>
<font id="PannoTextNormal" horiz-adv-x="353" >
  <font-face 
    font-family="PannoTextNormal"
    font-weight="400"
    font-stretch="normal"
    units-per-em="1000"
    panose-1="2 0 5 6 4 0 0 4 0 3"
    ascent="750"
    descent="-250"
    x-height="500"
    cap-height="650"
    bbox="-134 -250 867 857"
    underline-thickness="60"
    underline-position="-60"
    unicode-range="U+0020-FB02"
  />
<missing-glyph horiz-adv-x="550" 
d="M75 -250v1000h400v-1000h-400zM105 682v-864l153 434zM274 208l-151 -428h303zM123 720l153 -428l150 428h-303zM292 247l153 -429v864z" />
    <glyph glyph-name="fi" unicode="fi" horiz-adv-x="494" 
d="M19 407v62h77v62q0 70 32.5 94.5t89.5 24.5h47v-62h-29q-38 0 -52.5 -12.5t-14.5 -51.5v-55h96v-62h-96v-407h-73v407h-77zM388 558q-48 0 -48 45t48 45t48 -45t-48 -45zM351 0v500h73v-500h-73z" />
    <glyph glyph-name="fl" unicode="fl" horiz-adv-x="516" 
d="M19 407v62h77v62q0 70 32.5 94.5t89.5 24.5h47v-62h-29q-38 0 -52.5 -12.5t-14.5 -51.5v-55h96v-62h-96v-407h-73v407h-77zM460 -4q-53 0 -82.5 22.5t-29.5 82.5v549h73v-536q0 -31 11 -43.5t45 -12.5h21v-62h-38z" />
    <glyph glyph-name=".notdef" horiz-adv-x="550" 
d="M75 -250v1000h400v-1000h-400zM105 682v-864l153 434zM274 208l-151 -428h303zM123 720l153 -428l150 428h-303zM292 247l153 -429v864z" />
    <glyph glyph-name=".null" horiz-adv-x="0" 
 />
    <glyph glyph-name="nonmarkingreturn" horiz-adv-x="333" 
 />
    <glyph glyph-name="space" unicode=" " horiz-adv-x="200" 
 />
    <glyph glyph-name="exclam" unicode="!" horiz-adv-x="253" 
d="M127 -10q-22 0 -34.5 12.5t-12.5 33.5q0 22 12.5 34.5t34.5 12.5t34 -12.5t12 -34.5q0 -21 -12 -33.5t-34 -12.5zM99 181l-17 469h89l-17 -469h-55z" />
    <glyph glyph-name="quotedbl" unicode="&#x22;" horiz-adv-x="303" 
d="M54 435q-21 141 -21 177q0 48 45 48q44 0 44 -48q0 -36 -21 -177h-47zM202 435q-21 141 -21 177q0 48 45 48q44 0 44 -48q0 -36 -21 -177h-47z" />
    <glyph glyph-name="numbersign" unicode="#" horiz-adv-x="503" 
d="M327 0v190h-150v-190h-69v190h-71v60h71v158h-71v59h71v183h69v-183h150v183h69v-183h71v-59h-71v-158h71v-60h-71v-190h-69zM177 408v-158h150v158h-150z" />
    <glyph glyph-name="dollar" unicode="$" horiz-adv-x="377" 
d="M144 -100v88q-71 3 -104 23v71q44 -26 107 -26q112 0 112 96q0 40 -17.5 66t-56.5 60l-52 44q-48 42 -71 79t-23 95q0 63 33.5 105t95.5 55v94h65v-88q60 -3 90 -21v-71q-39 24 -92 24q-112 0 -112 -96q0 -40 17.5 -66.5t56.5 -59.5l52 -44q48 -41 71 -78.5t23 -95.5
q0 -64 -33.5 -105.5t-95.5 -54.5v-94h-66z" />
    <glyph glyph-name="percent" unicode="%" horiz-adv-x="547" 
d="M152 372q-59 0 -86.5 35t-27.5 110q0 145 114 145q59 0 86.5 -35t27.5 -110q0 -145 -114 -145zM152 426q31 0 42.5 21.5t11.5 69.5q0 49 -11.5 70t-42.5 21q-30 0 -41.5 -21t-11.5 -70t11.5 -70t41.5 -21zM395 -12q-59 0 -86.5 35t-27.5 110q0 145 114 145q59 0 86.5 -35
t27.5 -110q0 -145 -114 -145zM395 42q31 0 42.5 21t11.5 70q0 48 -11.5 69.5t-42.5 21.5q-30 0 -41.5 -21t-11.5 -70t11.5 -70t41.5 -21zM47 0l388 650h65l-388 -650h-65z" />
    <glyph glyph-name="ampersand" unicode="&#x26;" horiz-adv-x="472" 
d="M251 0q-103 0 -156.5 38.5t-53.5 137.5q0 121 96 159q-76 39 -76 146q0 82 48 131.5t144 49.5q68 0 116 -25v-70q-47 28 -108 28q-66 0 -94.5 -30t-28.5 -89q0 -72 36 -93t112 -21h176v-63h-69v-299h-142zM118 181q0 -72 34 -95t105 -23h60v236h-57q-71 0 -106.5 -23
t-35.5 -95z" />
    <glyph glyph-name="quotesingle" unicode="'" horiz-adv-x="155" 
d="M54 435q-21 141 -21 177q0 48 45 48q44 0 44 -48q0 -36 -21 -177h-47z" />
    <glyph glyph-name="parenleft" unicode="(" horiz-adv-x="287" 
d="M264 -150q-47 0 -73 3t-52 17t-38 38.5t-22.5 71t-13.5 110t-3 160.5q0 72 2 125t7.5 96t12 71t19.5 49t26 32t36 17.5t44 8t55 1.5v-58q-32 0 -49 -2.5t-34.5 -14.5t-24.5 -31.5t-13 -61t-7.5 -94t-1.5 -138.5t1.5 -138.5t7.5 -94t13 -61t24.5 -31.5t34.5 -14.5t49 -2.5
v-58z" />
    <glyph glyph-name="parenright" unicode=")" horiz-adv-x="287" 
d="M24 -150v58q32 0 49 2.5t34 14.5t24 31.5t13 61t7.5 94t1.5 138.5t-1.5 138.5t-7.5 94t-13 61t-24 31.5t-34 14.5t-49 2.5v58q35 0 56 -1.5t44 -8t36 -17.5t26 -32t19 -49t11.5 -71t7 -95.5t1.5 -125.5q0 -96 -3 -160t-13.5 -110.5t-23 -71t-38.5 -38t-51.5 -17
t-71.5 -3.5z" />
    <glyph glyph-name="asterisk" unicode="*" horiz-adv-x="360" 
d="M114 357l-47 33l69 94l-111 33l19 55l110 -38l-3 116h58l-3 -116l110 38l19 -55l-111 -33l70 -94l-48 -33l-66 96z" />
    <glyph glyph-name="plus" unicode="+" horiz-adv-x="444" 
d="M45 294v64h143v145h68v-145h143v-64h-143v-145h-68v145h-143z" />
    <glyph glyph-name="comma" unicode="," horiz-adv-x="149" 
d="M28 -142q15 50 15 86q0 23 -7.5 52.5t-7.5 39.5q0 22 12.5 34.5t34.5 12.5q46 0 46 -52q0 -72 -38 -173h-55z" />
    <glyph glyph-name="hyphen" unicode="-" horiz-adv-x="314" 
d="M45 290v72h224v-72h-224z" />
    <glyph glyph-name="period" unicode="." horiz-adv-x="149" 
d="M75 -10q-22 0 -34.5 12.5t-12.5 33.5q0 22 12.5 34.5t34.5 12.5t34 -12.5t12 -34.5q0 -21 -12 -33.5t-34 -12.5z" />
    <glyph glyph-name="slash" unicode="/" horiz-adv-x="237" 
d="M-38 -150l207 800h68l-207 -800h-68z" />
    <glyph glyph-name="zero" unicode="0" horiz-adv-x="493" 
d="M246 -12q-71 0 -111.5 28t-61 102t-20.5 207q0 193 44 265t149 72q72 0 112.5 -28.5t61 -102t20.5 -206.5q0 -132 -21 -205.5t-61.5 -102.5t-111.5 -29zM246 55q68 0 91.5 55t23.5 215t-23.5 215t-91.5 55q-67 0 -90.5 -55t-23.5 -215t23.5 -215t90.5 -55z" />
    <glyph glyph-name="one" unicode="1" horiz-adv-x="286" 
d="M131 0v568l-106 -35v69l134 48h48v-650h-76z" />
    <glyph glyph-name="two" unicode="2" horiz-adv-x="423" 
d="M40 0v55q0 67 16.5 115t41.5 74t64 50q38 23 54 34t37.5 32.5t29 47t7.5 62.5q0 62 -28 92.5t-91 30.5q-59 0 -110 -28v72q46 25 118 25q100 0 145 -52t45 -137q0 -48 -11 -84t-37 -63.5t-47 -42.5t-62 -40q-53 -32 -74 -68t-22 -110h257v-65h-333z" />
    <glyph glyph-name="three" unicode="3" horiz-adv-x="435" 
d="M170 -12q-79 0 -123 25v72q50 -28 114 -28q71 0 107.5 28t36.5 92q0 144 -194 151v46l163 211h-224v65h323v-54l-168 -214q81 -14 129.5 -66t48.5 -143q0 -89 -55.5 -137t-157.5 -48z" />
    <glyph glyph-name="four" unicode="4" horiz-adv-x="453" 
d="M25 139v56l243 455h83l-239 -446h177v167h77v-167h75v-65h-75v-139h-77v139h-264z" />
    <glyph glyph-name="five" unicode="5" horiz-adv-x="427" 
d="M166 -12q-79 0 -123 25v72q48 -28 113 -28q72 0 108 28t36 92q0 45 -17.5 75.5t-51.5 48t-72.5 26t-93.5 12.5l12 311h282v-65h-209l-8 -186q115 -15 176 -69t61 -157q0 -89 -55.5 -137t-157.5 -48z" />
    <glyph glyph-name="six" unicode="6" horiz-adv-x="470" 
d="M243 -12q-58 0 -96 21t-58.5 66t-28 101.5t-7.5 141.5q0 344 230 344q66 0 108 -23v-71q-45 26 -102 26q-151 0 -157 -226q52 39 124 39q174 0 174 -205q0 -40 -8 -74.5t-27.5 -67.5t-58 -52.5t-93.5 -19.5zM242 340q-60 0 -110 -38q1 -134 24 -191t87 -57q109 0 109 143
q0 68 -24.5 105.5t-85.5 37.5z" />
    <glyph glyph-name="seven" unicode="7" horiz-adv-x="402" 
d="M85 0l202 585h-257v65h337v-55l-202 -595h-80z" />
    <glyph glyph-name="eight" unicode="8" horiz-adv-x="485" 
d="M242 -12q-194 0 -194 152q0 63 32.5 106.5t98.5 83.5q-116 72 -116 181q0 73 48.5 112t130.5 39q84 0 132 -38.5t48 -112.5q0 -109 -117 -181q65 -39 98.5 -83t33.5 -107q0 -76 -51 -114t-144 -38zM242 54q117 0 117 94q0 46 -29.5 78t-88.5 66q-58 -33 -86.5 -65.5
t-28.5 -78.5q0 -94 116 -94zM140 507q0 -44 26 -76t78 -64q51 31 76 63t25 77q0 89 -103 89q-102 0 -102 -89z" />
    <glyph glyph-name="nine" unicode="9" horiz-adv-x="470" 
d="M187 -12q-66 0 -108 23v71q45 -26 102 -26q80 0 117.5 55t39.5 177q-50 -36 -124 -36q-90 0 -132 54.5t-42 148.5q0 39 8.5 73t28.5 65.5t58.5 50t91.5 18.5q58 0 96 -21t58.5 -66t28 -101.5t7.5 -141.5q0 -178 -55 -261t-175 -83zM228 319q58 0 110 33q-2 132 -25 188
t-86 56q-109 0 -109 -140q0 -68 25 -102.5t85 -34.5z" />
    <glyph glyph-name="colon" unicode=":" horiz-adv-x="174" 
d="M85 -10q-22 0 -34.5 12.5t-12.5 33.5q0 22 12.5 34.5t34.5 12.5t34 -12.5t12 -34.5q0 -21 -12 -33.5t-34 -12.5zM85 417q-22 0 -34.5 12.5t-12.5 33.5q0 22 12.5 34.5t34.5 12.5t34 -12.5t12 -34.5q0 -21 -12 -33.5t-34 -12.5z" />
    <glyph glyph-name="semicolon" unicode=";" horiz-adv-x="174" 
d="M38 -142q15 50 15 86q0 23 -7.5 52.5t-7.5 39.5q0 22 12.5 34.5t34.5 12.5q46 0 46 -52q0 -72 -38 -173h-55zM85 417q-22 0 -34.5 12.5t-12.5 33.5q0 22 12.5 34.5t34.5 12.5t34 -12.5t12 -34.5q0 -21 -12 -33.5t-34 -12.5z" />
    <glyph glyph-name="less" unicode="&#x3c;" horiz-adv-x="454" 
d="M380 135l-335 169v46l335 169l29 -57l-272 -135l272 -135z" />
    <glyph glyph-name="equal" unicode="=" horiz-adv-x="444" 
d="M45 218v64h354v-64h-354zM45 373v64h354v-64h-354z" />
    <glyph glyph-name="greater" unicode="&#x3e;" horiz-adv-x="454" 
d="M74 135l-29 57l272 135l-272 135l29 57l335 -169v-46z" />
    <glyph glyph-name="question" unicode="?" horiz-adv-x="349" 
d="M118 181l-9 139l48 43q79 71 79 139q0 46 -28 69.5t-79 23.5q-57 0 -100 -26v68q34 25 111 25q82 0 128 -40.5t46 -113.5q0 -97 -106 -190l-29 -27l-7 -110h-54zM145 -10q-22 0 -34.5 12.5t-12.5 33.5q0 22 12.5 34.5t34.5 12.5t34.5 -12.5t12.5 -34.5q0 -21 -12.5 -33.5
t-34.5 -12.5z" />
    <glyph glyph-name="at" unicode="@" horiz-adv-x="707" 
d="M308 37q-88 0 -88 129q0 28 5 80q15 119 47 165t79 46q51 0 84 -44l10 34h47l-38 -303q-8 -66 41 -66q17 0 33 11.5t32 37.5t25.5 77t9.5 121q0 124 -61 193t-163 69q-113 0 -185 -97t-72 -294q0 -295 213 -295q93 0 167 51v-60q-27 -18 -73.5 -31.5t-97.5 -13.5
q-128 0 -199 87t-71 265q0 220 90 332t230 112q128 0 204.5 -83.5t76.5 -231.5q0 -155 -45.5 -227.5t-115.5 -72.5t-86 56q-43 -47 -99 -47zM327 95q31 0 60 29l31 248q-26 26 -51 26q-29 0 -46.5 -37t-27.5 -116q-6 -44 -6 -80q0 -35 8.5 -52.5t31.5 -17.5z" />
    <glyph glyph-name="A" unicode="A" horiz-adv-x="439" 
d="M5 0l175 650h78l176 -650h-80l-40 153h-192l-39 -153h-78zM170 339l-32 -120h160l-31 120q-33 129 -48 223q-16 -102 -49 -223z" />
    <glyph glyph-name="B" unicode="B" horiz-adv-x="470" 
d="M79 0v650h117q104 0 157.5 -37t53.5 -139q0 -107 -79 -144q99 -32 99 -154q0 -101 -53.5 -138.5t-156.5 -37.5h-138zM211 294h-56v-230h56q72 0 104.5 20.5t32.5 93.5t-33 94.5t-104 21.5zM190 586h-35v-230h35q72 0 105 21.5t33 94.5t-32.5 93.5t-105.5 20.5z" />
    <glyph glyph-name="C" unicode="C" horiz-adv-x="406" 
d="M259 -12q-120 0 -163 72.5t-43 264.5q0 187 46 262t159 75q70 0 108 -23v-72q-43 26 -102 26q-77 0 -104.5 -53.5t-27.5 -214.5q0 -113 12.5 -170t39 -78t79.5 -21q57 0 109 27v-71q-15 -9 -49 -16.5t-64 -7.5z" />
    <glyph glyph-name="D" unicode="D" horiz-adv-x="496" 
d="M79 0v650h157q119 0 163 -70.5t44 -254.5q0 -183 -44 -254t-163 -71h-157zM230 586h-75v-522h75q78 0 106 51.5t28 209.5t-28 209.5t-106 51.5z" />
    <glyph glyph-name="E" unicode="E" horiz-adv-x="421" 
d="M79 0v650h290v-65h-214v-218h173v-65h-173v-237h214v-65h-290z" />
    <glyph glyph-name="F" unicode="F" horiz-adv-x="387" 
d="M79 0v650h279v-65h-203v-218h163v-65h-163v-302h-76z" />
    <glyph glyph-name="G" unicode="G" horiz-adv-x="490" 
d="M266 -12q-125 0 -169 71.5t-44 265.5q0 192 52.5 264.5t175.5 72.5q80 0 118 -27v-70q-48 29 -113 29q-58 0 -89 -20t-48 -79t-17 -170q0 -113 12.5 -170t39.5 -78.5t81 -21.5q42 0 79 11v234h-111v65h188v-345q-19 -11 -65.5 -21.5t-89.5 -10.5z" />
    <glyph glyph-name="H" unicode="H" horiz-adv-x="524" 
d="M369 0v301h-214v-301h-76v650h76v-283h214v283h76v-650h-76z" />
    <glyph glyph-name="I" unicode="I" horiz-adv-x="234" 
d="M79 0v650h76v-650h-76z" />
    <glyph glyph-name="J" unicode="J" horiz-adv-x="340" 
d="M100 -12q-59 0 -95 20v69q41 -22 90 -22q47 0 71 25t24 97v473h76v-481q0 -96 -40 -138.5t-126 -42.5z" />
    <glyph glyph-name="K" unicode="K" horiz-adv-x="461" 
d="M79 0v650h76v-300l204 300h88l-219 -318l233 -332h-94l-212 309v-309h-76z" />
    <glyph glyph-name="L" unicode="L" horiz-adv-x="375" 
d="M79 0v650h76v-585h203v-65h-279z" />
    <glyph glyph-name="M" unicode="M" horiz-adv-x="605" 
d="M79 0v650h96l129 -356l129 356h93v-650h-73v359q0 80 9 197l-128 -357h-63l-129 357q10 -104 10 -197v-359h-73z" />
    <glyph glyph-name="N" unicode="N" horiz-adv-x="527" 
d="M79 0v650h88l220 -542q-11 90 -11 167v375h72v-650h-88l-220 541q11 -108 11 -166v-375h-72z" />
    <glyph glyph-name="O" unicode="O" horiz-adv-x="493" 
d="M246 -12q-71 0 -111.5 28t-61 102t-20.5 207q0 193 44 265t149 72q72 0 112.5 -28.5t61 -102t20.5 -206.5q0 -132 -21 -205.5t-61.5 -102.5t-111.5 -29zM246 55q68 0 91.5 55t23.5 215t-23.5 215t-91.5 55q-67 0 -90.5 -55t-23.5 -215t23.5 -215t90.5 -55z" />
    <glyph glyph-name="P" unicode="P" horiz-adv-x="456" 
d="M79 0v650h140q99 0 148 -45.5t49 -157.5q0 -109 -50.5 -156t-146.5 -47h-64v-244h-76zM210 585h-55v-276h55q66 0 96.5 28.5t30.5 109.5t-30.5 109.5t-96.5 28.5z" />
    <glyph glyph-name="Q" unicode="Q" horiz-adv-x="493" 
d="M246 -12q-71 0 -111.5 28t-61 102t-20.5 207q0 193 44 265t149 72q72 0 112.5 -28.5t61 -102t20.5 -206.5q0 -203 -56 -279l53 -61l-45 -38l-53 61q-43 -20 -93 -20zM246 55q30 0 46 6l-52 60l45 39l50 -58q26 52 26 223q0 160 -23.5 215t-91.5 55q-67 0 -90.5 -55
t-23.5 -215t23.5 -215t90.5 -55z" />
    <glyph glyph-name="R" unicode="R" horiz-adv-x="476" 
d="M79 0v650h136q99 0 152 -43t53 -146q0 -139 -118 -175l140 -286h-86l-127 273h-74v-273h-76zM208 585h-53v-247h53q68 0 100.5 24.5t32.5 98.5t-33 99t-100 25z" />
    <glyph glyph-name="S" unicode="S" horiz-adv-x="377" 
d="M154 -12q-74 0 -114 23v71q44 -26 107 -26q112 0 112 96q0 40 -17.5 66t-56.5 60l-52 44q-48 42 -71 79t-23 95q0 77 49 121.5t136 44.5q65 0 99 -21v-71q-39 24 -92 24q-112 0 -112 -96q0 -40 17.5 -66.5t56.5 -59.5l52 -44q48 -41 71 -78.5t23 -95.5q0 -77 -49 -121.5
t-136 -44.5z" />
    <glyph glyph-name="T" unicode="T" horiz-adv-x="374" 
d="M7 585v65h360v-65h-142v-585h-76v585h-142z" />
    <glyph glyph-name="U" unicode="U" horiz-adv-x="516" 
d="M258 -12q-95 0 -139.5 47.5t-44.5 157.5v457h76v-456q0 -77 25.5 -108t82.5 -31t82.5 31t25.5 108v456h76v-457q0 -109 -44.5 -157t-139.5 -48z" />
    <glyph glyph-name="V" unicode="V" horiz-adv-x="428" 
d="M174 0l-168 650h80l87 -349q28 -113 41 -213q14 96 43 213l87 349h78l-168 -650h-80z" />
    <glyph glyph-name="W" unicode="W" horiz-adv-x="626" 
d="M148 0l-124 650h76l56 -315q17 -97 31 -252q12 131 33 252l55 315h78l56 -315q17 -97 31 -252q13 143 32 252l56 315h74l-124 -650h-79l-55 315q-20 120 -31 236q-11 -116 -31 -236l-55 -315h-79z" />
    <glyph glyph-name="X" unicode="X" horiz-adv-x="453" 
d="M16 0l167 336l-155 314h85l74 -157q23 -49 40 -98q18 56 39 98l76 157h83l-156 -314l168 -336h-85l-88 179q-22 46 -41 99q-20 -61 -38 -99l-86 -179h-83z" />
    <glyph glyph-name="Y" unicode="Y" horiz-adv-x="427" 
d="M175 0v273l-179 377h84l81 -180q39 -90 53 -135q18 59 53 135l82 180h82l-179 -377v-273h-77z" />
    <glyph glyph-name="Z" unicode="Z" horiz-adv-x="397" 
d="M40 0v54l227 531h-222v65h306v-55l-227 -530h233v-65h-317z" />
    <glyph glyph-name="bracketleft" unicode="[" horiz-adv-x="284" 
d="M89 -150v800h169v-57h-100v-686h100v-57h-169z" />
    <glyph glyph-name="backslash" unicode="\" horiz-adv-x="237" 
d="M207 -150l-207 800h68l207 -800h-68z" />
    <glyph glyph-name="bracketright" unicode="]" horiz-adv-x="284" 
d="M27 -150v57h100v686h-100v57h168v-800h-168z" />
    <glyph glyph-name="asciicircum" unicode="^" horiz-adv-x="367" 
d="M84 405l-54 34l133 211h41l133 -211l-55 -34l-99 165z" />
    <glyph glyph-name="underscore" unicode="_" horiz-adv-x="364" 
d="M5 -136v64h354v-64h-354z" />
    <glyph glyph-name="grave" unicode="`" horiz-adv-x="260" 
d="M140 558l-84 91h91l58 -91h-65z" />
    <glyph glyph-name="a" unicode="a" horiz-adv-x="418" 
d="M301 0l-8 30q-48 -42 -113 -42q-73 0 -103.5 41t-30.5 120q0 78 31 119.5t103 41.5q56 0 101 -34v50q0 64 -22.5 92.5t-81.5 28.5q-60 0 -108 -32v68q43 29 119 29q166 0 166 -171v-341h-53zM195 49q47 0 86 29v141q-41 30 -86 30q-42 0 -58.5 -23.5t-16.5 -76.5
t16.5 -76.5t58.5 -23.5z" />
    <glyph glyph-name="b" unicode="b" horiz-adv-x="438" 
d="M69 0v650h73v-169q39 31 91 31q83 0 118 -56t35 -206q0 -147 -35.5 -204.5t-115.5 -57.5q-64 0 -107 37l-6 -25h-53zM219 447q-39 0 -77 -25v-345q36 -24 77 -24q54 0 73 40.5t19 156.5t-19 156.5t-73 40.5z" />
    <glyph glyph-name="c" unicode="c" horiz-adv-x="348" 
d="M218 -12q-91 0 -128.5 60.5t-37.5 201.5q0 149 43 205.5t126 56.5q54 0 90 -20v-68q-32 22 -82 22q-56 0 -79 -40.5t-23 -155.5q0 -114 21.5 -155t74.5 -41q54 0 92 24v-68q-37 -22 -97 -22z" />
    <glyph glyph-name="d" unicode="d" horiz-adv-x="438" 
d="M316 0l-7 27q-45 -39 -104 -39q-83 0 -118 56t-35 206q0 147 35.5 204.5t115.5 57.5q50 0 93 -29v167h72v-650h-52zM219 53q41 0 77 24v345q-38 25 -77 25q-54 0 -73 -40.5t-19 -156.5t19 -156.5t73 -40.5z" />
    <glyph glyph-name="e" unicode="e" horiz-adv-x="414" 
d="M230 -12q-61 0 -98.5 21t-58.5 79t-21 159q0 152 37 208.5t121 56.5q86 0 122.5 -55.5t36.5 -206.5v-21h-242q1 -106 25 -141t85 -35q30 0 61.5 9.5t47.5 20.5v-68q-40 -27 -116 -27zM210 448q-46 0 -63.5 -34t-19.5 -124h167q-2 90 -20 124t-64 34z" />
    <glyph glyph-name="f" unicode="f" horiz-adv-x="284" 
d="M19 407v62h77v62q0 70 32.5 94.5t89.5 24.5h47v-62h-29q-38 0 -52.5 -12.5t-14.5 -51.5v-55h96v-62h-96v-407h-73v407h-77z" />
    <glyph glyph-name="g" unicode="g" horiz-adv-x="438" 
d="M201 -162q-79 0 -117 25v70q16 -11 47.5 -20.5t61.5 -9.5q52 0 77.5 21.5t25.5 75.5v45q-42 -30 -91 -30q-83 0 -118 54t-35 194q0 138 35.5 193.5t115.5 55.5q63 0 106 -37l7 25h52v-515q0 -147 -167 -147zM219 80q41 0 77 24v318q-38 25 -77 25q-53 0 -72.5 -38.5
t-19.5 -145.5q0 -106 19.5 -144.5t72.5 -38.5z" />
    <glyph glyph-name="h" unicode="h" horiz-adv-x="441" 
d="M69 0v650h73v-172q44 34 97 34q138 0 138 -167v-345h-73v335q0 54 -18.5 84t-65.5 30q-40 0 -78 -27v-422h-73z" />
    <glyph glyph-name="i" unicode="i" horiz-adv-x="212" 
d="M106 558q-48 0 -48 45t48 45t48 -45t-48 -45zM69 0v500h73v-500h-73z" />
    <glyph glyph-name="j" unicode="j" horiz-adv-x="212" 
d="M106 558q-48 0 -48 45t48 45t48 -45t-48 -45zM-8 -150v62h22q33 0 44 12.5t11 43.5v532h73v-545q0 -60 -29 -82.5t-82 -22.5h-39z" />
    <glyph glyph-name="k" unicode="k" horiz-adv-x="395" 
d="M69 0v650h73v-368l145 218h83l-162 -236l180 -264h-88l-158 240v-240h-73z" />
    <glyph glyph-name="l" unicode="l" horiz-adv-x="232" 
d="M176 -4q-53 0 -82.5 22.5t-29.5 82.5v549h73v-536q0 -31 11 -43.5t45 -12.5h21v-62h-38z" />
    <glyph glyph-name="m" unicode="m" horiz-adv-x="676" 
d="M69 0v500h54l6 -28q48 40 108 40q73 0 109 -48q50 48 122 48q143 0 143 -167v-345h-72v335q0 54 -18.5 84t-65.5 30q-44 0 -87 -34q9 -32 9 -70v-345h-73v335q0 54 -18.5 84t-65.5 30q-40 0 -78 -27v-422h-73z" />
    <glyph glyph-name="n" unicode="n" horiz-adv-x="441" 
d="M69 0v500h54l6 -28q48 40 108 40q140 0 140 -167v-345h-73v335q0 54 -18.5 84t-65.5 30q-40 0 -78 -27v-422h-73z" />
    <glyph glyph-name="o" unicode="o" horiz-adv-x="432" 
d="M216 -12q-90 0 -127 55.5t-37 206.5q0 149 38.5 205.5t125.5 56.5q90 0 127 -55.5t37 -206.5q0 -149 -38.5 -205.5t-125.5 -56.5zM216 53q53 0 71.5 41t18.5 156t-18.5 156t-71.5 41q-52 0 -70.5 -40.5t-18.5 -156.5t18.5 -156.5t70.5 -40.5z" />
    <glyph glyph-name="p" unicode="p" horiz-adv-x="438" 
d="M69 -150v650h53l6 -28q45 40 105 40q83 0 118 -56t35 -206q0 -147 -35.5 -204.5t-115.5 -57.5q-50 0 -93 29v-167h-73zM219 447q-39 0 -77 -25v-345q36 -24 77 -24q54 0 73 40.5t19 156.5t-19 156.5t-73 40.5z" />
    <glyph glyph-name="q" unicode="q" horiz-adv-x="438" 
d="M296 -150v168q-42 -30 -91 -30q-83 0 -118 56t-35 206q0 147 35.5 204.5t115.5 57.5q63 0 106 -37l7 25h52v-650h-72zM219 53q41 0 77 24v345q-38 25 -77 25q-54 0 -73 -40.5t-19 -156.5t19 -156.5t73 -40.5z" />
    <glyph glyph-name="r" unicode="r" horiz-adv-x="297" 
d="M69 0v500h54l9 -42q62 49 142 49v-73q-79 0 -132 -25v-409h-73z" />
    <glyph glyph-name="s" unicode="s" horiz-adv-x="356" 
d="M155 -12q-73 0 -111 27v68q50 -30 107 -30q89 0 89 71q0 49 -53 81l-61 36q-81 48 -81 131q0 67 41.5 103.5t112.5 36.5q55 0 95 -20v-68q-36 23 -86 23q-89 0 -89 -71q0 -46 53 -79l62 -38q80 -49 80 -131q0 -67 -40.5 -103.5t-118.5 -36.5z" />
    <glyph glyph-name="t" unicode="t" horiz-adv-x="293" 
d="M18 438v62h71v150h73v-150h101v-62h-101v-316q0 -39 14.5 -51.5t52.5 -12.5h24v-62h-42q-57 0 -89.5 24.5t-32.5 94.5v323h-71z" />
    <glyph glyph-name="u" unicode="u" horiz-adv-x="436" 
d="M314 0l-7 26q-44 -38 -104 -38q-139 0 -139 167v345h73v-335q0 -56 17.5 -85t64.5 -29q37 0 75 25v424h73v-500h-53z" />
    <glyph glyph-name="v" unicode="v" horiz-adv-x="385" 
d="M156 0l-138 500h75l73 -284q17 -64 27 -135q9 63 28 135l73 284h73l-138 -500h-73z" />
    <glyph glyph-name="w" unicode="w" horiz-adv-x="609" 
d="M142 0l-114 500h73l58 -277q13 -67 22 -150q12 98 24 150l61 277h79l61 -277q14 -65 23 -150q9 85 23 150l58 277h71l-114 -500h-78l-61 277q-13 57 -24 146q-8 -82 -23 -146l-62 -277h-77z" />
    <glyph glyph-name="x" unicode="x" horiz-adv-x="392" 
d="M23 0l134 259l-126 241h80l63 -129q15 -32 23 -60q12 36 24 60l62 129h79l-127 -241l134 -259h-81l-68 141q-20 43 -26 65q-7 -27 -25 -65l-68 -141h-78z" />
    <glyph glyph-name="y" unicode="y" horiz-adv-x="385" 
d="M112 -150l43 152l-137 498h75l73 -284q19 -79 27 -137q9 66 28 137l73 284h73l-180 -650h-75z" />
    <glyph glyph-name="z" unicode="z" horiz-adv-x="369" 
d="M44 0v47l197 391h-192v62h277v-47l-198 -391h202v-62h-286z" />
    <glyph glyph-name="braceleft" unicode="{" horiz-adv-x="279" 
d="M221 -150q-79 0 -105.5 26.5t-26.5 107.5v157q0 47 -19 65.5t-59 18.5v50q40 0 59 18.5t19 65.5v157q0 81 26.5 107.5t105.5 26.5h31v-57h-16q-51 0 -64.5 -16t-13.5 -74v-157q0 -76 -56 -96q56 -22 56 -96v-157q0 -58 13.5 -74t64.5 -16h16v-57h-31z" />
    <glyph glyph-name="bar" unicode="|" horiz-adv-x="227" 
d="M79 -150v800h69v-800h-69z" />
    <glyph glyph-name="braceright" unicode="}" horiz-adv-x="279" 
d="M27 -150v57h16q51 0 64.5 16t13.5 74v157q0 74 56 96q-56 20 -56 96v157q0 58 -13.5 74t-64.5 16h-16v57h31q79 0 105.5 -26.5t26.5 -107.5v-157q0 -47 19 -65.5t59 -18.5v-50q-40 0 -59 -18.5t-19 -65.5v-157q0 -81 -26.5 -107.5t-105.5 -26.5h-31z" />
    <glyph glyph-name="asciitilde" unicode="~" horiz-adv-x="307" 
d="M212 557q-29 0 -67.5 20.5t-57.5 20.5q-32 0 -62 -28v58q27 34 71 34q28 0 66.5 -21t58.5 -21q33 0 62 29v-58q-27 -34 -71 -34z" />
    <glyph glyph-name="uni00A0" unicode="&#xa0;" horiz-adv-x="200" 
 />
    <glyph glyph-name="exclamdown" unicode="&#xa1;" horiz-adv-x="232" 
d="M116 417q-22 0 -34.5 12.5t-12.5 34.5q0 21 12.5 33.5t34.5 12.5t34.5 -12.5t12.5 -33.5q0 -22 -12.5 -34.5t-34.5 -12.5zM72 -150l17 469h54l18 -469h-89z" />
    <glyph glyph-name="cent" unicode="&#xa2;" horiz-adv-x="348" 
d="M176 -100v92q-67 12 -95.5 73t-28.5 185q0 127 32 186t92 72v92h65v-89q39 -2 70 -19v-68q-32 22 -82 22q-56 0 -79 -40.5t-23 -155.5q0 -114 21.5 -155t74.5 -41q54 0 92 24v-68q-30 -17 -74 -21v-89h-65z" />
    <glyph glyph-name="sterling" unicode="&#xa3;" horiz-adv-x="442" 
d="M35 299v63h93v82q0 109 42.5 163.5t132.5 54.5q32 0 58.5 -7.5t35.5 -14.5v-69q-35 24 -88 24q-60 0 -82.5 -38.5t-22.5 -127.5v-67h152v-63h-152v-236h193v-63h-362v63h93v236h-93z" />
    <glyph glyph-name="currency" unicode="&#xa4;" horiz-adv-x="445" 
d="M378 86l-57 58q-35 -28 -98 -28q-62 0 -99 28l-56 -58l-46 45l63 63q-21 50 -21 131q0 82 21 130l-63 64l46 45l56 -58q37 28 99 28q63 0 98 -28l57 58l45 -45l-64 -64q22 -47 22 -130t-22 -131l64 -63zM223 181q47 0 65.5 33.5t18.5 110.5t-18.5 110.5t-65.5 33.5
t-65.5 -33.5t-18.5 -110.5t18.5 -110.5t65.5 -33.5z" />
    <glyph glyph-name="yen" unicode="&#xa5;" horiz-adv-x="457" 
d="M66 269v62h96l-151 319h84l81 -180q28 -64 52 -144h1q25 83 53 144l82 180h82l-152 -319h102v-62h-129v-76h129v-62h-129v-131h-77v131h-124v62h124v76h-124z" />
    <glyph glyph-name="brokenbar" unicode="&#xa6;" horiz-adv-x="227" 
d="M79 -150v308h69v-308h-69zM79 342v308h69v-308h-69z" />
    <glyph glyph-name="section" unicode="&#xa7;" horiz-adv-x="434" 
d="M140 -162q-84 0 -129 28v70q38 -27 88 -27q44 0 66.5 26.5t22.5 72.5q0 50 -30 105l-62 116q-58 109 -58 201q0 113 73.5 172.5t181.5 59.5q67 0 107 -20v-67q-28 16 -67 16q-44 0 -66 -26.5t-22 -72.5q0 -50 30 -105l62 -116q58 -109 58 -201q0 -113 -73.5 -172.5
t-181.5 -59.5zM198 -104q50 12 89 55t39 117q0 72 -48 163l-59 110q-40 75 -40 142q0 81 56 121q-50 -12 -89 -55t-39 -117q0 -72 48 -163l59 -110q40 -75 40 -142q0 -81 -56 -121z" />
    <glyph glyph-name="dieresis" unicode="&#xa8;" horiz-adv-x="363" 
d="M100 557q-21 0 -32.5 12t-11.5 32q0 45 44 45q21 0 33 -12t12 -33q0 -20 -12 -32t-33 -12zM262 557q-21 0 -32.5 12t-11.5 32q0 45 44 45q21 0 33 -12t12 -33q0 -20 -12 -32t-33 -12z" />
    <glyph glyph-name="copyright" unicode="&#xa9;" horiz-adv-x="573" 
d="M299 134q-67 0 -95 41t-28 150q0 106 28.5 148.5t94.5 42.5q50 0 77 -18v-53q-34 17 -70 17q-43 0 -57.5 -27t-14.5 -110t14.5 -110t57.5 -27q41 0 70 17v-54q-30 -17 -77 -17zM286 -12q-135 0 -184 72t-49 265q0 191 49.5 264t183.5 73q135 0 184.5 -72t49.5 -265
q0 -191 -49.5 -264t-184.5 -73zM286 41q69 0 104 20.5t53 81.5t18 182t-18 182t-53 81.5t-104 20.5q-68 0 -103 -20.5t-53 -81.5t-18 -182t18 -182t53 -81.5t103 -20.5z" />
    <glyph glyph-name="ordfeminine" unicode="&#xaa;" horiz-adv-x="342" 
d="M249 240l-6 24q-41 -34 -91 -34q-108 0 -108 132q0 130 108 130q43 0 80 -25v37q0 50 -19 72t-65 22q-51 0 -87 -26v62q40 24 97 24q140 0 140 -143v-275h-49zM167 286q31 0 65 22v107q-31 22 -65 22q-31 0 -44.5 -18t-13.5 -57t13.5 -57.5t44.5 -18.5zM59 114v58h239
v-58h-239z" />
    <glyph glyph-name="guillemotleft" unicode="&#xab;" horiz-adv-x="377" 
d="M115 136l-93 164l93 164h63l-83 -164l83 -164h-63zM283 136l-93 164l93 164h62l-82 -164l82 -164h-62z" />
    <glyph glyph-name="logicalnot" unicode="&#xac;" horiz-adv-x="454" 
d="M331 98v121h-286v64h354v-185h-68z" />
    <glyph glyph-name="uni00AD" unicode="&#xad;" horiz-adv-x="314" 
d="M45 290v72h224v-72h-224z" />
    <glyph glyph-name="registered" unicode="&#xae;" horiz-adv-x="439" 
d="M220 190q-100 0 -137.5 51.5t-37.5 184.5q0 132 38 184t137 52t136.5 -51.5t37.5 -184.5q0 -132 -38 -184t-136 -52zM220 234q49 0 74 13t38.5 55t13.5 124t-13.5 124t-38.5 55t-74 13q-50 0 -75 -13t-38.5 -55t-13.5 -124t13.5 -124t38.5 -55t75 -13zM147 298v257h64
q85 0 85 -79q0 -50 -40 -67l54 -111h-50l-44 101h-25v-101h-44zM208 514h-17v-75h17q22 0 32.5 7.5t10.5 29.5q0 23 -10.5 30.5t-32.5 7.5z" />
    <glyph glyph-name="macron" unicode="&#xaf;" horiz-adv-x="341" 
d="M56 573v59h229v-59h-229z" />
    <glyph glyph-name="degree" unicode="&#xb0;" horiz-adv-x="382" 
d="M191 384q-64 0 -101 34.5t-37 104.5q0 69 38 104t100 35q63 0 100.5 -35t37.5 -104q0 -70 -38 -104.5t-100 -34.5zM191 438q77 0 77 85t-77 85t-77 -85t77 -85z" />
    <glyph glyph-name="plusminus" unicode="&#xb1;" horiz-adv-x="444" 
d="M45 0v64h354v-64h-354zM45 294v64h143v145h68v-145h143v-64h-143v-145h-68v145h-143z" />
    <glyph glyph-name="twosuperior" unicode="&#xb2;" 
d="M56 237v41q0 63 21.5 96.5t64.5 56.5q32 17 46 26.5t26.5 29t12.5 45.5q0 34 -17.5 50.5t-57.5 16.5q-42 0 -82 -19v60q36 18 87 18q72 0 104.5 -34.5t32.5 -89.5q0 -31 -8.5 -54.5t-27 -42t-34.5 -29t-44 -25.5q-31 -17 -44 -36t-14 -54h175v-56h-241z" />
    <glyph glyph-name="threesuperior" unicode="&#xb3;" 
d="M146 230q-59 0 -91 18v62q37 -22 87 -22q90 0 90 66q0 80 -133 84v39l104 117h-147v56h233v-44l-113 -126q56 -9 89.5 -43t33.5 -84q0 -58 -40 -90.5t-113 -32.5z" />
    <glyph glyph-name="acute" unicode="&#xb4;" horiz-adv-x="260" 
d="M56 558l58 91h91l-84 -91h-65z" />
    <glyph glyph-name="mu" unicode="&#xb5;" horiz-adv-x="440" 
d="M318 0l-7 26q-44 -38 -101 -38q-45 0 -75 20q6 -40 6 -63v-95h-72v650h72v-335q0 -56 17.5 -85t65.5 -29q41 0 74 25v424h73v-500h-53z" />
    <glyph glyph-name="paragraph" unicode="&#xb6;" horiz-adv-x="438" 
d="M239 251q-104 0 -151 54.5t-47 145.5q0 92 49 145.5t149 53.5v-399zM295 -150v800h64v-800h-64z" />
    <glyph glyph-name="periodcentered" unicode="&#xb7;" horiz-adv-x="169" 
d="M85 278q-22 0 -34.5 12.5t-12.5 33.5q0 22 12.5 34.5t34.5 12.5t34 -12.5t12 -34.5q0 -21 -12 -33.5t-34 -12.5z" />
    <glyph glyph-name="cedilla" unicode="&#xb8;" horiz-adv-x="236" 
d="M108 -153q-32 0 -52 10v45q10 -4 32 -4q32 0 32 26q0 16 -13 39t-26 37h49q18 -15 34 -41.5t16 -51.5q0 -29 -19 -44.5t-53 -15.5z" />
    <glyph glyph-name="onesuperior" unicode="&#xb9;" 
d="M79 237v56h73v289l-73 -21v58l97 31h41v-357h73v-56h-211z" />
    <glyph glyph-name="ordmasculine" unicode="&#xba;" horiz-adv-x="355" 
d="M178 230q-77 0 -108.5 45t-31.5 169q0 123 32 168.5t108 45.5t107.5 -45t31.5 -169q0 -123 -32 -168.5t-107 -45.5zM178 287q42 0 56.5 31.5t14.5 125.5t-14.5 125.5t-56.5 31.5q-43 0 -57.5 -31.5t-14.5 -125.5t14.5 -125.5t57.5 -31.5zM53 114v58h249v-58h-249z" />
    <glyph glyph-name="guillemotright" unicode="&#xbb;" horiz-adv-x="377" 
d="M32 136l83 164l-83 164h62l94 -164l-94 -164h-62zM200 136l82 164l-82 164h62l93 -164l-93 -164h-62z" />
    <glyph glyph-name="onequarter" unicode="&#xbc;" horiz-adv-x="889" 
d="M568 87v44l170 282h72l-167 -272h108v86h65v-86h51v-54h-51v-87h-65v87h-183zM79 237v56h73v289l-73 -21v58l97 31h41v-357h73v-56h-211zM218 0l387 650h65l-387 -650h-65z" />
    <glyph glyph-name="onehalf" unicode="&#xbd;" horiz-adv-x="889" 
d="M592 0v41q0 63 21.5 96.5t64.5 56.5q32 17 46 26.5t26.5 28.5t12.5 46q0 34 -17.5 50.5t-57.5 16.5q-42 0 -82 -19v60q36 18 87 18q72 0 104.5 -34.5t32.5 -89.5q0 -31 -8.5 -54.5t-27 -42t-34.5 -29t-44 -25.5q-31 -17 -44 -36t-14 -54h175v-56h-241zM79 237v56h73v289
l-73 -21v58l97 31h41v-357h73v-56h-211zM218 0l387 650h65l-387 -650h-65z" />
    <glyph glyph-name="threequarters" unicode="&#xbe;" horiz-adv-x="889" 
d="M568 87v44l170 282h72l-167 -272h108v86h65v-86h51v-54h-51v-87h-65v87h-183zM146 230q-59 0 -91 18v62q37 -22 87 -22q90 0 90 66q0 80 -133 84v39l104 117h-147v56h233v-44l-113 -126q56 -9 89.5 -43t33.5 -84q0 -58 -40 -90.5t-113 -32.5zM218 0l387 650h65l-387 -650
h-65z" />
    <glyph glyph-name="questiondown" unicode="&#xbf;" horiz-adv-x="328" 
d="M203 -160q-81 0 -127.5 40.5t-46.5 112.5q0 58 29 102.5t77 88.5l30 26l6 111h55l8 -139l-48 -44q-37 -34 -57.5 -65.5t-20.5 -72.5q0 -93 106 -93q57 0 100 26v-69q-36 -24 -111 -24zM198 418q-22 0 -34 12.5t-12 34.5t12 34.5t34 12.5t34.5 -12.5t12.5 -34.5
t-12.5 -34.5t-34.5 -12.5z" />
    <glyph glyph-name="Agrave" unicode="&#xc0;" horiz-adv-x="439" 
d="M5 0l175 650h78l176 -650h-80l-40 153h-192l-39 -153h-78zM170 339l-32 -120h160l-31 120q-33 129 -48 223q-16 -102 -49 -223zM199 708l-84 91h91l58 -91h-65z" />
    <glyph glyph-name="Aacute" unicode="&#xc1;" horiz-adv-x="439" 
d="M5 0l175 650h78l176 -650h-80l-40 153h-192l-39 -153h-78zM170 339l-32 -120h160l-31 120q-33 129 -48 223q-16 -102 -49 -223zM174 708l58 91h91l-84 -91h-65z" />
    <glyph glyph-name="Acircumflex" unicode="&#xc2;" horiz-adv-x="439" 
d="M5 0l175 650h78l176 -650h-80l-40 153h-192l-39 -153h-78zM170 339l-32 -120h160l-31 120q-33 129 -48 223q-16 -102 -49 -223zM110 700v49l109 58l109 -58v-49l-109 38z" />
    <glyph glyph-name="Atilde" unicode="&#xc3;" horiz-adv-x="439" 
d="M5 0l175 650h78l176 -650h-80l-40 153h-192l-39 -153h-78zM170 339l-32 -120h160l-31 120q-33 129 -48 223q-16 -102 -49 -223zM264 707q-25 0 -54 17.5t-46 17.5q-29 0 -52 -25v52q23 32 62 32q25 0 54 -18t46 -18q27 0 52 25v-52q-24 -31 -62 -31z" />
    <glyph glyph-name="Adieresis" unicode="&#xc4;" horiz-adv-x="439" 
d="M5 0l175 650h78l176 -650h-80l-40 153h-192l-39 -153h-78zM170 339l-32 -120h160l-31 120q-33 129 -48 223q-16 -102 -49 -223zM138 707q-21 0 -32.5 12t-11.5 32q0 45 44 45q21 0 33 -12t12 -33q0 -20 -12 -32t-33 -12zM300 707q-21 0 -32.5 12t-11.5 32q0 45 44 45
q21 0 33 -12t12 -33q0 -20 -12 -32t-33 -12z" />
    <glyph glyph-name="Aring" unicode="&#xc5;" horiz-adv-x="439" 
d="M5 0l165 614q-48 25 -48 86q0 43 27.5 69t69.5 26q43 0 70 -25.5t27 -69.5q0 -60 -49 -85l167 -615h-80l-40 153h-192l-39 -153h-78zM170 339l-32 -120h160l-31 120q-33 129 -48 223q-16 -102 -49 -223zM219 650q21 0 35 13t14 37t-14 37t-35 13t-35 -13t-14 -37t14 -37
t35 -13z" />
    <glyph glyph-name="AE" unicode="&#xc6;" horiz-adv-x="613" 
d="M286 0v153h-163l-40 -153h-78l176 650h380v-65h-199v-218h158v-65h-158v-237h199v-65h-275zM236 585l-96 -366h146v366h-50z" />
    <glyph glyph-name="Ccedilla" unicode="&#xc7;" horiz-adv-x="406" 
d="M227 -153q-32 0 -52 10v45q10 -4 32 -4q32 0 32 26q0 27 -32 68q-88 13 -121 87.5t-33 245.5q0 187 46 262t159 75q70 0 108 -23v-72q-43 26 -102 26q-77 0 -104.5 -53.5t-27.5 -214.5q0 -113 12.5 -170t39 -78t79.5 -21q57 0 109 27v-71q-37 -22 -111 -24q38 -42 38 -81
q0 -29 -19 -44.5t-53 -15.5z" />
    <glyph glyph-name="Egrave" unicode="&#xc8;" horiz-adv-x="421" 
d="M79 0v650h290v-65h-214v-218h173v-65h-173v-237h214v-65h-290zM207 708l-84 91h91l58 -91h-65z" />
    <glyph glyph-name="Eacute" unicode="&#xc9;" horiz-adv-x="421" 
d="M181 708l58 91h91l-84 -91h-65zM79 0v650h290v-65h-214v-218h173v-65h-173v-237h214v-65h-290z" />
    <glyph glyph-name="Ecircumflex" unicode="&#xca;" horiz-adv-x="421" 
d="M117 700v49l109 58l109 -58v-49l-109 38zM79 0v650h290v-65h-214v-218h173v-65h-173v-237h214v-65h-290z" />
    <glyph glyph-name="Edieresis" unicode="&#xcb;" horiz-adv-x="421" 
d="M145 707q-21 0 -32.5 12t-11.5 32q0 45 44 45q21 0 33 -12t12 -33q0 -20 -12 -32t-33 -12zM307 707q-21 0 -32.5 12t-11.5 32q0 45 44 45q21 0 33 -12t12 -33q0 -20 -12 -32t-33 -12zM79 0v650h290v-65h-214v-218h173v-65h-173v-237h214v-65h-290z" />
    <glyph glyph-name="Igrave" unicode="&#xcc;" horiz-adv-x="234" 
d="M79 0v650h76v-650h-76zM98 708l-84 91h91l58 -91h-65z" />
    <glyph glyph-name="Iacute" unicode="&#xcd;" horiz-adv-x="234" 
d="M79 0v650h76v-650h-76zM72 708l58 91h91l-84 -91h-65z" />
    <glyph glyph-name="Icircumflex" unicode="&#xce;" horiz-adv-x="234" 
d="M79 0v650h76v-650h-76zM9 700v49l109 58l109 -58v-49l-109 38z" />
    <glyph glyph-name="Idieresis" unicode="&#xcf;" horiz-adv-x="234" 
d="M79 0v650h76v-650h-76zM36 707q-21 0 -32.5 12t-11.5 32q0 45 44 45q21 0 33 -12t12 -33q0 -20 -12 -32t-33 -12zM198 707q-21 0 -32.5 12t-11.5 32q0 45 44 45q21 0 33 -12t12 -33q0 -20 -12 -32t-33 -12z" />
    <glyph glyph-name="Eth" unicode="&#xd0;" horiz-adv-x="501" 
d="M29 295v64h55v291h157q119 0 163 -70.5t44 -254.5q0 -183 -44 -254t-163 -71h-157v295h-55zM235 586h-75v-227h106v-64h-106v-231h75q78 0 106 51.5t28 209.5t-28 209.5t-106 51.5z" />
    <glyph glyph-name="Ntilde" unicode="&#xd1;" horiz-adv-x="527" 
d="M79 0v650h88l220 -542q-11 90 -11 167v375h72v-650h-88l-220 541q11 -108 11 -166v-375h-72zM308 707q-25 0 -54 17.5t-46 17.5q-29 0 -52 -25v52q23 32 62 32q25 0 54 -18t46 -18q27 0 52 25v-52q-24 -31 -62 -31z" />
    <glyph glyph-name="Ograve" unicode="&#xd2;" horiz-adv-x="493" 
d="M246 -12q-71 0 -111.5 28t-61 102t-20.5 207q0 193 44 265t149 72q72 0 112.5 -28.5t61 -102t20.5 -206.5q0 -132 -21 -205.5t-61.5 -102.5t-111.5 -29zM246 55q68 0 91.5 55t23.5 215t-23.5 215t-91.5 55q-67 0 -90.5 -55t-23.5 -215t23.5 -215t90.5 -55zM226 708
l-84 91h91l58 -91h-65z" />
    <glyph glyph-name="Oacute" unicode="&#xd3;" horiz-adv-x="493" 
d="M201 708l58 91h91l-84 -91h-65zM246 -12q-71 0 -111.5 28t-61 102t-20.5 207q0 193 44 265t149 72q72 0 112.5 -28.5t61 -102t20.5 -206.5q0 -132 -21 -205.5t-61.5 -102.5t-111.5 -29zM246 55q68 0 91.5 55t23.5 215t-23.5 215t-91.5 55q-67 0 -90.5 -55t-23.5 -215
t23.5 -215t90.5 -55z" />
    <glyph glyph-name="Ocircumflex" unicode="&#xd4;" horiz-adv-x="493" 
d="M137 700v49l109 58l109 -58v-49l-109 38zM246 -12q-71 0 -111.5 28t-61 102t-20.5 207q0 193 44 265t149 72q72 0 112.5 -28.5t61 -102t20.5 -206.5q0 -132 -21 -205.5t-61.5 -102.5t-111.5 -29zM246 55q68 0 91.5 55t23.5 215t-23.5 215t-91.5 55q-67 0 -90.5 -55
t-23.5 -215t23.5 -215t90.5 -55z" />
    <glyph glyph-name="Otilde" unicode="&#xd5;" horiz-adv-x="493" 
d="M246 -12q-71 0 -111.5 28t-61 102t-20.5 207q0 193 44 265t149 72q72 0 112.5 -28.5t61 -102t20.5 -206.5q0 -132 -21 -205.5t-61.5 -102.5t-111.5 -29zM246 55q68 0 91.5 55t23.5 215t-23.5 215t-91.5 55q-67 0 -90.5 -55t-23.5 -215t23.5 -215t90.5 -55zM291 707
q-25 0 -54 17.5t-46 17.5q-29 0 -52 -25v52q23 32 62 32q25 0 54 -18t46 -18q27 0 52 25v-52q-24 -31 -62 -31z" />
    <glyph glyph-name="Odieresis" unicode="&#xd6;" horiz-adv-x="493" 
d="M165 707q-21 0 -32.5 12t-11.5 32q0 45 44 45q21 0 33 -12t12 -33q0 -20 -12 -32t-33 -12zM327 707q-21 0 -32.5 12t-11.5 32q0 45 44 45q21 0 33 -12t12 -33q0 -20 -12 -32t-33 -12zM246 -12q-71 0 -111.5 28t-61 102t-20.5 207q0 193 44 265t149 72q72 0 112.5 -28.5
t61 -102t20.5 -206.5q0 -132 -21 -205.5t-61.5 -102.5t-111.5 -29zM246 55q68 0 91.5 55t23.5 215t-23.5 215t-91.5 55q-67 0 -90.5 -55t-23.5 -215t23.5 -215t90.5 -55z" />
    <glyph glyph-name="multiply" unicode="&#xd7;" horiz-adv-x="423" 
d="M88 156l-46 45l124 124l-124 124l46 45l124 -124l124 124l45 -45l-124 -124l124 -124l-45 -45l-124 124z" />
    <glyph glyph-name="Oslash" unicode="&#xd8;" horiz-adv-x="493" 
d="M246 -12q-77 0 -118 33l-34 -71h-61l58 119q-38 75 -38 256q0 193 44 265t149 72q78 0 118 -33l35 71h61l-58 -119q38 -76 38 -256q0 -132 -21 -205.5t-61.5 -102.5t-111.5 -29zM132 325q0 -119 6 -158l191 389q-24 39 -83 39q-67 0 -90.5 -55t-23.5 -215zM246 55
q68 0 91.5 55t23.5 215q0 112 -7 158l-190 -390q23 -38 82 -38z" />
    <glyph glyph-name="Ugrave" unicode="&#xd9;" horiz-adv-x="516" 
d="M258 -12q-95 0 -139.5 47.5t-44.5 157.5v457h76v-456q0 -77 25.5 -108t82.5 -31t82.5 31t25.5 108v456h76v-457q0 -109 -44.5 -157t-139.5 -48zM238 708l-84 91h91l58 -91h-65z" />
    <glyph glyph-name="Uacute" unicode="&#xda;" horiz-adv-x="516" 
d="M213 708l58 91h91l-84 -91h-65zM258 -12q-95 0 -139.5 47.5t-44.5 157.5v457h76v-456q0 -77 25.5 -108t82.5 -31t82.5 31t25.5 108v456h76v-457q0 -109 -44.5 -157t-139.5 -48z" />
    <glyph glyph-name="Ucircumflex" unicode="&#xdb;" horiz-adv-x="516" 
d="M149 700v49l109 58l109 -58v-49l-109 38zM258 -12q-95 0 -139.5 47.5t-44.5 157.5v457h76v-456q0 -77 25.5 -108t82.5 -31t82.5 31t25.5 108v456h76v-457q0 -109 -44.5 -157t-139.5 -48z" />
    <glyph glyph-name="Udieresis" unicode="&#xdc;" horiz-adv-x="516" 
d="M176 707q-21 0 -32.5 12t-11.5 32q0 45 44 45q21 0 33 -12t12 -33q0 -20 -12 -32t-33 -12zM338 707q-21 0 -32.5 12t-11.5 32q0 45 44 45q21 0 33 -12t12 -33q0 -20 -12 -32t-33 -12zM258 -12q-95 0 -139.5 47.5t-44.5 157.5v457h76v-456q0 -77 25.5 -108t82.5 -31
t82.5 31t25.5 108v456h76v-457q0 -109 -44.5 -157t-139.5 -48z" />
    <glyph glyph-name="Yacute" unicode="&#xdd;" horiz-adv-x="427" 
d="M175 0v273l-179 377h84l81 -180q39 -90 53 -135q18 59 53 135l82 180h82l-179 -377v-273h-77zM168 708l58 91h91l-84 -91h-65z" />
    <glyph glyph-name="Thorn" unicode="&#xde;" horiz-adv-x="458" 
d="M79 0v650h76v-109h64q98 0 147.5 -47t49.5 -159q0 -109 -50.5 -157.5t-146.5 -48.5h-64v-129h-76zM210 476h-55v-282h55q65 0 96.5 30t31.5 111t-31.5 111t-96.5 30z" />
    <glyph glyph-name="germandbls" unicode="&#xdf;" horiz-adv-x="476" 
d="M305 -12q-64 0 -94 19v68q31 -22 79 -22q40 0 62.5 20.5t22.5 56.5q0 52 -36 86t-128 83v48q105 69 105 160q0 93 -85 93q-50 0 -69.5 -30t-19.5 -114v-456h-73v473q0 106 42 147.5t120 41.5q74 0 117 -38t43 -109q0 -110 -103 -187q85 -46 123.5 -88.5t38.5 -114.5
q0 -61 -38.5 -99t-106.5 -38z" />
    <glyph glyph-name="agrave" unicode="&#xe0;" horiz-adv-x="418" 
d="M301 0l-8 30q-48 -42 -113 -42q-73 0 -103.5 41t-30.5 120q0 78 31 119.5t103 41.5q56 0 101 -34v50q0 64 -22.5 92.5t-81.5 28.5q-60 0 -108 -32v68q43 29 119 29q166 0 166 -171v-341h-53zM195 49q47 0 86 29v141q-41 30 -86 30q-42 0 -58.5 -23.5t-16.5 -76.5
t16.5 -76.5t58.5 -23.5zM181 558l-84 91h91l58 -91h-65z" />
    <glyph glyph-name="aacute" unicode="&#xe1;" horiz-adv-x="418" 
d="M301 0l-8 30q-48 -42 -113 -42q-73 0 -103.5 41t-30.5 120q0 78 31 119.5t103 41.5q56 0 101 -34v50q0 64 -22.5 92.5t-81.5 28.5q-60 0 -108 -32v68q43 29 119 29q166 0 166 -171v-341h-53zM195 49q47 0 86 29v141q-41 30 -86 30q-42 0 -58.5 -23.5t-16.5 -76.5
t16.5 -76.5t58.5 -23.5zM156 558l58 91h91l-84 -91h-65z" />
    <glyph glyph-name="acircumflex" unicode="&#xe2;" horiz-adv-x="418" 
d="M301 0l-8 30q-48 -42 -113 -42q-73 0 -103.5 41t-30.5 120q0 78 31 119.5t103 41.5q56 0 101 -34v50q0 64 -22.5 92.5t-81.5 28.5q-60 0 -108 -32v68q43 29 119 29q166 0 166 -171v-341h-53zM195 49q47 0 86 29v141q-41 30 -86 30q-42 0 -58.5 -23.5t-16.5 -76.5
t16.5 -76.5t58.5 -23.5zM92 550v49l109 58l109 -58v-49l-109 38z" />
    <glyph glyph-name="atilde" unicode="&#xe3;" horiz-adv-x="418" 
d="M301 0l-8 30q-48 -42 -113 -42q-73 0 -103.5 41t-30.5 120q0 78 31 119.5t103 41.5q56 0 101 -34v50q0 64 -22.5 92.5t-81.5 28.5q-60 0 -108 -32v68q43 29 119 29q166 0 166 -171v-341h-53zM195 49q47 0 86 29v141q-41 30 -86 30q-42 0 -58.5 -23.5t-16.5 -76.5
t16.5 -76.5t58.5 -23.5zM246 557q-25 0 -54 17.5t-46 17.5q-29 0 -52 -25v52q23 32 62 32q25 0 54 -18t46 -18q27 0 52 25v-52q-24 -31 -62 -31z" />
    <glyph glyph-name="adieresis" unicode="&#xe4;" horiz-adv-x="418" 
d="M301 0l-8 30q-48 -42 -113 -42q-73 0 -103.5 41t-30.5 120q0 78 31 119.5t103 41.5q56 0 101 -34v50q0 64 -22.5 92.5t-81.5 28.5q-60 0 -108 -32v68q43 29 119 29q166 0 166 -171v-341h-53zM195 49q47 0 86 29v141q-41 30 -86 30q-42 0 -58.5 -23.5t-16.5 -76.5
t16.5 -76.5t58.5 -23.5zM120 557q-21 0 -32.5 12t-11.5 32q0 45 44 45q21 0 33 -12t12 -33q0 -20 -12 -32t-33 -12zM282 557q-21 0 -32.5 12t-11.5 32q0 45 44 45q21 0 33 -12t12 -33q0 -20 -12 -32t-33 -12z" />
    <glyph glyph-name="aring" unicode="&#xe5;" horiz-adv-x="418" 
d="M301 0l-8 30q-48 -42 -113 -42q-73 0 -103.5 41t-30.5 120q0 78 31 119.5t103 41.5q56 0 101 -34v50q0 64 -22.5 92.5t-81.5 28.5q-60 0 -108 -32v68q43 29 119 29q166 0 166 -171v-341h-53zM195 49q47 0 86 29v141q-41 30 -86 30q-42 0 -58.5 -23.5t-16.5 -76.5
t16.5 -76.5t58.5 -23.5zM201 541q-43 0 -70 25.5t-27 70.5q0 43 27.5 69t69.5 26q43 0 70 -25.5t27 -69.5t-27.5 -70t-69.5 -26zM201 587q21 0 35 13t14 37t-14 37t-35 13t-35 -13t-14 -37t14 -37t35 -13z" />
    <glyph glyph-name="ae" unicode="&#xe6;" horiz-adv-x="641" 
d="M180 -12q-73 0 -103.5 41.5t-30.5 119.5t31 119.5t103 41.5q55 0 101 -33v49q0 64 -22 92.5t-79 28.5q-63 0 -111 -32v68q43 29 119 29q96 0 133 -58q38 58 116 58q86 0 122.5 -55.5t36.5 -206.5v-21h-243q1 -106 25.5 -141t85.5 -35q30 0 61.5 9.5t46.5 20.5v-68
q-13 -9 -45.5 -18t-70.5 -9q-95 0 -135 56q-61 -56 -141 -56zM297 91q-16 48 -19 130q-38 28 -83 28q-42 0 -58.5 -23.5t-16.5 -76.5t16.5 -76.5t58.5 -23.5q55 0 102 42zM437 448q-47 0 -64.5 -34t-19.5 -124h168q-2 90 -20 124t-64 34z" />
    <glyph glyph-name="ccedilla" unicode="&#xe7;" horiz-adv-x="348" 
d="M201 -153q-32 0 -52 10v45q10 -4 32 -4q32 0 32 26q0 27 -31 67q-71 10 -100.5 71t-29.5 188q0 149 43 205.5t126 56.5q54 0 90 -20v-68q-32 22 -82 22q-56 0 -79 -40.5t-23 -155.5q0 -114 21.5 -155t74.5 -41q54 0 92 24v-68q-30 -18 -80 -21q38 -42 38 -82
q0 -29 -19 -44.5t-53 -15.5z" />
    <glyph glyph-name="egrave" unicode="&#xe8;" horiz-adv-x="414" 
d="M230 -12q-61 0 -98.5 21t-58.5 79t-21 159q0 152 37 208.5t121 56.5q86 0 122.5 -55.5t36.5 -206.5v-21h-242q1 -106 25 -141t85 -35q30 0 61.5 9.5t47.5 20.5v-68q-40 -27 -116 -27zM210 448q-46 0 -63.5 -34t-19.5 -124h167q-2 90 -20 124t-64 34zM190 558l-84 91h91
l58 -91h-65z" />
    <glyph glyph-name="eacute" unicode="&#xe9;" horiz-adv-x="414" 
d="M165 558l58 91h91l-84 -91h-65zM230 -12q-61 0 -98.5 21t-58.5 79t-21 159q0 152 37 208.5t121 56.5q86 0 122.5 -55.5t36.5 -206.5v-21h-242q1 -106 25 -141t85 -35q30 0 61.5 9.5t47.5 20.5v-68q-40 -27 -116 -27zM210 448q-46 0 -63.5 -34t-19.5 -124h167
q-2 90 -20 124t-64 34z" />
    <glyph glyph-name="ecircumflex" unicode="&#xea;" horiz-adv-x="414" 
d="M101 550v49l109 58l109 -58v-49l-109 38zM230 -12q-61 0 -98.5 21t-58.5 79t-21 159q0 152 37 208.5t121 56.5q86 0 122.5 -55.5t36.5 -206.5v-21h-242q1 -106 25 -141t85 -35q30 0 61.5 9.5t47.5 20.5v-68q-40 -27 -116 -27zM210 448q-46 0 -63.5 -34t-19.5 -124h167
q-2 90 -20 124t-64 34z" />
    <glyph glyph-name="edieresis" unicode="&#xeb;" horiz-adv-x="414" 
d="M129 557q-21 0 -32.5 12t-11.5 32q0 45 44 45q21 0 33 -12t12 -33q0 -20 -12 -32t-33 -12zM291 557q-21 0 -32.5 12t-11.5 32q0 45 44 45q21 0 33 -12t12 -33q0 -20 -12 -32t-33 -12zM230 -12q-61 0 -98.5 21t-58.5 79t-21 159q0 152 37 208.5t121 56.5q86 0 122.5 -55.5
t36.5 -206.5v-21h-242q1 -106 25 -141t85 -35q30 0 61.5 9.5t47.5 20.5v-68q-40 -27 -116 -27zM210 448q-46 0 -63.5 -34t-19.5 -124h167q-2 90 -20 124t-64 34z" />
    <glyph glyph-name="igrave" unicode="&#xec;" horiz-adv-x="212" 
d="M69 0v500h73v-500h-73zM87 558l-84 91h91l58 -91h-65z" />
    <glyph glyph-name="iacute" unicode="&#xed;" horiz-adv-x="212" 
d="M60 558l58 91h91l-84 -91h-65zM69 0v500h73v-500h-73z" />
    <glyph glyph-name="icircumflex" unicode="&#xee;" horiz-adv-x="212" 
d="M-3 550v49l109 58l109 -58v-49l-109 38zM69 0v500h73v-500h-73z" />
    <glyph glyph-name="idieresis" unicode="&#xef;" horiz-adv-x="212" 
d="M25 557q-21 0 -32.5 12t-11.5 32q0 45 44 45q21 0 33 -12t12 -33q0 -20 -12 -32t-33 -12zM187 557q-21 0 -32.5 12t-11.5 32q0 45 44 45q21 0 33 -12t12 -33q0 -20 -12 -32t-33 -12zM69 0v500h73v-500h-73z" />
    <glyph glyph-name="eth" unicode="&#xf0;" horiz-adv-x="432" 
d="M178 461v66l77 40q-29 32 -87 32q-53 0 -91 -24v65q35 22 99 22q93 0 143 -62l94 50v-66l-65 -34q33 -79 33 -227q0 -193 -35 -264t-131 -71q-163 0 -163 214q0 99 38 153.5t112 54.5q57 0 104 -26q-3 84 -22 132zM215 53q53 0 72.5 48t19.5 171v50q-44 22 -90 22
q-51 0 -71 -35t-20 -107t19.5 -110.5t69.5 -38.5z" />
    <glyph glyph-name="ntilde" unicode="&#xf1;" horiz-adv-x="441" 
d="M69 0v500h54l6 -28q48 40 108 40q140 0 140 -167v-345h-73v335q0 54 -18.5 84t-65.5 30q-40 0 -78 -27v-422h-73zM268 557q-25 0 -54 17.5t-46 17.5q-29 0 -52 -25v52q23 32 62 32q25 0 54 -18t46 -18q27 0 52 25v-52q-24 -31 -62 -31z" />
    <glyph glyph-name="ograve" unicode="&#xf2;" horiz-adv-x="432" 
d="M216 -12q-90 0 -127 55.5t-37 206.5q0 149 38.5 205.5t125.5 56.5q90 0 127 -55.5t37 -206.5q0 -149 -38.5 -205.5t-125.5 -56.5zM216 53q53 0 71.5 41t18.5 156t-18.5 156t-71.5 41q-52 0 -70.5 -40.5t-18.5 -156.5t18.5 -156.5t70.5 -40.5zM196 558l-84 91h91l58 -91
h-65z" />
    <glyph glyph-name="oacute" unicode="&#xf3;" horiz-adv-x="432" 
d="M171 558l58 91h91l-84 -91h-65zM216 -12q-90 0 -127 55.5t-37 206.5q0 149 38.5 205.5t125.5 56.5q90 0 127 -55.5t37 -206.5q0 -149 -38.5 -205.5t-125.5 -56.5zM216 53q53 0 71.5 41t18.5 156t-18.5 156t-71.5 41q-52 0 -70.5 -40.5t-18.5 -156.5t18.5 -156.5
t70.5 -40.5z" />
    <glyph glyph-name="ocircumflex" unicode="&#xf4;" horiz-adv-x="432" 
d="M106 550v49l109 58l109 -58v-49l-109 38zM216 -12q-90 0 -127 55.5t-37 206.5q0 149 38.5 205.5t125.5 56.5q90 0 127 -55.5t37 -206.5q0 -149 -38.5 -205.5t-125.5 -56.5zM216 53q53 0 71.5 41t18.5 156t-18.5 156t-71.5 41q-52 0 -70.5 -40.5t-18.5 -156.5t18.5 -156.5
t70.5 -40.5z" />
    <glyph glyph-name="otilde" unicode="&#xf5;" horiz-adv-x="432" 
d="M216 -12q-90 0 -127 55.5t-37 206.5q0 149 38.5 205.5t125.5 56.5q90 0 127 -55.5t37 -206.5q0 -149 -38.5 -205.5t-125.5 -56.5zM216 53q53 0 71.5 41t18.5 156t-18.5 156t-71.5 41q-52 0 -70.5 -40.5t-18.5 -156.5t18.5 -156.5t70.5 -40.5zM261 557q-25 0 -54 17.5
t-46 17.5q-29 0 -52 -25v52q23 32 62 32q25 0 54 -18t46 -18q27 0 52 25v-52q-24 -31 -62 -31z" />
    <glyph glyph-name="odieresis" unicode="&#xf6;" horiz-adv-x="432" 
d="M134 557q-21 0 -32.5 12t-11.5 32q0 45 44 45q21 0 33 -12t12 -33q0 -20 -12 -32t-33 -12zM296 557q-21 0 -32.5 12t-11.5 32q0 45 44 45q21 0 33 -12t12 -33q0 -20 -12 -32t-33 -12zM216 -12q-90 0 -127 55.5t-37 206.5q0 149 38.5 205.5t125.5 56.5q90 0 127 -55.5
t37 -206.5q0 -149 -38.5 -205.5t-125.5 -56.5zM216 53q53 0 71.5 41t18.5 156t-18.5 156t-71.5 41q-52 0 -70.5 -40.5t-18.5 -156.5t18.5 -156.5t70.5 -40.5z" />
    <glyph glyph-name="divide" unicode="&#xf7;" horiz-adv-x="444" 
d="M222 88q-22 0 -34.5 12.5t-12.5 33.5q0 22 12.5 34.5t34.5 12.5t34.5 -12.5t12.5 -34.5q0 -21 -12.5 -33.5t-34.5 -12.5zM222 469q-22 0 -34.5 12.5t-12.5 34.5q0 21 12.5 33.5t34.5 12.5t34.5 -12.5t12.5 -33.5q0 -22 -12.5 -34.5t-34.5 -12.5zM45 293v64h354v-64h-354z
" />
    <glyph glyph-name="oslash" unicode="&#xf8;" horiz-adv-x="432" 
d="M216 -12q-57 0 -93 21l-30 -59h-61l52 102q-32 58 -32 198q0 149 38.5 205.5t125.5 56.5q57 0 92 -22l31 60h61l-52 -102q32 -60 32 -198q0 -149 -38.5 -205.5t-125.5 -56.5zM216 53q53 0 71.5 41t18.5 156q0 73 -5 107l-145 -285q21 -19 60 -19zM127 250q0 -79 4 -106
l145 283q-22 20 -60 20q-52 0 -70.5 -40.5t-18.5 -156.5z" />
    <glyph glyph-name="ugrave" unicode="&#xf9;" horiz-adv-x="436" 
d="M314 0l-7 26q-44 -38 -104 -38q-139 0 -139 167v345h73v-335q0 -56 17.5 -85t64.5 -29q37 0 75 25v424h73v-500h-53zM196 558l-84 91h91l58 -91h-65z" />
    <glyph glyph-name="uacute" unicode="&#xfa;" horiz-adv-x="436" 
d="M171 558l58 91h91l-84 -91h-65zM314 0l-7 26q-44 -38 -104 -38q-139 0 -139 167v345h73v-335q0 -56 17.5 -85t64.5 -29q37 0 75 25v424h73v-500h-53z" />
    <glyph glyph-name="ucircumflex" unicode="&#xfb;" horiz-adv-x="436" 
d="M106 550v49l109 58l109 -58v-49l-109 38zM314 0l-7 26q-44 -38 -104 -38q-139 0 -139 167v345h73v-335q0 -56 17.5 -85t64.5 -29q37 0 75 25v424h73v-500h-53z" />
    <glyph glyph-name="udieresis" unicode="&#xfc;" horiz-adv-x="436" 
d="M134 557q-21 0 -32.5 12t-11.5 32q0 45 44 45q21 0 33 -12t12 -33q0 -20 -12 -32t-33 -12zM296 557q-21 0 -32.5 12t-11.5 32q0 45 44 45q21 0 33 -12t12 -33q0 -20 -12 -32t-33 -12zM314 0l-7 26q-44 -38 -104 -38q-139 0 -139 167v345h73v-335q0 -56 17.5 -85t64.5 -29
q37 0 75 25v424h73v-500h-53z" />
    <glyph glyph-name="yacute" unicode="&#xfd;" horiz-adv-x="385" 
d="M112 -150l43 152l-137 498h75l73 -284q19 -79 27 -137q9 66 28 137l73 284h73l-180 -650h-75zM148 558l58 91h91l-84 -91h-65z" />
    <glyph glyph-name="thorn" unicode="&#xfe;" horiz-adv-x="438" 
d="M69 -150v800h73v-168q42 30 93 30q83 0 117 -56t34 -206q0 -147 -35.5 -204.5t-115.5 -57.5q-50 0 -93 29v-167h-73zM219 447q-39 0 -77 -25v-345q36 -24 77 -24q53 0 72 40t19 157t-19 157t-72 40z" />
    <glyph glyph-name="ydieresis" unicode="&#xff;" horiz-adv-x="385" 
d="M112 -150l43 152l-137 498h75l73 -284q19 -79 27 -137q9 66 28 137l73 284h73l-180 -650h-75zM111 557q-21 0 -32.5 12t-11.5 32q0 45 44 45q21 0 33 -12t12 -33q0 -20 -12 -32t-33 -12zM273 557q-21 0 -32.5 12t-11.5 32q0 45 44 45q21 0 33 -12t12 -33q0 -20 -12 -32
t-33 -12z" />
    <glyph glyph-name="Amacron" unicode="&#x100;" horiz-adv-x="439" 
d="M5 0l175 650h78l176 -650h-80l-40 153h-192l-39 -153h-78zM170 339l-32 -120h160l-31 120q-33 129 -48 223q-16 -102 -49 -223zM104 723v59h229v-59h-229z" />
    <glyph glyph-name="amacron" unicode="&#x101;" horiz-adv-x="418" 
d="M301 0l-8 30q-48 -42 -113 -42q-73 0 -103.5 41t-30.5 120q0 78 31 119.5t103 41.5q56 0 101 -34v50q0 64 -22.5 92.5t-81.5 28.5q-60 0 -108 -32v68q43 29 119 29q166 0 166 -171v-341h-53zM195 49q47 0 86 29v141q-41 30 -86 30q-42 0 -58.5 -23.5t-16.5 -76.5
t16.5 -76.5t58.5 -23.5zM86 573v59h229v-59h-229z" />
    <glyph glyph-name="Abreve" unicode="&#x102;" horiz-adv-x="439" 
d="M5 0l175 650h78l176 -650h-80l-40 153h-192l-39 -153h-78zM170 339l-32 -120h160l-31 120q-33 129 -48 223q-16 -102 -49 -223zM219 705q-46 0 -77 23t-39 43l25 38q34 -42 91 -42t91 42l24 -38q-8 -20 -39 -43t-76 -23z" />
    <glyph glyph-name="abreve" unicode="&#x103;" horiz-adv-x="418" 
d="M301 0l-8 30q-48 -42 -113 -42q-73 0 -103.5 41t-30.5 120q0 78 31 119.5t103 41.5q56 0 101 -34v50q0 64 -22.5 92.5t-81.5 28.5q-60 0 -108 -32v68q43 29 119 29q166 0 166 -171v-341h-53zM195 49q47 0 86 29v141q-41 30 -86 30q-42 0 -58.5 -23.5t-16.5 -76.5
t16.5 -76.5t58.5 -23.5zM201 555q-46 0 -77 23t-39 43l25 38q34 -42 91 -42t91 42l24 -38q-8 -20 -39 -43t-76 -23z" />
    <glyph glyph-name="Aogonek" unicode="&#x104;" horiz-adv-x="439" 
d="M379 -153q-31 0 -50.5 13t-19.5 39q0 29 25.5 60t45.5 41h-26l-40 153h-192l-39 -153h-78l175 650h78l176 -650h-1q-64 -51 -64 -82q0 -20 32 -20q22 0 32 4v-45q-20 -10 -54 -10zM170 339l-32 -120h160l-31 120q-33 129 -48 223q-16 -102 -49 -223z" />
    <glyph glyph-name="aogonek" unicode="&#x105;" horiz-adv-x="418" 
d="M300 -153q-32 0 -51.5 13t-19.5 39q0 51 71 105l-7 26q-48 -42 -113 -42q-73 0 -103.5 41t-30.5 120q0 78 31 119.5t103 41.5q56 0 101 -34v50q0 64 -22.5 92.5t-81.5 28.5q-60 0 -108 -32v68q43 29 119 29q166 0 166 -171v-341q-19 -14 -42 -38.5t-23 -42.5
q0 -21 32 -21q21 0 33 4v-45q-20 -10 -54 -10zM195 49q47 0 86 29v141q-41 30 -86 30q-42 0 -58.5 -23.5t-16.5 -76.5t16.5 -76.5t58.5 -23.5z" />
    <glyph glyph-name="Cacute" unicode="&#x106;" horiz-adv-x="406" 
d="M194 708l58 91h91l-84 -91h-65zM259 -12q-120 0 -163 72.5t-43 264.5q0 187 46 262t159 75q70 0 108 -23v-72q-43 26 -102 26q-77 0 -104.5 -53.5t-27.5 -214.5q0 -113 12.5 -170t39 -78t79.5 -21q57 0 109 27v-71q-15 -9 -49 -16.5t-64 -7.5z" />
    <glyph glyph-name="cacute" unicode="&#x107;" horiz-adv-x="348" 
d="M163 558l58 91h91l-84 -91h-65zM218 -12q-91 0 -128.5 60.5t-37.5 201.5q0 149 43 205.5t126 56.5q54 0 90 -20v-68q-32 22 -82 22q-56 0 -79 -40.5t-23 -155.5q0 -114 21.5 -155t74.5 -41q54 0 92 24v-68q-37 -22 -97 -22z" />
    <glyph glyph-name="Ccircumflex" unicode="&#x108;" horiz-adv-x="406" 
d="M129 700v49l109 58l109 -58v-49l-109 38zM259 -12q-120 0 -163 72.5t-43 264.5q0 187 46 262t159 75q70 0 108 -23v-72q-43 26 -102 26q-77 0 -104.5 -53.5t-27.5 -214.5q0 -113 12.5 -170t39 -78t79.5 -21q57 0 109 27v-71q-15 -9 -49 -16.5t-64 -7.5z" />
    <glyph glyph-name="ccircumflex" unicode="&#x109;" horiz-adv-x="348" 
d="M99 550v49l109 58l109 -58v-49l-109 38zM218 -12q-91 0 -128.5 60.5t-37.5 201.5q0 149 43 205.5t126 56.5q54 0 90 -20v-68q-32 22 -82 22q-56 0 -79 -40.5t-23 -155.5q0 -114 21.5 -155t74.5 -41q54 0 92 24v-68q-37 -22 -97 -22z" />
    <glyph glyph-name="Cdotaccent" unicode="&#x10a;" horiz-adv-x="406" 
d="M259 -12q-120 0 -163 72.5t-43 264.5q0 187 46 262t159 75q70 0 108 -23v-72q-43 26 -102 26q-77 0 -104.5 -53.5t-27.5 -214.5q0 -113 12.5 -170t39 -78t79.5 -21q57 0 109 27v-71q-15 -9 -49 -16.5t-64 -7.5zM238 707q-44 0 -44 44q0 45 44 45q45 0 45 -45
q0 -44 -45 -44z" />
    <glyph glyph-name="cdotaccent" unicode="&#x10b;" horiz-adv-x="348" 
d="M218 -12q-91 0 -128.5 60.5t-37.5 201.5q0 149 43 205.5t126 56.5q54 0 90 -20v-68q-32 22 -82 22q-56 0 -79 -40.5t-23 -155.5q0 -114 21.5 -155t74.5 -41q54 0 92 24v-68q-37 -22 -97 -22zM208 557q-44 0 -44 44q0 45 44 45q45 0 45 -45q0 -44 -45 -44z" />
    <glyph glyph-name="Ccaron" unicode="&#x10c;" horiz-adv-x="406" 
d="M238 700l-109 59v48l109 -38l109 38v-48zM259 -12q-120 0 -163 72.5t-43 264.5q0 187 46 262t159 75q70 0 108 -23v-72q-43 26 -102 26q-77 0 -104.5 -53.5t-27.5 -214.5q0 -113 12.5 -170t39 -78t79.5 -21q57 0 109 27v-71q-15 -9 -49 -16.5t-64 -7.5z" />
    <glyph glyph-name="ccaron" unicode="&#x10d;" horiz-adv-x="351" 
d="M208 550l-109 59v48l109 -38l109 38v-48zM218 -12q-91 0 -128.5 60.5t-37.5 201.5q0 149 43 205.5t126 56.5q54 0 90 -20v-68q-32 22 -82 22q-56 0 -79 -40.5t-23 -155.5q0 -114 21.5 -155t74.5 -41q54 0 92 24v-68q-37 -22 -97 -22z" />
    <glyph glyph-name="Dcaron" unicode="&#x10e;" horiz-adv-x="496" 
d="M234 700l-109 59v48l109 -38l109 38v-48zM79 0v650h157q119 0 163 -70.5t44 -254.5q0 -183 -44 -254t-163 -71h-157zM230 586h-75v-522h75q78 0 106 51.5t28 209.5t-28 209.5t-106 51.5z" />
    <glyph glyph-name="dcaron" unicode="&#x10f;" horiz-adv-x="462" 
d="M412 500q12 36 12 61q0 18 -6 38t-6 28q0 33 35 33q34 0 34 -40q0 -51 -28 -120h-41zM316 0l-7 27q-45 -39 -104 -39q-83 0 -118 56t-35 206q0 147 35.5 204.5t115.5 57.5q50 0 93 -29v167h72v-650h-52zM219 53q41 0 77 24v345q-38 25 -77 25q-54 0 -73 -40.5t-19 -156.5
t19 -156.5t73 -40.5z" />
    <glyph glyph-name="Dcroat" unicode="&#x110;" horiz-adv-x="501" 
d="M29 295v64h55v291h157q119 0 163 -70.5t44 -254.5q0 -183 -44 -254t-163 -71h-157v295h-55zM235 586h-75v-227h106v-64h-106v-231h75q78 0 106 51.5t28 209.5t-28 209.5t-106 51.5z" />
    <glyph glyph-name="dcroat" unicode="&#x111;" horiz-adv-x="443" 
d="M316 0l-7 27q-45 -39 -104 -39q-83 0 -118 55.5t-35 199.5q0 142 35.5 199t115.5 57q52 0 93 -28v68h-86v59h86v52h72v-52h49v-59h-49v-539h-52zM219 53q41 0 77 24v332q-38 25 -77 25q-53 0 -72.5 -40.5t-19.5 -150.5t19.5 -150t72.5 -40z" />
    <glyph glyph-name="Emacron" unicode="&#x112;" horiz-adv-x="421" 
d="M79 0v650h290v-65h-214v-218h173v-65h-173v-237h214v-65h-290zM111 723v59h229v-59h-229z" />
    <glyph glyph-name="emacron" unicode="&#x113;" horiz-adv-x="414" 
d="M230 -12q-61 0 -98.5 21t-58.5 79t-21 159q0 152 37 208.5t121 56.5q86 0 122.5 -55.5t36.5 -206.5v-21h-242q1 -106 25 -141t85 -35q30 0 61.5 9.5t47.5 20.5v-68q-40 -27 -116 -27zM210 448q-46 0 -63.5 -34t-19.5 -124h167q-2 90 -20 124t-64 34zM95 573v59h229v-59
h-229z" />
    <glyph glyph-name="Ebreve" unicode="&#x114;" horiz-adv-x="421" 
d="M79 0v650h290v-65h-214v-218h173v-65h-173v-237h214v-65h-290zM226 705q-46 0 -77 23t-39 43l25 38q34 -42 91 -42t91 42l24 -38q-8 -20 -39 -43t-76 -23z" />
    <glyph glyph-name="ebreve" unicode="&#x115;" horiz-adv-x="414" 
d="M230 -12q-61 0 -98.5 21t-58.5 79t-21 159q0 152 37 208.5t121 56.5q86 0 122.5 -55.5t36.5 -206.5v-21h-242q1 -106 25 -141t85 -35q30 0 61.5 9.5t47.5 20.5v-68q-40 -27 -116 -27zM210 448q-46 0 -63.5 -34t-19.5 -124h167q-2 90 -20 124t-64 34zM210 555
q-46 0 -77 23t-39 43l25 38q34 -42 91 -42t91 42l24 -38q-8 -20 -39 -43t-76 -23z" />
    <glyph glyph-name="Edotaccent" unicode="&#x116;" horiz-adv-x="421" 
d="M79 0v650h290v-65h-214v-218h173v-65h-173v-237h214v-65h-290zM226 707q-44 0 -44 44q0 45 44 45q45 0 45 -45q0 -44 -45 -44z" />
    <glyph glyph-name="edotaccent" unicode="&#x117;" horiz-adv-x="414" 
d="M230 -12q-61 0 -98.5 21t-58.5 79t-21 159q0 152 37 208.5t121 56.5q86 0 122.5 -55.5t36.5 -206.5v-21h-242q1 -106 25 -141t85 -35q30 0 61.5 9.5t47.5 20.5v-68q-40 -27 -116 -27zM210 448q-46 0 -63.5 -34t-19.5 -124h167q-2 90 -20 124t-64 34zM210 557
q-44 0 -44 44q0 45 44 45q45 0 45 -45q0 -44 -45 -44z" />
    <glyph glyph-name="Eogonek" unicode="&#x118;" horiz-adv-x="421" 
d="M79 0v650h290v-65h-214v-218h173v-65h-173v-237h214v-65h-1q-64 -51 -64 -82q0 -20 32 -20q22 0 32 4v-45q-20 -10 -54 -10q-31 0 -50.5 13t-19.5 39q0 29 25.5 60t45.5 41h-236z" />
    <glyph glyph-name="eogonek" unicode="&#x119;" horiz-adv-x="414" 
d="M210 448q-46 0 -63.5 -34t-19.5 -124h167q-2 90 -20 124t-64 34zM229 -12q-92 0 -134.5 55.5t-42.5 203.5q0 152 37 208.5t121 56.5q86 0 122.5 -55.5t36.5 -206.5v-21h-242q1 -106 25 -141t85 -35q63 0 108 30v-68q-25 -19 -53.5 -48t-28.5 -49t32 -20q22 0 32 4v-45
q-20 -10 -54 -10q-31 0 -50.5 13t-19.5 39q0 25 18 50.5t39 41.5q-14 -3 -31 -3z" />
    <glyph glyph-name="Ecaron" unicode="&#x11a;" horiz-adv-x="421" 
d="M226 700l-109 59v48l109 -38l109 38v-48zM79 0v650h290v-65h-214v-218h173v-65h-173v-237h214v-65h-290z" />
    <glyph glyph-name="ecaron" unicode="&#x11b;" horiz-adv-x="414" 
d="M210 550l-109 59v48l109 -38l109 38v-48zM230 -12q-61 0 -98.5 21t-58.5 79t-21 159q0 152 37 208.5t121 56.5q86 0 122.5 -55.5t36.5 -206.5v-21h-242q1 -106 25 -141t85 -35q30 0 61.5 9.5t47.5 20.5v-68q-40 -27 -116 -27zM210 448q-46 0 -63.5 -34t-19.5 -124h167
q-2 90 -20 124t-64 34z" />
    <glyph glyph-name="Gcircumflex" unicode="&#x11c;" horiz-adv-x="490" 
d="M151 700v49l109 58l109 -58v-49l-109 38zM266 -12q-125 0 -169 71.5t-44 265.5q0 192 52.5 264.5t175.5 72.5q80 0 118 -27v-70q-48 29 -113 29q-58 0 -89 -20t-48 -79t-17 -170q0 -113 12.5 -170t39.5 -78.5t81 -21.5q42 0 79 11v234h-111v65h188v-345
q-19 -11 -65.5 -21.5t-89.5 -10.5z" />
    <glyph glyph-name="gcircumflex" unicode="&#x11d;" horiz-adv-x="438" 
d="M99 550v49l109 58l109 -58v-49l-109 38zM201 -162q-79 0 -117 25v70q16 -11 47.5 -20.5t61.5 -9.5q52 0 77.5 21.5t25.5 75.5v45q-42 -30 -91 -30q-83 0 -118 54t-35 194q0 138 35.5 193.5t115.5 55.5q63 0 106 -37l7 25h52v-515q0 -147 -167 -147zM219 80q41 0 77 24
v318q-38 25 -77 25q-53 0 -72.5 -38.5t-19.5 -145.5q0 -106 19.5 -144.5t72.5 -38.5z" />
    <glyph glyph-name="Gbreve" unicode="&#x11e;" horiz-adv-x="490" 
d="M266 -12q-125 0 -169 71.5t-44 265.5q0 192 52.5 264.5t175.5 72.5q80 0 118 -27v-70q-48 29 -113 29q-58 0 -89 -20t-48 -79t-17 -170q0 -113 12.5 -170t39.5 -78.5t81 -21.5q42 0 79 11v234h-111v65h188v-345q-19 -11 -65.5 -21.5t-89.5 -10.5zM261 705q-46 0 -77 23
t-39 43l25 38q34 -42 91 -42t91 42l24 -38q-8 -20 -39 -43t-76 -23z" />
    <glyph glyph-name="gbreve" unicode="&#x11f;" horiz-adv-x="438" 
d="M201 -162q-79 0 -117 25v70q16 -11 47.5 -20.5t61.5 -9.5q52 0 77.5 21.5t25.5 75.5v45q-42 -30 -91 -30q-83 0 -118 54t-35 194q0 138 35.5 193.5t115.5 55.5q63 0 106 -37l7 25h52v-515q0 -147 -167 -147zM219 80q41 0 77 24v318q-38 25 -77 25q-53 0 -72.5 -38.5
t-19.5 -145.5q0 -106 19.5 -144.5t72.5 -38.5zM208 555q-46 0 -77 23t-39 43l25 38q34 -42 91 -42t91 42l24 -38q-8 -20 -39 -43t-76 -23z" />
    <glyph glyph-name="Gdotaccent" unicode="&#x120;" horiz-adv-x="490" 
d="M266 -12q-125 0 -169 71.5t-44 265.5q0 192 52.5 264.5t175.5 72.5q80 0 118 -27v-70q-48 29 -113 29q-58 0 -89 -20t-48 -79t-17 -170q0 -113 12.5 -170t39.5 -78.5t81 -21.5q42 0 79 11v234h-111v65h188v-345q-19 -11 -65.5 -21.5t-89.5 -10.5zM260 707q-44 0 -44 44
q0 45 44 45q45 0 45 -45q0 -44 -45 -44z" />
    <glyph glyph-name="gdotaccent" unicode="&#x121;" horiz-adv-x="438" 
d="M201 -162q-79 0 -117 25v70q16 -11 47.5 -20.5t61.5 -9.5q52 0 77.5 21.5t25.5 75.5v45q-42 -30 -91 -30q-83 0 -118 54t-35 194q0 138 35.5 193.5t115.5 55.5q63 0 106 -37l7 25h52v-515q0 -147 -167 -147zM219 80q41 0 77 24v318q-38 25 -77 25q-53 0 -72.5 -38.5
t-19.5 -145.5q0 -106 19.5 -144.5t72.5 -38.5zM208 557q-44 0 -44 44q0 45 44 45q45 0 45 -45q0 -44 -45 -44z" />
    <glyph glyph-name="Gcommaaccent" unicode="&#x122;" horiz-adv-x="490" 
d="M225 -200q12 36 12 61q0 18 -6 38t-6 28q0 33 35 33q34 0 34 -40q0 -51 -28 -120h-41zM266 -12q-125 0 -169 71.5t-44 265.5q0 192 52.5 264.5t175.5 72.5q80 0 118 -27v-70q-48 29 -113 29q-58 0 -89 -20t-48 -79t-17 -170q0 -113 12.5 -170t39.5 -78.5t81 -21.5
q42 0 79 11v234h-111v65h188v-345q-19 -11 -65.5 -21.5t-89.5 -10.5z" />
    <glyph glyph-name="gcommaaccent" unicode="&#x123;" horiz-adv-x="438" 
d="M201 -162q-79 0 -117 25v70q16 -11 47.5 -20.5t61.5 -9.5q52 0 77.5 21.5t25.5 75.5v45q-42 -30 -91 -30q-83 0 -118 54t-35 194q0 138 35.5 193.5t115.5 55.5q63 0 106 -37l7 25h52v-515q0 -147 -167 -147zM219 80q41 0 77 24v318q-38 25 -77 25q-53 0 -72.5 -38.5
t-19.5 -145.5q0 -106 19.5 -144.5t72.5 -38.5zM207 555q-34 0 -34 40q0 52 28 120h41q-12 -35 -12 -61q0 -18 6 -37.5t6 -27.5q0 -34 -35 -34z" />
    <glyph glyph-name="Hcircumflex" unicode="&#x124;" horiz-adv-x="524" 
d="M153 700v49l109 58l109 -58v-49l-109 38zM369 0v301h-214v-301h-76v650h76v-283h214v283h76v-650h-76z" />
    <glyph glyph-name="hcircumflex" unicode="&#x125;" horiz-adv-x="441" 
d="M-3 680v49l109 58l109 -58v-49l-109 38zM69 0v650h73v-172q44 34 97 34q138 0 138 -167v-345h-73v335q0 54 -18.5 84t-65.5 30q-40 0 -78 -27v-422h-73z" />
    <glyph glyph-name="Hbar" unicode="&#x126;" horiz-adv-x="534" 
d="M24 477v59h60v114h76v-114h214v114h76v-114h60v-59h-60v-477h-76v301h-214v-301h-76v477h-60zM160 367h214v110h-214v-110z" />
    <glyph glyph-name="hbar" unicode="&#x127;" horiz-adv-x="446" 
d="M26 539v59h48v52h73v-52h86v-59h-86v-74q44 34 97 34q138 0 138 -167v-332h-73v322q0 54 -18.5 83.5t-65.5 29.5q-42 0 -78 -26v-409h-73v539h-48z" />
    <glyph glyph-name="Itilde" unicode="&#x128;" horiz-adv-x="234" 
d="M79 0v650h76v-650h-76zM163 707q-25 0 -54 17.5t-46 17.5q-29 0 -52 -25v52q23 32 62 32q25 0 54 -18t46 -18q27 0 52 25v-52q-24 -31 -62 -31z" />
    <glyph glyph-name="itilde" unicode="&#x129;" horiz-adv-x="212" 
d="M69 0v500h73v-500h-73zM151 557q-25 0 -54 17.5t-46 17.5q-29 0 -52 -25v52q23 32 62 32q25 0 54 -18t46 -18q27 0 52 25v-52q-24 -31 -62 -31z" />
    <glyph glyph-name="Imacron" unicode="&#x12a;" horiz-adv-x="234" 
d="M79 0v650h76v-650h-76zM3 723v59h229v-59h-229z" />
    <glyph glyph-name="imacron" unicode="&#x12b;" horiz-adv-x="212" 
d="M69 0v500h73v-500h-73zM-8 573v59h229v-59h-229z" />
    <glyph glyph-name="Ibreve" unicode="&#x12c;" horiz-adv-x="234" 
d="M79 0v650h76v-650h-76zM118 705q-46 0 -77 23t-39 43l25 38q34 -42 91 -42t91 42l24 -38q-8 -20 -39 -43t-76 -23z" />
    <glyph glyph-name="ibreve" unicode="&#x12d;" horiz-adv-x="212" 
d="M69 0v500h73v-500h-73zM107 555q-46 0 -77 23t-39 43l25 38q34 -42 91 -42t91 42l24 -38q-8 -20 -39 -43t-76 -23z" />
    <glyph glyph-name="Iogonek" unicode="&#x12e;" horiz-adv-x="234" 
d="M79 0v650h76v-650h1q-64 -51 -64 -82q0 -20 32 -20q22 0 32 4v-45q-20 -10 -54 -10q-31 0 -50.5 13t-19.5 39q0 29 25.5 60t45.5 41h-24z" />
    <glyph glyph-name="iogonek" unicode="&#x12f;" horiz-adv-x="212" 
d="M69 0v500h73v-500q-64 -51 -64 -82q0 -20 32 -20q22 0 32 4v-45q-20 -10 -54 -10q-31 0 -50.5 13t-19.5 39q0 29 25.5 60t45.5 41h-20zM106 558q-48 0 -48 45t48 45t48 -45t-48 -45z" />
    <glyph glyph-name="Idotaccent" unicode="&#x130;" horiz-adv-x="234" 
d="M79 0v650h76v-650h-76zM116 707q-44 0 -44 44q0 45 44 45q45 0 45 -45q0 -44 -45 -44z" />
    <glyph glyph-name="dotlessi" unicode="&#x131;" horiz-adv-x="212" 
d="M69 0v500h73v-500h-73z" />
    <glyph glyph-name="IJ" unicode="&#x132;" horiz-adv-x="504" 
d="M217 -12q-91 0 -138 32v70q58 -35 131 -35q72 0 107.5 36t35.5 120v439h77v-449q0 -213 -213 -213zM79 269v381h76v-381h-76z" />
    <glyph glyph-name="ij" unicode="&#x133;" horiz-adv-x="423" 
d="M106 558q-48 0 -48 45t48 45t48 -45t-48 -45zM69 0v500h73v-500h-73zM317 558q-48 0 -48 45t48 45t48 -45t-48 -45zM203 -150v62h22q33 0 44 12.5t11 43.5v532h73v-545q0 -60 -29 -82.5t-82 -22.5h-39z" />
    <glyph glyph-name="Jcircumflex" unicode="&#x134;" horiz-adv-x="340" 
d="M100 -12q-59 0 -95 20v69q41 -22 90 -22q47 0 71 25t24 97v473h76v-481q0 -96 -40 -138.5t-126 -42.5zM119 700v49l109 58l109 -58v-49l-109 38z" />
    <glyph glyph-name="jcircumflex" unicode="&#x135;" horiz-adv-x="212" 
d="M-8 -150v62h22q33 0 44 12.5t11 43.5v532h73v-545q0 -60 -29 -82.5t-82 -22.5h-39zM-3 550v49l109 58l109 -58v-49l-109 38z" />
    <glyph glyph-name="Kcommaaccent" unicode="&#x136;" horiz-adv-x="461" 
d="M221 -200q12 36 12 61q0 18 -6 38t-6 28q0 33 35 33q34 0 34 -40q0 -51 -28 -120h-41zM79 0v650h76v-300l204 300h88l-219 -318l233 -332h-94l-212 309v-309h-76z" />
    <glyph glyph-name="kcommaaccent" unicode="&#x137;" horiz-adv-x="395" 
d="M181 -200q12 36 12 61q0 18 -6 38t-6 28q0 33 35 33q34 0 34 -40q0 -51 -28 -120h-41zM69 0v650h73v-368l145 218h83l-162 -236l180 -264h-88l-158 240v-240h-73z" />
    <glyph glyph-name="kgreenlandic" unicode="&#x138;" horiz-adv-x="395" 
d="M69 0v500h73v-218l145 218h83l-162 -236l180 -264h-88l-158 240v-240h-73z" />
    <glyph glyph-name="Lacute" unicode="&#x139;" horiz-adv-x="373" 
d="M73 708l58 91h91l-84 -91h-65zM79 0v650h76v-585h203v-65h-279z" />
    <glyph glyph-name="lacute" unicode="&#x13a;" horiz-adv-x="232" 
d="M56 693l58 91h91l-84 -91h-65zM176 -4q-53 0 -82.5 22.5t-29.5 82.5v549h73v-536q0 -31 11 -43.5t45 -12.5h21v-62h-38z" />
    <glyph glyph-name="Lcommaaccent" unicode="&#x13b;" horiz-adv-x="375" 
d="M184 -200q12 36 12 61q0 18 -6 38t-6 28q0 33 35 33q34 0 34 -40q0 -51 -28 -120h-41zM79 0v650h76v-585h203v-65h-279z" />
    <glyph glyph-name="lcommaaccent" unicode="&#x13c;" horiz-adv-x="232" 
d="M105 -200q12 36 12 61q0 18 -6 38t-6 28q0 33 35 33q34 0 34 -40q0 -51 -28 -120h-41zM176 -4q-53 0 -82.5 22.5t-29.5 82.5v549h73v-536q0 -31 11 -43.5t45 -12.5h21v-62h-38z" />
    <glyph glyph-name="Lcaron" unicode="&#x13d;" horiz-adv-x="375" 
d="M213 500q12 36 12 61q0 18 -6 38t-6 28q0 33 35 33q34 0 34 -40q0 -51 -28 -120h-41zM79 0v650h76v-585h203v-65h-279z" />
    <glyph glyph-name="lcaron" unicode="&#x13e;" horiz-adv-x="245" 
d="M181 500q12 36 12 61q0 18 -6 38t-6 28q0 33 35 33q34 0 34 -40q0 -51 -28 -120h-41zM176 -4q-53 0 -82.5 22.5t-29.5 82.5v549h73v-536q0 -31 11 -43.5t45 -12.5h21v-62h-38z" />
    <glyph glyph-name="Ldot" unicode="&#x13f;" horiz-adv-x="395" 
d="M79 0v650h76v-585h203v-65h-279zM286 286q-44 0 -44 44q0 45 44 45q45 0 45 -45q0 -44 -45 -44z" />
    <glyph glyph-name="ldot" unicode="&#x140;" horiz-adv-x="273" 
d="M176 -4q-53 0 -82.5 22.5t-29.5 82.5v549h73v-536q0 -31 11 -43.5t45 -12.5h21v-62h-38zM233 286q-44 0 -44 44q0 45 44 45q45 0 45 -45q0 -44 -45 -44z" />
    <glyph glyph-name="Lslash" unicode="&#x141;" horiz-adv-x="383" 
d="M34 238v71l52 27v314h76v-275l83 44v-70l-83 -44v-240h203v-65h-279v265z" />
    <glyph glyph-name="lslash" unicode="&#x142;" horiz-adv-x="257" 
d="M29 236v71l40 20v323h73v-285l77 40v-70l-77 -40v-181q0 -31 11 -43.5t45 -12.5h21v-62h-38q-53 0 -82.5 22.5t-29.5 82.5v156z" />
    <glyph glyph-name="Nacute" unicode="&#x143;" horiz-adv-x="527" 
d="M218 708l58 91h91l-84 -91h-65zM79 0v650h88l220 -542q-11 90 -11 167v375h72v-650h-88l-220 541q11 -108 11 -166v-375h-72z" />
    <glyph glyph-name="nacute" unicode="&#x144;" horiz-adv-x="441" 
d="M178 558l58 91h91l-84 -91h-65zM69 0v500h54l6 -28q48 40 108 40q140 0 140 -167v-345h-73v335q0 54 -18.5 84t-65.5 30q-40 0 -78 -27v-422h-73z" />
    <glyph glyph-name="Ncommaaccent" unicode="&#x145;" horiz-adv-x="527" 
d="M229 -200q12 36 12 61q0 18 -6 38t-6 28q0 33 35 33q34 0 34 -40q0 -51 -28 -120h-41zM79 0v650h88l220 -542q-11 90 -11 167v375h72v-650h-88l-220 541q11 -108 11 -166v-375h-72z" />
    <glyph glyph-name="ncommaaccent" unicode="&#x146;" horiz-adv-x="441" 
d="M188 -200q12 36 12 61q0 18 -6 38t-6 28q0 33 35 33q34 0 34 -40q0 -51 -28 -120h-41zM69 0v500h54l6 -28q48 40 108 40q140 0 140 -167v-345h-73v335q0 54 -18.5 84t-65.5 30q-40 0 -78 -27v-422h-73z" />
    <glyph glyph-name="Ncaron" unicode="&#x147;" horiz-adv-x="527" 
d="M263 700l-109 59v48l109 -38l109 38v-48zM79 0v650h88l220 -542q-11 90 -11 167v375h72v-650h-88l-220 541q11 -108 11 -166v-375h-72z" />
    <glyph glyph-name="ncaron" unicode="&#x148;" horiz-adv-x="441" 
d="M223 550l-109 59v48l109 -38l109 38v-48zM69 0v500h54l6 -28q48 40 108 40q140 0 140 -167v-345h-73v335q0 54 -18.5 84t-65.5 30q-40 0 -78 -27v-422h-73z" />
    <glyph glyph-name="napostrophe" unicode="&#x149;" horiz-adv-x="554" 
d="M22 435q15 49 15 86q0 23 -7.5 52.5t-7.5 39.5q0 22 12.5 34.5t34.5 12.5q46 0 46 -52q0 -72 -38 -173h-55zM181 0v500h54l6 -28q48 40 108 40q140 0 140 -167v-345h-73v335q0 54 -18.5 84t-65.5 30q-40 0 -78 -27v-422h-73z" />
    <glyph glyph-name="Eng" unicode="&#x14a;" horiz-adv-x="527" 
d="M289 -162q-41 0 -65 10v61q27 -10 58 -10q88 0 93 101h-15l-220 541q11 -108 11 -166v-375h-72v650h88l220 -542q-11 90 -11 167v375h72v-632q0 -88 -40.5 -134t-118.5 -46z" />
    <glyph glyph-name="eng" unicode="&#x14b;" horiz-adv-x="441" 
d="M69 0v500h54l6 -28q48 40 108 40q140 0 140 -167v-390q0 -60 -29.5 -82.5t-82.5 -22.5h-39v62h22q34 0 45 12.5t11 43.5v367q0 54 -18.5 84t-65.5 30q-40 0 -78 -27v-422h-73z" />
    <glyph glyph-name="Omacron" unicode="&#x14c;" horiz-adv-x="493" 
d="M131 723v59h229v-59h-229zM246 -12q-71 0 -111.5 28t-61 102t-20.5 207q0 193 44 265t149 72q72 0 112.5 -28.5t61 -102t20.5 -206.5q0 -132 -21 -205.5t-61.5 -102.5t-111.5 -29zM246 55q68 0 91.5 55t23.5 215t-23.5 215t-91.5 55q-67 0 -90.5 -55t-23.5 -215
t23.5 -215t90.5 -55z" />
    <glyph glyph-name="omacron" unicode="&#x14d;" horiz-adv-x="432" 
d="M101 573v59h229v-59h-229zM216 -12q-90 0 -127 55.5t-37 206.5q0 149 38.5 205.5t125.5 56.5q90 0 127 -55.5t37 -206.5q0 -149 -38.5 -205.5t-125.5 -56.5zM216 53q53 0 71.5 41t18.5 156t-18.5 156t-71.5 41q-52 0 -70.5 -40.5t-18.5 -156.5t18.5 -156.5t70.5 -40.5z
" />
    <glyph glyph-name="Obreve" unicode="&#x14e;" horiz-adv-x="493" 
d="M246 -12q-71 0 -111.5 28t-61 102t-20.5 207q0 193 44 265t149 72q72 0 112.5 -28.5t61 -102t20.5 -206.5q0 -132 -21 -205.5t-61.5 -102.5t-111.5 -29zM246 55q68 0 91.5 55t23.5 215t-23.5 215t-91.5 55q-67 0 -90.5 -55t-23.5 -215t23.5 -215t90.5 -55zM246 705
q-46 0 -77 23t-39 43l25 38q34 -42 91 -42t91 42l24 -38q-8 -20 -39 -43t-76 -23z" />
    <glyph glyph-name="obreve" unicode="&#x14f;" horiz-adv-x="432" 
d="M216 -12q-90 0 -127 55.5t-37 206.5q0 149 38.5 205.5t125.5 56.5q90 0 127 -55.5t37 -206.5q0 -149 -38.5 -205.5t-125.5 -56.5zM216 53q53 0 71.5 41t18.5 156t-18.5 156t-71.5 41q-52 0 -70.5 -40.5t-18.5 -156.5t18.5 -156.5t70.5 -40.5zM216 555q-46 0 -77 23
t-39 43l25 38q34 -42 91 -42t91 42l24 -38q-8 -20 -39 -43t-76 -23z" />
    <glyph glyph-name="Ohungarumlaut" unicode="&#x150;" horiz-adv-x="493" 
d="M141 708l58 91h81l-81 -91h-58zM273 708l58 91h81l-81 -91h-58zM246 -12q-71 0 -111.5 28t-61 102t-20.5 207q0 193 44 265t149 72q72 0 112.5 -28.5t61 -102t20.5 -206.5q0 -132 -21 -205.5t-61.5 -102.5t-111.5 -29zM246 55q68 0 91.5 55t23.5 215t-23.5 215t-91.5 55
q-67 0 -90.5 -55t-23.5 -215t23.5 -215t90.5 -55z" />
    <glyph glyph-name="ohungarumlaut" unicode="&#x151;" horiz-adv-x="432" 
d="M110 558l58 91h81l-81 -91h-58zM242 558l58 91h81l-81 -91h-58zM216 -12q-90 0 -127 55.5t-37 206.5q0 149 38.5 205.5t125.5 56.5q90 0 127 -55.5t37 -206.5q0 -149 -38.5 -205.5t-125.5 -56.5zM216 53q53 0 71.5 41t18.5 156t-18.5 156t-71.5 41q-52 0 -70.5 -40.5
t-18.5 -156.5t18.5 -156.5t70.5 -40.5z" />
    <glyph glyph-name="OE" unicode="&#x152;" horiz-adv-x="683" 
d="M260 0q-119 0 -163 70.5t-44 254.5q0 183 44 254t163 71h370v-65h-214v-218h173v-65h-173v-237h214v-65h-370zM132 325q0 -158 28 -209.5t106 -51.5h74v522h-74q-78 0 -106 -51.5t-28 -209.5z" />
    <glyph glyph-name="oe" unicode="&#x153;" horiz-adv-x="668" 
d="M215 -12q-89 0 -126 55.5t-37 206.5q0 149 38 205.5t125 56.5q97 0 128 -72q16 39 45 55.5t76 16.5q86 0 122.5 -55.5t36.5 -206.5v-21h-243q1 -106 25.5 -141t85.5 -35q30 0 61.5 9.5t46.5 20.5v-68q-13 -9 -45.5 -18t-70.5 -9q-54 0 -87.5 17.5t-51.5 59.5
q-17 -42 -48 -59.5t-81 -17.5zM216 53q53 0 71.5 41t18.5 156t-18.5 156t-71.5 41q-52 0 -70.5 -40.5t-18.5 -156.5t18.5 -156.5t70.5 -40.5zM464 448q-47 0 -64.5 -34t-19.5 -124h168q-2 90 -20 124t-64 34z" />
    <glyph glyph-name="Racute" unicode="&#x154;" horiz-adv-x="476" 
d="M187 708l58 91h91l-84 -91h-65zM79 0v650h136q99 0 152 -43t53 -146q0 -139 -118 -175l140 -286h-86l-127 273h-74v-273h-76zM208 585h-53v-247h53q68 0 100.5 24.5t32.5 98.5t-33 99t-100 25z" />
    <glyph glyph-name="racute" unicode="&#x155;" horiz-adv-x="297" 
d="M122 558l58 91h91l-84 -91h-65zM69 0v500h54l9 -42q62 49 142 49v-73q-79 0 -132 -25v-409h-73z" />
    <glyph glyph-name="Rcommaaccent" unicode="&#x156;" horiz-adv-x="476" 
d="M216 -200q12 36 12 61q0 18 -6 38t-6 28q0 33 35 33q34 0 34 -40q0 -51 -28 -120h-41zM79 0v650h136q99 0 152 -43t53 -146q0 -139 -118 -175l140 -286h-86l-127 273h-74v-273h-76zM208 585h-53v-247h53q68 0 100.5 24.5t32.5 98.5t-33 99t-100 25z" />
    <glyph glyph-name="rcommaaccent" unicode="&#x157;" horiz-adv-x="297" 
d="M71 -200q12 36 12 61q0 18 -6 38t-6 28q0 33 35 33q34 0 34 -40q0 -51 -28 -120h-41zM69 0v500h54l9 -42q62 49 142 49v-73q-79 0 -132 -25v-409h-73z" />
    <glyph glyph-name="Rcaron" unicode="&#x158;" horiz-adv-x="476" 
d="M231 700l-109 59v48l109 -38l109 38v-48zM79 0v650h136q99 0 152 -43t53 -146q0 -139 -118 -175l140 -286h-86l-127 273h-74v-273h-76zM208 585h-53v-247h53q68 0 100.5 24.5t32.5 98.5t-33 99t-100 25z" />
    <glyph glyph-name="rcaron" unicode="&#x159;" horiz-adv-x="297" 
d="M167 550l-109 59v48l109 -38l109 38v-48zM69 0v500h54l9 -42q62 49 142 49v-73q-79 0 -132 -25v-409h-73z" />
    <glyph glyph-name="Sacute" unicode="&#x15a;" horiz-adv-x="377" 
d="M147 708l58 91h91l-84 -91h-65zM154 -12q-74 0 -114 23v71q44 -26 107 -26q112 0 112 96q0 40 -17.5 66t-56.5 60l-52 44q-48 42 -71 79t-23 95q0 77 49 121.5t136 44.5q65 0 99 -21v-71q-39 24 -92 24q-112 0 -112 -96q0 -40 17.5 -66.5t56.5 -59.5l52 -44
q48 -41 71 -78.5t23 -95.5q0 -77 -49 -121.5t-136 -44.5z" />
    <glyph glyph-name="sacute" unicode="&#x15b;" horiz-adv-x="356" 
d="M138 558l58 91h91l-84 -91h-65zM155 -12q-73 0 -111 27v68q50 -30 107 -30q89 0 89 71q0 49 -53 81l-61 36q-81 48 -81 131q0 67 41.5 103.5t112.5 36.5q55 0 95 -20v-68q-36 23 -86 23q-89 0 -89 -71q0 -46 53 -79l62 -38q80 -49 80 -131q0 -67 -40.5 -103.5
t-118.5 -36.5z" />
    <glyph glyph-name="Scircumflex" unicode="&#x15c;" horiz-adv-x="377" 
d="M83 700v49l109 58l109 -58v-49l-109 38zM154 -12q-74 0 -114 23v71q44 -26 107 -26q112 0 112 96q0 40 -17.5 66t-56.5 60l-52 44q-48 42 -71 79t-23 95q0 77 49 121.5t136 44.5q65 0 99 -21v-71q-39 24 -92 24q-112 0 -112 -96q0 -40 17.5 -66.5t56.5 -59.5l52 -44
q48 -41 71 -78.5t23 -95.5q0 -77 -49 -121.5t-136 -44.5z" />
    <glyph glyph-name="scircumflex" unicode="&#x15d;" horiz-adv-x="356" 
d="M74 550v49l109 58l109 -58v-49l-109 38zM155 -12q-73 0 -111 27v68q50 -30 107 -30q89 0 89 71q0 49 -53 81l-61 36q-81 48 -81 131q0 67 41.5 103.5t112.5 36.5q55 0 95 -20v-68q-36 23 -86 23q-89 0 -89 -71q0 -46 53 -79l62 -38q80 -49 80 -131q0 -67 -40.5 -103.5
t-118.5 -36.5z" />
    <glyph glyph-name="Scedilla" unicode="&#x15e;" horiz-adv-x="377" 
d="M163 -153q-32 0 -52 10v45q10 -4 32 -4q32 0 32 26q0 24 -29 64q-71 1 -106 23v71q44 -26 107 -26q112 0 112 96q0 40 -17.5 66t-56.5 60l-52 44q-48 42 -71 79t-23 95q0 77 49 121.5t136 44.5q65 0 99 -21v-71q-39 24 -92 24q-112 0 -112 -96q0 -40 17.5 -66.5
t56.5 -59.5l52 -44q48 -41 71 -78.5t23 -95.5q0 -68 -38 -110.5t-107 -52.5q41 -43 41 -84q0 -29 -19 -44.5t-53 -15.5z" />
    <glyph glyph-name="scedilla" unicode="&#x15f;" horiz-adv-x="356" 
d="M161 -153q-32 0 -52 10v45q10 -4 32 -4q32 0 32 26q0 24 -29 64q-65 3 -100 27v68q50 -30 107 -30q89 0 89 71q0 49 -53 81l-61 36q-81 48 -81 131q0 67 41.5 103.5t112.5 36.5q55 0 95 -20v-68q-36 23 -86 23q-89 0 -89 -71q0 -46 53 -79l62 -38q80 -49 80 -131
q0 -120 -121 -137q40 -44 40 -84q0 -29 -19 -44.5t-53 -15.5z" />
    <glyph glyph-name="Scaron" unicode="&#x160;" horiz-adv-x="377" 
d="M192 700l-109 59v48l109 -38l109 38v-48zM154 -12q-74 0 -114 23v71q44 -26 107 -26q112 0 112 96q0 40 -17.5 66t-56.5 60l-52 44q-48 42 -71 79t-23 95q0 77 49 121.5t136 44.5q65 0 99 -21v-71q-39 24 -92 24q-112 0 -112 -96q0 -40 17.5 -66.5t56.5 -59.5l52 -44
q48 -41 71 -78.5t23 -95.5q0 -77 -49 -121.5t-136 -44.5z" />
    <glyph glyph-name="scaron" unicode="&#x161;" horiz-adv-x="356" 
d="M194 550l-109 59v48l109 -38l109 38v-48zM155 -12q-73 0 -111 27v68q50 -30 107 -30q89 0 89 71q0 49 -53 81l-61 36q-81 48 -81 131q0 67 41.5 103.5t112.5 36.5q55 0 95 -20v-68q-36 23 -86 23q-89 0 -89 -71q0 -46 53 -79l62 -38q80 -49 80 -131q0 -67 -40.5 -103.5
t-118.5 -36.5z" />
    <glyph glyph-name="Tcommaaccent" unicode="&#x162;" horiz-adv-x="374" 
d="M152 -200q12 36 12 61q0 18 -6 38t-6 28q0 33 35 33q34 0 34 -40q0 -51 -28 -120h-41zM7 585v65h360v-65h-142v-585h-76v585h-142z" />
    <glyph glyph-name="tcommaaccent" unicode="&#x163;" horiz-adv-x="293" 
d="M141 -200q12 36 12 61q0 18 -6 38t-6 28q0 33 35 33q34 0 34 -40q0 -51 -28 -120h-41zM18 438v62h71v150h73v-150h101v-62h-101v-316q0 -39 14.5 -51.5t52.5 -12.5h24v-62h-42q-57 0 -89.5 24.5t-32.5 94.5v323h-71z" />
    <glyph glyph-name="Tcaron" unicode="&#x164;" horiz-adv-x="374" 
d="M187 700l-109 59v48l109 -38l109 38v-48zM7 585v65h360v-65h-142v-585h-76v585h-142z" />
    <glyph glyph-name="tcaron" unicode="&#x165;" horiz-adv-x="293" 
d="M219 546q12 36 12 61q0 18 -6 38t-6 28q0 33 35 33q34 0 34 -40q0 -51 -28 -120h-41zM18 438v62h71v150h73v-150h101v-62h-101v-316q0 -39 14.5 -51.5t52.5 -12.5h24v-62h-42q-57 0 -89.5 24.5t-32.5 94.5v323h-71z" />
    <glyph glyph-name="Tbar" unicode="&#x166;" horiz-adv-x="374" 
d="M7 585v65h360v-65h-142v-226h78v-64h-78v-295h-76v295h-78v64h78v226h-142z" />
    <glyph glyph-name="tbar" unicode="&#x167;" horiz-adv-x="303" 
d="M18 438v62h71v150h73v-150h101v-62h-101v-88h79v-60h-79v-168q0 -39 14.5 -51.5t52.5 -12.5h24v-62h-42q-57 0 -89.5 24.5t-32.5 94.5v175h-45v60h45v88h-71z" />
    <glyph glyph-name="Utilde" unicode="&#x168;" horiz-adv-x="516" 
d="M258 -12q-95 0 -139.5 47.5t-44.5 157.5v457h76v-456q0 -77 25.5 -108t82.5 -31t82.5 31t25.5 108v456h76v-457q0 -109 -44.5 -157t-139.5 -48zM303 707q-25 0 -54 17.5t-46 17.5q-29 0 -52 -25v52q23 32 62 32q25 0 54 -18t46 -18q27 0 52 25v-52q-24 -31 -62 -31z" />
    <glyph glyph-name="utilde" unicode="&#x169;" horiz-adv-x="436" 
d="M314 0l-7 26q-44 -38 -104 -38q-139 0 -139 167v345h73v-335q0 -56 17.5 -85t64.5 -29q37 0 75 25v424h73v-500h-53zM261 557q-25 0 -54 17.5t-46 17.5q-29 0 -52 -25v52q23 32 62 32q25 0 54 -18t46 -18q27 0 52 25v-52q-24 -31 -62 -31z" />
    <glyph glyph-name="Umacron" unicode="&#x16a;" horiz-adv-x="516" 
d="M258 -12q-95 0 -139.5 47.5t-44.5 157.5v457h76v-456q0 -77 25.5 -108t82.5 -31t82.5 31t25.5 108v456h76v-457q0 -109 -44.5 -157t-139.5 -48zM143 723v59h229v-59h-229z" />
    <glyph glyph-name="umacron" unicode="&#x16b;" horiz-adv-x="436" 
d="M314 0l-7 26q-44 -38 -104 -38q-139 0 -139 167v345h73v-335q0 -56 17.5 -85t64.5 -29q37 0 75 25v424h73v-500h-53zM101 573v59h229v-59h-229z" />
    <glyph glyph-name="Ubreve" unicode="&#x16c;" horiz-adv-x="516" 
d="M258 -12q-95 0 -139.5 47.5t-44.5 157.5v457h76v-456q0 -77 25.5 -108t82.5 -31t82.5 31t25.5 108v456h76v-457q0 -109 -44.5 -157t-139.5 -48zM258 705q-46 0 -77 23t-39 43l25 38q34 -42 91 -42t91 42l24 -38q-8 -20 -39 -43t-76 -23z" />
    <glyph glyph-name="ubreve" unicode="&#x16d;" horiz-adv-x="436" 
d="M314 0l-7 26q-44 -38 -104 -38q-139 0 -139 167v345h73v-335q0 -56 17.5 -85t64.5 -29q37 0 75 25v424h73v-500h-53zM216 555q-46 0 -77 23t-39 43l25 38q34 -42 91 -42t91 42l24 -38q-8 -20 -39 -43t-76 -23z" />
    <glyph glyph-name="Uring" unicode="&#x16e;" horiz-adv-x="516" 
d="M257 666q-43 0 -70 25.5t-27 70.5q0 43 27.5 69t69.5 26q43 0 70 -25.5t27 -69.5t-27.5 -70t-69.5 -26zM257 712q21 0 35 13t14 37t-14 37t-35 13t-35 -13t-14 -37t14 -37t35 -13zM258 -12q-95 0 -139.5 47.5t-44.5 157.5v457h76v-456q0 -77 25.5 -108t82.5 -31t82.5 31
t25.5 108v456h76v-457q0 -109 -44.5 -157t-139.5 -48z" />
    <glyph glyph-name="uring" unicode="&#x16f;" horiz-adv-x="436" 
d="M215 541q-43 0 -70 25.5t-27 70.5q0 43 27.5 69t69.5 26q43 0 70 -25.5t27 -69.5t-27.5 -70t-69.5 -26zM215 587q21 0 35 13t14 37t-14 37t-35 13t-35 -13t-14 -37t14 -37t35 -13zM314 0l-7 26q-44 -38 -104 -38q-139 0 -139 167v345h73v-335q0 -56 17.5 -85t64.5 -29
q37 0 75 25v424h73v-500h-53z" />
    <glyph glyph-name="Uhungarumlaut" unicode="&#x170;" horiz-adv-x="516" 
d="M258 -12q-95 0 -139.5 47.5t-44.5 157.5v457h76v-456q0 -77 25.5 -108t82.5 -31t82.5 31t25.5 108v456h76v-457q0 -109 -44.5 -157t-139.5 -48zM152 708l58 91h81l-81 -91h-58zM284 708l58 91h81l-81 -91h-58z" />
    <glyph glyph-name="uhungarumlaut" unicode="&#x171;" horiz-adv-x="436" 
d="M314 0l-7 26q-44 -38 -104 -38q-139 0 -139 167v345h73v-335q0 -56 17.5 -85t64.5 -29q37 0 75 25v424h73v-500h-53zM110 558l58 91h81l-81 -91h-58zM242 558l58 91h81l-81 -91h-58z" />
    <glyph glyph-name="Uogonek" unicode="&#x172;" horiz-adv-x="516" 
d="M257 -153q-31 0 -50.5 13t-19.5 39q0 45 54 90q-87 4 -127 51.5t-40 152.5v457h76v-456q0 -77 25.5 -108t82.5 -31t82.5 31t25.5 108v456h76v-457q0 -96 -35 -144.5t-107 -57.5q-53 -45 -53 -73q0 -20 32 -20q22 0 32 4v-45q-20 -10 -54 -10z" />
    <glyph glyph-name="uogonek" unicode="&#x173;" horiz-adv-x="436" 
d="M313 -153q-31 0 -51 13t-20 39q0 51 71 105l-6 22q-44 -38 -104 -38q-139 0 -139 167v345h73v-335q0 -56 17.5 -85t64.5 -29q37 0 75 25v424h73v-500q-19 -13 -41.5 -38t-22.5 -43q0 -21 31 -21q21 0 33 4v-45q-20 -10 -54 -10z" />
    <glyph glyph-name="Wcircumflex" unicode="&#x174;" horiz-adv-x="626" 
d="M203 700v49l109 58l109 -58v-49l-109 38zM148 0l-124 650h76l56 -315q17 -97 31 -252q12 131 33 252l55 315h78l56 -315q17 -97 31 -252q13 143 32 252l56 315h74l-124 -650h-79l-55 315q-20 120 -31 236q-11 -116 -31 -236l-55 -315h-79z" />
    <glyph glyph-name="wcircumflex" unicode="&#x175;" horiz-adv-x="609" 
d="M195 550v49l109 58l109 -58v-49l-109 38zM142 0l-114 500h73l58 -277q13 -67 22 -150q12 98 24 150l61 277h79l61 -277q14 -65 23 -150q9 85 23 150l58 277h71l-114 -500h-78l-61 277q-13 57 -24 146q-8 -82 -23 -146l-62 -277h-77z" />
    <glyph glyph-name="Ycircumflex" unicode="&#x176;" horiz-adv-x="427" 
d="M175 0v273l-179 377h84l81 -180q39 -90 53 -135q18 59 53 135l82 180h82l-179 -377v-273h-77zM104 700v49l109 58l109 -58v-49l-109 38z" />
    <glyph glyph-name="ycircumflex" unicode="&#x177;" horiz-adv-x="385" 
d="M112 -150l43 152l-137 498h75l73 -284q19 -79 27 -137q9 66 28 137l73 284h73l-180 -650h-75zM83 550v49l109 58l109 -58v-49l-109 38z" />
    <glyph glyph-name="Ydieresis" unicode="&#x178;" horiz-adv-x="427" 
d="M175 0v273l-179 377h84l81 -180q39 -90 53 -135q18 59 53 135l82 180h82l-179 -377v-273h-77zM132 707q-21 0 -32.5 12t-11.5 32q0 45 44 45q21 0 33 -12t12 -33q0 -20 -12 -32t-33 -12zM294 707q-21 0 -32.5 12t-11.5 32q0 45 44 45q21 0 33 -12t12 -33q0 -20 -12 -32
t-33 -12z" />
    <glyph glyph-name="Zacute" unicode="&#x179;" horiz-adv-x="397" 
d="M153 708l58 91h91l-84 -91h-65zM40 0v54l227 531h-222v65h306v-55l-227 -530h233v-65h-317z" />
    <glyph glyph-name="zacute" unicode="&#x17a;" horiz-adv-x="369" 
d="M147 558l58 91h91l-84 -91h-65zM44 0v47l197 391h-192v62h277v-47l-198 -391h202v-62h-286z" />
    <glyph glyph-name="Zdotaccent" unicode="&#x17b;" horiz-adv-x="397" 
d="M40 0v54l227 531h-222v65h306v-55l-227 -530h233v-65h-317zM197 707q-44 0 -44 44q0 45 44 45q45 0 45 -45q0 -44 -45 -44z" />
    <glyph glyph-name="zdotaccent" unicode="&#x17c;" horiz-adv-x="369" 
d="M44 0v47l197 391h-192v62h277v-47l-198 -391h202v-62h-286zM192 557q-44 0 -44 44q0 45 44 45q45 0 45 -45q0 -44 -45 -44z" />
    <glyph glyph-name="Zcaron" unicode="&#x17d;" horiz-adv-x="397" 
d="M197 700l-109 59v48l109 -38l109 38v-48zM40 0v54l227 531h-222v65h306v-55l-227 -530h233v-65h-317z" />
    <glyph glyph-name="zcaron" unicode="&#x17e;" horiz-adv-x="369" 
d="M192 550l-109 59v48l109 -38l109 38v-48zM44 0v47l197 391h-192v62h277v-47l-198 -391h202v-62h-286z" />
    <glyph glyph-name="florin" unicode="&#x192;" horiz-adv-x="401" 
d="M6 298v64h114v89q0 211 170 211q56 0 88 -18v-68q-29 20 -78 20q-62 0 -83.5 -37t-21.5 -119v-78h156v-64h-156v-448h-75v448h-114z" />
    <glyph glyph-name="AEacute" unicode="&#x1fc;" horiz-adv-x="613" 
d="M310 708l58 91h91l-84 -91h-65zM286 0v153h-163l-40 -153h-78l176 650h380v-65h-199v-218h158v-65h-158v-237h199v-65h-275zM236 585l-96 -366h146v366h-50z" />
    <glyph glyph-name="aeacute" unicode="&#x1fd;" horiz-adv-x="641" 
d="M278 547l58 91h91l-84 -91h-65zM180 -12q-73 0 -103.5 41.5t-30.5 119.5t31 119.5t103 41.5q55 0 101 -33v49q0 64 -22 92.5t-79 28.5q-63 0 -111 -32v68q43 29 119 29q96 0 133 -58q38 58 116 58q86 0 122.5 -55.5t36.5 -206.5v-21h-243q1 -106 25.5 -141t85.5 -35
q30 0 61.5 9.5t46.5 20.5v-68q-13 -9 -45.5 -18t-70.5 -9q-95 0 -135 56q-61 -56 -141 -56zM297 91q-16 48 -19 130q-38 28 -83 28q-42 0 -58.5 -23.5t-16.5 -76.5t16.5 -76.5t58.5 -23.5q55 0 102 42zM437 448q-47 0 -64.5 -34t-19.5 -124h168q-2 90 -20 124t-64 34z" />
    <glyph glyph-name="Oslashacute" unicode="&#x1fe;" horiz-adv-x="493" 
d="M201 708l58 91h91l-84 -91h-65zM246 -12q-77 0 -118 33l-34 -71h-61l58 119q-38 75 -38 256q0 193 44 265t149 72q78 0 118 -33l35 71h61l-58 -119q38 -76 38 -256q0 -132 -21 -205.5t-61.5 -102.5t-111.5 -29zM132 325q0 -119 6 -158l191 389q-24 39 -83 39
q-67 0 -90.5 -55t-23.5 -215zM246 55q68 0 91.5 55t23.5 215q0 112 -7 158l-190 -390q23 -38 82 -38z" />
    <glyph glyph-name="oslashacute" unicode="&#x1ff;" horiz-adv-x="432" 
d="M171 558l58 91h91l-84 -91h-65zM216 -12q-57 0 -93 21l-30 -59h-61l52 102q-32 58 -32 198q0 149 38.5 205.5t125.5 56.5q57 0 92 -22l31 60h61l-52 -102q32 -60 32 -198q0 -149 -38.5 -205.5t-125.5 -56.5zM216 53q53 0 71.5 41t18.5 156q0 73 -5 107l-145 -285
q21 -19 60 -19zM127 250q0 -79 4 -106l145 283q-22 20 -60 20q-52 0 -70.5 -40.5t-18.5 -156.5z" />
    <glyph glyph-name="Scommaaccent" unicode="&#x218;" horiz-adv-x="377" 
d="M136 -200q12 36 12 61q0 18 -6 38t-6 28q0 33 35 33q34 0 34 -40q0 -51 -28 -120h-41zM154 -12q-74 0 -114 23v71q44 -26 107 -26q112 0 112 96q0 40 -17.5 66t-56.5 60l-52 44q-48 42 -71 79t-23 95q0 77 49 121.5t136 44.5q65 0 99 -21v-71q-39 24 -92 24
q-112 0 -112 -96q0 -40 17.5 -66.5t56.5 -59.5l52 -44q48 -41 71 -78.5t23 -95.5q0 -77 -49 -121.5t-136 -44.5z" />
    <glyph glyph-name="scommaaccent" unicode="&#x219;" horiz-adv-x="356" 
d="M134 -200q12 36 12 61q0 18 -6 38t-6 28q0 33 35 33q34 0 34 -40q0 -51 -28 -120h-41zM155 -12q-73 0 -111 27v68q50 -30 107 -30q89 0 89 71q0 49 -53 81l-61 36q-81 48 -81 131q0 67 41.5 103.5t112.5 36.5q55 0 95 -20v-68q-36 23 -86 23q-89 0 -89 -71q0 -46 53 -79
l62 -38q80 -49 80 -131q0 -67 -40.5 -103.5t-118.5 -36.5z" />
    <glyph glyph-name="uni021A" unicode="&#x21a;" horiz-adv-x="374" 
d="M152 -200q12 36 12 61q0 18 -6 38t-6 28q0 33 35 33q34 0 34 -40q0 -51 -28 -120h-41zM7 585v65h360v-65h-142v-585h-76v585h-142z" />
    <glyph glyph-name="uni021B" unicode="&#x21b;" horiz-adv-x="293" 
d="M141 -200q12 36 12 61q0 18 -6 38t-6 28q0 33 35 33q34 0 34 -40q0 -51 -28 -120h-41zM18 438v62h71v150h73v-150h101v-62h-101v-316q0 -39 14.5 -51.5t52.5 -12.5h24v-62h-42q-57 0 -89.5 24.5t-32.5 94.5v323h-71z" />
    <glyph glyph-name="dotlessj" unicode="&#x237;" horiz-adv-x="212" 
d="M-8 -150v62h22q33 0 44 12.5t11 43.5v532h73v-545q0 -60 -29 -82.5t-82 -22.5h-39z" />
    <glyph glyph-name="circumflex" unicode="&#x2c6;" horiz-adv-x="330" 
d="M56 550v49l109 58l109 -58v-49l-109 38z" />
    <glyph glyph-name="caron" unicode="&#x2c7;" horiz-adv-x="330" 
d="M165 550l-109 59v48l109 -38l109 38v-48z" />
    <glyph glyph-name="breve" unicode="&#x2d8;" horiz-adv-x="343" 
d="M172 555q-46 0 -77 23t-39 43l25 38q34 -42 91 -42t91 42l24 -38q-8 -20 -39 -43t-76 -23z" />
    <glyph glyph-name="dotaccent" unicode="&#x2d9;" horiz-adv-x="200" 
d="M100 557q-44 0 -44 44q0 45 44 45q45 0 45 -45q0 -44 -45 -44z" />
    <glyph glyph-name="ring" unicode="&#x2da;" horiz-adv-x="306" 
d="M153 541q-43 0 -70 25.5t-27 70.5q0 43 27.5 69t69.5 26q43 0 70 -25.5t27 -69.5t-27.5 -70t-69.5 -26zM153 587q21 0 35 13t14 37t-14 37t-35 13t-35 -13t-14 -37t14 -37t35 -13z" />
    <glyph glyph-name="ogonek" unicode="&#x2db;" horiz-adv-x="236" 
d="M126 -153q-31 0 -50.5 13t-19.5 39q0 29 25.5 60t45.5 41h53q-64 -51 -64 -82q0 -20 32 -20q22 0 32 4v-45q-20 -10 -54 -10z" />
    <glyph glyph-name="tilde" unicode="&#x2dc;" horiz-adv-x="326" 
d="M208 557q-25 0 -54 17.5t-46 17.5q-29 0 -52 -25v52q23 32 62 32q25 0 54 -18t46 -18q27 0 52 25v-52q-24 -31 -62 -31z" />
    <glyph glyph-name="hungarumlaut" unicode="&#x2dd;" horiz-adv-x="383" 
d="M56 558l58 91h81l-81 -91h-58zM188 558l58 91h81l-81 -91h-58z" />
    <glyph glyph-name="commatop" unicode="&#x312;" horiz-adv-x="181" 
d="M90 555q-34 0 -34 40q0 52 28 120h41q-12 -35 -12 -61q0 -18 6 -37.5t6 -27.5q0 -34 -35 -34z" />
    <glyph glyph-name="commaaccent" unicode="&#x326;" horiz-adv-x="181" 
d="M56 -200q12 36 12 61q0 18 -6 38t-6 28q0 33 35 33q34 0 34 -40q0 -51 -28 -120h-41z" />
    <glyph glyph-name="uni0394" unicode="&#x394;" horiz-adv-x="442" 
d="M4 0l178 650h78l179 -650h-435zM169 339l-74 -275h250l-73 275q-42 159 -52 223q-12 -83 -51 -223z" />
    <glyph glyph-name="uni03A9" unicode="&#x3a9;" horiz-adv-x="496" 
d="M25 0v65h105q-32 49 -54 125.5t-22 156.5q0 177 45.5 246t148.5 69q70 0 111 -27.5t62 -96.5t21 -191q0 -79 -22 -155.5t-54 -126.5h105v-65h-188v54q35 52 57 131.5t22 153.5q0 148 -24 202t-90 54q-65 0 -89.5 -54.5t-24.5 -201.5q0 -73 22 -152.5t57 -132.5v-54h-188z
" />
    <glyph glyph-name="uni03BC" unicode="&#x3bc;" horiz-adv-x="440" 
d="M318 0l-7 26q-44 -38 -101 -38q-45 0 -75 20q6 -40 6 -63v-95h-72v650h72v-335q0 -56 17.5 -85t65.5 -29q41 0 74 25v424h73v-500h-53z" />
    <glyph glyph-name="pi" unicode="&#x3c0;" horiz-adv-x="436" 
d="M293 0v438h-151v-438h-73v500h297v-500h-73z" />
    <glyph glyph-name="Wgrave" unicode="&#x1e80;" horiz-adv-x="626" 
d="M148 0l-124 650h76l56 -315q17 -97 31 -252q12 131 33 252l55 315h78l56 -315q17 -97 31 -252q13 143 32 252l56 315h74l-124 -650h-79l-55 315q-20 120 -31 236q-11 -116 -31 -236l-55 -315h-79zM293 708l-84 91h91l58 -91h-65z" />
    <glyph glyph-name="wgrave" unicode="&#x1e81;" horiz-adv-x="609" 
d="M142 0l-114 500h73l58 -277q13 -67 22 -150q12 98 24 150l61 277h79l61 -277q14 -65 23 -150q9 85 23 150l58 277h71l-114 -500h-78l-61 277q-13 57 -24 146q-8 -82 -23 -146l-62 -277h-77zM284 558l-84 91h91l58 -91h-65z" />
    <glyph glyph-name="Wacute" unicode="&#x1e82;" horiz-adv-x="626" 
d="M267 708l58 91h91l-84 -91h-65zM148 0l-124 650h76l56 -315q17 -97 31 -252q12 131 33 252l55 315h78l56 -315q17 -97 31 -252q13 143 32 252l56 315h74l-124 -650h-79l-55 315q-20 120 -31 236q-11 -116 -31 -236l-55 -315h-79z" />
    <glyph glyph-name="wacute" unicode="&#x1e83;" horiz-adv-x="609" 
d="M259 558l58 91h91l-84 -91h-65zM142 0l-114 500h73l58 -277q13 -67 22 -150q12 98 24 150l61 277h79l61 -277q14 -65 23 -150q9 85 23 150l58 277h71l-114 -500h-78l-61 277q-13 57 -24 146q-8 -82 -23 -146l-62 -277h-77z" />
    <glyph glyph-name="Wdieresis" unicode="&#x1e84;" horiz-adv-x="626" 
d="M231 707q-21 0 -32.5 12t-11.5 32q0 45 44 45q21 0 33 -12t12 -33q0 -20 -12 -32t-33 -12zM393 707q-21 0 -32.5 12t-11.5 32q0 45 44 45q21 0 33 -12t12 -33q0 -20 -12 -32t-33 -12zM148 0l-124 650h76l56 -315q17 -97 31 -252q12 131 33 252l55 315h78l56 -315
q17 -97 31 -252q13 143 32 252l56 315h74l-124 -650h-79l-55 315q-20 120 -31 236q-11 -116 -31 -236l-55 -315h-79z" />
    <glyph glyph-name="wdieresis" unicode="&#x1e85;" horiz-adv-x="609" 
d="M223 557q-21 0 -32.5 12t-11.5 32q0 45 44 45q21 0 33 -12t12 -33q0 -20 -12 -32t-33 -12zM385 557q-21 0 -32.5 12t-11.5 32q0 45 44 45q21 0 33 -12t12 -33q0 -20 -12 -32t-33 -12zM142 0l-114 500h73l58 -277q13 -67 22 -150q12 98 24 150l61 277h79l61 -277
q14 -65 23 -150q9 85 23 150l58 277h71l-114 -500h-78l-61 277q-13 57 -24 146q-8 -82 -23 -146l-62 -277h-77z" />
    <glyph glyph-name="Ygrave" unicode="&#x1ef2;" horiz-adv-x="427" 
d="M175 0v273l-179 377h84l81 -180q39 -90 53 -135q18 59 53 135l82 180h82l-179 -377v-273h-77zM193 708l-84 91h91l58 -91h-65z" />
    <glyph glyph-name="ygrave" unicode="&#x1ef3;" horiz-adv-x="385" 
d="M112 -150l43 152l-137 498h75l73 -284q19 -79 27 -137q9 66 28 137l73 284h73l-180 -650h-75zM173 558l-84 91h91l58 -91h-65z" />
    <glyph glyph-name="endash" unicode="&#x2013;" horiz-adv-x="444" 
d="M45 219v64h354v-64h-354z" />
    <glyph glyph-name="emdash" unicode="&#x2014;" horiz-adv-x="804" 
d="M45 219v64h714v-64h-714z" />
    <glyph glyph-name="quoteleft" unicode="&#x2018;" horiz-adv-x="179" 
d="M90 425q-47 0 -47 52q0 72 38 173h55q-15 -57 -15 -86q0 -24 7.5 -53t7.5 -40q0 -22 -12.5 -34t-33.5 -12z" />
    <glyph glyph-name="quoteright" unicode="&#x2019;" horiz-adv-x="179" 
d="M43 435q15 49 15 86q0 23 -7.5 52.5t-7.5 39.5q0 22 12.5 34.5t34.5 12.5q46 0 46 -52q0 -72 -38 -173h-55z" />
    <glyph glyph-name="quotesinglbase" unicode="&#x201a;" horiz-adv-x="159" 
d="M33 -142q15 50 15 86q0 23 -7.5 52.5t-7.5 39.5q0 22 12.5 34.5t34.5 12.5q46 0 46 -52q0 -72 -38 -173h-55z" />
    <glyph glyph-name="quotedblleft" unicode="&#x201c;" horiz-adv-x="320" 
d="M90 425q-47 0 -47 52q0 72 38 173h55q-15 -57 -15 -86q0 -24 7.5 -53t7.5 -40q0 -22 -12.5 -34t-33.5 -12zM231 425q-47 0 -47 52q0 72 38 173h55q-15 -57 -15 -86q0 -24 7.5 -53t7.5 -40q0 -22 -12.5 -34t-33.5 -12z" />
    <glyph glyph-name="quotedblright" unicode="&#x201d;" horiz-adv-x="320" 
d="M43 435q15 49 15 86q0 23 -7.5 52.5t-7.5 39.5q0 22 12.5 34.5t34.5 12.5q46 0 46 -52q0 -72 -38 -173h-55zM184 435q15 49 15 86q0 23 -7.5 52.5t-7.5 39.5q0 22 12.5 34.5t34.5 12.5q46 0 46 -52q0 -72 -38 -173h-55z" />
    <glyph glyph-name="quotedblbase" unicode="&#x201e;" horiz-adv-x="303" 
d="M33 -142q15 50 15 86q0 23 -7.5 52.5t-7.5 39.5q0 22 12.5 34.5t34.5 12.5q46 0 46 -52q0 -72 -38 -173h-55zM176 -142q15 50 15 86q0 23 -7.5 52.5t-7.5 39.5q0 22 12.5 34.5t34.5 12.5q46 0 46 -52q0 -72 -38 -173h-55z" />
    <glyph glyph-name="dagger" unicode="&#x2020;" horiz-adv-x="276" 
d="M109 313v206h-79v52h79v79h58v-79h79v-52h-79v-206h-58z" />
    <glyph glyph-name="daggerdbl" unicode="&#x2021;" horiz-adv-x="306" 
d="M124 165v206h-79v52h79v96h-79v52h79v79h58v-79h79v-52h-79v-96h79v-52h-79v-206h-58z" />
    <glyph glyph-name="bullet" unicode="&#x2022;" horiz-adv-x="262" 
d="M131 228q-45 0 -71 25.5t-26 71.5t26 71.5t71 25.5t71 -25.5t26 -71.5t-26 -71.5t-71 -25.5z" />
    <glyph glyph-name="ellipsis" unicode="&#x2026;" horiz-adv-x="447" 
d="M75 -10q-22 0 -34.5 12.5t-12.5 33.5q0 22 12.5 34.5t34.5 12.5t34 -12.5t12 -34.5q0 -21 -12 -33.5t-34 -12.5zM224 -10q-22 0 -34.5 12.5t-12.5 33.5q0 22 12.5 34.5t34.5 12.5t34 -12.5t12 -34.5q0 -21 -12 -33.5t-34 -12.5zM373 -10q-22 0 -34.5 12.5t-12.5 33.5
q0 22 12.5 34.5t34.5 12.5t34 -12.5t12 -34.5q0 -21 -12 -33.5t-34 -12.5z" />
    <glyph glyph-name="perthousand" unicode="&#x2030;" horiz-adv-x="816" 
d="M664 -12q-59 0 -86.5 35t-27.5 110q0 145 114 145q59 0 86.5 -35t27.5 -110q0 -145 -114 -145zM664 42q30 0 41.5 21t11.5 70t-11.5 70t-41.5 21q-31 0 -42.5 -21.5t-11.5 -69.5q0 -49 11.5 -70t42.5 -21zM152 372q-59 0 -86.5 35t-27.5 110q0 145 114 145q59 0 86.5 -35
t27.5 -110q0 -145 -114 -145zM152 426q31 0 42.5 21.5t11.5 69.5q0 49 -11.5 70t-42.5 21q-30 0 -41.5 -21t-11.5 -70t11.5 -70t41.5 -21zM395 -12q-59 0 -86.5 35t-27.5 110q0 145 114 145q59 0 86.5 -35t27.5 -110q0 -145 -114 -145zM395 42q31 0 42.5 21t11.5 70
q0 48 -11.5 69.5t-42.5 21.5q-30 0 -41.5 -21t-11.5 -70t11.5 -70t41.5 -21zM47 0l388 650h65l-388 -650h-65z" />
    <glyph glyph-name="guilsinglleft" unicode="&#x2039;" horiz-adv-x="210" 
d="M115 136l-93 164l93 164h63l-83 -164l83 -164h-63z" />
    <glyph glyph-name="guilsinglright" unicode="&#x203a;" horiz-adv-x="210" 
d="M32 136l83 164l-83 164h62l94 -164l-94 -164h-62z" />
    <glyph glyph-name="fraction" unicode="&#x2044;" horiz-adv-x="184" 
d="M-134 0l387 650h65l-387 -650h-65z" />
    <glyph glyph-name="uni2070" unicode="&#x2070;" 
d="M176 230q-76 0 -107.5 45t-31.5 169q0 123 32 168.5t107 45.5q77 0 108.5 -45t31.5 -169q0 -123 -32 -168.5t-108 -45.5zM176 287q43 0 57.5 31.5t14.5 125.5t-14.5 125.5t-57.5 31.5q-42 0 -56.5 -31.5t-14.5 -125.5t14.5 -125.5t56.5 -31.5z" />
    <glyph glyph-name="uni2074" unicode="&#x2074;" 
d="M32 324v44l170 282h72l-167 -272h108v86h65v-86h51v-54h-51v-87h-65v87h-183z" />
    <glyph glyph-name="uni2075" unicode="&#x2075;" 
d="M144 230q-59 0 -91 18v62q37 -22 87 -22q91 0 91 64q0 48 -43 68.5t-120 24.5l12 205h203v-56h-145l-5 -100q78 -8 121 -45t43 -99q0 -57 -40.5 -88.5t-112.5 -31.5z" />
    <glyph glyph-name="uni2076" unicode="&#x2076;" 
d="M178 230q-79 0 -108 53t-29 163q0 212 164 212q52 0 82 -17v-60q-38 20 -78 20q-97 0 -101 -122q34 23 83 23q122 0 122 -132q0 -58 -30 -99t-105 -41zM175 450q-34 0 -67 -21q1 -76 16 -110t54 -34q68 0 68 83q0 39 -15.5 60.5t-55.5 21.5z" />
    <glyph glyph-name="uni2077" unicode="&#x2077;" 
d="M88 237l139 357h-172v56h244v-43l-141 -370h-70z" />
    <glyph glyph-name="uni2078" unicode="&#x2078;" 
d="M176 230q-65 0 -102.5 24.5t-37.5 74.5q0 40 22.5 66t65.5 52q-78 48 -78 110q0 49 36 75t94 26q60 0 95.5 -26t35.5 -75q0 -62 -78 -110q43 -26 65.5 -52t22.5 -66q0 -50 -38.5 -74.5t-102.5 -24.5zM176 285q76 0 76 52q0 46 -76 81q-75 -36 -75 -81q0 -52 75 -52z
M176 476q67 35 67 78q0 49 -67 49q-66 0 -66 -49q0 -43 66 -78z" />
    <glyph glyph-name="uni2079" unicode="&#x2079;" 
d="M148 230q-49 0 -83 17v60q38 -20 79 -20q100 0 101 130q-35 -24 -83 -24q-64 0 -93.5 35.5t-29.5 94.5q0 56 31.5 95.5t103.5 39.5q80 0 108.5 -53t28.5 -163q0 -212 -163 -212zM177 447q39 0 68 20q-2 71 -17.5 103.5t-53.5 32.5q-68 0 -68 -79q0 -77 71 -77z" />
    <glyph glyph-name="uni2080" unicode="&#x2080;" 
d="M176 -7q-76 0 -107.5 45t-31.5 169q0 123 32 168.5t107 45.5q77 0 108.5 -45t31.5 -169q0 -123 -32 -168.5t-108 -45.5zM176 50q43 0 57.5 31.5t14.5 125.5t-14.5 125.5t-57.5 31.5q-42 0 -56.5 -31.5t-14.5 -125.5t14.5 -125.5t56.5 -31.5z" />
    <glyph glyph-name="uni2081" unicode="&#x2081;" 
d="M79 0v56h73v289l-73 -21v58l97 31h41v-357h73v-56h-211z" />
    <glyph glyph-name="uni2082" unicode="&#x2082;" 
d="M56 0v41q0 63 21.5 96.5t64.5 56.5q32 17 46 26.5t26.5 28.5t12.5 46q0 34 -17.5 50.5t-57.5 16.5q-42 0 -82 -19v60q36 18 87 18q72 0 104.5 -34.5t32.5 -89.5q0 -31 -8.5 -54.5t-27 -42t-34.5 -29t-44 -25.5q-31 -17 -44 -36t-14 -54h175v-56h-241z" />
    <glyph glyph-name="uni2083" unicode="&#x2083;" 
d="M146 -7q-59 0 -91 18v62q37 -22 87 -22q90 0 90 66q0 80 -133 84v39l104 117h-147v56h233v-44l-113 -126q56 -9 89.5 -43t33.5 -84q0 -58 -40 -90.5t-113 -32.5z" />
    <glyph glyph-name="uni2084" unicode="&#x2084;" 
d="M32 87v44l170 282h72l-167 -272h108v86h65v-86h51v-54h-51v-87h-65v87h-183z" />
    <glyph glyph-name="uni2085" unicode="&#x2085;" 
d="M144 -7q-59 0 -91 18v62q37 -22 87 -22q91 0 91 64q0 48 -43 68.5t-120 24.5l12 205h203v-56h-145l-5 -100q78 -8 121 -45t43 -99q0 -57 -40.5 -88.5t-112.5 -31.5z" />
    <glyph glyph-name="uni2086" unicode="&#x2086;" 
d="M178 -7q-79 0 -108 53t-29 163q0 212 164 212q52 0 82 -17v-60q-38 20 -78 20q-97 0 -101 -122q34 23 83 23q122 0 122 -132q0 -58 -30 -99t-105 -41zM175 213q-34 0 -67 -21q1 -76 16 -110t54 -34q68 0 68 83q0 39 -15.5 60.5t-55.5 21.5z" />
    <glyph glyph-name="uni2087" unicode="&#x2087;" 
d="M88 0l139 357h-172v56h244v-43l-141 -370h-70z" />
    <glyph glyph-name="uni2088" unicode="&#x2088;" 
d="M176 -7q-65 0 -102.5 24.5t-37.5 74.5q0 40 22.5 66t65.5 52q-78 48 -78 110q0 49 36 75t94 26q60 0 95.5 -26t35.5 -75q0 -62 -78 -110q43 -26 65.5 -52t22.5 -66q0 -50 -38.5 -74.5t-102.5 -24.5zM176 48q76 0 76 52q0 46 -76 81q-75 -36 -75 -81q0 -52 75 -52z
M176 239q67 35 67 78q0 49 -67 49q-66 0 -66 -49q0 -43 66 -78z" />
    <glyph glyph-name="uni2089" unicode="&#x2089;" 
d="M148 -7q-49 0 -83 17v60q38 -20 79 -20q100 0 101 130q-35 -24 -83 -24q-64 0 -93.5 35.5t-29.5 94.5q0 56 31.5 95.5t103.5 39.5q80 0 108.5 -53t28.5 -163q0 -212 -163 -212zM177 210q39 0 68 20q-2 71 -17.5 103.5t-53.5 32.5q-68 0 -68 -79q0 -77 71 -77z" />
    <glyph glyph-name="Euro" unicode="&#x20ac;" horiz-adv-x="470" 
d="M181 280h194v-61h-192q7 -89 40.5 -126t99.5 -37q61 0 113 27v-71q-15 -9 -51 -16.5t-66 -7.5q-104 0 -155.5 56t-59.5 175h-74v61h72v90h-72v61h74q8 119 59.5 175t155.5 56q30 0 66 -7.5t51 -16.5v-71q-52 27 -113 27q-66 0 -99.5 -37t-40.5 -126h192v-61h-194v-90z
" />
    <glyph glyph-name="trademark" unicode="&#x2122;" horiz-adv-x="508" 
d="M244 371v279h64l46 -134l46 134h63v-279h-54v100q0 43 5 86l-41 -114h-39l-41 114q5 -43 5 -86v-100h-54zM5 600v50h197v-50h-70v-229h-57v229h-70z" />
    <glyph glyph-name="Omega" unicode="&#x2126;" horiz-adv-x="496" 
d="M25 0v65h105q-32 49 -54 125.5t-22 156.5q0 177 45.5 246t148.5 69q70 0 111 -27.5t62 -96.5t21 -191q0 -79 -22 -155.5t-54 -126.5h105v-65h-188v54q35 52 57 131.5t22 153.5q0 148 -24 202t-90 54q-65 0 -89.5 -54.5t-24.5 -201.5q0 -73 22 -152.5t57 -132.5v-54h-188z
" />
    <glyph glyph-name="uni2190" unicode="&#x2190;" horiz-adv-x="700" 
d="M282 72l-253 253l253 253l49 -48l-177 -176q24 6 35 6h481v-70h-481q-17 0 -35 6l177 -176z" />
    <glyph glyph-name="uni2191" unicode="&#x2191;" horiz-adv-x="700" 
d="M144 360l-48 49l253 253l254 -253l-49 -49l-176 176q6 -18 6 -34v-502h-70v502q0 17 6 35z" />
    <glyph glyph-name="uni2192" unicode="&#x2192;" horiz-adv-x="700" 
d="M416 72l-48 48l176 176q-18 -6 -34 -6h-481v70h481q10 0 34 -6l-176 176l48 48l254 -253z" />
    <glyph glyph-name="uni2193" unicode="&#x2193;" horiz-adv-x="700" 
d="M349 -12l-253 253l48 49l176 -177q-6 18 -6 35v502h70v-502q0 -17 -6 -35l176 177l49 -49z" />
    <glyph glyph-name="uni2196" unicode="&#x2196;" horiz-adv-x="700" 
d="M111 200v359h359v-69h-249q16 -10 28 -20l340 -340l-49 -49l-340 340q-9 8 -20 28v-249h-69z" />
    <glyph glyph-name="uni2197" unicode="&#x2197;" horiz-adv-x="700" 
d="M521 200v249q-10 -18 -20 -28l-340 -340l-50 49l340 340q10 10 28 20h-248v69h358v-359h-68z" />
    <glyph glyph-name="uni2198" unicode="&#x2198;" horiz-adv-x="700" 
d="M231 81v68h248q-20 11 -28 20l-340 340l50 50l340 -340q11 -13 20 -29v249h68v-358h-358z" />
    <glyph glyph-name="uni2199" unicode="&#x2199;" horiz-adv-x="700" 
d="M111 81v358h69v-248q12 20 20 28l340 340l49 -50l-340 -340q-9 -9 -29 -20h250v-68h-359z" />
    <glyph glyph-name="partialdiff" unicode="&#x2202;" horiz-adv-x="433" 
d="M215 -12q-163 0 -163 214q0 98 38 153t111 55q58 0 105 -26q-3 106 -35 159.5t-101 53.5q-52 0 -92 -24v67q37 22 100 22q109 0 156 -80.5t47 -258.5q0 -193 -35 -264t-131 -71zM215 53q53 0 72.5 48t19.5 171v50q-44 22 -90 22q-52 0 -71.5 -35t-19.5 -107t19.5 -110.5
t69.5 -38.5z" />
    <glyph glyph-name="Delta" unicode="&#x2206;" horiz-adv-x="442" 
d="M4 0l178 650h78l179 -650h-435zM169 339l-74 -275h250l-73 275q-42 159 -52 223q-12 -83 -51 -223z" />
    <glyph glyph-name="product" unicode="&#x220f;" horiz-adv-x="513" 
d="M358 -150v735h-203v-735h-76v800h355v-800h-76z" />
    <glyph glyph-name="summation" unicode="&#x2211;" horiz-adv-x="364" 
d="M29 -150v55l148 344l-148 346v55h306v-65h-223l145 -335l-146 -335h224v-65h-306z" />
    <glyph glyph-name="minus" unicode="&#x2212;" horiz-adv-x="444" 
d="M45 294v64h354v-64h-354z" />
    <glyph glyph-name="radical" unicode="&#x221a;" horiz-adv-x="393" 
d="M157 0l-119 436h-73v64h132l73 -284q16 -63 26 -140q9 69 27 140l112 434h75l-175 -650h-78z" />
    <glyph glyph-name="infinity" unicode="&#x221e;" horiz-adv-x="617" 
d="M455 96q-47 0 -81 25.5t-66 72.5q-32 -47 -66 -72.5t-81 -25.5q-121 0 -121 154q0 73 30.5 113.5t90.5 40.5q47 0 81 -25.5t66 -72.5q32 47 66 72.5t81 25.5q122 0 122 -154q0 -73 -31 -113.5t-91 -40.5zM168 157q52 0 108 93q-57 93 -108 93q-62 0 -62 -93t62 -93z
M448 343q-53 0 -108 -93q54 -93 108 -93q62 0 62 93t-62 93z" />
    <glyph glyph-name="integral" unicode="&#x222b;" horiz-adv-x="210" 
d="M-21 -150v62h22q39 0 53.5 12.5t14.5 51.5v555q0 70 32.5 94.5t89.5 24.5h40v-62h-22q-38 0 -52.5 -12.5t-14.5 -51.5v-555q0 -70 -32.5 -94.5t-89.5 -24.5h-41z" />
    <glyph glyph-name="approxequal" unicode="&#x2248;" horiz-adv-x="444" 
d="M314 198q-36 0 -99 21t-91 21q-50 0 -79 -29v61q9 12 33 21.5t52 9.5q36 0 99 -20.5t91 -20.5q49 0 79 28v-61q-9 -12 -33 -21.5t-52 -9.5zM314 353q-36 0 -99 21t-91 21q-50 0 -79 -29v61q9 12 33 21.5t52 9.5q36 0 99 -20.5t91 -20.5q49 0 79 28v-61q-9 -12 -33 -21.5
t-52 -9.5z" />
    <glyph glyph-name="notequal" unicode="&#x2260;" horiz-adv-x="444" 
d="M45 373v64h205l54 102h61l-54 -102h88v-64h-122l-49 -91h171v-64h-205l-54 -102h-61l54 102h-88v64h122l49 91h-171z" />
    <glyph glyph-name="lessequal" unicode="&#x2264;" horiz-adv-x="454" 
d="M45 0v64h360v-64h-360zM380 135l-335 169v46l335 169l29 -57l-272 -135l272 -135z" />
    <glyph glyph-name="greaterequal" unicode="&#x2265;" horiz-adv-x="454" 
d="M49 0v64h360v-64h-360zM74 135l-29 57l272 135l-272 135l29 57l335 -169v-46z" />
    <glyph glyph-name="lozenge" unicode="&#x25ca;" horiz-adv-x="428" 
d="M177 0l-162 325l162 325h75l161 -325l-161 -325h-75zM164 181q40 -83 50 -122q14 49 51 122l71 144l-71 144q-38 74 -51 121q-9 -37 -50 -121l-71 -144z" />
    <glyph glyph-name="zero.alt" horiz-adv-x="493" 
d="M248 284q-41 0 -41 41t41 41q19 0 30 -11t11 -30t-11 -30t-30 -11zM246 -12q-71 0 -111.5 28t-61 102t-20.5 207q0 193 44 265t149 72q72 0 112.5 -28.5t61 -102t20.5 -206.5q0 -132 -21 -205.5t-61.5 -102.5t-111.5 -29zM246 55q68 0 91.5 55t23.5 215t-23.5 215
t-91.5 55q-67 0 -90.5 -55t-23.5 -215t23.5 -215t90.5 -55z" />
    <glyph glyph-name="apple" horiz-adv-x="670" 
d="M306 115q-63 0 -103.5 49.5t-40.5 138.5q0 66 30.5 114t86.5 66q-73 -48 -73 -175q0 -69 28.5 -114.5t74.5 -45.5q22 0 36.5 9.5t15.5 22.5l-1 1q-12 -4 -33 -4q-33 0 -54 39t-21 98q0 171 110 171q63 0 103.5 -49.5t40.5 -138.5q0 -65 -31 -114t-87 -67q74 49 74 176
q0 69 -28.5 114.5t-74.5 45.5q-22 0 -36.5 -9.5t-15.5 -22.5l1 -1q12 4 33 4q33 0 54 -39t21 -98q0 -171 -110 -171zM308 79q112 0 178.5 60t66.5 165q0 104 -55 160.5t-138 56.5q-112 0 -178.5 -60t-66.5 -165q0 -104 55 -160.5t138 -56.5zM40 0v590h590v-590h-590z" />
    <glyph glyph-name="zero.tnum" horiz-adv-x="500" 
d="M249 -12q-71 0 -111.5 28t-61 102t-20.5 207q0 193 44 265t149 72q72 0 112.5 -28.5t61 -102t20.5 -206.5q0 -132 -21 -205.5t-61.5 -102.5t-111.5 -29zM249 55q68 0 91.5 55t23.5 215t-23.5 215t-91.5 55q-67 0 -90.5 -55t-23.5 -215t23.5 -215t90.5 -55z" />
    <glyph glyph-name="zero.tnum_alt" horiz-adv-x="500" 
d="M250 284q-19 0 -30 11t-11 30t11 30t30 11q40 0 40 -41t-40 -41zM249 -12q-71 0 -111.5 28t-61 102t-20.5 207q0 193 44 265t149 72q72 0 112.5 -28.5t61 -102t20.5 -206.5q0 -132 -21 -205.5t-61.5 -102.5t-111.5 -29zM249 55q68 0 91.5 55t23.5 215t-23.5 215t-91.5 55
q-67 0 -90.5 -55t-23.5 -215t23.5 -215t90.5 -55z" />
    <glyph glyph-name="one.tnum" horiz-adv-x="500" 
d="M126 0v65h105v503l-106 -35v69l134 48h48v-585h107v-65h-288z" />
    <glyph glyph-name="two.tnum" horiz-adv-x="500" 
d="M83 0v55q0 67 16.5 115t41.5 74t64 50q38 23 54 34t37.5 32.5t29 47t7.5 62.5q0 62 -28 92.5t-91 30.5q-59 0 -110 -28v72q46 25 118 25q100 0 145 -52t45 -137q0 -48 -11 -84t-37 -63.5t-47 -42.5t-62 -40q-53 -32 -74 -68t-22 -110h257v-65h-333z" />
    <glyph glyph-name="three.tnum" horiz-adv-x="500" 
d="M207 -12q-79 0 -123 25v72q50 -28 114 -28q71 0 107.5 28t36.5 92q0 144 -194 151v46l163 211h-224v65h323v-54l-168 -214q81 -14 129.5 -66t48.5 -143q0 -89 -55.5 -137t-157.5 -48z" />
    <glyph glyph-name="four.tnum" horiz-adv-x="500" 
d="M52 139v56l243 455h83l-239 -446h177v167h77v-167h75v-65h-75v-139h-77v139h-264z" />
    <glyph glyph-name="five.tnum" horiz-adv-x="500" 
d="M209 -12q-79 0 -123 25v72q48 -28 113 -28q72 0 108 28t36 92q0 45 -17.5 75.5t-51.5 48t-72.5 26t-93.5 12.5l12 311h282v-65h-209l-8 -186q115 -15 176 -69t61 -157q0 -89 -55.5 -137t-157.5 -48z" />
    <glyph glyph-name="six.tnum" horiz-adv-x="500" 
d="M261 -12q-58 0 -96 21t-58.5 66t-28 101.5t-7.5 141.5q0 344 230 344q66 0 108 -23v-71q-45 26 -102 26q-151 0 -157 -226q52 39 124 39q174 0 174 -205q0 -40 -8 -74.5t-27.5 -67.5t-58 -52.5t-93.5 -19.5zM260 340q-60 0 -110 -38q1 -134 24 -191t87 -57q109 0 109 143
q0 68 -24.5 105.5t-85.5 37.5z" />
    <glyph glyph-name="seven.tnum" horiz-adv-x="500" 
d="M136 0l202 585h-257v65h337v-55l-202 -595h-80z" />
    <glyph glyph-name="eight.tnum" horiz-adv-x="500" 
d="M249 -12q-194 0 -194 152q0 63 32.5 106.5t98.5 83.5q-116 72 -116 181q0 73 48.5 112t130.5 39q84 0 132 -38.5t48 -112.5q0 -109 -117 -181q65 -39 98.5 -83t33.5 -107q0 -76 -51 -114t-144 -38zM249 54q117 0 117 94q0 46 -29.5 78t-88.5 66q-58 -33 -86.5 -65.5
t-28.5 -78.5q0 -94 116 -94zM147 507q0 -44 26 -76t78 -64q51 31 76 63t25 77q0 89 -103 89q-102 0 -102 -89z" />
    <glyph glyph-name="nine.tnum" horiz-adv-x="500" 
d="M205 -12q-66 0 -108 23v71q45 -26 102 -26q80 0 117.5 55t39.5 177q-50 -36 -124 -36q-90 0 -132 54.5t-42 148.5q0 39 8.5 73t28.5 65.5t58.5 50t91.5 18.5q58 0 96 -21t58.5 -66t28 -101.5t7.5 -141.5q0 -178 -55 -261t-175 -83zM246 319q58 0 110 33q-2 132 -25 188
t-86 56q-109 0 -109 -140q0 -68 25 -102.5t85 -34.5z" />
    <glyph glyph-name="dollar.tnum" horiz-adv-x="500" 
d="M210 -100v88q-71 3 -104 23v71q44 -26 107 -26q112 0 112 96q0 40 -17.5 66t-56.5 60l-52 44q-48 42 -71 79t-23 95q0 63 33.5 105t95.5 55v94h65v-88q60 -3 90 -21v-71q-39 24 -92 24q-112 0 -112 -96q0 -40 17.5 -66.5t56.5 -59.5l52 -44q48 -41 71 -78.5t23 -95.5
q0 -64 -33.5 -105.5t-95.5 -54.5v-94h-66z" />
    <glyph glyph-name="cent.tnum" horiz-adv-x="500" 
d="M247 -100v92q-67 12 -95.5 73t-28.5 185q0 127 32 186t92 72v92h65v-89q39 -2 70 -19v-68q-32 22 -82 22q-56 0 -79 -40.5t-23 -155.5q0 -114 21.5 -155t74.5 -41q54 0 92 24v-68q-30 -17 -74 -21v-89h-65z" />
    <glyph glyph-name="sterling.tnum" horiz-adv-x="500" 
d="M73 299v63h93v82q0 109 42.5 163.5t132.5 54.5q32 0 58.5 -7.5t35.5 -14.5v-69q-35 24 -88 24q-60 0 -82.5 -38.5t-22.5 -127.5v-67h152v-63h-152v-236h193v-63h-362v63h93v236h-93z" />
    <glyph glyph-name="yen.tnum" horiz-adv-x="500" 
d="M86 269v62h96l-151 319h84l81 -180q28 -64 52 -144h1q25 83 53 144l82 180h82l-152 -319h102v-62h-129v-76h129v-62h-129v-131h-77v131h-124v62h124v76h-124z" />
    <glyph glyph-name="Euro.tnum" horiz-adv-x="500" 
d="M196 280h194v-61h-192q7 -89 40.5 -126t99.5 -37q61 0 113 27v-71q-15 -9 -51 -16.5t-66 -7.5q-104 0 -155.5 56t-59.5 175h-74v61h72v90h-72v61h74q8 119 59.5 175t155.5 56q30 0 66 -7.5t51 -16.5v-71q-52 27 -113 27q-66 0 -99.5 -37t-40.5 -126h192v-61h-194v-90z
" />
    <glyph glyph-name="currency.tnum" horiz-adv-x="500" 
d="M405 86l-57 58q-35 -28 -98 -28q-62 0 -99 28l-56 -58l-46 45l63 63q-21 50 -21 131q0 82 21 130l-63 64l46 45l56 -58q37 28 99 28q63 0 98 -28l57 58l45 -45l-64 -64q22 -47 22 -130t-22 -131l64 -63zM250 181q47 0 65.5 33.5t18.5 110.5t-18.5 110.5t-65.5 33.5
t-65.5 -33.5t-18.5 -110.5t18.5 -110.5t65.5 -33.5z" />
    <glyph glyph-name="florin.tnum" horiz-adv-x="500" 
d="M63 298v64h114v89q0 211 170 211q57 0 88 -18v-68q-29 20 -78 20q-62 0 -83.5 -37t-21.5 -119v-78h156v-64h-156v-448h-75v448h-114z" />
    <glyph glyph-name="period.tnum" horiz-adv-x="200" 
d="M100 -10q-22 0 -34.5 12.5t-12.5 33.5q0 22 12.5 34.5t34.5 12.5t34.5 -12.5t12.5 -34.5q0 -21 -12.5 -33.5t-34.5 -12.5z" />
    <glyph glyph-name="comma.tnum" horiz-adv-x="200" 
d="M53 -142q16 53 16 86q0 23 -8 52.5t-8 39.5q0 22 12.5 34.5t34.5 12.5q47 0 47 -52q0 -72 -38 -173h-56z" />
    <glyph glyph-name="a.alt" horiz-adv-x="438" 
d="M316 0l-7 27q-45 -39 -104 -39q-83 0 -118 56t-35 206q0 147 35.5 204.5t115.5 57.5q63 0 106 -37l7 25h52v-500h-52zM219 53q41 0 77 24v345q-38 25 -77 25q-54 0 -73 -40.5t-19 -156.5t19 -156.5t73 -40.5z" />
    <glyph glyph-name="aacute.alt" horiz-adv-x="438" 
d="M167 558l58 91h91l-84 -91h-65zM316 0l-7 27q-45 -39 -104 -39q-83 0 -118 56t-35 206q0 147 35.5 204.5t115.5 57.5q63 0 106 -37l7 25h52v-500h-52zM219 53q41 0 77 24v345q-38 25 -77 25q-54 0 -73 -40.5t-19 -156.5t19 -156.5t73 -40.5z" />
    <glyph glyph-name="agrave.alt" horiz-adv-x="438" 
d="M316 0l-7 27q-45 -39 -104 -39q-83 0 -118 56t-35 206q0 147 35.5 204.5t115.5 57.5q63 0 106 -37l7 25h52v-500h-52zM219 53q41 0 77 24v345q-38 25 -77 25q-54 0 -73 -40.5t-19 -156.5t19 -156.5t73 -40.5zM193 558l-84 91h91l58 -91h-65z" />
    <glyph glyph-name="acircumflex.alt" horiz-adv-x="438" 
d="M103 550v49l109 58l109 -58v-49l-109 38zM316 0l-7 27q-45 -39 -104 -39q-83 0 -118 56t-35 206q0 147 35.5 204.5t115.5 57.5q63 0 106 -37l7 25h52v-500h-52zM219 53q41 0 77 24v345q-38 25 -77 25q-54 0 -73 -40.5t-19 -156.5t19 -156.5t73 -40.5z" />
    <glyph glyph-name="adieresis.alt" horiz-adv-x="438" 
d="M131 557q-21 0 -32.5 12t-11.5 32q0 45 44 45q21 0 33 -12t12 -33q0 -20 -12 -32t-33 -12zM293 557q-21 0 -32.5 12t-11.5 32q0 45 44 45q21 0 33 -12t12 -33q0 -20 -12 -32t-33 -12zM316 0l-7 27q-45 -39 -104 -39q-83 0 -118 56t-35 206q0 147 35.5 204.5t115.5 57.5
q63 0 106 -37l7 25h52v-500h-52zM219 53q41 0 77 24v345q-38 25 -77 25q-54 0 -73 -40.5t-19 -156.5t19 -156.5t73 -40.5z" />
    <glyph glyph-name="atilde.alt" horiz-adv-x="433" 
d="M316 0l-7 27q-45 -39 -104 -39q-83 0 -118 56t-35 206q0 147 35.5 204.5t115.5 57.5q63 0 106 -37l7 25h52v-500h-52zM219 53q41 0 77 24v345q-38 25 -77 25q-54 0 -73 -40.5t-19 -156.5t19 -156.5t73 -40.5zM257 557q-25 0 -54 17.5t-46 17.5q-29 0 -52 -25v52
q23 32 62 32q25 0 54 -18t46 -18q27 0 52 25v-52q-24 -31 -62 -31z" />
    <glyph glyph-name="aring.alt" horiz-adv-x="438" 
d="M212 541q-43 0 -70 25.5t-27 70.5q0 43 27.5 69t69.5 26q43 0 70 -25.5t27 -69.5t-27.5 -70t-69.5 -26zM212 587q21 0 35 13t14 37t-14 37t-35 13t-35 -13t-14 -37t14 -37t35 -13zM316 0l-7 27q-45 -39 -104 -39q-83 0 -118 56t-35 206q0 147 35.5 204.5t115.5 57.5
q63 0 106 -37l7 25h52v-500h-52zM219 53q41 0 77 24v345q-38 25 -77 25q-54 0 -73 -40.5t-19 -156.5t19 -156.5t73 -40.5z" />
    <glyph glyph-name="amacron.alt" horiz-adv-x="438" 
d="M316 0l-7 27q-45 -39 -104 -39q-83 0 -118 56t-35 206q0 147 35.5 204.5t115.5 57.5q63 0 106 -37l7 25h52v-500h-52zM219 53q41 0 77 24v345q-38 25 -77 25q-54 0 -73 -40.5t-19 -156.5t19 -156.5t73 -40.5zM98 573v59h229v-59h-229z" />
    <glyph glyph-name="abreve.alt" horiz-adv-x="438" 
d="M316 0l-7 27q-45 -39 -104 -39q-83 0 -118 56t-35 206q0 147 35.5 204.5t115.5 57.5q63 0 106 -37l7 25h52v-500h-52zM219 53q41 0 77 24v345q-38 25 -77 25q-54 0 -73 -40.5t-19 -156.5t19 -156.5t73 -40.5zM213 555q-46 0 -77 23t-39 43l25 38q34 -42 91 -42t91 42
l24 -38q-8 -20 -39 -43t-76 -23z" />
    <glyph glyph-name="aogonek.alt" horiz-adv-x="438" 
d="M314 -153q-31 0 -50.5 13t-19.5 39q0 49 71 105l-6 23q-45 -39 -104 -39q-83 0 -118 56t-35 206q0 147 35.5 204.5t115.5 57.5q63 0 106 -37l7 25h52v-500q-20 -15 -42 -39t-22 -42q0 -21 32 -21q22 0 32 4v-45q-20 -10 -54 -10zM219 53q41 0 77 24v345q-38 25 -77 25
q-54 0 -73 -40.5t-19 -156.5t19 -156.5t73 -40.5z" />
    <glyph glyph-name="g.alt" horiz-adv-x="417" 
d="M200 156q-39 0 -64 8q-20 -22 -20 -45q0 -42 70 -42h72q66 0 100 -29t34 -76q0 -70 -53.5 -102t-142.5 -32q-168 0 -168 103q0 62 60 93q-40 24 -40 66q0 54 51 83q-51 41 -51 151q0 97 37.5 137.5t114.5 40.5q59 0 96 -25q27 25 72 25q27 0 41 -6v-63h-76
q19 -43 19 -109q0 -97 -37.5 -137.5t-114.5 -40.5zM200 215q48 0 64.5 29.5t16.5 89.5t-16.5 89t-64.5 29t-64.5 -29t-16.5 -89t16.5 -89.5t64.5 -29.5zM184 14q-22 0 -54 4q-32 -25 -32 -62q0 -62 102 -62q120 0 120 70q0 50 -81 50h-55z" />
    <glyph glyph-name="gbreve.alt" horiz-adv-x="417" 
d="M200 156q-39 0 -64 8q-20 -22 -20 -45q0 -42 70 -42h72q66 0 100 -29t34 -76q0 -70 -53.5 -102t-142.5 -32q-168 0 -168 103q0 62 60 93q-40 24 -40 66q0 54 51 83q-51 41 -51 151q0 97 37.5 137.5t114.5 40.5q59 0 96 -25q27 25 72 25q27 0 41 -6v-63h-76
q19 -43 19 -109q0 -97 -37.5 -137.5t-114.5 -40.5zM200 215q48 0 64.5 29.5t16.5 89.5t-16.5 89t-64.5 29t-64.5 -29t-16.5 -89t16.5 -89.5t64.5 -29.5zM184 14q-22 0 -54 4q-32 -25 -32 -62q0 -62 102 -62q120 0 120 70q0 50 -81 50h-55zM200 555q-46 0 -77 23t-39 43
l25 38q34 -42 91 -42t91 42l24 -38q-8 -20 -39 -43t-76 -23z" />
    <glyph glyph-name="gcircumflex.alt" horiz-adv-x="417" 
d="M90 550v49l109 58l109 -58v-49l-109 38zM200 156q-39 0 -64 8q-20 -22 -20 -45q0 -42 70 -42h72q66 0 100 -29t34 -76q0 -70 -53.5 -102t-142.5 -32q-168 0 -168 103q0 62 60 93q-40 24 -40 66q0 54 51 83q-51 41 -51 151q0 97 37.5 137.5t114.5 40.5q59 0 96 -25
q27 25 72 25q27 0 41 -6v-63h-76q19 -43 19 -109q0 -97 -37.5 -137.5t-114.5 -40.5zM200 215q48 0 64.5 29.5t16.5 89.5t-16.5 89t-64.5 29t-64.5 -29t-16.5 -89t16.5 -89.5t64.5 -29.5zM184 14q-22 0 -54 4q-32 -25 -32 -62q0 -62 102 -62q120 0 120 70q0 50 -81 50h-55z
" />
    <glyph glyph-name="gcommaaccent.alt" horiz-adv-x="417" 
d="M200 156q-39 0 -64 8q-20 -22 -20 -45q0 -42 70 -42h72q66 0 100 -29t34 -76q0 -70 -53.5 -102t-142.5 -32q-168 0 -168 103q0 62 60 93q-40 24 -40 66q0 54 51 83q-51 41 -51 151q0 97 37.5 137.5t114.5 40.5q59 0 96 -25q27 25 72 25q27 0 41 -6v-63h-76
q19 -43 19 -109q0 -97 -37.5 -137.5t-114.5 -40.5zM200 215q48 0 64.5 29.5t16.5 89.5t-16.5 89t-64.5 29t-64.5 -29t-16.5 -89t16.5 -89.5t64.5 -29.5zM184 14q-22 0 -54 4q-32 -25 -32 -62q0 -62 102 -62q120 0 120 70q0 50 -81 50h-55zM199 555q-34 0 -34 40q0 52 28 120
h41q-12 -35 -12 -61q0 -18 6 -37.5t6 -27.5q0 -34 -35 -34z" />
    <glyph glyph-name="gdotaccent.alt" horiz-adv-x="417" 
d="M200 156q-39 0 -64 8q-20 -22 -20 -45q0 -42 70 -42h72q66 0 100 -29t34 -76q0 -70 -53.5 -102t-142.5 -32q-168 0 -168 103q0 62 60 93q-40 24 -40 66q0 54 51 83q-51 41 -51 151q0 97 37.5 137.5t114.5 40.5q59 0 96 -25q27 25 72 25q27 0 41 -6v-63h-76
q19 -43 19 -109q0 -97 -37.5 -137.5t-114.5 -40.5zM200 215q48 0 64.5 29.5t16.5 89.5t-16.5 89t-64.5 29t-64.5 -29t-16.5 -89t16.5 -89.5t64.5 -29.5zM184 14q-22 0 -54 4q-32 -25 -32 -62q0 -62 102 -62q120 0 120 70q0 50 -81 50h-55zM199 557q-44 0 -44 44q0 45 44 45
q45 0 45 -45q0 -44 -45 -44z" />
    <glyph glyph-name="ampersand.alt" horiz-adv-x="615" 
d="M299 -12q-123 0 -185 53t-62 193q0 133 38 186t120 53q84 0 121.5 -54t37.5 -196v-16h-243q4 -94 45 -125.5t128 -31.5q104 0 149.5 50t45.5 157q0 161 -75.5 246t-224.5 85h-55v62h397v-60h-143q71 -30 120.5 -111.5t49.5 -221.5q0 -138 -65.5 -203.5t-198.5 -65.5z
M210 413q-46 0 -63.5 -32t-19.5 -118h168q-2 84 -20.5 117t-64.5 33z" />
    <glyph glyph-name="uni2070.alt" 
d="M176 230q-76 0 -107.5 45t-31.5 169q0 123 32 168.5t107 45.5q77 0 108.5 -45t31.5 -169q0 -123 -32 -168.5t-108 -45.5zM176 287q43 0 57.5 31.5t14.5 125.5t-14.5 125.5t-57.5 31.5q-42 0 -56.5 -31.5t-14.5 -125.5t14.5 -125.5t56.5 -31.5zM176 417q-27 0 -27 27
t27 27q28 0 28 -27t-28 -27z" />
    <glyph glyph-name="uni2080.alt" 
d="M176 -7q-76 0 -107.5 45t-31.5 169q0 123 32 168.5t107 45.5q77 0 108.5 -45t31.5 -169q0 -123 -32 -168.5t-108 -45.5zM176 50q43 0 57.5 31.5t14.5 125.5t-14.5 125.5t-57.5 31.5q-42 0 -56.5 -31.5t-14.5 -125.5t14.5 -125.5t56.5 -31.5zM176 180q-27 0 -27 27t27 27
q28 0 28 -27t-28 -27z" />
    </font>
</defs>
</svg>
