<?xml version="1.0" standalone="no"?>
<!DOCTYPE svg PUBLIC "-//W3C//DTD SVG 1.1//EN" "http://www.w3.org/Graphics/SVG/1.1/DTD/svg11.dtd" >
<svg xmlns="http://www.w3.org/2000/svg" xmlns:xlink="http://www.w3.org/1999/xlink" version="1.1">
<metadata>
Created by FontForge 20150318 at Wed Oct 28 10:54:09 2015
 By uniteet7
Copyright (c) 2010 Bold Monday. All rights reserved. PannoText is a trademark of Bold Monday. Unauthorized copying or modification of any of its data is illegal.
</metadata>
<defs>
<font id="PannoTextSemiBold" horiz-adv-x="450" >
  <font-face 
    font-family="PannoTextSemiBold"
    font-weight="600"
    font-stretch="normal"
    units-per-em="1000"
    panose-1="2 0 7 6 4 0 0 4 0 3"
    ascent="750"
    descent="-250"
    x-height="500"
    cap-height="650"
    bbox="-145 -250 908 887"
    underline-thickness="80"
    underline-position="-30"
    unicode-range="U+0020-FB02"
  />
<missing-glyph horiz-adv-x="550" 
d="M75 -250v1000h400v-1000h-400zM105 682v-864l153 434zM274 208l-151 -428h303zM123 720l153 -428l150 428h-303zM292 247l153 -429v864z" />
    <glyph glyph-name="fi" unicode="fi" horiz-adv-x="551" 
d="M25 378v87h72v45q0 81 36.5 110.5t101.5 29.5h57v-87h-29q-35 0 -48.5 -13t-13.5 -50v-35h91v-87h-91v-378h-104v378h-72zM434 544q-66 0 -66 59t66 59t66 -59t-66 -59zM382 0v500h104v-500h-104z" />
    <glyph glyph-name="fl" unicode="fl" horiz-adv-x="566" 
d="M25 378v87h72v45q0 81 36.5 110.5t101.5 29.5h57v-87h-29q-35 0 -48.5 -13t-13.5 -50v-35h91v-87h-91v-378h-104v378h-72zM512 -4q-65 0 -100 27.5t-35 98.5v528h104v-511q0 -30 11.5 -43t42.5 -13h16v-87h-39z" />
    <glyph glyph-name=".notdef" horiz-adv-x="550" 
d="M75 -250v1000h400v-1000h-400zM105 682v-864l153 434zM274 208l-151 -428h303zM123 720l153 -428l150 428h-303zM292 247l153 -429v864z" />
    <glyph glyph-name=".null" horiz-adv-x="0" 
 />
    <glyph glyph-name="nonmarkingreturn" horiz-adv-x="333" 
 />
    <glyph glyph-name="space" unicode=" " horiz-adv-x="200" 
 />
    <glyph glyph-name="exclam" unicode="!" horiz-adv-x="280" 
d="M140 -12q-29 0 -46 16.5t-17 46.5t17 46.5t46 16.5t46 -16.5t17 -46.5t-17 -46.5t-46 -16.5zM100 195l-24 455h128l-24 -455h-80z" />
    <glyph glyph-name="quotedbl" unicode="&#x22;" horiz-adv-x="362" 
d="M58 398q-28 166 -28 201q0 30 15.5 46.5t45.5 16.5t45.5 -16.5t15.5 -46.5q0 -35 -28 -201h-66zM238 398q-28 166 -28 201q0 30 15.5 46.5t45.5 16.5t45.5 -16.5t15.5 -46.5q0 -35 -28 -201h-66z" />
    <glyph glyph-name="numbersign" unicode="#" horiz-adv-x="528" 
d="M324 0v187h-120v-187h-99v187h-70v81h70v121h-70v81h70v180h99v-180h120v180h99v-180h70v-81h-70v-121h70v-81h-70v-187h-99zM204 389v-121h120v121h-120z" />
    <glyph glyph-name="dollar" unicode="$" horiz-adv-x="409" 
d="M149 -100v89q-68 3 -103 25v100q51 -28 116 -28q91 0 91 74q0 34 -14 55t-49 51l-53 45q-49 42 -70.5 79t-21.5 96q0 60 31.5 104t91.5 62v98h91v-89q62 -5 93 -24v-100q-46 27 -102 27q-91 0 -91 -74q0 -34 14 -55t49 -51l53 -45q49 -42 70.5 -79t21.5 -96
q0 -61 -33 -106t-94 -61v-97h-91z" />
    <glyph glyph-name="percent" unicode="%" horiz-adv-x="582" 
d="M156 362q-62 0 -91.5 34.5t-29.5 115.5q0 78 29.5 114t91.5 36t91.5 -34.5t29.5 -115.5q0 -78 -29.5 -114t-91.5 -36zM156 434q23 0 31 17t8 61t-8 61t-31 17t-31 -17t-8 -61t8 -61t31 -17zM426 -12q-62 0 -91.5 34.5t-29.5 115.5q0 78 29.5 114t91.5 36t91.5 -34.5
t29.5 -115.5q0 -78 -29.5 -114t-91.5 -36zM426 60q23 0 31 17t8 61t-8 61t-31 17t-31 -17t-8 -61t8 -61t31 -17zM48 0l397 650h89l-397 -650h-89z" />
    <glyph glyph-name="ampersand" unicode="&#x26;" horiz-adv-x="507" 
d="M257 0q-107 0 -164.5 41t-57.5 141q0 110 88 152q-68 43 -68 142q0 86 55 136t159 50q77 0 127 -27v-98q-46 29 -114 29q-63 0 -89.5 -22.5t-26.5 -77.5q0 -32 9 -51.5t28 -28t37.5 -11t49.5 -2.5h207v-87h-70v-286h-170zM145 187q0 -60 28.5 -79.5t83.5 -19.5h60v198
h-60q-54 0 -83 -19.5t-29 -79.5z" />
    <glyph glyph-name="quotesingle" unicode="'" horiz-adv-x="182" 
d="M58 398q-28 166 -28 201q0 30 15.5 46.5t45.5 16.5t45.5 -16.5t15.5 -46.5q0 -35 -28 -201h-66z" />
    <glyph glyph-name="parenleft" unicode="(" horiz-adv-x="304" 
d="M282 -150q-39 0 -62.5 1.5t-49 7.5t-39.5 17t-29 31.5t-21.5 48.5t-12.5 71t-8 96.5t-2 126.5t2 126.5t8.5 96t14 71t22.5 49t29 31.5t39.5 17t48.5 7.5t60 1.5v-84q-31 0 -47.5 -2t-32.5 -14.5t-22 -29t-11 -57t-6 -86t-1 -127.5t1 -127.5t6 -86t11 -57t22 -29
t32.5 -14.5t47.5 -2v-84z" />
    <glyph glyph-name="parenright" unicode=")" horiz-adv-x="304" 
d="M22 -150v84q31 0 47.5 2t32.5 14.5t22 29t11 57t6 86t1 127.5t-1 127.5t-6 86t-11 57t-22 29t-32.5 14.5t-47.5 2v84q39 0 62.5 -1.5t49 -7.5t39.5 -17t29 -31.5t21.5 -48.5t12.5 -71t8 -96.5t2 -126.5t-2 -126.5t-8.5 -96t-14 -71t-22.5 -49t-29 -31.5t-39.5 -17
t-48.5 -7.5t-60 -1.5z" />
    <glyph glyph-name="asterisk" unicode="*" horiz-adv-x="386" 
d="M129 332l-64 47l68 89l-108 31l25 76l106 -37l-3 112h80l-3 -112l106 37l25 -76l-108 -31l68 -89l-64 -47l-64 93z" />
    <glyph glyph-name="plus" unicode="+" horiz-adv-x="470" 
d="M45 282v91h140v144h100v-144h140v-91h-140v-145h-100v145h-140z" />
    <glyph glyph-name="comma" unicode="," horiz-adv-x="176" 
d="M25 -150q16 56 16 97q0 27 -8 59t-8 45q0 29 16 46t47 17q30 0 46.5 -17.5t16.5 -48.5q0 -69 -50 -198h-76z" />
    <glyph glyph-name="hyphen" unicode="-" horiz-adv-x="332" 
d="M45 275v104h242v-104h-242z" />
    <glyph glyph-name="period" unicode="." horiz-adv-x="176" 
d="M88 -12q-29 0 -46 16.5t-17 46.5t17 46.5t46 16.5t46 -16.5t17 -46.5t-17 -46.5t-46 -16.5z" />
    <glyph glyph-name="slash" unicode="/" horiz-adv-x="271" 
d="M-35 -150l207 800h99l-207 -800h-99z" />
    <glyph glyph-name="zero" unicode="0" horiz-adv-x="514" 
d="M257 -12q-56 0 -92 13.5t-63.5 50.5t-39.5 103.5t-12 169.5q0 134 24.5 209t67.5 101.5t115 26.5q75 0 117.5 -26t66 -100.5t23.5 -210.5q0 -102 -12.5 -168.5t-40.5 -103.5t-64 -51t-90 -14zM257 84q58 0 75.5 47.5t17.5 193.5t-17.5 193.5t-75.5 47.5t-75.5 -47.5
t-17.5 -193.5t17.5 -193.5t75.5 -47.5z" />
    <glyph glyph-name="one" unicode="1" horiz-adv-x="322" 
d="M137 0v539l-112 -35v96l144 50h78v-650h-110z" />
    <glyph glyph-name="two" unicode="2" horiz-adv-x="456" 
d="M40 0v67q0 98 32.5 151.5t97.5 90.5q36 21 50 30t34.5 28t27.5 40.5t7 52.5q0 56 -23.5 80t-83.5 24q-66 0 -121 -30v100q56 28 134 28q109 0 158 -53.5t49 -139.5q0 -40 -10 -73.5t-23 -55.5t-38.5 -43.5t-43.5 -33.5t-50 -30q-45 -26 -64.5 -54.5t-22.5 -86.5h256v-92
h-366z" />
    <glyph glyph-name="three" unicode="3" horiz-adv-x="460" 
d="M181 -12q-81 0 -137 28v100q55 -30 125 -30q65 0 97.5 24t32.5 78q0 120 -187 126v62l144 182h-209v92h351v-76l-150 -186q163 -36 163 -204q0 -94 -59 -145t-171 -51z" />
    <glyph glyph-name="four" unicode="4" horiz-adv-x="480" 
d="M25 127v76l238 447h118l-231 -431h135v130h110v-130h75v-92h-75v-127h-110v127h-260z" />
    <glyph glyph-name="five" unicode="5" horiz-adv-x="455" 
d="M179 -12q-81 0 -137 28v100q55 -30 125 -30q65 0 97.5 24t32.5 78q0 38 -17.5 64t-52 40.5t-72.5 21.5t-90 10l11 326h308v-92h-205l-6 -149q236 -35 236 -225q0 -94 -59 -145t-171 -51z" />
    <glyph glyph-name="six" unicode="6" horiz-adv-x="497" 
d="M254 -12q-51 0 -87.5 15t-59 41.5t-35.5 70.5t-17.5 92.5t-4.5 117.5q0 337 241 337q77 0 125 -29v-100q-54 31 -115 31q-70 0 -102 -43.5t-36 -139.5q44 37 111 37q100 0 141.5 -54t41.5 -158q0 -38 -8.5 -72.5t-29 -69t-63 -55.5t-102.5 -21zM257 323q-53 0 -94 -29
q2 -119 20 -165t71 -46t72 32t19 88q0 61 -19 90.5t-69 29.5z" />
    <glyph glyph-name="seven" unicode="7" horiz-adv-x="422" 
d="M78 0l194 558h-242v92h357v-77l-195 -573h-114z" />
    <glyph glyph-name="eight" unicode="8" horiz-adv-x="504" 
d="M252 -12q-101 0 -154 38.5t-53 125.5q0 107 118 175q-107 64 -107 172q0 80 53.5 121.5t142.5 41.5q91 0 143.5 -41t52.5 -122q0 -53 -29 -98t-79 -74q119 -68 119 -175q0 -164 -207 -164zM252 82q50 0 72.5 18.5t22.5 61.5q0 62 -97 114q-93 -50 -93 -114
q0 -43 22.5 -61.5t72.5 -18.5zM166 491q0 -58 88 -109q84 50 84 109q0 42 -20.5 59.5t-65.5 17.5t-65.5 -17.5t-20.5 -59.5z" />
    <glyph glyph-name="nine" unicode="9" horiz-adv-x="497" 
d="M206 -12q-77 0 -125 29v100q54 -31 115 -31q74 0 105 44t33 144q-48 -32 -111 -32q-183 0 -183 207q0 38 8.5 71.5t29 67.5t63 54t102.5 20q51 0 87.5 -15t59 -41.5t35.5 -70.5t17.5 -92.5t4.5 -117.5q0 -167 -56.5 -252t-184.5 -85zM240 337q48 0 94 23
q-2 116 -20.5 161.5t-70.5 45.5q-53 0 -72 -30t-19 -85q0 -60 19 -87.5t69 -27.5z" />
    <glyph glyph-name="colon" unicode=":" horiz-adv-x="201" 
d="M98 -12q-29 0 -46 16.5t-17 46.5t17 46.5t46 16.5t46 -16.5t17 -46.5t-17 -46.5t-46 -16.5zM98 386q-29 0 -46 16.5t-17 46.5t17 46.5t46 16.5t46 -16.5t17 -46.5t-17 -46.5t-46 -16.5z" />
    <glyph glyph-name="semicolon" unicode=";" horiz-adv-x="201" 
d="M35 -150q16 56 16 97q0 27 -8 59t-8 45q0 29 16 46t47 17q30 0 46.5 -17.5t16.5 -48.5q0 -69 -50 -198h-76zM98 386q-29 0 -46 16.5t-17 46.5t17 46.5t46 16.5t46 -16.5t17 -46.5t-17 -46.5t-46 -16.5z" />
    <glyph glyph-name="less" unicode="&#x3c;" horiz-adv-x="476" 
d="M392 127l-347 165v70l347 165l39 -80l-259 -120l259 -120z" />
    <glyph glyph-name="equal" unicode="=" horiz-adv-x="470" 
d="M45 191v91h380v-91h-380zM45 373v91h380v-91h-380z" />
    <glyph glyph-name="greater" unicode="&#x3e;" horiz-adv-x="476" 
d="M84 127l-39 80l258 120l-258 120l39 80l347 -165v-70z" />
    <glyph glyph-name="question" unicode="?" horiz-adv-x="363" 
d="M109 195l-12 138l49 41q38 31 56.5 57t18.5 59q0 74 -91 74q-56 0 -102 -27v98q40 27 120 27q89 0 138 -43t49 -119q0 -42 -20 -81.5t-41 -61t-55 -50.5l-22 -19l-8 -93h-80zM149 -12q-29 0 -46 16.5t-17 46.5t17 46.5t46 16.5t46 -16.5t17 -46.5t-17 -46.5t-46 -16.5z
" />
    <glyph glyph-name="at" unicode="@" horiz-adv-x="738" 
d="M320 35q-99 0 -99 146q0 29 5 69q16 124 51 169.5t85 45.5q51 0 83 -36l10 26h67l-38 -308q-3 -27 3.5 -39.5t27.5 -12.5q13 0 27 10t29.5 33t25 71.5t9.5 115.5q0 116 -60.5 178.5t-161.5 62.5q-111 0 -180 -91.5t-69 -277.5q0 -276 212 -276q101 0 179 58v-83
q-69 -49 -183 -49q-138 0 -215.5 88t-77.5 266q0 219 93 330.5t243 111.5q137 0 219.5 -83t82.5 -230q0 -154 -49.5 -228.5t-125.5 -74.5q-71 0 -93 52q-42 -44 -100 -44zM349 119q21 0 40 13l30 238q-18 11 -32 11q-27 0 -41 -32t-24 -100q-6 -42 -6 -76q0 -27 6.5 -40.5
t26.5 -13.5z" />
    <glyph glyph-name="A" unicode="A" horiz-adv-x="460" 
d="M2 0l171 650h114l171 -650h-114l-35 140h-162l-34 -140h-111zM190 325l-23 -93h123l-21 93q-25 109 -38 199q-16 -97 -41 -199z" />
    <glyph glyph-name="B" unicode="B" horiz-adv-x="497" 
d="M75 0v650h139q108 0 165.5 -39.5t57.5 -140.5q0 -96 -68 -139q88 -41 88 -151q0 -100 -57.5 -140t-164.5 -40h-160zM235 281h-50v-191h50q29 0 44 2t32 10.5t24.5 29t7.5 53.5t-7.5 53.5t-24.5 29t-32.5 11t-43.5 2.5zM214 560h-29v-191h29q28 0 44 2.5t33 11t24.5 29
t7.5 53.5t-7.5 53.5t-24.5 29t-32.5 10.5t-44.5 2z" />
    <glyph glyph-name="C" unicode="C" horiz-adv-x="431" 
d="M272 -12q-130 -1 -176 76.5t-46 260.5q0 180 48 258.5t171 78.5q71 0 117 -25v-101q-50 27 -110 27q-47 0 -69.5 -18t-32.5 -67.5t-10 -152.5q0 -101 11 -152t33.5 -69t67.5 -18q63 0 115 28v-100q-48 -26 -119 -26z" />
    <glyph glyph-name="D" unicode="D" horiz-adv-x="523" 
d="M75 0v650h185q67 0 109 -18.5t65 -61.5t31 -99t8 -146q0 -88 -8 -144.5t-31 -99.5t-65.5 -62t-108.5 -19h-185zM252 560h-67v-470h67q45 0 66.5 18.5t31 67.5t9.5 149t-9.5 149t-31 67.5t-66.5 18.5z" />
    <glyph glyph-name="E" unicode="E" 
d="M75 0v650h320v-92h-210v-178h170v-92h-170v-196h210v-92h-320z" />
    <glyph glyph-name="F" unicode="F" horiz-adv-x="415" 
d="M75 0v650h310v-92h-200v-178h160v-92h-160v-288h-110z" />
    <glyph glyph-name="G" unicode="G" horiz-adv-x="513" 
d="M278 -12q-134 0 -181 76.5t-47 260.5q0 185 56 261t192 76q79 0 125 -26v-100q-52 28 -115 28q-58 0 -87 -18t-43 -69t-14 -152q0 -147 23 -194t89 -47q34 0 62 7v197h-80v92h190v-359q-14 -10 -67.5 -21.5t-102.5 -11.5z" />
    <glyph glyph-name="H" unicode="H" horiz-adv-x="550" 
d="M365 0v288h-180v-288h-110v650h110v-270h180v270h110v-650h-110z" />
    <glyph glyph-name="I" unicode="I" horiz-adv-x="260" 
d="M75 0v650h110v-650h-110z" />
    <glyph glyph-name="J" unicode="J" horiz-adv-x="365" 
d="M111 -12q-66 0 -106 22v95q42 -21 92 -21q46 0 67 23.5t21 82.5v460h110v-470q0 -98 -44.5 -145t-139.5 -47z" />
    <glyph glyph-name="K" unicode="K" horiz-adv-x="494" 
d="M75 0v650h110v-288l171 288h122l-190 -317l206 -333h-131l-178 298v-298h-110z" />
    <glyph glyph-name="L" unicode="L" horiz-adv-x="410" 
d="M75 0v650h110v-558h200v-92h-310z" />
    <glyph glyph-name="M" unicode="M" horiz-adv-x="630" 
d="M75 0v650h144l98 -321l99 321h139v-650h-106v315q0 79 15 216l-106 -345h-86l-106 345q15 -137 15 -216v-315h-106z" />
    <glyph glyph-name="N" unicode="N" horiz-adv-x="554" 
d="M75 0v650h127l188 -493q-16 116 -16 183v310h105v-650h-127l-189 492q17 -108 17 -182v-310h-105z" />
    <glyph glyph-name="O" unicode="O" horiz-adv-x="514" 
d="M257 -12q-56 0 -92 13.5t-63.5 50.5t-39.5 103.5t-12 169.5q0 134 24.5 209t67.5 101.5t115 26.5q75 0 117.5 -26t66 -100.5t23.5 -210.5q0 -102 -12.5 -168.5t-40.5 -103.5t-64 -51t-90 -14zM257 84q58 0 75.5 47.5t17.5 193.5t-17.5 193.5t-75.5 47.5t-75.5 -47.5
t-17.5 -193.5t17.5 -193.5t75.5 -47.5z" />
    <glyph glyph-name="P" unicode="P" horiz-adv-x="481" 
d="M75 0v650h174q96 0 145.5 -50t49.5 -162q0 -109 -51.5 -160.5t-143.5 -51.5h-64v-226h-110zM239 558h-54v-240h54q48 0 70 26.5t22 93.5t-22 93.5t-70 26.5z" />
    <glyph glyph-name="Q" unicode="Q" horiz-adv-x="514" 
d="M257 -12q-56 0 -92 13.5t-63.5 50.5t-39.5 103.5t-12 169.5q0 134 24.5 209t67.5 101.5t115 26.5q75 0 117.5 -26t66 -100.5t23.5 -210.5q0 -199 -54 -273l49 -56l-58 -50l-50 57q-37 -15 -94 -15zM257 84h23l-49 57l58 50l48 -56q13 40 13 190q0 146 -17.5 193.5
t-75.5 47.5t-75.5 -47.5t-17.5 -193.5t17.5 -193.5t75.5 -47.5z" />
    <glyph glyph-name="R" unicode="R" horiz-adv-x="507" 
d="M75 0v650h165q207 0 207 -197q0 -133 -105 -177l135 -276h-127l-114 256h-51v-256h-110zM230 558h-45v-210h45q53 0 78.5 20.5t25.5 84.5t-25.5 84.5t-78.5 20.5z" />
    <glyph glyph-name="S" unicode="S" horiz-adv-x="409" 
d="M172 -12q-85 0 -126 26v100q51 -28 116 -28q91 0 91 74q0 34 -14 55t-49 51l-53 45q-49 42 -70.5 79t-21.5 96q0 77 51.5 126.5t143.5 49.5q74 0 112 -25v-100q-46 27 -102 27q-91 0 -91 -74q0 -34 14 -55t49 -51l53 -45q49 -42 70.5 -79t21.5 -96q0 -77 -51.5 -126.5
t-143.5 -49.5z" />
    <glyph glyph-name="T" unicode="T" horiz-adv-x="410" 
d="M10 558v92h390v-92h-140v-558h-110v558h-140z" />
    <glyph glyph-name="U" unicode="U" horiz-adv-x="542" 
d="M271 -12q-105 0 -153 49.5t-48 162.5v450h110v-460q0 -60 22.5 -83t68.5 -23t68.5 23t22.5 83v460h110v-450q0 -111 -48.5 -161.5t-152.5 -50.5z" />
    <glyph glyph-name="V" unicode="V" horiz-adv-x="442" 
d="M164 0l-162 650h115l75 -325q16 -67 30 -194q15 123 32 194l74 325h112l-162 -650h-114z" />
    <glyph glyph-name="W" unicode="W" horiz-adv-x="649" 
d="M143 0l-123 650h109l51 -325q10 -67 19 -208q10 147 20 208l51 325h113l51 -325q10 -67 19 -208q10 147 20 208l51 325h105l-123 -650h-113l-51 325q-9 53 -18 176q-8 -116 -17 -176l-51 -325h-113z" />
    <glyph glyph-name="X" unicode="X" horiz-adv-x="482" 
d="M18 0l161 332l-154 318h122l61 -137q19 -42 35 -97q15 57 33 97l63 137h118l-154 -318l161 -332h-121l-72 153q-18 38 -35 97q-18 -62 -33 -97l-66 -153h-119z" />
    <glyph glyph-name="Y" unicode="Y" horiz-adv-x="446" 
d="M168 0v271l-175 379h119l72 -170q22 -55 40 -116q16 60 40 116l72 170h117l-175 -379v-271h-110z" />
    <glyph glyph-name="Z" unicode="Z" horiz-adv-x="427" 
d="M40 0v76l220 482h-215v92h337v-77l-220 -481h225v-92h-347z" />
    <glyph glyph-name="bracketleft" unicode="[" horiz-adv-x="304" 
d="M85 -150v800h194v-84h-95v-632h95v-84h-194z" />
    <glyph glyph-name="backslash" unicode="\" horiz-adv-x="271" 
d="M207 -150l-207 800h99l207 -800h-99z" />
    <glyph glyph-name="bracketright" unicode="]" horiz-adv-x="304" 
d="M25 -150v84h95v632h-95v84h194v-800h-194z" />
    <glyph glyph-name="asciicircum" unicode="^" horiz-adv-x="416" 
d="M109 369l-79 50l145 231h66l145 -231l-79 -50l-99 164z" />
    <glyph glyph-name="underscore" unicode="_" horiz-adv-x="390" 
d="M5 -150v91h380v-91h-380z" />
    <glyph glyph-name="grave" unicode="`" horiz-adv-x="298" 
d="M152 564l-95 96h126l58 -96h-89z" />
    <glyph glyph-name="a" unicode="a" horiz-adv-x="441" 
d="M305 0l-8 28q-50 -40 -118 -40q-77 0 -107 42.5t-30 123.5q0 79 31 122.5t106 43.5q55 0 98 -27v12q0 63 -20.5 88t-77.5 25q-59 0 -110 -30v94q11 9 48 19.5t83 10.5q181 0 181 -182v-330h-76zM205 74q36 0 72 21v117q-37 22 -72 22q-33 0 -45.5 -18.5t-12.5 -61.5
t12.5 -61.5t45.5 -18.5z" />
    <glyph glyph-name="b" unicode="b" horiz-adv-x="458" 
d="M65 0v650h104v-166q40 28 90 28q82 0 116.5 -58t34.5 -204q0 -142 -35.5 -202t-111.5 -60q-69 0 -116 39l-8 -27h-74zM232 418q-33 0 -63 -19v-298q30 -19 63 -19q43 0 57 33.5t14 134.5t-14 134.5t-57 33.5z" />
    <glyph glyph-name="c" unicode="c" horiz-adv-x="371" 
d="M228 -12q-46 0 -79 13.5t-52.5 35t-30.5 57t-14.5 71t-3.5 85.5q0 148 44.5 205t133.5 57q63 0 106 -24v-95q-37 23 -92 23q-52 0 -68.5 -32t-16.5 -134q0 -100 16 -133t63 -34q56 0 102 26v-94q-42 -27 -108 -27z" />
    <glyph glyph-name="d" unicode="d" horiz-adv-x="458" 
d="M319 0l-9 29q-48 -41 -111 -41q-82 0 -116.5 58t-34.5 204q0 142 35.5 202t111.5 60q50 0 94 -27v165h104v-650h-74zM226 82q33 0 63 19v298q-30 19 -63 19q-43 0 -57 -33.5t-14 -134.5t14 -134.5t57 -33.5z" />
    <glyph glyph-name="e" unicode="e" horiz-adv-x="435" 
d="M241 -12q-45 0 -77 10t-60 36t-42 78.5t-14 131.5q0 108 20 167.5t55.5 80t96.5 20.5q62 0 97 -20t55 -78t20 -164v-37h-238q4 -82 24 -106.5t71 -24.5q65 0 113 30v-94q-11 -9 -45 -19.5t-76 -10.5zM220 421q-37 0 -50.5 -25.5t-15.5 -97.5h132q-2 71 -15.5 97t-50.5 26
z" />
    <glyph glyph-name="f" unicode="f" horiz-adv-x="317" 
d="M25 378v87h72v45q0 81 36.5 110.5t101.5 29.5h57v-87h-29q-35 0 -48.5 -13t-13.5 -50v-35h91v-87h-91v-378h-104v378h-72z" />
    <glyph glyph-name="g" unicode="g" horiz-adv-x="458" 
d="M203 -162q-46 0 -80.5 10t-45.5 18v96q48 -30 113 -30q53 0 76 17.5t23 65.5v31q-41 -28 -90 -28q-81 0 -116 56.5t-35 190.5q0 130 36 188.5t111 58.5q66 0 116 -40l8 28h74v-505q0 -157 -190 -157zM226 112q33 0 63 19v268q-30 19 -63 19q-42 0 -56 -32.5t-14 -120.5
t14 -120.5t56 -32.5z" />
    <glyph glyph-name="h" unicode="h" horiz-adv-x="463" 
d="M65 0v650h104v-168q43 30 95 30q139 0 139 -172v-340h-104v331q0 45 -13.5 67t-54.5 22q-32 0 -62 -19v-401h-104z" />
    <glyph glyph-name="i" unicode="i" horiz-adv-x="234" 
d="M117 544q-66 0 -66 59t66 59t66 -59t-66 -59zM65 0v500h104v-500h-104z" />
    <glyph glyph-name="j" unicode="j" horiz-adv-x="234" 
d="M117 544q-66 0 -66 59t66 59t66 -59t-66 -59zM-20 -150v87h31q31 0 42.5 13t11.5 43v507h104v-524q0 -71 -35 -98.5t-100 -27.5h-54z" />
    <glyph glyph-name="k" unicode="k" horiz-adv-x="431" 
d="M65 0v650h104v-353l121 203h119l-149 -234l169 -266h-124l-136 224v-224h-104z" />
    <glyph glyph-name="l" unicode="l" horiz-adv-x="249" 
d="M195 -4q-65 0 -100 27.5t-35 98.5v528h104v-511q0 -30 11.5 -43t42.5 -13h16v-87h-39z" />
    <glyph glyph-name="m" unicode="m" horiz-adv-x="697" 
d="M65 0v500h76l8 -28q48 40 109 40q74 0 109 -43q49 43 125 43q145 0 145 -172v-340h-104v331q0 45 -13.5 67t-54.5 22q-36 0 -67 -22q5 -30 5 -58v-340h-104v331q0 45 -13.5 67t-54.5 22q-32 0 -62 -19v-401h-104z" />
    <glyph glyph-name="n" unicode="n" horiz-adv-x="463" 
d="M65 0v500h76l8 -28q48 40 109 40q145 0 145 -172v-340h-104v331q0 45 -13.5 67t-54.5 22q-32 0 -62 -19v-401h-104z" />
    <glyph glyph-name="o" unicode="o" 
d="M225 -12q-64 0 -100 20t-56.5 78t-20.5 164q0 79 11 131t35 80.5t55 39.5t76 11q64 0 100 -20t56.5 -78t20.5 -164q0 -79 -11 -131t-35 -80.5t-55 -39.5t-76 -11zM225 82q43 0 57 33.5t14 134.5t-14 134.5t-57 33.5t-57 -33.5t-14 -134.5t14 -134.5t57 -33.5z" />
    <glyph glyph-name="p" unicode="p" horiz-adv-x="458" 
d="M65 -150v650h74l8 -30q49 42 112 42q82 0 116.5 -58t34.5 -204q0 -142 -35.5 -202t-111.5 -60q-52 0 -94 27v-165h-104zM232 418q-33 0 -63 -19v-298q30 -19 63 -19q43 0 57 33.5t14 134.5t-14 134.5t-57 33.5z" />
    <glyph glyph-name="q" unicode="q" horiz-adv-x="458" 
d="M289 -150v166q-41 -28 -90 -28q-82 0 -116.5 58t-34.5 204q0 142 35.5 202t111.5 60q66 0 116 -40l8 28h74v-650h-104zM226 82q33 0 63 19v298q-30 19 -63 19q-43 0 -57 -33.5t-14 -134.5t14 -134.5t57 -33.5z" />
    <glyph glyph-name="r" unicode="r" horiz-adv-x="311" 
d="M65 0v500h76l12 -42q55 48 138 48v-104q-71 0 -122 -21v-381h-104z" />
    <glyph glyph-name="s" unicode="s" horiz-adv-x="380" 
d="M161 -12q-74 0 -118 28v96q52 -30 114 -30q77 0 77 54q0 33 -42 55l-59 31q-93 49 -93 138q0 74 46 113t121 39q65 0 112 -26v-93q-40 25 -97 25q-76 0 -76 -54q0 -33 42 -55l62 -33q51 -27 70.5 -59.5t19.5 -76.5q0 -74 -45 -113t-134 -39z" />
    <glyph glyph-name="t" unicode="t" horiz-adv-x="327" 
d="M20 413v87h72v150h104v-150h101v-87h-101v-267q0 -37 13.5 -50t48.5 -13h29v-87h-57q-65 0 -101.5 29.5t-36.5 110.5v277h-72z" />
    <glyph glyph-name="u" unicode="u" horiz-adv-x="457" 
d="M316 0l-8 27q-46 -39 -106 -39q-79 0 -110.5 45.5t-31.5 126.5v340h104v-331q0 -46 12 -67.5t53 -21.5q30 0 59 18v402h104v-500h-76z" />
    <glyph glyph-name="v" unicode="v" horiz-adv-x="412" 
d="M153 0l-138 500h107l66 -266q10 -39 19 -117q8 71 20 117l66 266h104l-138 -500h-106z" />
    <glyph glyph-name="w" unicode="w" horiz-adv-x="631" 
d="M129 0l-105 500h103l45 -250q9 -49 16 -144q9 97 19 144l52 250h116l52 -250q11 -54 18 -144q7 85 17 144l45 250h100l-105 -500h-115l-52 250q-11 58 -20 151q-9 -103 -19 -151l-52 -250h-115z" />
    <glyph glyph-name="x" unicode="x" horiz-adv-x="413" 
d="M21 0l132 256l-129 244h114l49 -104q11 -23 22 -68q8 38 22 68l47 104h111l-129 -244l132 -256h-112l-56 117q-11 22 -21 60q-7 -34 -19 -60l-56 -117h-107z" />
    <glyph glyph-name="y" unicode="y" horiz-adv-x="412" 
d="M110 -150l43 150l-138 500h107l66 -266q11 -45 19 -120q10 80 20 120l66 266h104l-180 -650h-107z" />
    <glyph glyph-name="z" unicode="z" horiz-adv-x="392" 
d="M40 0v67l188 346h-183v87h307v-67l-189 -346h194v-87h-317z" />
    <glyph glyph-name="braceleft" unicode="{" horiz-adv-x="304" 
d="M240 -150q-95 0 -125 26.5t-30 111.5v133q0 53 -18 73t-60 20v72q42 0 60 20t18 73v133q0 85 30 111.5t125 26.5h39v-84h-14q-55 0 -68 -12t-13 -63v-130q0 -92 -63 -111q63 -19 63 -111v-130q0 -51 13 -63t68 -12h14v-84h-39z" />
    <glyph glyph-name="bar" unicode="|" horiz-adv-x="249" 
d="M75 -150v800h99v-800h-99z" />
    <glyph glyph-name="braceright" unicode="}" horiz-adv-x="304" 
d="M25 -150v84h14q55 0 68 12t13 63v130q0 92 62 111q-62 19 -62 111v130q0 51 -13 63t-68 12h-14v84h39q95 0 125 -26.5t30 -111.5v-133q0 -53 18 -73t60 -20v-72q-42 0 -60 -20t-18 -73v-133q0 -85 -30 -111.5t-125 -26.5h-39z" />
    <glyph glyph-name="asciitilde" unicode="~" horiz-adv-x="335" 
d="M225 526q-31 0 -70 23t-62 23q-36 0 -68 -30v78q32 42 85 42q31 0 70 -23t62 -23q36 0 68 30v-78q-32 -42 -85 -42z" />
    <glyph glyph-name="uni00A0" unicode="&#xa0;" horiz-adv-x="200" 
 />
    <glyph glyph-name="exclamdown" unicode="&#xa1;" horiz-adv-x="258" 
d="M129 386q-29 0 -46 16.5t-17 46.5t17 46.5t46 16.5t46 -16.5t17 -46.5t-17 -46.5t-46 -16.5zM65 -150l24 455h80l24 -455h-128z" />
    <glyph glyph-name="cent" unicode="&#xa2;" horiz-adv-x="371" 
d="M169 -100v95q-38 9 -63 31.5t-37 58t-16.5 73.5t-4.5 92q0 122 30.5 181.5t90.5 74.5v94h91v-90q42 -5 72 -22v-95q-37 23 -92 23q-52 0 -68.5 -32t-16.5 -134q0 -100 16 -133t63 -34q56 0 102 26v-94q-30 -19 -76 -25v-90h-91z" />
    <glyph glyph-name="sterling" unicode="&#xa3;" horiz-adv-x="454" 
d="M35 283v87h78v66q0 114 45 170t144 56q71 0 107 -26v-96q-38 26 -97 26q-58 0 -74.5 -35t-16.5 -115v-46h159v-87h-159v-196h188v-87h-374v87h78v196h-78z" />
    <glyph glyph-name="currency" unicode="&#xa4;" horiz-adv-x="498" 
d="M418 70l-60 61q-39 -28 -109 -28t-109 28l-60 -61l-65 65l72 73q-15 46 -15 117t15 117l-72 73l65 65l60 -61q39 28 109 28t109 -28l60 61l65 -65l-72 -73q15 -46 15 -117t-15 -117l72 -73zM249 197q41 0 56 29t15 99t-15 99t-56 29t-56 -29t-15 -99t15 -99t56 -29z" />
    <glyph glyph-name="yen" unicode="&#xa5;" horiz-adv-x="476" 
d="M63 265v87h82l-137 298h119l72 -170q26 -66 40 -122q17 66 40 122l72 170h117l-138 -298h83v-87h-120v-68h120v-87h-120v-110h-110v110h-120v87h120v68h-120z" />
    <glyph glyph-name="brokenbar" unicode="&#xa6;" horiz-adv-x="249" 
d="M75 -150v325h99v-325h-99zM75 325v325h99v-325h-99z" />
    <glyph glyph-name="section" unicode="&#xa7;" horiz-adv-x="483" 
d="M158 -162q-95 0 -143 29v100q46 -31 104 -31q79 0 79 78q0 39 -32 95l-65 112q-60 102 -60 198q0 116 81.5 179.5t200.5 63.5q78 0 120 -21v-96q-33 19 -81 19q-79 0 -79 -78q0 -39 32 -95l65 -112q60 -102 60 -198q0 -116 -81.5 -179.5t-200.5 -63.5zM250 -74
q93 41 93 151q0 68 -48 150l-57 98q-46 80 -45 146q0 62 38 103q-93 -41 -93 -151q0 -68 48 -150l57 -98q46 -80 45 -146q0 -62 -38 -103z" />
    <glyph glyph-name="dieresis" unicode="&#xa8;" horiz-adv-x="404" 
d="M117 552q-28 0 -44 16t-16 44t16 44t44 16t44 -16t16 -44t-16 -44t-44 -16zM287 552q-28 0 -44 16t-16 44t16 44t44 16t44 -16t16 -44t-16 -44t-44 -16z" />
    <glyph glyph-name="copyright" unicode="&#xa9;" horiz-adv-x="592" 
d="M309 133q-67 0 -98 40.5t-31 151.5q0 106 31.5 149t97.5 43q51 0 80 -18v-70q-34 17 -71 17q-36 0 -48 -24t-12 -97t12 -97t48 -24q39 0 71 16v-70q-34 -17 -80 -17zM296 -12q-144 0 -195 73t-51 264q0 189 52 263t194 74q144 0 195 -73t51 -264q0 -189 -52 -263
t-194 -74zM296 59q67 0 100 18.5t50 75.5t17 172t-17 172t-50 75.5t-100 18.5t-100 -18.5t-50 -75.5t-17 -172t17 -172t50 -75.5t100 -18.5z" />
    <glyph glyph-name="ordfeminine" unicode="&#xaa;" horiz-adv-x="350" 
d="M244 240l-8 25q-39 -34 -93 -34q-109 0 -109 134t109 134q41 0 77 -22v12q0 48 -18 67.5t-62 19.5q-52 0 -87 -26v83q41 25 103 25q68 0 111 -35.5t43 -119.5v-263h-66zM49 98v80h261v-80h-261zM168 306q28 0 52 14v89q-26 15 -52 15q-25 0 -35.5 -14t-10.5 -45t10.5 -45
t35.5 -14z" />
    <glyph glyph-name="guillemotleft" unicode="&#xab;" horiz-adv-x="443" 
d="M125 130l-100 170l100 170h89l-88 -170l88 -170h-89zM319 130l-100 170l100 170h89l-88 -170l88 -170h-89z" />
    <glyph glyph-name="logicalnot" unicode="&#xac;" horiz-adv-x="480" 
d="M326 80v125h-281v91h380v-216h-99z" />
    <glyph glyph-name="uni00AD" unicode="&#xad;" horiz-adv-x="332" 
d="M45 275v104h242v-104h-242z" />
    <glyph glyph-name="registered" unicode="&#xae;" horiz-adv-x="456" 
d="M228 190q-105 0 -145.5 52.5t-40.5 183.5q0 130 41.5 183t144.5 53q105 0 145.5 -52.5t40.5 -183.5q0 -130 -41.5 -183t-144.5 -53zM228 244q49 0 74 12t39.5 52t14.5 118t-14.5 118t-39.5 52t-74 12t-74 -12t-39.5 -52t-14.5 -118t14.5 -118t39.5 -52t74 -12zM154 298
v257h69q83 0 83 -81q0 -46 -33 -65l49 -111h-59l-38 97h-19v-97h-52zM219 507h-13v-66h13q17 0 25 6.5t8 26.5t-8 26.5t-25 6.5z" />
    <glyph glyph-name="macron" unicode="&#xaf;" horiz-adv-x="366" 
d="M57 572v83h252v-83h-252z" />
    <glyph glyph-name="degree" unicode="&#xb0;" horiz-adv-x="402" 
d="M201 368q-70 0 -110.5 36.5t-40.5 110.5t41 110.5t110 36.5q70 0 110.5 -36.5t40.5 -110.5t-41 -110.5t-110 -36.5zM201 443q69 0 69 72t-69 72t-69 -72t69 -72z" />
    <glyph glyph-name="plusminus" unicode="&#xb1;" horiz-adv-x="470" 
d="M45 0v91h380v-91h-380zM45 282v91h140v144h100v-144h140v-91h-140v-145h-100v145h-140z" />
    <glyph glyph-name="twosuperior" unicode="&#xb2;" horiz-adv-x="364" 
d="M50 237v51q0 63 23 97t69 58q23 11 32.5 16.5t22.5 16t17.5 22t4.5 27.5q0 28 -14.5 40.5t-50.5 12.5q-43 0 -90 -22v82q46 20 99 20q78 0 113 -35.5t35 -91.5q0 -42 -20 -74.5t-41.5 -47.5t-58.5 -34q-26 -14 -36.5 -27t-12.5 -35h172v-76h-264z" />
    <glyph glyph-name="threesuperior" unicode="&#xb3;" horiz-adv-x="364" 
d="M151 230q-63 0 -101 19v83q43 -23 93 -23q80 0 80 52q0 66 -127 66v52l94 95h-138v76h254v-60l-105 -107q52 -10 83 -45t31 -77q0 -64 -42 -97.5t-122 -33.5z" />
    <glyph glyph-name="acute" unicode="&#xb4;" horiz-adv-x="298" 
d="M57 564l58 96h126l-95 -96h-89z" />
    <glyph glyph-name="mu" unicode="&#xb5;" horiz-adv-x="462" 
d="M321 0l-8 27q-45 -39 -102 -39q-25 0 -51 7q9 -43 9 -75v-70h-104v650h104v-331q0 -46 12 -67.5t53 -21.5q30 0 59 18v402h104v-500h-76z" />
    <glyph glyph-name="paragraph" unicode="&#xb6;" horiz-adv-x="517" 
d="M268 222q-68 0 -115 16.5t-71 48t-34 67t-10 82.5q0 214 230 214v-428zM348 -150v800h94v-800h-94z" />
    <glyph glyph-name="periodcentered" unicode="&#xb7;" horiz-adv-x="196" 
d="M98 262q-29 0 -46 16.5t-17 46.5t17 46.5t46 16.5t46 -16.5t17 -46.5t-17 -46.5t-46 -16.5z" />
    <glyph glyph-name="cedilla" unicode="&#xb8;" horiz-adv-x="254" 
d="M117 -162q-36 0 -60 12v59q15 -3 29 -3q33 0 33 25q0 31 -35 69h59q20 -16 37 -41.5t17 -50.5q0 -34 -22 -52t-58 -18z" />
    <glyph glyph-name="onesuperior" unicode="&#xb9;" horiz-adv-x="364" 
d="M68 237v76h76v248l-76 -22v79l105 32h61v-337h76v-76h-242z" />
    <glyph glyph-name="ordmasculine" unicode="&#xba;" horiz-adv-x="364" 
d="M182 230q-54 0 -84 16t-47 63.5t-17 134.5q0 124 35 169t113 45q54 0 84 -16t47 -63.5t17 -134.5q0 -124 -35 -169t-113 -45zM182 308q35 0 45 26.5t10 109.5t-10 109.5t-45 26.5t-45 -26.5t-10 -109.5t10 -109.5t45 -26.5zM50 98v80h264v-80h-264z" />
    <glyph glyph-name="guillemotright" unicode="&#xbb;" horiz-adv-x="443" 
d="M35 130l88 170l-88 170h89l100 -170l-100 -170h-89zM229 130l88 170l-88 170h89l100 -170l-100 -170h-89z" />
    <glyph glyph-name="onequarter" unicode="&#xbc;" horiz-adv-x="924" 
d="M68 237v76h76v248l-76 -22v79l105 32h61v-337h76v-76h-242zM219 0l397 650h89l-397 -650h-89zM590 77v59l166 277h97l-162 -263h78v61h88v-61h51v-73h-51v-77h-88v77h-179z" />
    <glyph glyph-name="onehalf" unicode="&#xbd;" horiz-adv-x="924" 
d="M68 237v76h76v248l-76 -22v79l105 32h61v-337h76v-76h-242zM219 0l397 650h89l-397 -650h-89zM610 0v51q0 63 23 97t69 58q23 11 32.5 16.5t22.5 16t17.5 22t4.5 27.5q0 28 -14.5 40.5t-50.5 12.5q-43 0 -90 -22v82q46 20 99 20q78 0 113 -35.5t35 -91.5q0 -42 -20 -74.5
t-41.5 -47.5t-58.5 -34q-26 -14 -36.5 -27t-12.5 -35h172v-76h-264z" />
    <glyph glyph-name="threequarters" unicode="&#xbe;" horiz-adv-x="924" 
d="M151 230q-63 0 -101 19v83q43 -23 93 -23q80 0 80 52q0 66 -127 66v52l94 95h-138v76h254v-60l-105 -107q52 -10 83 -45t31 -77q0 -64 -42 -97.5t-122 -33.5zM219 0l397 650h89l-397 -650h-89zM590 77v59l166 277h97l-162 -263h78v61h88v-61h51v-73h-51v-77h-88v77h-179z
" />
    <glyph glyph-name="questiondown" unicode="&#xbf;" horiz-adv-x="343" 
d="M209 -162q-89 0 -138 43t-49 119q0 42 20 81.5t41 61t55 50.5l21 18l9 94h80l12 -138l-49 -41q-38 -31 -56.5 -57t-18.5 -59q0 -74 91 -74q56 0 102 27v-98q-41 -27 -120 -27zM208 386q-29 0 -46 16.5t-17 46.5t17 46.5t46 16.5t46 -16.5t17 -46.5t-17 -46.5t-46 -16.5z
" />
    <glyph glyph-name="Agrave" unicode="&#xc0;" horiz-adv-x="460" 
d="M2 0l171 650h114l171 -650h-114l-35 140h-162l-34 -140h-111zM190 325l-23 -93h123l-21 93q-25 109 -38 199q-16 -97 -41 -199zM200 714l-95 96h126l58 -96h-89z" />
    <glyph glyph-name="Aacute" unicode="&#xc1;" horiz-adv-x="460" 
d="M2 0l171 650h114l171 -650h-114l-35 140h-162l-34 -140h-111zM190 325l-23 -93h123l-21 93q-25 109 -38 199q-16 -97 -41 -199zM171 714l58 96h126l-95 -96h-89z" />
    <glyph glyph-name="Acircumflex" unicode="&#xc2;" horiz-adv-x="460" 
d="M2 0l171 650h114l171 -650h-114l-35 140h-162l-34 -140h-111zM190 325l-23 -93h123l-21 93q-25 109 -38 199q-16 -97 -41 -199zM104 698v69l126 60l126 -60v-69l-126 38z" />
    <glyph glyph-name="Atilde" unicode="&#xc3;" horiz-adv-x="460" 
d="M2 0l171 650h114l171 -650h-114l-35 140h-162l-34 -140h-111zM190 325l-23 -93h123l-21 93q-25 109 -38 199q-16 -97 -41 -199zM278 705q-26 0 -58 20.5t-51 20.5q-29 0 -56 -27v70q9 14 28 26t42 12q26 0 58 -20.5t51 -20.5q29 0 56 27v-70q-9 -14 -28 -26t-42 -12z" />
    <glyph glyph-name="Adieresis" unicode="&#xc4;" horiz-adv-x="460" 
d="M2 0l171 650h114l171 -650h-114l-35 140h-162l-34 -140h-111zM190 325l-23 -93h123l-21 93q-25 109 -38 199q-16 -97 -41 -199zM145 702q-28 0 -44 16t-16 44t16 44t44 16t44 -16t16 -44t-16 -44t-44 -16zM315 702q-28 0 -44 16t-16 44t16 44t44 16t44 -16t16 -44
t-16 -44t-44 -16z" />
    <glyph glyph-name="Aring" unicode="&#xc5;" horiz-adv-x="460" 
d="M2 0l160 608q-44 29 -44 91q0 51 31.5 80.5t80.5 29.5q50 0 81 -29.5t31 -80.5q0 -60 -44 -91l160 -608h-114l-35 140h-162l-34 -140h-111zM190 325l-23 -93h123l-21 93q-25 109 -38 199q-16 -97 -41 -199zM230 650q21 0 34.5 12.5t13.5 36.5t-13.5 36.5t-34.5 12.5
t-34.5 -12.5t-13.5 -36.5t13.5 -36.5t34.5 -12.5z" />
    <glyph glyph-name="AE" unicode="&#xc6;" horiz-adv-x="645" 
d="M290 0v140h-143l-34 -140h-111l171 650h417v-92h-190v-178h150v-92h-150v-196h190v-92h-300zM250 558l-81 -326h121v326h-40z" />
    <glyph glyph-name="Ccedilla" unicode="&#xc7;" horiz-adv-x="431" 
d="M242 -162q-36 0 -60 12v59q15 -3 29 -3q33 0 33 25q0 24 -28 61q-96 15 -131 92.5t-35 240.5q0 180 48 258.5t171 78.5q71 0 117 -25v-101q-50 27 -110 27q-47 0 -69.5 -18t-32.5 -67.5t-10 -152.5q0 -101 11 -152t33.5 -69t67.5 -18q63 0 115 28v-100q-44 -23 -110 -26
q41 -41 41 -80q0 -34 -22 -52t-58 -18z" />
    <glyph glyph-name="Egrave" unicode="&#xc8;" 
d="M75 0v650h320v-92h-210v-178h170v-92h-170v-196h210v-92h-320zM205 714l-95 96h126l58 -96h-89z" />
    <glyph glyph-name="Eacute" unicode="&#xc9;" 
d="M75 0v650h320v-92h-210v-178h170v-92h-170v-196h210v-92h-320zM176 714l58 96h126l-95 -96h-89z" />
    <glyph glyph-name="Ecircumflex" unicode="&#xca;" 
d="M75 0v650h320v-92h-210v-178h170v-92h-170v-196h210v-92h-320zM109 698v69l126 60l126 -60v-69l-126 38z" />
    <glyph glyph-name="Edieresis" unicode="&#xcb;" 
d="M75 0v650h320v-92h-210v-178h170v-92h-170v-196h210v-92h-320zM150 702q-28 0 -44 16t-16 44t16 44t44 16t44 -16t16 -44t-16 -44t-44 -16zM320 702q-28 0 -44 16t-16 44t16 44t44 16t44 -16t16 -44t-16 -44t-44 -16z" />
    <glyph glyph-name="Igrave" unicode="&#xcc;" horiz-adv-x="260" 
d="M75 0v650h110v-650h-110zM100 714l-95 96h126l58 -96h-89z" />
    <glyph glyph-name="Iacute" unicode="&#xcd;" horiz-adv-x="260" 
d="M75 0v650h110v-650h-110zM71 714l58 96h126l-95 -96h-89z" />
    <glyph glyph-name="Icircumflex" unicode="&#xce;" horiz-adv-x="260" 
d="M75 0v650h110v-650h-110zM4 698v69l126 60l126 -60v-69l-126 38z" />
    <glyph glyph-name="Idieresis" unicode="&#xcf;" horiz-adv-x="260" 
d="M75 0v650h110v-650h-110zM45 702q-28 0 -44 16t-16 44t16 44t44 16t44 -16t16 -44t-16 -44t-44 -16zM215 702q-28 0 -44 16t-16 44t16 44t44 16t44 -16t16 -44t-16 -44t-44 -16z" />
    <glyph glyph-name="Eth" unicode="&#xd0;" horiz-adv-x="528" 
d="M25 282v91h55v277h185q67 0 109 -18.5t65 -61.5t31 -99t8 -146q0 -88 -8 -144.5t-31 -99.5t-65.5 -62t-108.5 -19h-185v282h-55zM257 560h-67v-187h90v-91h-90v-192h67q45 0 66.5 18.5t31 67.5t9.5 149t-9.5 149t-31 67.5t-66.5 18.5z" />
    <glyph glyph-name="Ntilde" unicode="&#xd1;" horiz-adv-x="554" 
d="M75 0v650h127l188 -493q-16 116 -16 183v310h105v-650h-127l-189 492q17 -108 17 -182v-310h-105zM325 705q-26 0 -58 20.5t-51 20.5q-29 0 -56 -27v70q9 14 28 26t42 12q26 0 58 -20.5t51 -20.5q29 0 56 27v-70q-9 -14 -28 -26t-42 -12z" />
    <glyph glyph-name="Ograve" unicode="&#xd2;" horiz-adv-x="514" 
d="M257 -12q-56 0 -92 13.5t-63.5 50.5t-39.5 103.5t-12 169.5q0 134 24.5 209t67.5 101.5t115 26.5q75 0 117.5 -26t66 -100.5t23.5 -210.5q0 -102 -12.5 -168.5t-40.5 -103.5t-64 -51t-90 -14zM257 84q58 0 75.5 47.5t17.5 193.5t-17.5 193.5t-75.5 47.5t-75.5 -47.5
t-17.5 -193.5t17.5 -193.5t75.5 -47.5zM227 714l-95 96h126l58 -96h-89z" />
    <glyph glyph-name="Oacute" unicode="&#xd3;" horiz-adv-x="514" 
d="M257 -12q-56 0 -92 13.5t-63.5 50.5t-39.5 103.5t-12 169.5q0 134 24.5 209t67.5 101.5t115 26.5q75 0 117.5 -26t66 -100.5t23.5 -210.5q0 -102 -12.5 -168.5t-40.5 -103.5t-64 -51t-90 -14zM257 84q58 0 75.5 47.5t17.5 193.5t-17.5 193.5t-75.5 47.5t-75.5 -47.5
t-17.5 -193.5t17.5 -193.5t75.5 -47.5zM198 714l58 96h126l-95 -96h-89z" />
    <glyph glyph-name="Ocircumflex" unicode="&#xd4;" horiz-adv-x="514" 
d="M257 -12q-56 0 -92 13.5t-63.5 50.5t-39.5 103.5t-12 169.5q0 134 24.5 209t67.5 101.5t115 26.5q75 0 117.5 -26t66 -100.5t23.5 -210.5q0 -102 -12.5 -168.5t-40.5 -103.5t-64 -51t-90 -14zM257 84q58 0 75.5 47.5t17.5 193.5t-17.5 193.5t-75.5 47.5t-75.5 -47.5
t-17.5 -193.5t17.5 -193.5t75.5 -47.5zM131 698v69l126 60l126 -60v-69l-126 38z" />
    <glyph glyph-name="Otilde" unicode="&#xd5;" horiz-adv-x="514" 
d="M257 -12q-56 0 -92 13.5t-63.5 50.5t-39.5 103.5t-12 169.5q0 134 24.5 209t67.5 101.5t115 26.5q75 0 117.5 -26t66 -100.5t23.5 -210.5q0 -102 -12.5 -168.5t-40.5 -103.5t-64 -51t-90 -14zM257 84q58 0 75.5 47.5t17.5 193.5t-17.5 193.5t-75.5 47.5t-75.5 -47.5
t-17.5 -193.5t17.5 -193.5t75.5 -47.5zM305 705q-26 0 -58 20.5t-51 20.5q-29 0 -56 -27v70q9 14 28 26t42 12q26 0 58 -20.5t51 -20.5q29 0 56 27v-70q-9 -14 -28 -26t-42 -12z" />
    <glyph glyph-name="Odieresis" unicode="&#xd6;" horiz-adv-x="514" 
d="M257 -12q-56 0 -92 13.5t-63.5 50.5t-39.5 103.5t-12 169.5q0 134 24.5 209t67.5 101.5t115 26.5q75 0 117.5 -26t66 -100.5t23.5 -210.5q0 -102 -12.5 -168.5t-40.5 -103.5t-64 -51t-90 -14zM257 84q58 0 75.5 47.5t17.5 193.5t-17.5 193.5t-75.5 47.5t-75.5 -47.5
t-17.5 -193.5t17.5 -193.5t75.5 -47.5zM172 702q-28 0 -44 16t-16 44t16 44t44 16t44 -16t16 -44t-16 -44t-44 -16zM342 702q-28 0 -44 16t-16 44t16 44t44 16t44 -16t16 -44t-16 -44t-44 -16z" />
    <glyph glyph-name="multiply" unicode="&#xd7;" horiz-adv-x="449" 
d="M105 141l-65 65l119 119l-119 120l65 65l119 -120l120 120l65 -65l-120 -120l120 -119l-65 -65l-120 119z" />
    <glyph glyph-name="Oslash" unicode="&#xd8;" horiz-adv-x="514" 
d="M257 -12q-78 0 -120 27l-33 -65h-80l64 124q-38 75 -38 251q0 134 24.5 209t67.5 101.5t115 26.5q77 0 118 -28l34 66h80l-64 -124q39 -76 39 -251q0 -102 -12.5 -168.5t-40.5 -103.5t-64 -51t-90 -14zM350 325v104l-162 -315q18 -30 69 -30q58 0 75.5 47.5t17.5 193.5z
M164 325v-103l161 315q-18 29 -68 29q-58 0 -75.5 -47.5t-17.5 -193.5z" />
    <glyph glyph-name="Ugrave" unicode="&#xd9;" horiz-adv-x="542" 
d="M271 -12q-105 0 -153 49.5t-48 162.5v450h110v-460q0 -60 22.5 -83t68.5 -23t68.5 23t22.5 83v460h110v-450q0 -111 -48.5 -161.5t-152.5 -50.5zM241 714l-95 96h126l58 -96h-89z" />
    <glyph glyph-name="Uacute" unicode="&#xda;" horiz-adv-x="542" 
d="M271 -12q-105 0 -153 49.5t-48 162.5v450h110v-460q0 -60 22.5 -83t68.5 -23t68.5 23t22.5 83v460h110v-450q0 -111 -48.5 -161.5t-152.5 -50.5zM212 714l58 96h126l-95 -96h-89z" />
    <glyph glyph-name="Ucircumflex" unicode="&#xdb;" horiz-adv-x="542" 
d="M271 -12q-105 0 -153 49.5t-48 162.5v450h110v-460q0 -60 22.5 -83t68.5 -23t68.5 23t22.5 83v460h110v-450q0 -111 -48.5 -161.5t-152.5 -50.5zM145 698v69l126 60l126 -60v-69l-126 38z" />
    <glyph glyph-name="Udieresis" unicode="&#xdc;" horiz-adv-x="542" 
d="M271 -12q-105 0 -153 49.5t-48 162.5v450h110v-460q0 -60 22.5 -83t68.5 -23t68.5 23t22.5 83v460h110v-450q0 -111 -48.5 -161.5t-152.5 -50.5zM186 702q-28 0 -44 16t-16 44t16 44t44 16t44 -16t16 -44t-16 -44t-44 -16zM356 702q-28 0 -44 16t-16 44t16 44t44 16
t44 -16t16 -44t-16 -44t-44 -16z" />
    <glyph glyph-name="Yacute" unicode="&#xdd;" horiz-adv-x="446" 
d="M168 0v271l-175 379h119l72 -170q22 -55 40 -116q16 60 40 116l72 170h117l-175 -379v-271h-110zM164 714l58 96h126l-95 -96h-89z" />
    <glyph glyph-name="Thorn" unicode="&#xde;" horiz-adv-x="484" 
d="M75 0v650h110v-103h64q96 0 145.5 -50t49.5 -162q0 -109 -51.5 -160.5t-143.5 -51.5h-64v-123h-110zM239 455h-54v-240h54q48 0 70.5 26.5t22.5 93.5t-22.5 93.5t-70.5 26.5z" />
    <glyph glyph-name="germandbls" unicode="&#xdf;" horiz-adv-x="500" 
d="M323 -12q-71 0 -102 20v94q34 -22 79 -22q32 0 50.5 17.5t18.5 49.5q0 42 -33 71t-114 71v65q89 54 89 139q0 41 -15.5 61t-53.5 20q-43 0 -58 -25.5t-15 -102.5v-446h-104v469q0 111 47 152t130 41q84 0 129.5 -41t45.5 -117q0 -101 -87 -174q75 -41 110 -82.5
t35 -110.5q0 -65 -40 -107t-112 -42z" />
    <glyph glyph-name="agrave" unicode="&#xe0;" horiz-adv-x="441" 
d="M305 0l-8 28q-50 -40 -118 -40q-77 0 -107 42.5t-30 123.5q0 79 31 122.5t106 43.5q55 0 98 -27v12q0 63 -20.5 88t-77.5 25q-59 0 -110 -30v94q11 9 48 19.5t83 10.5q181 0 181 -182v-330h-76zM205 74q36 0 72 21v117q-37 22 -72 22q-33 0 -45.5 -18.5t-12.5 -61.5
t12.5 -61.5t45.5 -18.5zM182 564l-95 96h126l58 -96h-89z" />
    <glyph glyph-name="aacute" unicode="&#xe1;" horiz-adv-x="441" 
d="M305 0l-8 28q-50 -40 -118 -40q-77 0 -107 42.5t-30 123.5q0 79 31 122.5t106 43.5q55 0 98 -27v12q0 63 -20.5 88t-77.5 25q-59 0 -110 -30v94q11 9 48 19.5t83 10.5q181 0 181 -182v-330h-76zM205 74q36 0 72 21v117q-37 22 -72 22q-33 0 -45.5 -18.5t-12.5 -61.5
t12.5 -61.5t45.5 -18.5zM153 564l58 96h126l-95 -96h-89z" />
    <glyph glyph-name="acircumflex" unicode="&#xe2;" horiz-adv-x="441" 
d="M305 0l-8 28q-50 -40 -118 -40q-77 0 -107 42.5t-30 123.5q0 79 31 122.5t106 43.5q55 0 98 -27v12q0 63 -20.5 88t-77.5 25q-59 0 -110 -30v94q11 9 48 19.5t83 10.5q181 0 181 -182v-330h-76zM205 74q36 0 72 21v117q-37 22 -72 22q-33 0 -45.5 -18.5t-12.5 -61.5
t12.5 -61.5t45.5 -18.5zM86 548v69l126 60l126 -60v-69l-126 38z" />
    <glyph glyph-name="atilde" unicode="&#xe3;" horiz-adv-x="441" 
d="M305 0l-8 28q-50 -40 -118 -40q-77 0 -107 42.5t-30 123.5q0 79 31 122.5t106 43.5q55 0 98 -27v12q0 63 -20.5 88t-77.5 25q-59 0 -110 -30v94q11 9 48 19.5t83 10.5q181 0 181 -182v-330h-76zM205 74q36 0 72 21v117q-37 22 -72 22q-33 0 -45.5 -18.5t-12.5 -61.5
t12.5 -61.5t45.5 -18.5zM260 555q-26 0 -58 20.5t-51 20.5q-29 0 -56 -27v70q9 14 28 26t42 12q26 0 58 -20.5t51 -20.5q29 0 56 27v-70q-9 -14 -28 -26t-42 -12z" />
    <glyph glyph-name="adieresis" unicode="&#xe4;" horiz-adv-x="441" 
d="M305 0l-8 28q-50 -40 -118 -40q-77 0 -107 42.5t-30 123.5q0 79 31 122.5t106 43.5q55 0 98 -27v12q0 63 -20.5 88t-77.5 25q-59 0 -110 -30v94q11 9 48 19.5t83 10.5q181 0 181 -182v-330h-76zM205 74q36 0 72 21v117q-37 22 -72 22q-33 0 -45.5 -18.5t-12.5 -61.5
t12.5 -61.5t45.5 -18.5zM127 552q-28 0 -44 16t-16 44t16 44t44 16t44 -16t16 -44t-16 -44t-44 -16zM297 552q-28 0 -44 16t-16 44t16 44t44 16t44 -16t16 -44t-16 -44t-44 -16z" />
    <glyph glyph-name="aring" unicode="&#xe5;" horiz-adv-x="441" 
d="M305 0l-8 28q-50 -40 -118 -40q-77 0 -107 42.5t-30 123.5q0 79 31 122.5t106 43.5q55 0 98 -27v12q0 63 -20.5 88t-77.5 25q-59 0 -110 -30v94q11 9 48 19.5t83 10.5q181 0 181 -182v-330h-76zM205 74q36 0 72 21v117q-37 22 -72 22q-33 0 -45.5 -18.5t-12.5 -61.5
t12.5 -61.5t45.5 -18.5zM212 547q-50 0 -81 29.5t-31 80.5t31.5 80.5t80.5 29.5q50 0 81 -29.5t31 -80.5t-31.5 -80.5t-80.5 -29.5zM212 608q21 0 34.5 12.5t13.5 36.5t-13.5 36.5t-34.5 12.5t-34.5 -12.5t-13.5 -36.5t13.5 -36.5t34.5 -12.5z" />
    <glyph glyph-name="ae" unicode="&#xe6;" horiz-adv-x="661" 
d="M179 -12q-77 0 -107 43t-30 123q0 79 31 122.5t106 43.5q55 0 98 -27v12q0 64 -19 88.5t-72 24.5q-66 0 -117 -30v94q11 9 48 19.5t83 10.5q92 0 131 -46q43 46 115 46q62 0 97 -20t55 -78t20 -164v-37h-238q4 -82 24 -106.5t71 -24.5q65 0 113 30v-94q-11 -9 -45 -19.5
t-76 -10.5q-99 0 -142 51q-61 -51 -146 -51zM290 104q-13 42 -16 110q-33 20 -69 20q-33 0 -45.5 -18.5t-12.5 -61.5t12.5 -61.5t45.5 -18.5q45 0 85 30zM446 421q-37 0 -50.5 -25.5t-15.5 -97.5h131q-2 72 -15 97.5t-50 25.5z" />
    <glyph glyph-name="ccedilla" unicode="&#xe7;" horiz-adv-x="371" 
d="M209 -162q-36 0 -60 12v59q15 -3 29 -3q33 0 33 25q0 24 -28 61q-43 7 -70.5 28.5t-41.5 58t-18.5 75.5t-4.5 96q0 148 44.5 205t133.5 57q63 0 106 -24v-95q-37 23 -92 23q-52 0 -68.5 -32t-16.5 -134q0 -100 16 -133t63 -34q56 0 102 26v-94q-37 -23 -88 -26
q41 -41 41 -81q0 -34 -22 -52t-58 -18z" />
    <glyph glyph-name="egrave" unicode="&#xe8;" horiz-adv-x="435" 
d="M241 -12q-45 0 -77 10t-60 36t-42 78.5t-14 131.5q0 108 20 167.5t55.5 80t96.5 20.5q62 0 97 -20t55 -78t20 -164v-37h-238q4 -82 24 -106.5t71 -24.5q65 0 113 30v-94q-11 -9 -45 -19.5t-76 -10.5zM220 421q-37 0 -50.5 -25.5t-15.5 -97.5h132q-2 71 -15.5 97t-50.5 26
zM190 564l-95 96h126l58 -96h-89z" />
    <glyph glyph-name="eacute" unicode="&#xe9;" horiz-adv-x="435" 
d="M241 -12q-45 0 -77 10t-60 36t-42 78.5t-14 131.5q0 108 20 167.5t55.5 80t96.5 20.5q62 0 97 -20t55 -78t20 -164v-37h-238q4 -82 24 -106.5t71 -24.5q65 0 113 30v-94q-11 -9 -45 -19.5t-76 -10.5zM220 421q-37 0 -50.5 -25.5t-15.5 -97.5h132q-2 71 -15.5 97t-50.5 26
zM161 564l58 96h126l-95 -96h-89z" />
    <glyph glyph-name="ecircumflex" unicode="&#xea;" horiz-adv-x="435" 
d="M241 -12q-45 0 -77 10t-60 36t-42 78.5t-14 131.5q0 108 20 167.5t55.5 80t96.5 20.5q62 0 97 -20t55 -78t20 -164v-37h-238q4 -82 24 -106.5t71 -24.5q65 0 113 30v-94q-11 -9 -45 -19.5t-76 -10.5zM220 421q-37 0 -50.5 -25.5t-15.5 -97.5h132q-2 71 -15.5 97t-50.5 26
zM94 548v69l126 60l126 -60v-69l-126 38z" />
    <glyph glyph-name="edieresis" unicode="&#xeb;" horiz-adv-x="435" 
d="M241 -12q-45 0 -77 10t-60 36t-42 78.5t-14 131.5q0 108 20 167.5t55.5 80t96.5 20.5q62 0 97 -20t55 -78t20 -164v-37h-238q4 -82 24 -106.5t71 -24.5q65 0 113 30v-94q-11 -9 -45 -19.5t-76 -10.5zM220 421q-37 0 -50.5 -25.5t-15.5 -97.5h132q-2 71 -15.5 97t-50.5 26
zM135 552q-28 0 -44 16t-16 44t16 44t44 16t44 -16t16 -44t-16 -44t-44 -16zM305 552q-28 0 -44 16t-16 44t16 44t44 16t44 -16t16 -44t-16 -44t-44 -16z" />
    <glyph glyph-name="igrave" unicode="&#xec;" horiz-adv-x="234" 
d="M65 0v500h104v-500h-104zM87 564l-95 96h126l58 -96h-89z" />
    <glyph glyph-name="iacute" unicode="&#xed;" horiz-adv-x="234" 
d="M65 0v500h104v-500h-104zM58 564l58 96h126l-95 -96h-89z" />
    <glyph glyph-name="icircumflex" unicode="&#xee;" horiz-adv-x="234" 
d="M65 0v500h104v-500h-104zM-9 548v69l126 60l126 -60v-69l-126 38z" />
    <glyph glyph-name="idieresis" unicode="&#xef;" horiz-adv-x="234" 
d="M65 0v500h104v-500h-104zM32 552q-28 0 -44 16t-16 44t16 44t44 16t44 -16t16 -44t-16 -44t-44 -16zM202 552q-28 0 -44 16t-16 44t16 44t44 16t44 -16t16 -44t-16 -44t-44 -16z" />
    <glyph glyph-name="eth" unicode="&#xf0;" 
d="M178 430v91l68 36q-23 17 -66 17q-56 0 -102 -26v87q42 27 108 27q101 0 152 -57l95 50v-91l-56 -30q25 -74 25 -213q0 -140 -18.5 -212.5t-54.5 -96.5t-104 -24q-88 0 -132.5 51t-44.5 161q0 212 154 212q50 0 93 -20q-2 63 -10 94zM225 82q42 0 56.5 36t14.5 132v55
q-37 13 -71 13q-42 0 -56.5 -25.5t-14.5 -92.5q0 -61 15 -89.5t56 -28.5z" />
    <glyph glyph-name="ntilde" unicode="&#xf1;" horiz-adv-x="463" 
d="M65 0v500h76l8 -28q48 40 109 40q145 0 145 -172v-340h-104v331q0 45 -13.5 67t-54.5 22q-32 0 -62 -19v-401h-104zM282 555q-26 0 -58 20.5t-51 20.5q-29 0 -56 -27v70q9 14 28 26t42 12q26 0 58 -20.5t51 -20.5q29 0 56 27v-70q-9 -14 -28 -26t-42 -12z" />
    <glyph glyph-name="ograve" unicode="&#xf2;" 
d="M225 -12q-64 0 -100 20t-56.5 78t-20.5 164q0 79 11 131t35 80.5t55 39.5t76 11q64 0 100 -20t56.5 -78t20.5 -164q0 -79 -11 -131t-35 -80.5t-55 -39.5t-76 -11zM225 82q43 0 57 33.5t14 134.5t-14 134.5t-57 33.5t-57 -33.5t-14 -134.5t14 -134.5t57 -33.5zM195 564
l-95 96h126l58 -96h-89z" />
    <glyph glyph-name="oacute" unicode="&#xf3;" 
d="M225 -12q-64 0 -100 20t-56.5 78t-20.5 164q0 79 11 131t35 80.5t55 39.5t76 11q64 0 100 -20t56.5 -78t20.5 -164q0 -79 -11 -131t-35 -80.5t-55 -39.5t-76 -11zM225 82q43 0 57 33.5t14 134.5t-14 134.5t-57 33.5t-57 -33.5t-14 -134.5t14 -134.5t57 -33.5zM166 564
l58 96h126l-95 -96h-89z" />
    <glyph glyph-name="ocircumflex" unicode="&#xf4;" 
d="M225 -12q-64 0 -100 20t-56.5 78t-20.5 164q0 79 11 131t35 80.5t55 39.5t76 11q64 0 100 -20t56.5 -78t20.5 -164q0 -79 -11 -131t-35 -80.5t-55 -39.5t-76 -11zM225 82q43 0 57 33.5t14 134.5t-14 134.5t-57 33.5t-57 -33.5t-14 -134.5t14 -134.5t57 -33.5zM99 548v69
l126 60l126 -60v-69l-126 38z" />
    <glyph glyph-name="otilde" unicode="&#xf5;" 
d="M225 -12q-64 0 -100 20t-56.5 78t-20.5 164q0 79 11 131t35 80.5t55 39.5t76 11q64 0 100 -20t56.5 -78t20.5 -164q0 -79 -11 -131t-35 -80.5t-55 -39.5t-76 -11zM225 82q43 0 57 33.5t14 134.5t-14 134.5t-57 33.5t-57 -33.5t-14 -134.5t14 -134.5t57 -33.5zM273 555
q-26 0 -58 20.5t-51 20.5q-29 0 -56 -27v70q9 14 28 26t42 12q26 0 58 -20.5t51 -20.5q29 0 56 27v-70q-9 -14 -28 -26t-42 -12z" />
    <glyph glyph-name="odieresis" unicode="&#xf6;" 
d="M225 -12q-64 0 -100 20t-56.5 78t-20.5 164q0 79 11 131t35 80.5t55 39.5t76 11q64 0 100 -20t56.5 -78t20.5 -164q0 -79 -11 -131t-35 -80.5t-55 -39.5t-76 -11zM225 82q43 0 57 33.5t14 134.5t-14 134.5t-57 33.5t-57 -33.5t-14 -134.5t14 -134.5t57 -33.5zM140 552
q-28 0 -44 16t-16 44t16 44t44 16t44 -16t16 -44t-16 -44t-44 -16zM310 552q-28 0 -44 16t-16 44t16 44t44 16t44 -16t16 -44t-16 -44t-44 -16z" />
    <glyph glyph-name="divide" unicode="&#xf7;" horiz-adv-x="470" 
d="M235 63q-29 0 -46 16.5t-17 46.5t17 46.5t46 16.5t46 -16.5t17 -46.5t-17 -46.5t-46 -16.5zM235 461q-29 0 -46 16.5t-17 46.5t17 46.5t46 16.5t46 -16.5t17 -46.5t-17 -46.5t-46 -16.5zM45 279v91h380v-91h-380z" />
    <glyph glyph-name="oslash" unicode="&#xf8;" 
d="M225 -12q-49 0 -90 18l-30 -56h-82l57 106q-32 58 -32 194q0 79 11 131t35 80.5t55 39.5t76 11q49 0 90 -18l30 56h82l-57 -106q32 -61 32 -194q0 -79 -11 -131t-35 -80.5t-55 -39.5t-76 -11zM154 250v-55l114 212q-14 11 -43 11q-43 0 -57 -33.5t-14 -134.5zM296 250v55
l-115 -213q14 -10 44 -10q43 0 57 33.5t14 134.5z" />
    <glyph glyph-name="ugrave" unicode="&#xf9;" horiz-adv-x="457" 
d="M316 0l-8 27q-46 -39 -106 -39q-79 0 -110.5 45.5t-31.5 126.5v340h104v-331q0 -46 12 -67.5t53 -21.5q30 0 59 18v402h104v-500h-76zM196 564l-95 96h126l58 -96h-89z" />
    <glyph glyph-name="uacute" unicode="&#xfa;" horiz-adv-x="457" 
d="M316 0l-8 27q-46 -39 -106 -39q-79 0 -110.5 45.5t-31.5 126.5v340h104v-331q0 -46 12 -67.5t53 -21.5q30 0 59 18v402h104v-500h-76zM167 564l58 96h126l-95 -96h-89z" />
    <glyph glyph-name="ucircumflex" unicode="&#xfb;" horiz-adv-x="457" 
d="M316 0l-8 27q-46 -39 -106 -39q-79 0 -110.5 45.5t-31.5 126.5v340h104v-331q0 -46 12 -67.5t53 -21.5q30 0 59 18v402h104v-500h-76zM100 548v69l126 60l126 -60v-69l-126 38z" />
    <glyph glyph-name="udieresis" unicode="&#xfc;" horiz-adv-x="457" 
d="M316 0l-8 27q-46 -39 -106 -39q-79 0 -110.5 45.5t-31.5 126.5v340h104v-331q0 -46 12 -67.5t53 -21.5q30 0 59 18v402h104v-500h-76zM141 552q-28 0 -44 16t-16 44t16 44t44 16t44 -16t16 -44t-16 -44t-44 -16zM311 552q-28 0 -44 16t-16 44t16 44t44 16t44 -16t16 -44
t-16 -44t-44 -16z" />
    <glyph glyph-name="yacute" unicode="&#xfd;" horiz-adv-x="412" 
d="M110 -150l43 150l-138 500h107l66 -266q11 -45 19 -120q10 80 20 120l66 266h104l-180 -650h-107zM148 564l58 96h126l-95 -96h-89z" />
    <glyph glyph-name="thorn" unicode="&#xfe;" horiz-adv-x="458" 
d="M65 -150v800h104v-165q42 27 94 27q80 0 113.5 -58t33.5 -204q0 -142 -35.5 -202t-111.5 -60q-52 0 -94 27v-165h-104zM232 418q-33 0 -63 -19v-298q30 -19 63 -19q43 0 56.5 33.5t13.5 134.5t-13.5 134.5t-56.5 33.5z" />
    <glyph glyph-name="ydieresis" unicode="&#xff;" horiz-adv-x="412" 
d="M110 -150l43 150l-138 500h107l66 -266q11 -45 19 -120q10 80 20 120l66 266h104l-180 -650h-107zM122 552q-28 0 -44 16t-16 44t16 44t44 16t44 -16t16 -44t-16 -44t-44 -16zM292 552q-28 0 -44 16t-16 44t16 44t44 16t44 -16t16 -44t-16 -44t-44 -16z" />
    <glyph glyph-name="Amacron" unicode="&#x100;" horiz-adv-x="460" 
d="M2 0l171 650h114l171 -650h-114l-35 140h-162l-34 -140h-111zM190 325l-23 -93h123l-21 93q-25 109 -38 199q-16 -97 -41 -199zM104 722v83h252v-83h-252z" />
    <glyph glyph-name="amacron" unicode="&#x101;" horiz-adv-x="441" 
d="M305 0l-8 28q-50 -40 -118 -40q-77 0 -107 42.5t-30 123.5q0 79 31 122.5t106 43.5q55 0 98 -27v12q0 63 -20.5 88t-77.5 25q-59 0 -110 -30v94q11 9 48 19.5t83 10.5q181 0 181 -182v-330h-76zM205 74q36 0 72 21v117q-37 22 -72 22q-33 0 -45.5 -18.5t-12.5 -61.5
t12.5 -61.5t45.5 -18.5zM86 572v83h252v-83h-252z" />
    <glyph glyph-name="Abreve" unicode="&#x102;" horiz-adv-x="460" 
d="M2 0l171 650h114l171 -650h-114l-35 140h-162l-34 -140h-111zM190 325l-23 -93h123l-21 93q-25 109 -38 199q-16 -97 -41 -199zM230 703q-53 0 -87.5 25t-44.5 47l36 54q34 -43 96 -43t96 43l36 -54q-10 -22 -44.5 -47t-87.5 -25z" />
    <glyph glyph-name="abreve" unicode="&#x103;" horiz-adv-x="441" 
d="M305 0l-8 28q-50 -40 -118 -40q-77 0 -107 42.5t-30 123.5q0 79 31 122.5t106 43.5q55 0 98 -27v12q0 63 -20.5 88t-77.5 25q-59 0 -110 -30v94q11 9 48 19.5t83 10.5q181 0 181 -182v-330h-76zM205 74q36 0 72 21v117q-37 22 -72 22q-33 0 -45.5 -18.5t-12.5 -61.5
t12.5 -61.5t45.5 -18.5zM212 553q-53 0 -87.5 25t-44.5 47l36 54q34 -43 96 -43t96 43l36 -54q-10 -22 -44.5 -47t-87.5 -25z" />
    <glyph glyph-name="Aogonek" unicode="&#x104;" horiz-adv-x="460" 
d="M394 -162q-31 0 -53.5 14t-22.5 43q0 31 25 62t46 43h-45l-35 140h-162l-34 -140h-111l171 650h114l171 -650q-19 -14 -40.5 -37t-21.5 -39q0 -18 33 -18q14 0 29 3v-59q-24 -12 -64 -12zM190 325l-23 -93h123l-21 93q-25 109 -38 199q-16 -97 -41 -199z" />
    <glyph glyph-name="aogonek" unicode="&#x105;" horiz-adv-x="441" 
d="M317 -162q-31 0 -53.5 14t-22.5 43q0 49 64 105l-8 28q-50 -40 -118 -40q-77 0 -107 42.5t-30 123.5q0 79 31 122.5t106 43.5q55 0 98 -27v12q0 63 -20.5 88t-77.5 25q-59 0 -110 -30v94q11 9 48 19.5t83 10.5q181 0 181 -182v-330q-17 -11 -39.5 -35t-22.5 -39
q0 -20 33 -20q14 0 29 3v-59q-24 -12 -64 -12zM205 74q36 0 72 21v117q-37 22 -72 22q-33 0 -45.5 -18.5t-12.5 -61.5t12.5 -61.5t45.5 -18.5z" />
    <glyph glyph-name="Cacute" unicode="&#x106;" horiz-adv-x="431" 
d="M272 -12q-130 -1 -176 76.5t-46 260.5q0 180 48 258.5t171 78.5q71 0 117 -25v-101q-50 27 -110 27q-47 0 -69.5 -18t-32.5 -67.5t-10 -152.5q0 -101 11 -152t33.5 -69t67.5 -18q63 0 115 28v-100q-48 -26 -119 -26zM189 714l58 96h126l-95 -96h-89z" />
    <glyph glyph-name="cacute" unicode="&#x107;" horiz-adv-x="371" 
d="M228 -12q-46 0 -79 13.5t-52.5 35t-30.5 57t-14.5 71t-3.5 85.5q0 148 44.5 205t133.5 57q63 0 106 -24v-95q-37 23 -92 23q-52 0 -68.5 -32t-16.5 -134q0 -100 16 -133t63 -34q56 0 102 26v-94q-42 -27 -108 -27zM157 564l58 96h126l-95 -96h-89z" />
    <glyph glyph-name="Ccircumflex" unicode="&#x108;" horiz-adv-x="431" 
d="M272 -12q-130 -1 -176 76.5t-46 260.5q0 180 48 258.5t171 78.5q71 0 117 -25v-101q-50 27 -110 27q-47 0 -69.5 -18t-32.5 -67.5t-10 -152.5q0 -101 11 -152t33.5 -69t67.5 -18q63 0 115 28v-100q-48 -26 -119 -26zM122 698v69l126 60l126 -60v-69l-126 38z" />
    <glyph glyph-name="ccircumflex" unicode="&#x109;" horiz-adv-x="371" 
d="M228 -12q-46 0 -79 13.5t-52.5 35t-30.5 57t-14.5 71t-3.5 85.5q0 148 44.5 205t133.5 57q63 0 106 -24v-95q-37 23 -92 23q-52 0 -68.5 -32t-16.5 -134q0 -100 16 -133t63 -34q56 0 102 26v-94q-42 -27 -108 -27zM90 548v69l126 60l126 -60v-69l-126 38z" />
    <glyph glyph-name="Cdotaccent" unicode="&#x10a;" horiz-adv-x="431" 
d="M272 -12q-130 -1 -176 76.5t-46 260.5q0 180 48 258.5t171 78.5q71 0 117 -25v-101q-50 27 -110 27q-47 0 -69.5 -18t-32.5 -67.5t-10 -152.5q0 -101 11 -152t33.5 -69t67.5 -18q63 0 115 28v-100q-48 -26 -119 -26zM248 702q-28 0 -44 16t-16 44t16 44t44 16t44 -16
t16 -44t-16 -44t-44 -16z" />
    <glyph glyph-name="cdotaccent" unicode="&#x10b;" horiz-adv-x="371" 
d="M228 -12q-46 0 -79 13.5t-52.5 35t-30.5 57t-14.5 71t-3.5 85.5q0 148 44.5 205t133.5 57q63 0 106 -24v-95q-37 23 -92 23q-52 0 -68.5 -32t-16.5 -134q0 -100 16 -133t63 -34q56 0 102 26v-94q-42 -27 -108 -27zM216 552q-28 0 -44 16t-16 44t16 44t44 16t44 -16
t16 -44t-16 -44t-44 -16z" />
    <glyph glyph-name="Ccaron" unicode="&#x10c;" horiz-adv-x="431" 
d="M272 -12q-130 -1 -176 76.5t-46 260.5q0 180 48 258.5t171 78.5q71 0 117 -25v-101q-50 27 -110 27q-47 0 -69.5 -18t-32.5 -67.5t-10 -152.5q0 -101 11 -152t33.5 -69t67.5 -18q63 0 115 28v-100q-48 -26 -119 -26zM248 698l-126 60v69l126 -38l126 38v-69z" />
    <glyph glyph-name="ccaron" unicode="&#x10d;" horiz-adv-x="377" 
d="M228 -12q-46 0 -79 13.5t-52.5 35t-30.5 57t-14.5 71t-3.5 85.5q0 148 44.5 205t133.5 57q63 0 106 -24v-95q-37 23 -92 23q-52 0 -68.5 -32t-16.5 -134q0 -100 16 -133t63 -34q56 0 102 26v-94q-42 -27 -108 -27zM216 548l-126 60v69l126 -38l126 38v-69z" />
    <glyph glyph-name="Dcaron" unicode="&#x10e;" horiz-adv-x="523" 
d="M75 0v650h185q67 0 109 -18.5t65 -61.5t31 -99t8 -146q0 -88 -8 -144.5t-31 -99.5t-65.5 -62t-108.5 -19h-185zM252 560h-67v-470h67q45 0 66.5 18.5t31 67.5t9.5 149t-9.5 149t-31 67.5t-66.5 18.5zM246 698l-126 60v69l126 -38l126 38v-69z" />
    <glyph glyph-name="dcaron" unicode="&#x10f;" horiz-adv-x="493" 
d="M319 0l-9 29q-48 -41 -111 -41q-82 0 -116.5 58t-34.5 204q0 142 35.5 202t111.5 60q50 0 94 -27v165h104v-650h-74zM226 82q33 0 63 19v298q-30 19 -63 19q-43 0 -57 -33.5t-14 -134.5t14 -134.5t57 -33.5zM435 478q13 40 13 67q0 19 -7 41.5t-7 31.5q0 20 12.5 32
t34.5 12q48 0 48 -52q0 -46 -39 -132h-55z" />
    <glyph glyph-name="Dcroat" unicode="&#x110;" horiz-adv-x="528" 
d="M25 282v91h55v277h185q67 0 109 -18.5t65 -61.5t31 -99t8 -146q0 -88 -8 -144.5t-31 -99.5t-65.5 -62t-108.5 -19h-185v282h-55zM257 560h-67v-187h90v-91h-90v-192h67q45 0 66.5 18.5t31 67.5t9.5 149t-9.5 149t-31 67.5t-66.5 18.5z" />
    <glyph glyph-name="dcroat" unicode="&#x111;" horiz-adv-x="463" 
d="M319 0l-8 28q-48 -40 -112 -40q-81 0 -116 56.5t-35 190.5q0 130 36 188.5t111 58.5q52 0 94 -24v61h-78v83h78v48h104v-48h47v-83h-47v-519h-74zM226 82q33 0 63 19v268q-30 19 -63 19q-42 0 -56 -32.5t-14 -120.5t14 -120.5t56 -32.5z" />
    <glyph glyph-name="Emacron" unicode="&#x112;" 
d="M75 0v650h320v-92h-210v-178h170v-92h-170v-196h210v-92h-320zM109 722v83h252v-83h-252z" />
    <glyph glyph-name="emacron" unicode="&#x113;" horiz-adv-x="435" 
d="M241 -12q-45 0 -77 10t-60 36t-42 78.5t-14 131.5q0 108 20 167.5t55.5 80t96.5 20.5q62 0 97 -20t55 -78t20 -164v-37h-238q4 -82 24 -106.5t71 -24.5q65 0 113 30v-94q-11 -9 -45 -19.5t-76 -10.5zM220 421q-37 0 -50.5 -25.5t-15.5 -97.5h132q-2 71 -15.5 97t-50.5 26
zM94 572v83h252v-83h-252z" />
    <glyph glyph-name="Ebreve" unicode="&#x114;" 
d="M75 0v650h320v-92h-210v-178h170v-92h-170v-196h210v-92h-320zM235 703q-53 0 -87.5 25t-44.5 47l36 54q34 -43 96 -43t96 43l36 -54q-10 -22 -44.5 -47t-87.5 -25z" />
    <glyph glyph-name="ebreve" unicode="&#x115;" horiz-adv-x="435" 
d="M241 -12q-45 0 -77 10t-60 36t-42 78.5t-14 131.5q0 108 20 167.5t55.5 80t96.5 20.5q62 0 97 -20t55 -78t20 -164v-37h-238q4 -82 24 -106.5t71 -24.5q65 0 113 30v-94q-11 -9 -45 -19.5t-76 -10.5zM220 421q-37 0 -50.5 -25.5t-15.5 -97.5h132q-2 71 -15.5 97t-50.5 26
zM220 553q-53 0 -87.5 25t-44.5 47l36 54q34 -43 96 -43t96 43l36 -54q-10 -22 -44.5 -47t-87.5 -25z" />
    <glyph glyph-name="Edotaccent" unicode="&#x116;" 
d="M75 0v650h320v-92h-210v-178h170v-92h-170v-196h210v-92h-320zM235 702q-28 0 -44 16t-16 44t16 44t44 16t44 -16t16 -44t-16 -44t-44 -16z" />
    <glyph glyph-name="edotaccent" unicode="&#x117;" horiz-adv-x="435" 
d="M241 -12q-45 0 -77 10t-60 36t-42 78.5t-14 131.5q0 108 20 167.5t55.5 80t96.5 20.5q62 0 97 -20t55 -78t20 -164v-37h-238q4 -82 24 -106.5t71 -24.5q65 0 113 30v-94q-11 -9 -45 -19.5t-76 -10.5zM220 421q-37 0 -50.5 -25.5t-15.5 -97.5h132q-2 71 -15.5 97t-50.5 26
zM220 552q-28 0 -44 16t-16 44t16 44t44 16t44 -16t16 -44t-16 -44t-44 -16z" />
    <glyph glyph-name="Eogonek" unicode="&#x118;" 
d="M75 0v650h320v-92h-210v-178h170v-92h-170v-196h210v-92q-19 -14 -40.5 -37t-21.5 -39q0 -18 33 -18q14 0 29 3v-59q-24 -12 -64 -12q-31 0 -53.5 14t-22.5 43q0 31 25 62t46 43h-251z" />
    <glyph glyph-name="eogonek" unicode="&#x119;" horiz-adv-x="435" 
d="M272 -162q-31 0 -53.5 14t-22.5 43q0 46 55 94q-3 -1 -10 -1q-45 0 -77 10t-60 36t-42 78.5t-14 131.5q0 108 20 167.5t55.5 80t96.5 20.5q62 0 97 -20t55 -78t20 -164v-37h-238q4 -82 24 -106.5t71 -24.5q65 0 113 30v-94q-24 -15 -56 -45t-32 -49q0 -18 33 -18
q14 0 29 3v-59q-24 -12 -64 -12zM220 421q-37 0 -50.5 -25.5t-15.5 -97.5h131q-2 72 -15 97.5t-50 25.5z" />
    <glyph glyph-name="Ecaron" unicode="&#x11a;" 
d="M75 0v650h320v-92h-210v-178h170v-92h-170v-196h210v-92h-320zM235 698l-126 60v69l126 -38l126 38v-69z" />
    <glyph glyph-name="ecaron" unicode="&#x11b;" horiz-adv-x="435" 
d="M241 -12q-45 0 -77 10t-60 36t-42 78.5t-14 131.5q0 108 20 167.5t55.5 80t96.5 20.5q62 0 97 -20t55 -78t20 -164v-37h-238q4 -82 24 -106.5t71 -24.5q65 0 113 30v-94q-11 -9 -45 -19.5t-76 -10.5zM220 421q-37 0 -50.5 -25.5t-15.5 -97.5h132q-2 71 -15.5 97t-50.5 26
zM220 548l-126 60v69l126 -38l126 38v-69z" />
    <glyph glyph-name="Gcircumflex" unicode="&#x11c;" horiz-adv-x="513" 
d="M278 -12q-134 0 -181 76.5t-47 260.5q0 185 56 261t192 76q79 0 125 -26v-100q-52 28 -115 28q-58 0 -87 -18t-43 -69t-14 -152q0 -147 23 -194t89 -47q34 0 62 7v197h-80v92h190v-359q-14 -10 -67.5 -21.5t-102.5 -11.5zM141 698v69l126 60l126 -60v-69l-126 38z" />
    <glyph glyph-name="gcircumflex" unicode="&#x11d;" horiz-adv-x="458" 
d="M203 -162q-46 0 -80.5 10t-45.5 18v96q48 -30 113 -30q53 0 76 17.5t23 65.5v31q-41 -28 -90 -28q-81 0 -116 56.5t-35 190.5q0 130 36 188.5t111 58.5q66 0 116 -40l8 28h74v-505q0 -157 -190 -157zM226 112q33 0 63 19v268q-30 19 -63 19q-42 0 -56 -32.5t-14 -120.5
t14 -120.5t56 -32.5zM94 548v69l126 60l126 -60v-69l-126 38z" />
    <glyph glyph-name="Gbreve" unicode="&#x11e;" horiz-adv-x="513" 
d="M278 -12q-134 0 -181 76.5t-47 260.5q0 185 56 261t192 76q79 0 125 -26v-100q-52 28 -115 28q-58 0 -87 -18t-43 -69t-14 -152q0 -147 23 -194t89 -47q34 0 62 7v197h-80v92h190v-359q-14 -10 -67.5 -21.5t-102.5 -11.5zM267 703q-53 0 -87.5 25t-44.5 47l36 54
q34 -43 96 -43t96 43l36 -54q-10 -22 -44.5 -47t-87.5 -25z" />
    <glyph glyph-name="gbreve" unicode="&#x11f;" horiz-adv-x="458" 
d="M203 -162q-46 0 -80.5 10t-45.5 18v96q48 -30 113 -30q53 0 76 17.5t23 65.5v31q-41 -28 -90 -28q-81 0 -116 56.5t-35 190.5q0 130 36 188.5t111 58.5q66 0 116 -40l8 28h74v-505q0 -157 -190 -157zM226 112q33 0 63 19v268q-30 19 -63 19q-42 0 -56 -32.5t-14 -120.5
t14 -120.5t56 -32.5zM220 553q-53 0 -87.5 25t-44.5 47l36 54q34 -43 96 -43t96 43l36 -54q-10 -22 -44.5 -47t-87.5 -25z" />
    <glyph glyph-name="Gdotaccent" unicode="&#x120;" horiz-adv-x="513" 
d="M278 -12q-134 0 -181 76.5t-47 260.5q0 185 56 261t192 76q79 0 125 -26v-100q-52 28 -115 28q-58 0 -87 -18t-43 -69t-14 -152q0 -147 23 -194t89 -47q34 0 62 7v197h-80v92h190v-359q-14 -10 -67.5 -21.5t-102.5 -11.5zM267 702q-28 0 -44 16t-16 44t16 44t44 16
t44 -16t16 -44t-16 -44t-44 -16z" />
    <glyph glyph-name="gdotaccent" unicode="&#x121;" horiz-adv-x="458" 
d="M203 -162q-46 0 -80.5 10t-45.5 18v96q48 -30 113 -30q53 0 76 17.5t23 65.5v31q-41 -28 -90 -28q-81 0 -116 56.5t-35 190.5q0 130 36 188.5t111 58.5q66 0 116 -40l8 28h74v-505q0 -157 -190 -157zM226 112q33 0 63 19v268q-30 19 -63 19q-42 0 -56 -32.5t-14 -120.5
t14 -120.5t56 -32.5zM220 552q-28 0 -44 16t-16 44t16 44t44 16t44 -16t16 -44t-16 -44t-44 -16z" />
    <glyph glyph-name="Gcommaaccent" unicode="&#x122;" horiz-adv-x="513" 
d="M278 -12q-134 0 -181 76.5t-47 260.5q0 185 56 261t192 76q79 0 125 -26v-100q-52 28 -115 28q-58 0 -87 -18t-43 -69t-14 -152q0 -147 23 -194t89 -47q34 0 62 7v197h-80v92h190v-359q-14 -10 -67.5 -21.5t-102.5 -11.5zM223 -219q13 40 13 67q0 19 -7 41.5t-7 31.5
q0 20 12.5 32t34.5 12q48 0 48 -52q0 -46 -39 -132h-55z" />
    <glyph glyph-name="gcommaaccent" unicode="&#x123;" horiz-adv-x="458" 
d="M203 -162q-46 0 -80.5 10t-45.5 18v96q48 -30 113 -30q53 0 76 17.5t23 65.5v31q-41 -28 -90 -28q-81 0 -116 56.5t-35 190.5q0 130 36 188.5t111 58.5q66 0 116 -40l8 28h74v-505q0 -157 -190 -157zM226 112q33 0 63 19v268q-30 19 -63 19q-42 0 -56 -32.5t-14 -120.5
t14 -120.5t56 -32.5zM220 556q-48 0 -48 52q0 46 39 132h55q-13 -40 -13 -67q0 -19 7 -41.5t7 -31.5q0 -20 -12.5 -32t-34.5 -12z" />
    <glyph glyph-name="Hcircumflex" unicode="&#x124;" horiz-adv-x="550" 
d="M365 0v288h-180v-288h-110v650h110v-270h180v270h110v-650h-110zM149 698v69l126 60l126 -60v-69l-126 38z" />
    <glyph glyph-name="hcircumflex" unicode="&#x125;" horiz-adv-x="463" 
d="M65 0v650h104v-168q43 30 95 30q139 0 139 -172v-340h-104v331q0 45 -13.5 67t-54.5 22q-32 0 -62 -19v-401h-104zM-9 678v69l126 60l126 -60v-69l-126 38z" />
    <glyph glyph-name="Hbar" unicode="&#x126;" horiz-adv-x="560" 
d="M33 474v83h47v93h110v-93h180v93h110v-93h47v-83h-47v-474h-110v288h-180v-288h-110v474h-47zM190 380h180v94h-180v-94z" />
    <glyph glyph-name="hbar" unicode="&#x127;" horiz-adv-x="468" 
d="M23 519v83h47v48h104v-48h78v-83h-78v-67q43 30 95 30q139 0 139 -172v-310h-104v301q0 45 -13.5 67t-54.5 22q-32 0 -62 -19v-371h-104v519h-47z" />
    <glyph glyph-name="Itilde" unicode="&#x128;" horiz-adv-x="260" 
d="M75 0v650h110v-650h-110zM178 705q-26 0 -58 20.5t-51 20.5q-29 0 -56 -27v70q9 14 28 26t42 12q26 0 58 -20.5t51 -20.5q29 0 56 27v-70q-9 -14 -28 -26t-42 -12z" />
    <glyph glyph-name="itilde" unicode="&#x129;" horiz-adv-x="234" 
d="M65 0v500h104v-500h-104zM165 555q-26 0 -58 20.5t-51 20.5q-29 0 -56 -27v70q9 14 28 26t42 12q26 0 58 -20.5t51 -20.5q29 0 56 27v-70q-9 -14 -28 -26t-42 -12z" />
    <glyph glyph-name="Imacron" unicode="&#x12a;" horiz-adv-x="260" 
d="M75 0v650h110v-650h-110zM4 722v83h252v-83h-252z" />
    <glyph glyph-name="imacron" unicode="&#x12b;" horiz-adv-x="234" 
d="M65 0v500h104v-500h-104zM-9 572v83h252v-83h-252z" />
    <glyph glyph-name="Ibreve" unicode="&#x12c;" horiz-adv-x="260" 
d="M75 0v650h110v-650h-110zM130 703q-53 0 -87.5 25t-44.5 47l36 54q34 -43 96 -43t96 43l36 -54q-10 -22 -44.5 -47t-87.5 -25z" />
    <glyph glyph-name="ibreve" unicode="&#x12d;" horiz-adv-x="234" 
d="M65 0v500h104v-500h-104zM117 553q-53 0 -87.5 25t-44.5 47l36 54q34 -43 96 -43t96 43l36 -54q-10 -22 -44.5 -47t-87.5 -25z" />
    <glyph glyph-name="Iogonek" unicode="&#x12e;" horiz-adv-x="260" 
d="M75 0v650h110v-650q-19 -14 -40.5 -37t-21.5 -39q0 -18 33 -18q14 0 29 3v-59q-24 -12 -64 -12q-31 0 -53.5 14t-22.5 43q0 31 25 62t46 43h-41z" />
    <glyph glyph-name="iogonek" unicode="&#x12f;" horiz-adv-x="234" 
d="M65 0v500h104v-500q-19 -14 -40.5 -37t-21.5 -39q0 -18 33 -18q14 0 29 3v-59q-24 -12 -64 -12q-31 0 -53.5 14t-22.5 43q0 31 25 62t46 43h-35zM117 544q-66 0 -66 59t66 59t66 -59t-66 -59z" />
    <glyph glyph-name="Idotaccent" unicode="&#x130;" horiz-adv-x="260" 
d="M75 0v650h110v-650h-110zM130 702q-28 0 -44 16t-16 44t16 44t44 16t44 -16t16 -44t-16 -44t-44 -16z" />
    <glyph glyph-name="dotlessi" unicode="&#x131;" horiz-adv-x="234" 
d="M65 0v500h104v-500h-104z" />
    <glyph glyph-name="IJ" unicode="&#x132;" horiz-adv-x="531" 
d="M224 -12q-103 0 -149 33v95q54 -32 136 -32q78 0 109 33.5t31 112.5v420h110v-430q0 -117 -56.5 -174.5t-180.5 -57.5zM75 258v392h110v-392h-110z" />
    <glyph glyph-name="ij" unicode="&#x133;" horiz-adv-x="468" 
d="M117 544q-66 0 -66 59t66 59t66 -59t-66 -59zM65 0v500h104v-500h-104zM351 544q-66 0 -66 59t66 59t66 -59t-66 -59zM214 -150v87h31q31 0 42.5 13t11.5 43v507h104v-524q0 -71 -35 -98.5t-100 -27.5h-54z" />
    <glyph glyph-name="Jcircumflex" unicode="&#x134;" horiz-adv-x="365" 
d="M111 -12q-66 0 -106 22v95q42 -21 92 -21q46 0 67 23.5t21 82.5v460h110v-470q0 -98 -44.5 -145t-139.5 -47zM124 698v69l126 60l126 -60v-69l-126 38z" />
    <glyph glyph-name="jcircumflex" unicode="&#x135;" horiz-adv-x="234" 
d="M-20 -150v87h31q31 0 42.5 13t11.5 43v507h104v-524q0 -71 -35 -98.5t-100 -27.5h-54zM-9 548v69l126 60l126 -60v-69l-126 38z" />
    <glyph glyph-name="Kcommaaccent" unicode="&#x136;" horiz-adv-x="494" 
d="M75 0v650h110v-288l171 288h122l-190 -317l206 -333h-131l-178 298v-298h-110zM223 -219q13 40 13 67q0 19 -7 41.5t-7 31.5q0 20 12.5 32t34.5 12q48 0 48 -52q0 -46 -39 -132h-55z" />
    <glyph glyph-name="kcommaaccent" unicode="&#x137;" horiz-adv-x="431" 
d="M65 0v650h104v-353l121 203h119l-149 -234l169 -266h-124l-136 224v-224h-104zM188 -219q13 40 13 67q0 19 -7 41.5t-7 31.5q0 20 12.5 32t34.5 12q48 0 48 -52q0 -46 -39 -132h-55z" />
    <glyph glyph-name="kgreenlandic" unicode="&#x138;" horiz-adv-x="431" 
d="M65 0v500h104v-203l121 203h119l-149 -234l169 -266h-124l-136 224v-224h-104z" />
    <glyph glyph-name="Lacute" unicode="&#x139;" horiz-adv-x="405" 
d="M75 0v650h110v-558h200v-92h-310zM73 714l58 96h126l-95 -96h-89z" />
    <glyph glyph-name="lacute" unicode="&#x13a;" horiz-adv-x="249" 
d="M195 -4q-65 0 -100 27.5t-35 98.5v528h104v-511q0 -30 11.5 -43t42.5 -13h16v-87h-39zM53 694l58 96h126l-95 -96h-89z" />
    <glyph glyph-name="Lcommaaccent" unicode="&#x13b;" horiz-adv-x="410" 
d="M75 0v650h110v-558h200v-92h-310zM184 -219q13 40 13 67q0 19 -7 41.5t-7 31.5q0 20 12.5 32t34.5 12q48 0 48 -52q0 -46 -39 -132h-55z" />
    <glyph glyph-name="lcommaaccent" unicode="&#x13c;" horiz-adv-x="249" 
d="M195 -4q-65 0 -100 27.5t-35 98.5v528h104v-511q0 -30 11.5 -43t42.5 -13h16v-87h-39zM101 -219q13 40 13 67q0 19 -7 41.5t-7 31.5q0 20 12.5 32t34.5 12q48 0 48 -52q0 -46 -39 -132h-55z" />
    <glyph glyph-name="Lcaron" unicode="&#x13d;" horiz-adv-x="410" 
d="M75 0v650h110v-558h200v-92h-310zM241 478q13 40 13 67q0 19 -7 41.5t-7 31.5q0 20 12.5 32t34.5 12q48 0 48 -52q0 -46 -39 -132h-55z" />
    <glyph glyph-name="lcaron" unicode="&#x13e;" horiz-adv-x="279" 
d="M195 -4q-65 0 -100 27.5t-35 98.5v528h104v-511q0 -30 11.5 -43t42.5 -13h16v-87h-39zM206 478q13 40 13 67q0 19 -7 41.5t-7 31.5q0 20 12.5 32t34.5 12q48 0 48 -52q0 -46 -39 -132h-55z" />
    <glyph glyph-name="Ldot" unicode="&#x13f;" horiz-adv-x="430" 
d="M75 0v650h110v-558h200v-92h-310zM320 275q-28 0 -44 16t-16 44t16 44t44 16t44 -16t16 -44t-16 -44t-44 -16z" />
    <glyph glyph-name="ldot" unicode="&#x140;" horiz-adv-x="301" 
d="M195 -4q-65 0 -100 27.5t-35 98.5v528h104v-511q0 -30 11.5 -43t42.5 -13h16v-87h-39zM259 275q-28 0 -44 16t-16 44t16 44t44 16t44 -16t16 -44t-16 -44t-44 -16z" />
    <glyph glyph-name="Lslash" unicode="&#x141;" horiz-adv-x="415" 
d="M30 221v99l55 29v301h110v-244l90 48v-99l-90 -48v-215h200v-92h-310v250z" />
    <glyph glyph-name="lslash" unicode="&#x142;" horiz-adv-x="274" 
d="M20 221v99l45 23v307h104v-252l70 37v-99l-70 -37v-160q0 -30 11.5 -43t42.5 -13h16v-87h-39q-65 0 -100 27.5t-35 98.5v122z" />
    <glyph glyph-name="Nacute" unicode="&#x143;" horiz-adv-x="554" 
d="M75 0v650h127l188 -493q-16 116 -16 183v310h105v-650h-127l-189 492q17 -108 17 -182v-310h-105zM218 714l58 96h126l-95 -96h-89z" />
    <glyph glyph-name="nacute" unicode="&#x144;" horiz-adv-x="463" 
d="M65 0v500h76l8 -28q48 40 109 40q145 0 145 -172v-340h-104v331q0 45 -13.5 67t-54.5 22q-32 0 -62 -19v-401h-104zM175 564l58 96h126l-95 -96h-89z" />
    <glyph glyph-name="Ncommaaccent" unicode="&#x145;" horiz-adv-x="554" 
d="M75 0v650h127l188 -493q-16 116 -16 183v310h105v-650h-127l-189 492q17 -108 17 -182v-310h-105zM231 -219q13 40 13 67q0 19 -7 41.5t-7 31.5q0 20 12.5 32t34.5 12q48 0 48 -52q0 -46 -39 -132h-55z" />
    <glyph glyph-name="ncommaaccent" unicode="&#x146;" horiz-adv-x="463" 
d="M65 0v500h76l8 -28q48 40 109 40q145 0 145 -172v-340h-104v331q0 45 -13.5 67t-54.5 22q-32 0 -62 -19v-401h-104zM188 -219q13 40 13 67q0 19 -7 41.5t-7 31.5q0 20 12.5 32t34.5 12q48 0 48 -52q0 -46 -39 -132h-55z" />
    <glyph glyph-name="Ncaron" unicode="&#x147;" horiz-adv-x="554" 
d="M75 0v650h127l188 -493q-16 116 -16 183v310h105v-650h-127l-189 492q17 -108 17 -182v-310h-105zM277 698l-126 60v69l126 -38l126 38v-69z" />
    <glyph glyph-name="ncaron" unicode="&#x148;" horiz-adv-x="463" 
d="M65 0v500h76l8 -28q48 40 109 40q145 0 145 -172v-340h-104v331q0 45 -13.5 67t-54.5 22q-32 0 -62 -19v-401h-104zM234 548l-126 60v69l126 -38l126 38v-69z" />
    <glyph glyph-name="napostrophe" unicode="&#x149;" horiz-adv-x="623" 
d="M225 0v500h76l8 -28q48 40 109 40q145 0 145 -172v-340h-104v331q0 45 -13.5 67t-54.5 22q-32 0 -62 -19v-401h-104zM30 398q16 56 16 97q0 27 -8 59t-8 45q0 29 16 46t47 17q30 0 46.5 -17.5t16.5 -48.5q0 -69 -50 -198h-76z" />
    <glyph glyph-name="Eng" unicode="&#x14a;" horiz-adv-x="554" 
d="M302 -162q-39 0 -63 11v83q26 -8 53 -8q77 0 81 76h-21l-189 492q17 -108 17 -182v-310h-105v650h127l188 -493q-16 116 -16 183v310h105v-620q0 -192 -177 -192z" />
    <glyph glyph-name="eng" unicode="&#x14b;" horiz-adv-x="463" 
d="M65 0v500h76l8 -28q48 40 109 40q145 0 145 -172v-364q0 -71 -35 -98.5t-100 -27.5h-54v87h31q31 0 42.5 13t11.5 43v338q0 45 -13.5 67t-54.5 22q-32 0 -62 -19v-401h-104z" />
    <glyph glyph-name="Omacron" unicode="&#x14c;" horiz-adv-x="514" 
d="M257 -12q-56 0 -92 13.5t-63.5 50.5t-39.5 103.5t-12 169.5q0 134 24.5 209t67.5 101.5t115 26.5q75 0 117.5 -26t66 -100.5t23.5 -210.5q0 -102 -12.5 -168.5t-40.5 -103.5t-64 -51t-90 -14zM257 84q58 0 75.5 47.5t17.5 193.5t-17.5 193.5t-75.5 47.5t-75.5 -47.5
t-17.5 -193.5t17.5 -193.5t75.5 -47.5zM131 722v83h252v-83h-252z" />
    <glyph glyph-name="omacron" unicode="&#x14d;" 
d="M225 -12q-64 0 -100 20t-56.5 78t-20.5 164q0 79 11 131t35 80.5t55 39.5t76 11q64 0 100 -20t56.5 -78t20.5 -164q0 -79 -11 -131t-35 -80.5t-55 -39.5t-76 -11zM225 82q43 0 57 33.5t14 134.5t-14 134.5t-57 33.5t-57 -33.5t-14 -134.5t14 -134.5t57 -33.5zM99 572v83
h252v-83h-252z" />
    <glyph glyph-name="Obreve" unicode="&#x14e;" horiz-adv-x="514" 
d="M257 -12q-56 0 -92 13.5t-63.5 50.5t-39.5 103.5t-12 169.5q0 134 24.5 209t67.5 101.5t115 26.5q75 0 117.5 -26t66 -100.5t23.5 -210.5q0 -102 -12.5 -168.5t-40.5 -103.5t-64 -51t-90 -14zM257 84q58 0 75.5 47.5t17.5 193.5t-17.5 193.5t-75.5 47.5t-75.5 -47.5
t-17.5 -193.5t17.5 -193.5t75.5 -47.5zM257 703q-53 0 -87.5 25t-44.5 47l36 54q34 -43 96 -43t96 43l36 -54q-10 -22 -44.5 -47t-87.5 -25z" />
    <glyph glyph-name="obreve" unicode="&#x14f;" 
d="M225 -12q-64 0 -100 20t-56.5 78t-20.5 164q0 79 11 131t35 80.5t55 39.5t76 11q64 0 100 -20t56.5 -78t20.5 -164q0 -79 -11 -131t-35 -80.5t-55 -39.5t-76 -11zM225 82q43 0 57 33.5t14 134.5t-14 134.5t-57 33.5t-57 -33.5t-14 -134.5t14 -134.5t57 -33.5zM225 553
q-53 0 -87.5 25t-44.5 47l36 54q34 -43 96 -43t96 43l36 -54q-10 -22 -44.5 -47t-87.5 -25z" />
    <glyph glyph-name="Ohungarumlaut" unicode="&#x150;" horiz-adv-x="514" 
d="M257 -12q-56 0 -92 13.5t-63.5 50.5t-39.5 103.5t-12 169.5q0 134 24.5 209t67.5 101.5t115 26.5q75 0 117.5 -26t66 -100.5t23.5 -210.5q0 -102 -12.5 -168.5t-40.5 -103.5t-64 -51t-90 -14zM257 84q58 0 75.5 47.5t17.5 193.5t-17.5 193.5t-75.5 47.5t-75.5 -47.5
t-17.5 -193.5t17.5 -193.5t75.5 -47.5zM132 714l58 96h110l-90 -96h-78zM278 714l58 96h110l-90 -96h-78z" />
    <glyph glyph-name="ohungarumlaut" unicode="&#x151;" 
d="M225 -12q-64 0 -100 20t-56.5 78t-20.5 164q0 79 11 131t35 80.5t55 39.5t76 11q64 0 100 -20t56.5 -78t20.5 -164q0 -79 -11 -131t-35 -80.5t-55 -39.5t-76 -11zM225 82q43 0 57 33.5t14 134.5t-14 134.5t-57 33.5t-57 -33.5t-14 -134.5t14 -134.5t57 -33.5zM100 564
l58 96h110l-90 -96h-78zM246 564l58 96h110l-90 -96h-78z" />
    <glyph glyph-name="OE" unicode="&#x152;" horiz-adv-x="713" 
d="M263 0q-67 0 -109 18.5t-65 61.5t-31 99t-8 146q0 88 8 144.5t31 99.5t65.5 62t108.5 19h395v-92h-210v-178h170v-92h-170v-196h210v-92h-395zM164 325q0 -100 9.5 -149t31 -67.5t66.5 -18.5h67v470h-67q-45 0 -66.5 -18.5t-31 -67.5t-9.5 -149z" />
    <glyph glyph-name="oe" unicode="&#x153;" horiz-adv-x="683" 
d="M223 -12q-63 0 -99 20t-56 78t-20 164q0 104 21 162.5t57 79t97 20.5q91 0 125 -56q31 56 120 56q62 0 97 -20t55 -78t20 -164v-37h-238q4 -82 24 -106.5t71 -24.5q65 0 113 30v-94q-11 -9 -45 -19.5t-76 -10.5q-104 0 -139 62q-34 -62 -127 -62zM225 82q43 0 57 33.5
t14 134.5t-14 134.5t-57 33.5t-57 -33.5t-14 -134.5t14 -134.5t57 -33.5zM468 421q-37 0 -50.5 -25.5t-15.5 -97.5h131q-2 72 -15 97.5t-50 25.5z" />
    <glyph glyph-name="Racute" unicode="&#x154;" horiz-adv-x="507" 
d="M75 0v650h165q207 0 207 -197q0 -133 -105 -177l135 -276h-127l-114 256h-51v-256h-110zM230 558h-45v-210h45q53 0 78.5 20.5t25.5 84.5t-25.5 84.5t-78.5 20.5zM188 714l58 96h126l-95 -96h-89z" />
    <glyph glyph-name="racute" unicode="&#x155;" horiz-adv-x="311" 
d="M65 0v500h76l12 -42q55 48 138 48v-104q-71 0 -122 -21v-381h-104zM119 564l58 96h126l-95 -96h-89z" />
    <glyph glyph-name="Rcommaaccent" unicode="&#x156;" horiz-adv-x="507" 
d="M75 0v650h165q207 0 207 -197q0 -133 -105 -177l135 -276h-127l-114 256h-51v-256h-110zM230 558h-45v-210h45q53 0 78.5 20.5t25.5 84.5t-25.5 84.5t-78.5 20.5zM218 -219q13 40 13 67q0 19 -7 41.5t-7 31.5q0 20 12.5 32t34.5 12q48 0 48 -52q0 -46 -39 -132h-55z" />
    <glyph glyph-name="rcommaaccent" unicode="&#x157;" horiz-adv-x="311" 
d="M65 0v500h76l12 -42q55 48 138 48v-104q-71 0 -122 -21v-381h-104zM71 -219q13 40 13 67q0 19 -7 41.5t-7 31.5q0 20 12.5 32t34.5 12q48 0 48 -52q0 -46 -39 -132h-55z" />
    <glyph glyph-name="Rcaron" unicode="&#x158;" horiz-adv-x="507" 
d="M75 0v650h165q207 0 207 -197q0 -133 -105 -177l135 -276h-127l-114 256h-51v-256h-110zM230 558h-45v-210h45q53 0 78.5 20.5t25.5 84.5t-25.5 84.5t-78.5 20.5zM247 698l-126 60v69l126 -38l126 38v-69z" />
    <glyph glyph-name="rcaron" unicode="&#x159;" horiz-adv-x="311" 
d="M65 0v500h76l12 -42q55 48 138 48v-104q-71 0 -122 -21v-381h-104zM178 548l-126 60v69l126 -38l126 38v-69z" />
    <glyph glyph-name="Sacute" unicode="&#x15a;" horiz-adv-x="409" 
d="M172 -12q-85 0 -126 26v100q51 -28 116 -28q91 0 91 74q0 34 -14 55t-49 51l-53 45q-49 42 -70.5 79t-21.5 96q0 77 51.5 126.5t143.5 49.5q74 0 112 -25v-100q-46 27 -102 27q-91 0 -91 -74q0 -34 14 -55t49 -51l53 -45q49 -42 70.5 -79t21.5 -96q0 -77 -51.5 -126.5
t-143.5 -49.5zM152 714l58 96h126l-95 -96h-89z" />
    <glyph glyph-name="sacute" unicode="&#x15b;" horiz-adv-x="380" 
d="M161 -12q-74 0 -118 28v96q52 -30 114 -30q77 0 77 54q0 33 -42 55l-59 31q-93 49 -93 138q0 74 46 113t121 39q65 0 112 -26v-93q-40 25 -97 25q-76 0 -76 -54q0 -33 42 -55l62 -33q51 -27 70.5 -59.5t19.5 -76.5q0 -74 -45 -113t-134 -39zM131 564l58 96h126l-95 -96
h-89z" />
    <glyph glyph-name="Scircumflex" unicode="&#x15c;" horiz-adv-x="409" 
d="M172 -12q-85 0 -126 26v100q51 -28 116 -28q91 0 91 74q0 34 -14 55t-49 51l-53 45q-49 42 -70.5 79t-21.5 96q0 77 51.5 126.5t143.5 49.5q74 0 112 -25v-100q-46 27 -102 27q-91 0 -91 -74q0 -34 14 -55t49 -51l53 -45q49 -42 70.5 -79t21.5 -96q0 -77 -51.5 -126.5
t-143.5 -49.5zM85 698v69l126 60l126 -60v-69l-126 38z" />
    <glyph glyph-name="scircumflex" unicode="&#x15d;" horiz-adv-x="380" 
d="M161 -12q-74 0 -118 28v96q52 -30 114 -30q77 0 77 54q0 33 -42 55l-59 31q-93 49 -93 138q0 74 46 113t121 39q65 0 112 -26v-93q-40 25 -97 25q-76 0 -76 -54q0 -33 42 -55l62 -33q51 -27 70.5 -59.5t19.5 -76.5q0 -74 -45 -113t-134 -39zM64 548v69l126 60l126 -60
v-69l-126 38z" />
    <glyph glyph-name="Scedilla" unicode="&#x15e;" horiz-adv-x="409" 
d="M184 -162q-36 0 -60 12v59q15 -3 29 -3q33 0 33 25q0 22 -25 57q-79 3 -115 26v100q51 -28 116 -28q91 0 91 74q0 34 -14 55t-49 51l-53 45q-49 42 -70.5 79t-21.5 96q0 77 51.5 126.5t143.5 49.5q74 0 112 -25v-100q-46 27 -102 27q-91 0 -91 -74q0 -34 14 -55t49 -51
l53 -45q49 -42 70.5 -79t21.5 -96q0 -66 -38.5 -113t-109.5 -59q45 -40 45 -84q0 -34 -22 -52t-58 -18z" />
    <glyph glyph-name="scedilla" unicode="&#x15f;" horiz-adv-x="380" 
d="M173 -162q-36 0 -60 12v59q15 -3 29 -3q33 0 33 25q0 22 -25 57q-70 3 -107 28v96q52 -30 114 -30q77 0 77 54q0 33 -42 55l-59 31q-93 49 -93 138q0 74 46 113t121 39q65 0 112 -26v-93q-40 25 -97 25q-76 0 -76 -54q0 -33 42 -55l62 -33q51 -27 70.5 -59.5t19.5 -76.5
q0 -130 -131 -148q44 -44 44 -84q0 -34 -22 -52t-58 -18z" />
    <glyph glyph-name="Scaron" unicode="&#x160;" horiz-adv-x="409" 
d="M172 -12q-85 0 -126 26v100q51 -28 116 -28q91 0 91 74q0 34 -14 55t-49 51l-53 45q-49 42 -70.5 79t-21.5 96q0 77 51.5 126.5t143.5 49.5q74 0 112 -25v-100q-46 27 -102 27q-91 0 -91 -74q0 -34 14 -55t49 -51l53 -45q49 -42 70.5 -79t21.5 -96q0 -77 -51.5 -126.5
t-143.5 -49.5zM211 698l-126 60v69l126 -38l126 38v-69z" />
    <glyph glyph-name="scaron" unicode="&#x161;" horiz-adv-x="380" 
d="M161 -12q-74 0 -118 28v96q52 -30 114 -30q77 0 77 54q0 33 -42 55l-59 31q-93 49 -93 138q0 74 46 113t121 39q65 0 112 -26v-93q-40 25 -97 25q-76 0 -76 -54q0 -33 42 -55l62 -33q51 -27 70.5 -59.5t19.5 -76.5q0 -74 -45 -113t-134 -39zM190 548l-126 60v69l126 -38
l126 38v-69z" />
    <glyph glyph-name="Tcommaaccent" unicode="&#x162;" horiz-adv-x="410" 
d="M10 558v92h390v-92h-140v-558h-110v558h-140zM159 -219q13 40 13 67q0 19 -7 41.5t-7 31.5q0 20 12.5 32t34.5 12q48 0 48 -52q0 -46 -39 -132h-55z" />
    <glyph glyph-name="tcommaaccent" unicode="&#x163;" horiz-adv-x="327" 
d="M20 413v87h72v150h104v-150h101v-87h-101v-267q0 -37 13.5 -50t48.5 -13h29v-87h-57q-65 0 -101.5 29.5t-36.5 110.5v277h-72zM150 -219q13 40 13 67q0 19 -7 41.5t-7 31.5q0 20 12.5 32t34.5 12q48 0 48 -52q0 -46 -39 -132h-55z" />
    <glyph glyph-name="Tcaron" unicode="&#x164;" horiz-adv-x="410" 
d="M10 558v92h390v-92h-140v-558h-110v558h-140zM205 698l-126 60v69l126 -38l126 38v-69z" />
    <glyph glyph-name="tcaron" unicode="&#x165;" horiz-adv-x="327" 
d="M20 413v87h72v150h104v-150h101v-87h-101v-267q0 -37 13.5 -50t48.5 -13h29v-87h-57q-65 0 -101.5 29.5t-36.5 110.5v277h-72zM237 540q13 40 13 67q0 19 -7 41.5t-7 31.5q0 20 12.5 32t34.5 12q48 0 48 -52q0 -46 -39 -132h-55z" />
    <glyph glyph-name="Tbar" unicode="&#x166;" horiz-adv-x="410" 
d="M10 558v92h390v-92h-140v-185h79v-91h-79v-282h-110v282h-81v91h81v185h-140z" />
    <glyph glyph-name="tbar" unicode="&#x167;" horiz-adv-x="337" 
d="M20 413v87h72v150h104v-150h101v-87h-101v-63h79v-83h-79v-121q0 -37 13.5 -50t48.5 -13h29v-87h-57q-65 0 -101.5 29.5t-36.5 110.5v131h-46v83h46v63h-72z" />
    <glyph glyph-name="Utilde" unicode="&#x168;" horiz-adv-x="542" 
d="M271 -12q-105 0 -153 49.5t-48 162.5v450h110v-460q0 -60 22.5 -83t68.5 -23t68.5 23t22.5 83v460h110v-450q0 -111 -48.5 -161.5t-152.5 -50.5zM319 705q-26 0 -58 20.5t-51 20.5q-29 0 -56 -27v70q9 14 28 26t42 12q26 0 58 -20.5t51 -20.5q29 0 56 27v-70
q-9 -14 -28 -26t-42 -12z" />
    <glyph glyph-name="utilde" unicode="&#x169;" horiz-adv-x="457" 
d="M316 0l-8 27q-46 -39 -106 -39q-79 0 -110.5 45.5t-31.5 126.5v340h104v-331q0 -46 12 -67.5t53 -21.5q30 0 59 18v402h104v-500h-76zM274 555q-26 0 -58 20.5t-51 20.5q-29 0 -56 -27v70q9 14 28 26t42 12q26 0 58 -20.5t51 -20.5q29 0 56 27v-70q-9 -14 -28 -26
t-42 -12z" />
    <glyph glyph-name="Umacron" unicode="&#x16a;" horiz-adv-x="542" 
d="M271 -12q-105 0 -153 49.5t-48 162.5v450h110v-460q0 -60 22.5 -83t68.5 -23t68.5 23t22.5 83v460h110v-450q0 -111 -48.5 -161.5t-152.5 -50.5zM145 722v83h252v-83h-252z" />
    <glyph glyph-name="umacron" unicode="&#x16b;" horiz-adv-x="457" 
d="M316 0l-8 27q-46 -39 -106 -39q-79 0 -110.5 45.5t-31.5 126.5v340h104v-331q0 -46 12 -67.5t53 -21.5q30 0 59 18v402h104v-500h-76zM100 572v83h252v-83h-252z" />
    <glyph glyph-name="Ubreve" unicode="&#x16c;" horiz-adv-x="542" 
d="M271 -12q-105 0 -153 49.5t-48 162.5v450h110v-460q0 -60 22.5 -83t68.5 -23t68.5 23t22.5 83v460h110v-450q0 -111 -48.5 -161.5t-152.5 -50.5zM271 703q-53 0 -87.5 25t-44.5 47l36 54q34 -43 96 -43t96 43l36 -54q-10 -22 -44.5 -47t-87.5 -25z" />
    <glyph glyph-name="ubreve" unicode="&#x16d;" horiz-adv-x="457" 
d="M316 0l-8 27q-46 -39 -106 -39q-79 0 -110.5 45.5t-31.5 126.5v340h104v-331q0 -46 12 -67.5t53 -21.5q30 0 59 18v402h104v-500h-76zM226 553q-53 0 -87.5 25t-44.5 47l36 54q34 -43 96 -43t96 43l36 -54q-10 -22 -44.5 -47t-87.5 -25z" />
    <glyph glyph-name="Uring" unicode="&#x16e;" horiz-adv-x="542" 
d="M271 -12q-105 0 -153 49.5t-48 162.5v450h110v-460q0 -60 22.5 -83t68.5 -23t68.5 23t22.5 83v460h110v-450q0 -111 -48.5 -161.5t-152.5 -50.5zM271 667q-50 0 -81 29.5t-31 80.5t31.5 80.5t80.5 29.5q50 0 81 -29.5t31 -80.5t-31.5 -80.5t-80.5 -29.5zM271 728
q21 0 34.5 12.5t13.5 36.5t-13.5 36.5t-34.5 12.5t-34.5 -12.5t-13.5 -36.5t13.5 -36.5t34.5 -12.5z" />
    <glyph glyph-name="uring" unicode="&#x16f;" horiz-adv-x="457" 
d="M316 0l-8 27q-46 -39 -106 -39q-79 0 -110.5 45.5t-31.5 126.5v340h104v-331q0 -46 12 -67.5t53 -21.5q30 0 59 18v402h104v-500h-76zM226 547q-50 0 -81 29.5t-31 80.5t31.5 80.5t80.5 29.5q50 0 81 -29.5t31 -80.5t-31.5 -80.5t-80.5 -29.5zM226 608q21 0 34.5 12.5
t13.5 36.5t-13.5 36.5t-34.5 12.5t-34.5 -12.5t-13.5 -36.5t13.5 -36.5t34.5 -12.5z" />
    <glyph glyph-name="Uhungarumlaut" unicode="&#x170;" horiz-adv-x="542" 
d="M271 -12q-105 0 -153 49.5t-48 162.5v450h110v-460q0 -60 22.5 -83t68.5 -23t68.5 23t22.5 83v460h110v-450q0 -111 -48.5 -161.5t-152.5 -50.5zM146 714l58 96h110l-90 -96h-78zM292 714l58 96h110l-90 -96h-78z" />
    <glyph glyph-name="uhungarumlaut" unicode="&#x171;" horiz-adv-x="457" 
d="M316 0l-8 27q-46 -39 -106 -39q-79 0 -110.5 45.5t-31.5 126.5v340h104v-331q0 -46 12 -67.5t53 -21.5q30 0 59 18v402h104v-500h-76zM101 564l58 96h110l-90 -96h-78zM247 564l58 96h110l-90 -96h-78z" />
    <glyph glyph-name="Uogonek" unicode="&#x172;" horiz-adv-x="542" 
d="M267 -162q-31 0 -53.5 14t-22.5 43q0 46 55 94q-92 5 -134 54.5t-42 156.5v450h110v-460q0 -60 22.5 -83t68.5 -23t68.5 23t22.5 83v460h110v-450q0 -98 -37.5 -148t-115.5 -61q-50 -42 -50 -67q0 -18 33 -18q14 0 29 3v-59q-24 -12 -64 -12z" />
    <glyph glyph-name="uogonek" unicode="&#x173;" horiz-adv-x="457" 
d="M328 -162q-31 0 -53.5 14t-22.5 43q0 49 64 105l-8 27q-46 -39 -106 -39q-79 0 -110.5 45.5t-31.5 126.5v340h104v-331q0 -46 12 -67.5t53 -21.5q30 0 59 18v402h104v-500q-17 -11 -39.5 -35t-22.5 -39q0 -20 33 -20q14 0 29 3v-59q-24 -12 -64 -12z" />
    <glyph glyph-name="Wcircumflex" unicode="&#x174;" horiz-adv-x="649" 
d="M143 0l-123 650h109l51 -325q10 -67 19 -208q10 147 20 208l51 325h113l51 -325q10 -67 19 -208q10 147 20 208l51 325h105l-123 -650h-113l-51 325q-9 53 -18 176q-8 -116 -17 -176l-51 -325h-113zM198 698v69l126 60l126 -60v-69l-126 38z" />
    <glyph glyph-name="wcircumflex" unicode="&#x175;" horiz-adv-x="631" 
d="M129 0l-105 500h103l45 -250q9 -49 16 -144q9 97 19 144l52 250h116l52 -250q11 -54 18 -144q7 85 17 144l45 250h100l-105 -500h-115l-52 250q-11 58 -20 151q-9 -103 -19 -151l-52 -250h-115zM189 548v69l126 60l126 -60v-69l-126 38z" />
    <glyph glyph-name="Ycircumflex" unicode="&#x176;" horiz-adv-x="446" 
d="M168 0v271l-175 379h119l72 -170q22 -55 40 -116q16 60 40 116l72 170h117l-175 -379v-271h-110zM97 698v69l126 60l126 -60v-69l-126 38z" />
    <glyph glyph-name="ycircumflex" unicode="&#x177;" horiz-adv-x="412" 
d="M110 -150l43 150l-138 500h107l66 -266q11 -45 19 -120q10 80 20 120l66 266h104l-180 -650h-107zM81 548v69l126 60l126 -60v-69l-126 38z" />
    <glyph glyph-name="Ydieresis" unicode="&#x178;" horiz-adv-x="446" 
d="M168 0v271l-175 379h119l72 -170q22 -55 40 -116q16 60 40 116l72 170h117l-175 -379v-271h-110zM138 702q-28 0 -44 16t-16 44t16 44t44 16t44 -16t16 -44t-16 -44t-44 -16zM308 702q-28 0 -44 16t-16 44t16 44t44 16t44 -16t16 -44t-16 -44t-44 -16z" />
    <glyph glyph-name="Zacute" unicode="&#x179;" horiz-adv-x="427" 
d="M40 0v76l220 482h-215v92h337v-77l-220 -481h225v-92h-347zM154 714l58 96h126l-95 -96h-89z" />
    <glyph glyph-name="zacute" unicode="&#x17a;" horiz-adv-x="392" 
d="M40 0v67l188 346h-183v87h307v-67l-189 -346h194v-87h-317zM139 564l58 96h126l-95 -96h-89z" />
    <glyph glyph-name="Zdotaccent" unicode="&#x17b;" horiz-adv-x="427" 
d="M40 0v76l220 482h-215v92h337v-77l-220 -481h225v-92h-347zM213 702q-28 0 -44 16t-16 44t16 44t44 16t44 -16t16 -44t-16 -44t-44 -16z" />
    <glyph glyph-name="zdotaccent" unicode="&#x17c;" horiz-adv-x="392" 
d="M40 0v67l188 346h-183v87h307v-67l-189 -346h194v-87h-317zM198 552q-28 0 -44 16t-16 44t16 44t44 16t44 -16t16 -44t-16 -44t-44 -16z" />
    <glyph glyph-name="Zcaron" unicode="&#x17d;" horiz-adv-x="427" 
d="M40 0v76l220 482h-215v92h337v-77l-220 -481h225v-92h-347zM213 698l-126 60v69l126 -38l126 38v-69z" />
    <glyph glyph-name="zcaron" unicode="&#x17e;" horiz-adv-x="392" 
d="M40 0v67l188 346h-183v87h307v-67l-189 -346h194v-87h-317zM198 548l-126 60v69l126 -38l126 38v-69z" />
    <glyph glyph-name="florin" unicode="&#x192;" horiz-adv-x="419" 
d="M5 280v92h113v80q0 210 184 210q69 0 97 -22v-94q-31 20 -83 20q-56 0 -73 -29.5t-17 -95.5v-69h154v-92h-154v-430h-108v430h-113z" />
    <glyph glyph-name="AEacute" unicode="&#x1fc;" horiz-adv-x="645" 
d="M290 0v140h-143l-34 -140h-111l171 650h417v-92h-190v-178h150v-92h-150v-196h190v-92h-300zM250 558l-81 -326h121v326h-40zM306 714l58 96h126l-95 -96h-89z" />
    <glyph glyph-name="aeacute" unicode="&#x1fd;" horiz-adv-x="661" 
d="M179 -12q-77 0 -107 43t-30 123q0 79 31 122.5t106 43.5q55 0 98 -27v12q0 64 -19 88.5t-72 24.5q-66 0 -117 -30v94q11 9 48 19.5t83 10.5q92 0 131 -46q43 46 115 46q62 0 97 -20t55 -78t20 -164v-37h-238q4 -82 24 -106.5t71 -24.5q65 0 113 30v-94q-11 -9 -45 -19.5
t-76 -10.5q-99 0 -142 51q-61 -51 -146 -51zM290 104q-13 42 -16 110q-33 20 -69 20q-33 0 -45.5 -18.5t-12.5 -61.5t12.5 -61.5t45.5 -18.5q45 0 85 30zM446 421q-37 0 -50.5 -25.5t-15.5 -97.5h131q-2 72 -15 97.5t-50 25.5zM271 564l58 96h126l-95 -96h-89z" />
    <glyph glyph-name="Oslashacute" unicode="&#x1fe;" horiz-adv-x="514" 
d="M198 714l58 96h126l-95 -96h-89zM257 -12q-78 0 -120 27l-33 -65h-80l64 124q-38 75 -38 251q0 134 24.5 209t67.5 101.5t115 26.5q77 0 118 -28l34 66h80l-64 -124q39 -76 39 -251q0 -102 -12.5 -168.5t-40.5 -103.5t-64 -51t-90 -14zM350 325v104l-162 -315
q18 -30 69 -30q58 0 75.5 47.5t17.5 193.5zM164 325v-103l161 315q-18 29 -68 29q-58 0 -75.5 -47.5t-17.5 -193.5z" />
    <glyph glyph-name="oslashacute" unicode="&#x1ff;" 
d="M166 564l58 96h126l-95 -96h-89zM225 -12q-49 0 -90 18l-30 -56h-82l57 106q-32 58 -32 194q0 79 11 131t35 80.5t55 39.5t76 11q49 0 90 -18l30 56h82l-57 -106q32 -61 32 -194q0 -79 -11 -131t-35 -80.5t-55 -39.5t-76 -11zM154 250v-55l114 212q-14 11 -43 11
q-43 0 -57 -33.5t-14 -134.5zM296 250v55l-115 -213q14 -10 44 -10q43 0 57 33.5t14 134.5z" />
    <glyph glyph-name="Scommaaccent" unicode="&#x218;" horiz-adv-x="409" 
d="M172 -12q-85 0 -126 26v100q51 -28 116 -28q91 0 91 74q0 34 -14 55t-49 51l-53 45q-49 42 -70.5 79t-21.5 96q0 77 51.5 126.5t143.5 49.5q74 0 112 -25v-100q-46 27 -102 27q-91 0 -91 -74q0 -34 14 -55t49 -51l53 -45q49 -42 70.5 -79t21.5 -96q0 -77 -51.5 -126.5
t-143.5 -49.5zM145 -219q13 40 13 67q0 19 -7 41.5t-7 31.5q0 20 12.5 32t34.5 12q48 0 48 -52q0 -46 -39 -132h-55z" />
    <glyph glyph-name="scommaaccent" unicode="&#x219;" horiz-adv-x="380" 
d="M161 -12q-74 0 -118 28v96q52 -30 114 -30q77 0 77 54q0 33 -42 55l-59 31q-93 49 -93 138q0 74 46 113t121 39q65 0 112 -26v-93q-40 25 -97 25q-76 0 -76 -54q0 -33 42 -55l62 -33q51 -27 70.5 -59.5t19.5 -76.5q0 -74 -45 -113t-134 -39zM134 -219q13 40 13 67
q0 19 -7 41.5t-7 31.5q0 20 12.5 32t34.5 12q48 0 48 -52q0 -46 -39 -132h-55z" />
    <glyph glyph-name="uni021A" unicode="&#x21a;" horiz-adv-x="410" 
d="M10 558v92h390v-92h-140v-558h-110v558h-140zM159 -219q13 40 13 67q0 19 -7 41.5t-7 31.5q0 20 12.5 32t34.5 12q48 0 48 -52q0 -46 -39 -132h-55z" />
    <glyph glyph-name="uni021B" unicode="&#x21b;" horiz-adv-x="327" 
d="M20 413v87h72v150h104v-150h101v-87h-101v-267q0 -37 13.5 -50t48.5 -13h29v-87h-57q-65 0 -101.5 29.5t-36.5 110.5v277h-72zM150 -219q13 40 13 67q0 19 -7 41.5t-7 31.5q0 20 12.5 32t34.5 12q48 0 48 -52q0 -46 -39 -132h-55z" />
    <glyph glyph-name="dotlessj" unicode="&#x237;" horiz-adv-x="234" 
d="M-20 -150v87h31q31 0 42.5 13t11.5 43v507h104v-524q0 -71 -35 -98.5t-100 -27.5h-54z" />
    <glyph glyph-name="circumflex" unicode="&#x2c6;" horiz-adv-x="366" 
d="M57 548v69l126 60l126 -60v-69l-126 38z" />
    <glyph glyph-name="caron" unicode="&#x2c7;" horiz-adv-x="366" 
d="M183 548l-126 60v69l126 -38l126 38v-69z" />
    <glyph glyph-name="breve" unicode="&#x2d8;" horiz-adv-x="378" 
d="M189 553q-53 0 -87.5 25t-44.5 47l36 54q34 -43 96 -43t96 43l36 -54q-10 -22 -44.5 -47t-87.5 -25z" />
    <glyph glyph-name="dotaccent" unicode="&#x2d9;" horiz-adv-x="234" 
d="M117 552q-28 0 -44 16t-16 44t16 44t44 16t44 -16t16 -44t-16 -44t-44 -16z" />
    <glyph glyph-name="ring" unicode="&#x2da;" horiz-adv-x="338" 
d="M169 547q-50 0 -81 29.5t-31 80.5t31.5 80.5t80.5 29.5q50 0 81 -29.5t31 -80.5t-31.5 -80.5t-80.5 -29.5zM169 608q21 0 34.5 12.5t13.5 36.5t-13.5 36.5t-34.5 12.5t-34.5 -12.5t-13.5 -36.5t13.5 -36.5t34.5 -12.5z" />
    <glyph glyph-name="ogonek" unicode="&#x2db;" horiz-adv-x="254" 
d="M133 -162q-31 0 -53.5 14t-22.5 43q0 31 25 62t46 43h69q-19 -14 -40.5 -37t-21.5 -39q0 -18 33 -18q14 0 29 3v-59q-24 -12 -64 -12z" />
    <glyph glyph-name="tilde" unicode="&#x2dc;" horiz-adv-x="349" 
d="M222 555q-26 0 -58 20.5t-51 20.5q-29 0 -56 -27v70q9 14 28 26t42 12q26 0 58 -20.5t51 -20.5q29 0 56 27v-70q-9 -14 -28 -26t-42 -12z" />
    <glyph glyph-name="hungarumlaut" unicode="&#x2dd;" horiz-adv-x="428" 
d="M57 564l58 96h110l-90 -96h-78zM203 564l58 96h110l-90 -96h-78z" />
    <glyph glyph-name="commatop" unicode="&#x312;" horiz-adv-x="209" 
d="M105 556q-48 0 -48 52q0 46 39 132h55q-13 -40 -13 -67q0 -19 7 -41.5t7 -31.5q0 -20 -12.5 -32t-34.5 -12z" />
    <glyph glyph-name="commaaccent" unicode="&#x326;" horiz-adv-x="209" 
d="M58 -219q13 40 13 67q0 19 -7 41.5t-7 31.5q0 20 12.5 32t34.5 12q48 0 48 -52q0 -46 -39 -132h-55z" />
    <glyph glyph-name="uni0394" unicode="&#x394;" horiz-adv-x="468" 
d="M2 0l175 650h114l175 -650h-464zM190 325l-62 -236h210l-62 236q-30 113 -43 185q-13 -72 -43 -185z" />
    <glyph glyph-name="uni03A9" unicode="&#x3a9;" horiz-adv-x="514" 
d="M27 0v92h84q-61 111 -61 262q0 120 24.5 188.5t67.5 94t115 25.5q73 0 116 -24.5t67 -93t24 -190.5q0 -149 -62 -262h85v-92h-197v76q60 114 60 267q0 127 -18.5 175t-74.5 48t-74.5 -48t-18.5 -175q0 -153 60 -267v-76h-197z" />
    <glyph glyph-name="uni03BC" unicode="&#x3bc;" horiz-adv-x="462" 
d="M321 0l-8 27q-45 -39 -102 -39q-25 0 -51 7q9 -43 9 -75v-70h-104v650h104v-331q0 -46 12 -67.5t53 -21.5q30 0 59 18v402h104v-500h-76z" />
    <glyph glyph-name="pi" unicode="&#x3c0;" horiz-adv-x="463" 
d="M294 0v413h-125v-413h-104v500h333v-500h-104z" />
    <glyph glyph-name="Wgrave" unicode="&#x1e80;" horiz-adv-x="649" 
d="M143 0l-123 650h109l51 -325q10 -67 19 -208q10 147 20 208l51 325h113l51 -325q10 -67 19 -208q10 147 20 208l51 325h105l-123 -650h-113l-51 325q-9 53 -18 176q-8 -116 -17 -176l-51 -325h-113zM294 714l-95 96h126l58 -96h-89z" />
    <glyph glyph-name="wgrave" unicode="&#x1e81;" horiz-adv-x="631" 
d="M129 0l-105 500h103l45 -250q9 -49 16 -144q9 97 19 144l52 250h116l52 -250q11 -54 18 -144q7 85 17 144l45 250h100l-105 -500h-115l-52 250q-11 58 -20 151q-9 -103 -19 -151l-52 -250h-115zM285 564l-95 96h126l58 -96h-89z" />
    <glyph glyph-name="Wacute" unicode="&#x1e82;" horiz-adv-x="649" 
d="M143 0l-123 650h109l51 -325q10 -67 19 -208q10 147 20 208l51 325h113l51 -325q10 -67 19 -208q10 147 20 208l51 325h105l-123 -650h-113l-51 325q-9 53 -18 176q-8 -116 -17 -176l-51 -325h-113zM265 714l58 96h126l-95 -96h-89z" />
    <glyph glyph-name="wacute" unicode="&#x1e83;" horiz-adv-x="631" 
d="M129 0l-105 500h103l45 -250q9 -49 16 -144q9 97 19 144l52 250h116l52 -250q11 -54 18 -144q7 85 17 144l45 250h100l-105 -500h-115l-52 250q-11 58 -20 151q-9 -103 -19 -151l-52 -250h-115zM256 564l58 96h126l-95 -96h-89z" />
    <glyph glyph-name="Wdieresis" unicode="&#x1e84;" horiz-adv-x="649" 
d="M143 0l-123 650h109l51 -325q10 -67 19 -208q10 147 20 208l51 325h113l51 -325q10 -67 19 -208q10 147 20 208l51 325h105l-123 -650h-113l-51 325q-9 53 -18 176q-8 -116 -17 -176l-51 -325h-113zM239 702q-28 0 -44 16t-16 44t16 44t44 16t44 -16t16 -44t-16 -44
t-44 -16zM409 702q-28 0 -44 16t-16 44t16 44t44 16t44 -16t16 -44t-16 -44t-44 -16z" />
    <glyph glyph-name="wdieresis" unicode="&#x1e85;" horiz-adv-x="631" 
d="M129 0l-105 500h103l45 -250q9 -49 16 -144q9 97 19 144l52 250h116l52 -250q11 -54 18 -144q7 85 17 144l45 250h100l-105 -500h-115l-52 250q-11 58 -20 151q-9 -103 -19 -151l-52 -250h-115zM230 552q-28 0 -44 16t-16 44t16 44t44 16t44 -16t16 -44t-16 -44t-44 -16z
M400 552q-28 0 -44 16t-16 44t16 44t44 16t44 -16t16 -44t-16 -44t-44 -16z" />
    <glyph glyph-name="Ygrave" unicode="&#x1ef2;" horiz-adv-x="446" 
d="M168 0v271l-175 379h119l72 -170q22 -55 40 -116q16 60 40 116l72 170h117l-175 -379v-271h-110zM193 714l-95 96h126l58 -96h-89z" />
    <glyph glyph-name="ygrave" unicode="&#x1ef3;" horiz-adv-x="412" 
d="M110 -150l43 150l-138 500h107l66 -266q11 -45 19 -120q10 80 20 120l66 266h104l-180 -650h-107zM177 564l-95 96h126l58 -96h-89z" />
    <glyph glyph-name="endash" unicode="&#x2013;" horiz-adv-x="470" 
d="M45 205v91h380v-91h-380z" />
    <glyph glyph-name="emdash" unicode="&#x2014;" horiz-adv-x="850" 
d="M45 205v91h760v-91h-760z" />
    <glyph glyph-name="quoteleft" unicode="&#x2018;" horiz-adv-x="206" 
d="M103 386q-30 0 -46.5 17.5t-16.5 48.5q0 69 50 198h76q-16 -56 -16 -97q0 -27 8 -59t8 -45q0 -29 -16 -46t-47 -17z" />
    <glyph glyph-name="quoteright" unicode="&#x2019;" horiz-adv-x="206" 
d="M40 398q16 56 16 97q0 27 -8 59t-8 45q0 29 16 46t47 17q30 0 46.5 -17.5t16.5 -48.5q0 -69 -50 -198h-76z" />
    <glyph glyph-name="quotesinglbase" unicode="&#x201a;" horiz-adv-x="186" 
d="M30 -150q16 56 16 97q0 27 -8 59t-8 45q0 29 16 46t47 17q30 0 46.5 -17.5t16.5 -48.5q0 -69 -50 -198h-76z" />
    <glyph glyph-name="quotedblleft" unicode="&#x201c;" horiz-adv-x="372" 
d="M103 386q-30 0 -46.5 17.5t-16.5 48.5q0 69 50 198h76q-16 -56 -16 -97q0 -27 8 -59t8 -45q0 -29 -16 -46t-47 -17zM269 386q-30 0 -46.5 17.5t-16.5 48.5q0 69 50 198h76q-16 -56 -16 -97q0 -27 8 -59t8 -45q0 -29 -16 -46t-47 -17z" />
    <glyph glyph-name="quotedblright" unicode="&#x201d;" horiz-adv-x="372" 
d="M40 398q16 56 16 97q0 27 -8 59t-8 45q0 29 16 46t47 17q30 0 46.5 -17.5t16.5 -48.5q0 -69 -50 -198h-76zM206 398q16 56 16 97q0 27 -8 59t-8 45q0 29 16 46t47 17q30 0 46.5 -17.5t16.5 -48.5q0 -69 -50 -198h-76z" />
    <glyph glyph-name="quotedblbase" unicode="&#x201e;" horiz-adv-x="357" 
d="M30 -150q16 56 16 97q0 27 -8 59t-8 45q0 29 16 46t47 17q30 0 46.5 -17.5t16.5 -48.5q0 -69 -50 -198h-76zM201 -150q16 56 16 97q0 27 -8 59t-8 45q0 29 16 46t47 17q30 0 46.5 -17.5t16.5 -48.5q0 -69 -50 -198h-76z" />
    <glyph glyph-name="dagger" unicode="&#x2020;" horiz-adv-x="302" 
d="M110 313v185h-80v73h80v79h82v-79h80v-73h-80v-185h-82z" />
    <glyph glyph-name="daggerdbl" unicode="&#x2021;" horiz-adv-x="332" 
d="M125 165v185h-80v73h80v75h-80v73h80v79h82v-79h80v-73h-80v-75h80v-73h-80v-185h-82z" />
    <glyph glyph-name="bullet" unicode="&#x2022;" horiz-adv-x="312" 
d="M156 199q-59 0 -92.5 33t-33.5 93t33.5 93t92.5 33t92.5 -33t33.5 -93t-33.5 -93t-92.5 -33z" />
    <glyph glyph-name="ellipsis" unicode="&#x2026;" horiz-adv-x="528" 
d="M88 -12q-29 0 -46 16.5t-17 46.5t17 46.5t46 16.5t46 -16.5t17 -46.5t-17 -46.5t-46 -16.5zM264 -12q-29 0 -46 16.5t-17 46.5t17 46.5t46 16.5t46 -16.5t17 -46.5t-17 -46.5t-46 -16.5zM440 -12q-29 0 -46 16.5t-17 46.5t17 46.5t46 16.5t46 -16.5t17 -46.5t-17 -46.5
t-46 -16.5z" />
    <glyph glyph-name="perthousand" unicode="&#x2030;" horiz-adv-x="858" 
d="M702 -12q-62 0 -91.5 34.5t-29.5 115.5q0 78 29.5 114t91.5 36t91.5 -34.5t29.5 -115.5q0 -78 -29.5 -114t-91.5 -36zM702 60q23 0 31 17t8 61t-8 61t-31 17t-31 -17t-8 -61t8 -61t31 -17zM156 362q-62 0 -91.5 34.5t-29.5 115.5q0 78 29.5 114t91.5 36t91.5 -34.5
t29.5 -115.5q0 -78 -29.5 -114t-91.5 -36zM156 434q23 0 31 17t8 61t-8 61t-31 17t-31 -17t-8 -61t8 -61t31 -17zM426 -12q-62 0 -91.5 34.5t-29.5 115.5q0 78 29.5 114t91.5 36t91.5 -34.5t29.5 -115.5q0 -78 -29.5 -114t-91.5 -36zM426 60q23 0 31 17t8 61t-8 61t-31 17
t-31 -17t-8 -61t8 -61t31 -17zM48 0l397 650h89l-397 -650h-89z" />
    <glyph glyph-name="guilsinglleft" unicode="&#x2039;" horiz-adv-x="249" 
d="M125 130l-100 170l100 170h89l-88 -170l88 -170h-89z" />
    <glyph glyph-name="guilsinglright" unicode="&#x203a;" horiz-adv-x="249" 
d="M35 130l88 170l-88 170h89l100 -170l-100 -170h-89z" />
    <glyph glyph-name="fraction" unicode="&#x2044;" horiz-adv-x="196" 
d="M-145 0l397 650h89l-397 -650h-89z" />
    <glyph glyph-name="uni2070" unicode="&#x2070;" horiz-adv-x="364" 
d="M182 230q-54 0 -84 16t-47 63.5t-17 134.5q0 124 35 169t113 45q54 0 84 -16t47 -63.5t17 -134.5q0 -124 -35 -169t-113 -45zM182 308q35 0 45 26.5t10 109.5t-10 109.5t-45 26.5t-45 -26.5t-10 -109.5t10 -109.5t45 -26.5z" />
    <glyph glyph-name="uni2074" unicode="&#x2074;" horiz-adv-x="364" 
d="M30 314v59l166 277h97l-162 -263h78v61h88v-61h51v-73h-51v-77h-88v77h-179z" />
    <glyph glyph-name="uni2075" unicode="&#x2075;" horiz-adv-x="364" 
d="M151 230q-55 0 -101 19v83q43 -23 92 -23q81 0 81 52q0 66 -158 72l14 217h218v-76h-139l-6 -72q78 -9 120 -47t42 -97q0 -61 -42 -94.5t-121 -33.5z" />
    <glyph glyph-name="uni2076" unicode="&#x2076;" horiz-adv-x="364" 
d="M184 230q-86 0 -116 53t-30 161q0 214 171 214q55 0 93 -20v-81q-46 23 -86 23q-81 0 -87 -92q30 20 75 20q126 0 126 -132q0 -59 -32.5 -102.5t-113.5 -43.5zM181 439q-27 0 -52 -16q1 -65 12.5 -92t42.5 -27q54 0 54 69q0 34 -12 50t-45 16z" />
    <glyph glyph-name="uni2077" unicode="&#x2077;" horiz-adv-x="364" 
d="M81 237l133 337h-161v76h258v-59l-136 -354h-94z" />
    <glyph glyph-name="uni2078" unicode="&#x2078;" horiz-adv-x="364" 
d="M182 230q-148 0 -148 103q0 39 20 64t57 48q-28 16 -49 44.5t-21 59.5q0 53 39.5 81t101.5 28q64 0 102.5 -27.5t38.5 -81.5q0 -31 -21 -59.5t-49 -44.5q37 -23 57 -48t20 -64q0 -53 -42 -78t-106 -25zM182 305q60 0 60 40q0 38 -60 63q-60 -25 -60 -63q0 -40 60 -40z
M182 484q54 23 54 59q0 40 -54 40t-54 -40q0 -36 54 -59z" />
    <glyph glyph-name="uni2079" unicode="&#x2079;" horiz-adv-x="364" 
d="M154 230q-55 0 -93 20v81q46 -23 86 -23q85 0 87 101q-28 -19 -75 -19q-126 0 -126 130q0 56 34 97t112 41q88 0 117 -53.5t29 -160.5q0 -214 -171 -214zM182 459q27 0 52 15q-2 60 -14 85t-41 25q-55 0 -55 -64q0 -30 12.5 -45.5t45.5 -15.5z" />
    <glyph glyph-name="uni2080" unicode="&#x2080;" horiz-adv-x="364" 
d="M182 -7q-54 0 -84 16t-47 63.5t-17 134.5q0 124 35 169t113 45q54 0 84 -16t47 -63.5t17 -134.5q0 -124 -35 -169t-113 -45zM182 71q35 0 45 26.5t10 109.5t-10 109.5t-45 26.5t-45 -26.5t-10 -109.5t10 -109.5t45 -26.5z" />
    <glyph glyph-name="uni2081" unicode="&#x2081;" horiz-adv-x="364" 
d="M68 0v76h76v248l-76 -22v79l105 32h61v-337h76v-76h-242z" />
    <glyph glyph-name="uni2082" unicode="&#x2082;" horiz-adv-x="364" 
d="M50 0v51q0 63 23 97t69 58q23 11 32.5 16.5t22.5 16t17.5 22t4.5 27.5q0 28 -14.5 40.5t-50.5 12.5q-43 0 -90 -22v82q46 20 99 20q78 0 113 -35.5t35 -91.5q0 -42 -20 -74.5t-41.5 -47.5t-58.5 -34q-26 -14 -36.5 -27t-12.5 -35h172v-76h-264z" />
    <glyph glyph-name="uni2083" unicode="&#x2083;" horiz-adv-x="364" 
d="M151 -7q-63 0 -101 19v83q43 -23 93 -23q80 0 80 52q0 66 -127 66v52l94 95h-138v76h254v-60l-105 -107q52 -10 83 -45t31 -77q0 -64 -42 -97.5t-122 -33.5z" />
    <glyph glyph-name="uni2084" unicode="&#x2084;" horiz-adv-x="364" 
d="M30 77v59l166 277h97l-162 -263h78v61h88v-61h51v-73h-51v-77h-88v77h-179z" />
    <glyph glyph-name="uni2085" unicode="&#x2085;" horiz-adv-x="364" 
d="M151 -7q-55 0 -101 19v83q43 -23 92 -23q81 0 81 52q0 66 -158 72l14 217h218v-76h-139l-6 -72q78 -9 120 -47t42 -97q0 -61 -42 -94.5t-121 -33.5z" />
    <glyph glyph-name="uni2086" unicode="&#x2086;" horiz-adv-x="364" 
d="M184 -7q-86 0 -116 53t-30 161q0 214 171 214q55 0 93 -20v-81q-46 23 -86 23q-81 0 -87 -92q30 20 75 20q126 0 126 -132q0 -59 -32.5 -102.5t-113.5 -43.5zM181 202q-27 0 -52 -16q1 -65 12.5 -92t42.5 -27q54 0 54 69q0 34 -12 50t-45 16z" />
    <glyph glyph-name="uni2087" unicode="&#x2087;" horiz-adv-x="364" 
d="M81 0l133 337h-161v76h258v-59l-136 -354h-94z" />
    <glyph glyph-name="uni2088" unicode="&#x2088;" horiz-adv-x="364" 
d="M182 -7q-148 0 -148 103q0 39 20 64t57 48q-28 16 -49 44.5t-21 59.5q0 53 39.5 81t101.5 28q64 0 102.5 -27.5t38.5 -81.5q0 -31 -21 -59.5t-49 -44.5q37 -23 57 -48t20 -64q0 -53 -42 -78t-106 -25zM182 68q60 0 60 40q0 38 -60 63q-60 -25 -60 -63q0 -40 60 -40z
M182 247q54 23 54 59q0 40 -54 40t-54 -40q0 -36 54 -59z" />
    <glyph glyph-name="uni2089" unicode="&#x2089;" horiz-adv-x="364" 
d="M154 -7q-55 0 -93 20v81q46 -23 86 -23q85 0 87 101q-28 -19 -75 -19q-126 0 -126 130q0 56 34 97t112 41q88 0 117 -53.5t29 -160.5q0 -214 -171 -214zM182 222q27 0 52 15q-2 60 -14 85t-41 25q-55 0 -55 -64q0 -30 12.5 -45.5t45.5 -15.5z" />
    <glyph glyph-name="Euro" unicode="&#x20ac;" horiz-adv-x="504" 
d="M30 359v87h75q7 96 62.5 156t167.5 60q34 0 72.5 -8t56.5 -18v-100q-56 28 -125 28q-105 0 -119 -118h185v-87h-188v-68h188v-87h-185q14 -118 119 -118q69 0 125 28v-100q-18 -10 -56.5 -18t-72.5 -8q-112 0 -167.5 59.5t-62.5 156.5h-75v87h73v68h-73z" />
    <glyph glyph-name="trademark" unicode="&#x2122;" horiz-adv-x="563" 
d="M272 371v279h89l35 -126l35 126h87v-279h-71v54q0 65 10 127l-36 -113h-52l-36 113q10 -74 10 -127v-54h-71zM5 585v65h214v-65h-70v-214h-74v214h-70z" />
    <glyph glyph-name="Omega" unicode="&#x2126;" horiz-adv-x="514" 
d="M27 0v92h84q-61 111 -61 262q0 120 24.5 188.5t67.5 94t115 25.5q73 0 116 -24.5t67 -93t24 -190.5q0 -149 -62 -262h85v-92h-197v76q60 114 60 267q0 127 -18.5 175t-74.5 48t-74.5 -48t-18.5 -175q0 -153 60 -267v-76h-197z" />
    <glyph glyph-name="uni2190" unicode="&#x2190;" horiz-adv-x="700" 
d="M287 57l-268 268l268 268l68 -68l-159 -158q24 7 42 7h443v-98h-443q-24 0 -42 7l159 -158z" />
    <glyph glyph-name="uni2191" unicode="&#x2191;" horiz-adv-x="700" 
d="M150 326l-68 68l268 268l268 -268l-68 -68l-158 159q7 -25 7 -42v-443h-98v443q0 22 7 42z" />
    <glyph glyph-name="uni2192" unicode="&#x2192;" horiz-adv-x="700" 
d="M413 57l-68 68l159 158q-20 -7 -42 -7h-443v98h443q18 0 42 -7l-159 158l68 68l268 -268z" />
    <glyph glyph-name="uni2193" unicode="&#x2193;" horiz-adv-x="700" 
d="M350 -12l-268 268l68 68l158 -159q-7 20 -7 42v443h98v-443q0 -19 -7 -42l158 159l68 -68z" />
    <glyph glyph-name="uni2196" unicode="&#x2196;" horiz-adv-x="700" 
d="M98 180v379h379v-96h-224q18 -10 34 -24l314 -313l-70 -70l-313 314q-14 12 -24 33v-223h-96z" />
    <glyph glyph-name="uni2197" unicode="&#x2197;" horiz-adv-x="700" 
d="M505 180v223q-11 -19 -24 -33l-313 -314l-70 70l314 313q11 11 33 24h-223v96h379v-379h-96z" />
    <glyph glyph-name="uni2198" unicode="&#x2198;" horiz-adv-x="700" 
d="M222 56v96h223q-19 9 -33 24l-314 313l70 70l313 -314q14 -16 24 -34v224h96v-379h-379z" />
    <glyph glyph-name="uni2199" unicode="&#x2199;" horiz-adv-x="700" 
d="M98 56v379h96v-224q9 19 24 34l313 314l70 -70l-314 -313q-15 -15 -34 -24h224v-96h-379z" />
    <glyph glyph-name="partialdiff" unicode="&#x2202;" 
d="M225 -12q-177 0 -177 212t154 212q51 0 94 -20q-1 39 -5.5 67t-16 55t-35 41t-59.5 14q-56 0 -102 -26v92q42 27 108 27t109.5 -22t66.5 -69t31.5 -105t8.5 -145q0 -140 -18.5 -212.5t-54.5 -96.5t-104 -24zM225 82q42 0 56.5 36t14.5 132v55q-37 13 -71 13
q-42 0 -56.5 -25.5t-14.5 -92.5q0 -61 15 -89.5t56 -28.5z" />
    <glyph glyph-name="Delta" unicode="&#x2206;" horiz-adv-x="468" 
d="M2 0l175 650h114l175 -650h-464zM190 325l-62 -236h210l-62 236q-30 113 -43 185q-13 -72 -43 -185z" />
    <glyph glyph-name="product" unicode="&#x220f;" horiz-adv-x="540" 
d="M355 -150v708h-170v-708h-110v800h390v-800h-110z" />
    <glyph glyph-name="summation" unicode="&#x2211;" horiz-adv-x="387" 
d="M25 -150v77l148 321l-148 325v77h337v-92h-215l141 -308l-143 -308h217v-92h-337z" />
    <glyph glyph-name="minus" unicode="&#x2212;" horiz-adv-x="470" 
d="M45 282v91h380v-91h-380z" />
    <glyph glyph-name="radical" unicode="&#x221a;" horiz-adv-x="419" 
d="M153 0l-110 409h-78v91h163l64 -266q11 -47 18 -121q10 89 19 121l103 416h108l-174 -650h-113z" />
    <glyph glyph-name="infinity" unicode="&#x221e;" horiz-adv-x="671" 
d="M494 73q-89 0 -159 99q-70 -99 -158 -99q-137 0 -137 177t137 177q88 0 158 -99q70 99 159 99q137 0 137 -177t-137 -177zM188 161q49 0 100 89q-52 89 -100 89q-29 0 -41 -21.5t-12 -67.5t12 -67.5t41 -21.5zM483 339q-47 0 -101 -89q53 -89 101 -89q29 0 41 21.5
t12 67.5t-12 67.5t-41 21.5z" />
    <glyph glyph-name="integral" unicode="&#x222b;" horiz-adv-x="234" 
d="M-26 -150v87h29q35 0 48.5 13t13.5 50v510q0 81 36.5 110.5t101.5 29.5h57v-87h-29q-35 0 -48.5 -13t-13.5 -50v-510q0 -81 -36.5 -110.5t-101.5 -29.5h-57z" />
    <glyph glyph-name="approxequal" unicode="&#x2248;" horiz-adv-x="470" 
d="M335 169q-38 0 -108 23t-104 23q-46 0 -78 -30v83q10 14 35.5 25.5t54.5 11.5q38 0 108 -23t104 -23q46 0 78 30v-83q-10 -14 -35.5 -25.5t-54.5 -11.5zM335 352q-38 0 -108 23t-104 23q-46 0 -78 -30v83q10 14 35.5 25.5t54.5 11.5q38 0 108 -23t104 -23q46 0 78 30v-83
q-10 -14 -35.5 -25.5t-54.5 -11.5z" />
    <glyph glyph-name="notequal" unicode="&#x2260;" horiz-adv-x="470" 
d="M45 373v91h222l46 86h82l-46 -86h76v-91h-125l-49 -91h174v-91h-223l-46 -86h-82l46 86h-75v91h124l49 91h-173z" />
    <glyph glyph-name="lessequal" unicode="&#x2264;" horiz-adv-x="476" 
d="M45 0v91h380v-91h-380zM392 127l-347 165v70l347 165l39 -80l-259 -120l259 -120z" />
    <glyph glyph-name="greaterequal" unicode="&#x2265;" horiz-adv-x="476" 
d="M51 0v91h380v-91h-380zM84 127l-39 80l258 120l-258 120l39 80l347 -165v-70z" />
    <glyph glyph-name="lozenge" unicode="&#x25ca;" horiz-adv-x="467" 
d="M178 0l-163 325l163 325h112l162 -325l-162 -325h-112zM185 203q38 -76 49 -117q11 41 49 117l61 122l-61 122q-37 71 -49 117q-12 -46 -49 -117l-61 -122z" />
    <glyph glyph-name="zero.alt" horiz-adv-x="514" 
d="M256 276q-50 0 -50 49t50 49t50 -49t-50 -49zM257 -12q-56 0 -92 13.5t-63.5 50.5t-39.5 103.5t-12 169.5q0 134 24.5 209t67.5 101.5t115 26.5q75 0 117.5 -26t66 -100.5t23.5 -210.5q0 -102 -12.5 -168.5t-40.5 -103.5t-64 -51t-90 -14zM257 84q58 0 75.5 47.5
t17.5 193.5t-17.5 193.5t-75.5 47.5t-75.5 -47.5t-17.5 -193.5t17.5 -193.5t75.5 -47.5z" />
    <glyph glyph-name="apple" horiz-adv-x="670" 
d="M306 115q-63 0 -103.5 49.5t-40.5 138.5q0 66 30.5 114t86.5 66q-73 -48 -73 -175q0 -69 28.5 -114.5t74.5 -45.5q22 0 36.5 9.5t15.5 22.5l-1 1q-12 -4 -33 -4q-33 0 -54 39t-21 98q0 171 110 171q63 0 103.5 -49.5t40.5 -138.5q0 -65 -31 -114t-87 -67q74 49 74 176
q0 69 -28.5 114.5t-74.5 45.5q-22 0 -36.5 -9.5t-15.5 -22.5l1 -1q12 4 33 4q33 0 54 -39t21 -98q0 -171 -110 -171zM308 79q112 0 178.5 60t66.5 165q0 104 -55 160.5t-138 56.5q-112 0 -178.5 -60t-66.5 -165q0 -104 55 -160.5t138 -56.5zM40 0v590h590v-590h-590z" />
    <glyph glyph-name="zero.tnum" horiz-adv-x="500" 
d="M250 -12q-56 0 -92 13.5t-63.5 50.5t-39.5 103.5t-12 169.5q0 134 24.5 209t67.5 101.5t115 26.5q75 0 117.5 -26t66 -100.5t23.5 -210.5q0 -102 -12.5 -168.5t-40.5 -103.5t-64 -51t-90 -14zM250 84q58 0 75.5 47.5t17.5 193.5t-17.5 193.5t-75.5 47.5t-75.5 -47.5
t-17.5 -193.5t17.5 -193.5t75.5 -47.5z" />
    <glyph glyph-name="zero.tnum_alt" horiz-adv-x="500" 
d="M249 275q-23 0 -36.5 13t-13.5 37q0 23 13.5 36t36.5 13q49 0 49 -49q0 -50 -49 -50zM250 -12q-56 0 -92 13.5t-63.5 50.5t-39.5 103.5t-12 169.5q0 134 24.5 209t67.5 101.5t115 26.5q75 0 117.5 -26t66 -100.5t23.5 -210.5q0 -102 -12.5 -168.5t-40.5 -103.5t-64 -51
t-90 -14zM250 84q58 0 75.5 47.5t17.5 193.5t-17.5 193.5t-75.5 47.5t-75.5 -47.5t-17.5 -193.5t17.5 -193.5t75.5 -47.5z" />
    <glyph glyph-name="one.tnum" horiz-adv-x="500" 
d="M111 0v92h112v447l-112 -35v96l144 50h78v-558h112v-92h-334z" />
    <glyph glyph-name="two.tnum" horiz-adv-x="500" 
d="M66 0v67q0 98 32.5 151.5t97.5 90.5q36 21 50 30t34.5 28t27.5 40.5t7 52.5q0 56 -23.5 80t-83.5 24q-66 0 -121 -30v100q56 28 134 28q109 0 158 -53.5t49 -139.5q0 -40 -10 -73.5t-23 -55.5t-38.5 -43.5t-43.5 -33.5t-50 -30q-45 -26 -64.5 -54.5t-22.5 -86.5h256v-92
h-366z" />
    <glyph glyph-name="three.tnum" horiz-adv-x="500" 
d="M202 -12q-81 0 -137 28v100q55 -30 125 -30q65 0 97.5 24t32.5 78q0 120 -187 126v62l144 182h-209v92h351v-76l-150 -186q163 -36 163 -204q0 -94 -59 -145t-171 -51z" />
    <glyph glyph-name="four.tnum" horiz-adv-x="500" 
d="M40 127v76l238 447h118l-231 -431h135v130h110v-130h75v-92h-75v-127h-110v127h-260z" />
    <glyph glyph-name="five.tnum" horiz-adv-x="500" 
d="M209 -12q-81 0 -137 28v100q55 -30 125 -30q65 0 97.5 24t32.5 78q0 38 -17.5 64t-52 40.5t-72.5 21.5t-90 10l11 326h308v-92h-205l-6 -149q236 -35 236 -225q0 -94 -59 -145t-171 -51z" />
    <glyph glyph-name="six.tnum" horiz-adv-x="500" 
d="M254 -12q-51 0 -87.5 15t-59 41.5t-35.5 70.5t-17.5 92.5t-4.5 117.5q0 337 241 337q77 0 125 -29v-100q-54 31 -115 31q-70 0 -102 -43.5t-36 -139.5q44 37 111 37q100 0 141.5 -54t41.5 -158q0 -38 -8.5 -72.5t-29 -69t-63 -55.5t-102.5 -21zM257 323q-53 0 -94 -29
q2 -119 20 -165t71 -46t72 32t19 88q0 61 -19 90.5t-69 29.5z" />
    <glyph glyph-name="seven.tnum" horiz-adv-x="500" 
d="M118 0l194 558h-242v92h357v-77l-195 -573h-114z" />
    <glyph glyph-name="eight.tnum" horiz-adv-x="500" 
d="M250 -12q-101 0 -154 38.5t-53 125.5q0 107 118 175q-107 64 -107 172q0 80 53.5 121.5t142.5 41.5q91 0 143.5 -41t52.5 -122q0 -53 -29 -98t-79 -74q119 -68 119 -175q0 -164 -207 -164zM250 82q50 0 72.5 18.5t22.5 61.5q0 62 -97 114q-93 -50 -93 -114
q0 -43 22.5 -61.5t72.5 -18.5zM164 491q0 -58 88 -109q84 50 84 109q0 42 -20.5 59.5t-65.5 17.5t-65.5 -17.5t-20.5 -59.5z" />
    <glyph glyph-name="nine.tnum" horiz-adv-x="500" 
d="M209 -12q-77 0 -125 29v100q54 -31 115 -31q74 0 105 44t33 144q-48 -32 -111 -32q-183 0 -183 207q0 38 8.5 71.5t29 67.5t63 54t102.5 20q51 0 87.5 -15t59 -41.5t35.5 -70.5t17.5 -92.5t4.5 -117.5q0 -167 -56.5 -252t-184.5 -85zM243 337q48 0 94 23
q-2 116 -20.5 161.5t-70.5 45.5q-53 0 -72 -30t-19 -85q0 -60 19 -87.5t69 -27.5z" />
    <glyph glyph-name="dollar.tnum" horiz-adv-x="500" 
d="M193 -100v89q-68 3 -103 25v100q51 -28 116 -28q91 0 91 74q0 34 -14 55t-49 51l-53 45q-49 42 -70.5 79t-21.5 96q0 60 31.5 104t91.5 62v98h91v-89q62 -5 93 -24v-100q-46 27 -102 27q-91 0 -91 -74q0 -34 14 -55t49 -51l53 -45q49 -42 70.5 -79t21.5 -96
q0 -61 -33 -106t-94 -61v-97h-91z" />
    <glyph glyph-name="cent.tnum" horiz-adv-x="500" 
d="M230 -100v95q-38 9 -63 31.5t-37 58t-16.5 73.5t-4.5 92q0 122 30.5 181.5t90.5 74.5v94h91v-90q42 -5 72 -22v-95q-37 23 -92 23q-52 0 -68.5 -32t-16.5 -134q0 -100 16 -133t63 -34q57 0 102 26v-94q-30 -19 -76 -25v-90h-91z" />
    <glyph glyph-name="sterling.tnum" horiz-adv-x="500" 
d="M68 283v87h78v66q0 114 45 170t144 56q71 0 107 -26v-96q-38 26 -97 26q-58 0 -74.5 -35t-16.5 -115v-46h159v-87h-159v-196h188v-87h-374v87h78v196h-78z" />
    <glyph glyph-name="yen.tnum" horiz-adv-x="500" 
d="M75 265v87h82l-137 298h119l72 -170q26 -66 40 -122q17 66 40 122l72 170h117l-138 -298h83v-87h-120v-68h120v-87h-120v-110h-110v110h-120v87h120v68h-120z" />
    <glyph glyph-name="Euro.tnum" horiz-adv-x="500" 
d="M27 359v87h75q7 96 62.5 156t167.5 60q34 0 72.5 -8t56.5 -18v-100q-56 28 -125 28q-105 0 -119 -118h185v-87h-188v-68h188v-87h-185q14 -118 119 -118q69 0 125 28v-100q-18 -10 -56.5 -18t-72.5 -8q-112 0 -167.5 59.5t-62.5 156.5h-75v87h73v68h-73z" />
    <glyph glyph-name="currency.tnum" horiz-adv-x="500" 
d="M419 70l-60 61q-39 -28 -109 -28t-109 28l-60 -61l-65 65l72 73q-15 46 -15 117t15 117l-72 73l65 65l60 -61q39 28 109 28t109 -28l60 61l65 -65l-72 -73q15 -46 15 -117t-15 -117l72 -73zM250 197q41 0 56 29t15 99t-15 99t-56 29t-56 -29t-15 -99t15 -99t56 -29z" />
    <glyph glyph-name="florin.tnum" horiz-adv-x="500" 
d="M47 280v92h113v80q0 210 184 210q69 0 97 -22v-94q-31 20 -83 20q-56 0 -73 -29.5t-17 -95.5v-69h154v-92h-154v-430h-108v430h-113z" />
    <glyph glyph-name="period.tnum" horiz-adv-x="200" 
d="M100 -12q-29 0 -46 16.5t-17 46.5t17 46.5t46 16.5t46 -16.5t17 -46.5t-17 -46.5t-46 -16.5z" />
    <glyph glyph-name="comma.tnum" horiz-adv-x="200" 
d="M37 -150q16 56 16 97q0 27 -8 59t-8 45q0 29 16 46t47 17q30 0 46.5 -17.5t16.5 -48.5q0 -69 -50 -198h-76z" />
    <glyph glyph-name="a.alt" horiz-adv-x="458" 
d="M319 0l-9 29q-48 -41 -111 -41q-82 0 -116.5 58t-34.5 204q0 142 35.5 202t111.5 60q66 0 116 -40l8 28h74v-500h-74zM226 82q33 0 63 19v298q-30 19 -63 19q-43 0 -57 -33.5t-14 -134.5t14 -134.5t57 -33.5z" />
    <glyph glyph-name="aacute.alt" horiz-adv-x="458" 
d="M319 0l-9 29q-48 -41 -111 -41q-82 0 -116.5 58t-34.5 204q0 142 35.5 202t111.5 60q66 0 116 -40l8 28h74v-500h-74zM226 82q33 0 63 19v298q-30 19 -63 19q-43 0 -57 -33.5t-14 -134.5t14 -134.5t57 -33.5zM161 564l58 96h126l-95 -96h-89z" />
    <glyph glyph-name="agrave.alt" horiz-adv-x="458" 
d="M319 0l-9 29q-48 -41 -111 -41q-82 0 -116.5 58t-34.5 204q0 142 35.5 202t111.5 60q66 0 116 -40l8 28h74v-500h-74zM226 82q33 0 63 19v298q-30 19 -63 19q-43 0 -57 -33.5t-14 -134.5t14 -134.5t57 -33.5zM190 564l-95 96h126l58 -96h-89z" />
    <glyph glyph-name="acircumflex.alt" horiz-adv-x="458" 
d="M319 0l-9 29q-48 -41 -111 -41q-82 0 -116.5 58t-34.5 204q0 142 35.5 202t111.5 60q66 0 116 -40l8 28h74v-500h-74zM226 82q33 0 63 19v298q-30 19 -63 19q-43 0 -57 -33.5t-14 -134.5t14 -134.5t57 -33.5zM94 548v69l126 60l126 -60v-69l-126 38z" />
    <glyph glyph-name="adieresis.alt" horiz-adv-x="458" 
d="M319 0l-9 29q-48 -41 -111 -41q-82 0 -116.5 58t-34.5 204q0 142 35.5 202t111.5 60q66 0 116 -40l8 28h74v-500h-74zM226 82q33 0 63 19v298q-30 19 -63 19q-43 0 -57 -33.5t-14 -134.5t14 -134.5t57 -33.5zM135 552q-28 0 -44 16t-16 44t16 44t44 16t44 -16t16 -44
t-16 -44t-44 -16zM305 552q-28 0 -44 16t-16 44t16 44t44 16t44 -16t16 -44t-16 -44t-44 -16z" />
    <glyph glyph-name="atilde.alt" horiz-adv-x="448" 
d="M319 0l-9 29q-48 -41 -111 -41q-82 0 -116.5 58t-34.5 204q0 142 35.5 202t111.5 60q66 0 116 -40l8 28h74v-500h-74zM226 82q33 0 63 19v298q-30 19 -63 19q-43 0 -57 -33.5t-14 -134.5t14 -134.5t57 -33.5zM268 555q-26 0 -58 20.5t-51 20.5q-29 0 -56 -27v70
q9 14 28 26t42 12q26 0 58 -20.5t51 -20.5q29 0 56 27v-70q-9 -14 -28 -26t-42 -12z" />
    <glyph glyph-name="aring.alt" horiz-adv-x="458" 
d="M319 0l-9 29q-48 -41 -111 -41q-82 0 -116.5 58t-34.5 204q0 142 35.5 202t111.5 60q66 0 116 -40l8 28h74v-500h-74zM226 82q33 0 63 19v298q-30 19 -63 19q-43 0 -57 -33.5t-14 -134.5t14 -134.5t57 -33.5zM220 547q-50 0 -81 29.5t-31 80.5t31.5 80.5t80.5 29.5
q50 0 81 -29.5t31 -80.5t-31.5 -80.5t-80.5 -29.5zM220 608q21 0 34.5 12.5t13.5 36.5t-13.5 36.5t-34.5 12.5t-34.5 -12.5t-13.5 -36.5t13.5 -36.5t34.5 -12.5z" />
    <glyph glyph-name="amacron.alt" horiz-adv-x="458" 
d="M319 0l-9 29q-48 -41 -111 -41q-82 0 -116.5 58t-34.5 204q0 142 35.5 202t111.5 60q66 0 116 -40l8 28h74v-500h-74zM226 82q33 0 63 19v298q-30 19 -63 19q-43 0 -57 -33.5t-14 -134.5t14 -134.5t57 -33.5zM94 572v83h252v-83h-252z" />
    <glyph glyph-name="abreve.alt" horiz-adv-x="458" 
d="M319 0l-9 29q-48 -41 -111 -41q-82 0 -116.5 58t-34.5 204q0 142 35.5 202t111.5 60q66 0 116 -40l8 28h74v-500h-74zM226 82q33 0 63 19v298q-30 19 -63 19q-43 0 -57 -33.5t-14 -134.5t14 -134.5t57 -33.5zM220 553q-53 0 -87.5 25t-44.5 47l36 54q34 -43 96 -43t96 43
l36 -54q-10 -22 -44.5 -47t-87.5 -25z" />
    <glyph glyph-name="aogonek.alt" horiz-adv-x="458" 
d="M329 -162q-31 0 -53.5 14t-22.5 43q0 47 66 105l-9 29q-48 -41 -111 -41q-82 0 -116.5 58t-34.5 204q0 142 35.5 202t111.5 60q66 0 116 -40l8 28h74v-500q-17 -11 -39.5 -35t-22.5 -39q0 -20 33 -20q14 0 29 3v-59q-24 -12 -64 -12zM226 82q33 0 63 19v298
q-30 19 -63 19q-43 0 -57 -33.5t-14 -134.5t14 -134.5t57 -33.5z" />
    <glyph glyph-name="g.alt" horiz-adv-x="435" 
d="M205 143q-33 0 -58 6q-11 -16 -11 -31q0 -35 63 -35h75q67 0 100 -31t33 -76q0 -138 -209 -138q-173 0 -173 96q0 55 55 86q-39 22 -39 67q0 54 53 87q-51 42 -51 153q0 98 40 141.5t122 43.5q72 0 110 -32q28 32 73 32q26 0 42 -8v-92h-73q10 -34 10 -85q0 -98 -40 -141
t-122 -43zM205 229q38 0 50 23t12 75t-12 75t-50 23t-50 -23t-12 -75t12 -75t50 -23zM200 -7q-36 0 -64 6q-12 -15 -12 -35q0 -49 82 -49q98 0 98 47q0 17 -12.5 24t-45.5 7h-46z" />
    <glyph glyph-name="gbreve.alt" horiz-adv-x="435" 
d="M205 143q-33 0 -58 6q-11 -16 -11 -31q0 -35 63 -35h75q67 0 100 -31t33 -76q0 -138 -209 -138q-173 0 -173 96q0 55 55 86q-39 22 -39 67q0 54 53 87q-51 42 -51 153q0 98 40 141.5t122 43.5q72 0 110 -32q28 32 73 32q26 0 42 -8v-92h-73q10 -34 10 -85q0 -98 -40 -141
t-122 -43zM205 229q38 0 50 23t12 75t-12 75t-50 23t-50 -23t-12 -75t12 -75t50 -23zM200 -7q-36 0 -64 6q-12 -15 -12 -35q0 -49 82 -49q98 0 98 47q0 17 -12.5 24t-45.5 7h-46zM205 553q-53 0 -87.5 25t-44.5 47l36 54q34 -43 96 -43t96 43l36 -54q-10 -22 -44.5 -47
t-87.5 -25z" />
    <glyph glyph-name="gcircumflex.alt" horiz-adv-x="435" 
d="M205 143q-33 0 -58 6q-11 -16 -11 -31q0 -35 63 -35h75q67 0 100 -31t33 -76q0 -138 -209 -138q-173 0 -173 96q0 55 55 86q-39 22 -39 67q0 54 53 87q-51 42 -51 153q0 98 40 141.5t122 43.5q72 0 110 -32q28 32 73 32q26 0 42 -8v-92h-73q10 -34 10 -85q0 -98 -40 -141
t-122 -43zM205 229q38 0 50 23t12 75t-12 75t-50 23t-50 -23t-12 -75t12 -75t50 -23zM200 -7q-36 0 -64 6q-12 -15 -12 -35q0 -49 82 -49q98 0 98 47q0 17 -12.5 24t-45.5 7h-46zM79 548v69l126 60l126 -60v-69l-126 38z" />
    <glyph glyph-name="gcommaaccent.alt" horiz-adv-x="435" 
d="M205 143q-33 0 -58 6q-11 -16 -11 -31q0 -35 63 -35h75q67 0 100 -31t33 -76q0 -138 -209 -138q-173 0 -173 96q0 55 55 86q-39 22 -39 67q0 54 53 87q-51 42 -51 153q0 98 40 141.5t122 43.5q72 0 110 -32q28 32 73 32q26 0 42 -8v-92h-73q10 -34 10 -85q0 -98 -40 -141
t-122 -43zM205 229q38 0 50 23t12 75t-12 75t-50 23t-50 -23t-12 -75t12 -75t50 -23zM200 -7q-36 0 -64 6q-12 -15 -12 -35q0 -49 82 -49q98 0 98 47q0 17 -12.5 24t-45.5 7h-46zM205 556q-48 0 -48 52q0 46 39 132h55q-13 -40 -13 -67q0 -19 7 -41.5t7 -31.5
q0 -20 -12.5 -32t-34.5 -12z" />
    <glyph glyph-name="gdotaccent.alt" horiz-adv-x="435" 
d="M205 143q-33 0 -58 6q-11 -16 -11 -31q0 -35 63 -35h75q67 0 100 -31t33 -76q0 -138 -209 -138q-173 0 -173 96q0 55 55 86q-39 22 -39 67q0 54 53 87q-51 42 -51 153q0 98 40 141.5t122 43.5q72 0 110 -32q28 32 73 32q26 0 42 -8v-92h-73q10 -34 10 -85q0 -98 -40 -141
t-122 -43zM205 229q38 0 50 23t12 75t-12 75t-50 23t-50 -23t-12 -75t12 -75t50 -23zM200 -7q-36 0 -64 6q-12 -15 -12 -35q0 -49 82 -49q98 0 98 47q0 17 -12.5 24t-45.5 7h-46zM205 552q-28 0 -44 16t-16 44t16 44t44 16t44 -16t16 -44t-16 -44t-44 -16z" />
    <glyph glyph-name="ampersand.alt" horiz-adv-x="648" 
d="M319 -12q-62 0 -108 10.5t-84.5 36.5t-58.5 75.5t-20 121.5q0 122 43.5 176t128.5 54q88 0 130 -52t42 -190v-28h-238q6 -70 46.5 -93t118.5 -23q183 0 183 184q0 303 -302 303h-62v87h437v-84h-128q62 -30 107.5 -106t45.5 -200q0 -135 -73.5 -203.5t-207.5 -68.5z
M220 378q-36 0 -50 -25t-16 -86h132q-2 61 -16.5 86t-49.5 25z" />
    <glyph glyph-name="uni2070.alt" horiz-adv-x="364" 
d="M182 230q-54 0 -84 16t-47 63.5t-17 134.5q0 124 35 169t113 45q54 0 84 -16t47 -63.5t17 -134.5q0 -124 -35 -169t-113 -45zM182 308q35 0 45 26.5t10 109.5t-10 109.5t-45 26.5t-45 -26.5t-10 -109.5t10 -109.5t45 -26.5zM182 415q-30 0 -30 29t30 29t30 -29t-30 -29z
" />
    <glyph glyph-name="uni2080.alt" horiz-adv-x="364" 
d="M182 -7q-54 0 -84 16t-47 63.5t-17 134.5q0 124 35 169t113 45q54 0 84 -16t47 -63.5t17 -134.5q0 -124 -35 -169t-113 -45zM182 71q35 0 45 26.5t10 109.5t-10 109.5t-45 26.5t-45 -26.5t-10 -109.5t10 -109.5t45 -26.5zM182 178q-30 0 -30 29t30 29t30 -29t-30 -29z
" />
    </font>
</defs>
</svg>
